# Blender 5.2.1 LTS
# www.blender.org
o s060_mech_connect_to_cutoff_rod.001
v -75.296265 -0.845754 114.503075
v -75.296265 -1.752094 113.597221
v -75.296265 -1.427849 114.179138
v -75.296265 1.859126 113.596298
v -75.296265 0.953279 114.502647
v -75.296265 1.535170 114.178383
v -75.296349 1.828181 -0.904349
v -75.296349 -1.783029 -0.903437
v -75.296349 0.921863 -1.810214
v -75.296349 1.503938 -1.486256
v -75.296349 -0.877166 -1.809757
v -75.296349 -1.459071 -1.485512
v -76.752060 1.828190 -0.904349
v -76.752060 0.921873 -1.810213
v -76.752060 1.503938 -1.486256
v -76.752060 -1.783029 -0.903437
v -76.752060 -0.877166 -1.809757
v -76.752060 -1.459072 -1.485491
v -76.751976 -1.752084 113.597221
v -76.751976 1.859133 113.596321
v -76.751976 -0.845756 114.503098
v -76.751976 -1.427829 114.179108
v -76.751976 0.953279 114.502647
v -76.751976 1.535177 114.178413
v 75.296257 -0.845753 114.503075
v 75.296257 -1.752093 113.597221
v 75.296257 -1.427848 114.179138
v 75.296257 1.859127 113.596298
v 75.296257 0.953280 114.502647
v 75.296257 1.535171 114.178383
v 75.296341 1.828171 -0.904350
v 75.296341 -1.783039 -0.903437
v 75.296341 0.921854 -1.810214
v 75.296341 1.503928 -1.486256
v 75.296341 -0.877175 -1.809757
v 75.296341 -1.459080 -1.485512
v 76.752052 1.828181 -0.904349
v 76.752052 0.921863 -1.810213
v 76.752052 1.503928 -1.486256
v 76.752052 -1.783039 -0.903437
v 76.752052 -0.877175 -1.809757
v 76.752052 -1.459082 -1.485491
v 76.751968 -1.752083 113.597221
v 76.751968 1.859134 113.596321
v 76.751968 -0.845755 114.503098
v 76.751968 -1.427828 114.179108
v 76.751968 0.953280 114.502647
v 76.751968 1.535178 114.178413
vn 1.0000 -0.0000 -0.0000
vn -0.0000 -0.2516 -0.9678
vn -0.0000 -0.4868 -0.8735
vn -1.0000 -0.0000 -0.0000
vn -0.0000 0.4868 0.8735
vn -0.0000 0.2516 0.9678
vn -0.0000 0.4863 -0.8738
vn -0.0000 0.2511 -0.9680
vn -0.0000 -0.2511 0.9680
vn -0.0000 -0.4863 0.8738
vn -0.0000 0.9680 0.2511
vn -0.0000 0.8738 0.4863
vn -0.0000 -0.8735 0.4868
vn -0.0000 -0.9678 0.2516
vn -0.0000 -0.8735 0.4867
vn -0.0000 -0.9680 -0.2511
vn -0.0000 0.9678 -0.2516
vn -0.0000 0.8735 -0.4868
vn -0.0000 -0.8738 -0.4863
vn -0.0000 0.8735 -0.4867
vt 0.910342 0.002019
vt 0.910863 0.002974
vt 0.909386 0.001496
vt 0.904942 0.002973
vt 0.906431 0.001496
vt 0.905476 0.002018
vt 0.457601 0.822943
vt 0.459679 0.825998
vt 0.457079 0.823921
vt 0.910862 0.218084
vt 0.906396 0.219583
vt 0.904953 0.218083
vt 0.905474 0.219016
vt 0.909362 0.219583
vt 0.910329 0.219017
vt 0.456968 0.819200
vt 0.457523 0.820210
vt 0.455946 0.818555
vt 0.456080 0.824443
vt 0.272118 0.818966
vt 0.267975 0.818511
vt 0.269308 0.816556
vt 0.273152 0.818333
vt 0.273330 0.824276
vt 0.271752 0.822699
vt 0.272274 0.823721
vt 0.271663 0.819988
vt 0.460023 0.816933
vt 0.269719 0.826020
vt 0.268509 0.824309
vt 0.271030 0.815189
vt 0.271253 0.827542
vt 0.458224 0.827531
vt 0.458412 0.815189
vt 0.461000 0.818910
vt 0.460623 0.824276
s 1
f 3/1/1 2/2/1 1/3/1
f 1/3/1 2/2/1 4/4/1
f 4/4/1 5/5/1 1/3/1
f 6/6/1 5/5/1 4/4/1
f 17/7/2 12/8/3 18/9/3
f 8/10/1 9/11/1 7/12/1
f 10/13/1 7/12/1 9/11/1
f 9/11/1 8/10/1 11/14/1
f 11/14/1 8/10/1 12/15/1
f 15/16/4 14/17/4 13/18/4
f 13/18/4 14/17/4 16/19/4
f 17/7/4 16/19/4 14/17/4
f 16/19/4 17/7/4 18/9/4
f 24/20/5 5/21/6 6/22/5
f 20/23/4 19/24/4 21/25/4
f 22/26/4 21/25/4 19/24/4
f 23/27/4 20/23/4 21/25/4
f 24/20/4 20/23/4 23/27/4
f 10/28/7 14/17/8 15/16/7
f 21/25/9 3/29/10 1/30/9
f 7/12/1 2/2/1 8/10/1
f 19/24/4 13/18/4 16/19/4
f 20/23/11 6/22/12 4/31/11
f 22/26/13 2/32/14 3/29/15
f 8/33/16 19/24/14 16/19/16
f 7/34/17 15/16/18 13/18/17
f 18/9/19 8/33/16 16/19/16
f 4/31/11 13/18/17 20/23/11
f 1/30/9 23/27/6 21/25/9
f 9/35/8 17/7/2 14/17/8
f 27/1/1 26/2/1 25/3/1
f 25/3/1 26/2/1 28/4/1
f 28/4/1 29/5/1 25/3/1
f 30/6/1 29/5/1 28/4/1
f 41/7/6 36/8/5 42/9/5
f 32/10/1 33/11/1 31/12/1
f 34/13/1 31/12/1 33/11/1
f 33/11/1 32/10/1 35/14/1
f 35/14/1 32/10/1 36/15/1
f 39/16/4 38/17/4 37/18/4
f 37/18/4 38/17/4 40/19/4
f 41/7/4 40/19/4 38/17/4
f 40/19/4 41/7/4 42/9/4
f 48/20/3 29/21/2 30/22/3
f 44/23/4 43/24/4 45/25/4
f 46/26/4 45/25/4 43/24/4
f 47/27/4 44/23/4 45/25/4
f 48/20/4 44/23/4 47/27/4
f 34/28/10 38/17/9 39/16/10
f 45/25/8 27/29/7 25/30/8
f 31/12/1 26/2/1 32/10/1
f 43/24/4 37/18/4 40/19/4
f 44/23/16 30/22/19 28/31/16
f 46/26/18 26/32/17 27/29/20
f 32/33/11 43/24/17 40/19/11
f 31/34/14 39/16/13 37/18/14
f 42/9/12 32/33/11 40/19/11
f 28/31/16 37/18/14 44/23/16
f 25/30/8 47/27/2 45/25/8
f 33/35/9 41/7/6 38/17/9
f 17/7/2 11/36/2 12/8/3
f 24/20/5 23/27/6 5/21/6
f 10/28/7 9/35/8 14/17/8
f 21/25/9 22/26/10 3/29/10
f 7/12/1 4/4/1 2/2/1
f 19/24/4 20/23/4 13/18/4
f 20/23/11 24/20/12 6/22/12
f 22/26/13 19/24/14 2/32/14
f 8/33/16 2/32/14 19/24/14
f 7/34/17 10/28/20 15/16/18
f 18/9/19 12/8/19 8/33/16
f 4/31/11 7/34/17 13/18/17
f 1/30/9 5/21/6 23/27/6
f 9/35/8 11/36/2 17/7/2
f 41/7/6 35/36/6 36/8/5
f 48/20/3 47/27/2 29/21/2
f 34/28/10 33/35/9 38/17/9
f 45/25/8 46/26/7 27/29/7
f 31/12/1 28/4/1 26/2/1
f 43/24/4 44/23/4 37/18/4
f 44/23/16 48/20/19 30/22/19
f 46/26/18 43/24/17 26/32/17
f 32/33/11 26/32/17 43/24/17
f 31/34/14 34/28/15 39/16/13
f 42/9/12 36/8/12 32/33/11
f 28/31/16 31/34/14 37/18/14
f 25/30/8 29/21/2 47/27/2
f 33/35/9 35/36/6 41/7/6
