# Blender 5.2.1 LTS
# www.blender.org
o s060_mech_wheels_connect.001
v -63.400234 5.529924 2.290575
v -63.400234 5.985555 -0.000006
v -63.400234 0.000003 0.000006
v -63.400234 4.232426 4.232434
v -63.400234 5.529923 -2.290563
v -63.400234 4.232419 -4.232421
v -63.400234 2.290567 -5.529931
v -63.400234 -0.000002 -5.985549
v -63.400234 -2.290564 -5.529956
v -63.400234 -4.232419 -4.232421
v -63.400234 -5.529932 -2.290563
v -63.400234 -5.985546 -0.000006
v -63.400234 -5.529928 2.290575
v -63.400234 -4.232413 4.232434
v -63.400234 3.011123 6.344673
v -63.400234 -3.011198 6.344673
v -63.400234 0.000027 6.344648
v -63.400234 3.011138 75.026268
v -63.400227 0.000038 75.026268
v -63.400227 0.001352 81.379303
v -63.400227 -3.011189 75.026268
v -63.400234 4.232459 77.138512
v -63.400234 -4.232384 77.138512
v -63.400234 5.529970 79.080368
v -63.400234 -5.529882 79.080368
v -63.400234 5.986902 81.375206
v -63.400234 -5.984199 81.375206
v -63.400234 5.532591 83.678253
v -63.400234 -5.527271 83.678253
v -63.400234 4.235097 85.620087
v -63.400234 -4.229764 85.620087
v -63.400227 3.013947 87.732277
v -63.400234 -3.008380 87.732277
v -63.400227 0.002663 87.732277
v -63.400234 3.013991 156.405319
v -63.400234 0.002707 156.405319
v -63.400234 0.002703 162.749969
v -63.400234 -3.008349 156.405319
v -63.400234 4.235128 158.517532
v -63.400234 -4.229714 158.517532
v -63.400234 5.532628 160.459412
v -63.400234 -5.527224 160.459412
v -63.400234 5.988257 162.750015
v -63.400234 -5.982850 162.750015
v -63.400234 5.532630 165.040527
v -63.400234 -5.527223 165.040527
v -63.400234 4.235129 166.982407
v -63.400234 -4.229713 166.982407
v -63.400234 2.293277 168.279922
v -63.400234 -2.287867 168.279922
v -63.400234 0.002708 168.735535
v -67.251884 0.000004 0.000006
v -67.251884 -4.232413 4.232434
v -67.251884 -5.529928 2.290575
v -67.251884 -5.985546 -0.000006
v -67.251884 -5.529932 -2.290563
v -67.251884 -4.232419 -4.232421
v -67.251884 -2.290564 -5.529956
v -67.251884 -0.000002 -5.985549
v -67.251884 2.290567 -5.529931
v -67.251884 4.232419 -4.232421
v -67.251884 5.529923 -2.290563
v -67.251884 5.985555 -0.000006
v -67.251884 5.529924 2.290575
v -67.251884 4.232426 4.232434
v -67.251884 -3.011198 6.344673
v -67.251884 3.011132 6.344673
v -67.251884 0.000027 6.344648
v -67.251884 -3.011189 75.026268
v -67.251877 0.000038 75.026268
v -67.251884 0.001352 81.379303
v -67.251884 3.011138 75.026268
v -67.251877 -4.232384 77.138512
v -67.251884 4.232459 77.138512
v -67.251884 -5.529882 79.080368
v -67.251884 5.529970 79.080368
v -67.251884 -5.984199 81.375206
v -67.251884 5.986902 81.375206
v -67.251884 -5.527271 83.678253
v -67.251884 5.532591 83.678253
v -67.251884 -4.229764 85.620087
v -67.251884 4.235097 85.620087
v -67.251884 -3.008380 87.732277
v -67.251884 3.013947 87.732277
v -67.251884 0.002663 87.732277
v -67.251884 -3.008349 156.405319
v -67.251884 0.002707 156.405319
v -67.251884 0.002707 162.749985
v -67.251884 3.013991 156.405319
v -67.251884 -4.229714 158.517532
v -67.251884 4.235128 158.517532
v -67.251884 -5.527224 160.459412
v -67.251884 5.532628 160.459412
v -67.251884 -5.982850 162.750015
v -67.251884 5.988257 162.750015
v -67.251884 -5.527223 165.040527
v -67.251884 5.532630 165.040527
v -67.251884 -4.229713 166.982407
v -67.251884 4.235129 166.982407
v -67.251884 -2.287867 168.279922
v -67.251884 2.293277 168.279922
v -67.251884 0.002708 168.735535
v 63.400219 -5.529926 2.290575
v 63.400219 -5.985557 -0.000006
v 63.400219 -0.000006 0.000006
v 63.400219 -4.232428 4.232433
v 63.400219 -5.529924 -2.290562
v 63.400219 -4.232421 -4.232421
v 63.400219 -2.290569 -5.529931
v 63.400219 -0.000001 -5.985548
v 63.400219 2.290562 -5.529955
v 63.400219 4.232417 -4.232421
v 63.400219 5.529930 -2.290563
v 63.400219 5.985543 -0.000006
v 63.400219 5.529925 2.290575
v 63.400219 4.232411 4.232433
v 63.400219 -3.011124 6.344673
v 63.400219 3.011196 6.344673
v 63.400219 -0.000029 6.344648
v 63.400219 -3.011138 75.026260
v 63.400208 -0.000038 75.026260
v 63.400208 -0.001352 81.379295
v 63.400208 3.011188 75.026260
v 63.400219 -4.232459 77.138504
v 63.400219 4.232383 77.138504
v 63.400219 -5.529970 79.080360
v 63.400219 5.529882 79.080360
v 63.400219 -5.986902 81.375198
v 63.400219 5.984198 81.375198
v 63.400219 -5.532590 83.678246
v 63.400219 5.527271 83.678246
v 63.400219 -4.235096 85.620079
v 63.400219 4.229764 85.620079
v 63.400208 -3.013947 87.732269
v 63.400219 3.008380 87.732269
v 63.400208 -0.002663 87.732269
v 63.400219 -3.013989 156.405304
v 63.400219 -0.002705 156.405304
v 63.400219 -0.002701 162.749954
v 63.400219 3.008350 156.405304
v 63.400219 -4.235126 158.517517
v 63.400219 4.229716 158.517517
v 63.400219 -5.532626 160.459396
v 63.400219 5.527225 160.459396
v 63.400219 -5.988255 162.750000
v 63.400219 5.982852 162.750000
v 63.400219 -5.532628 165.040512
v 63.400219 5.527224 165.040512
v 63.400219 -4.235127 166.982391
v 63.400219 4.229714 166.982391
v 63.400219 -2.293275 168.279907
v 63.400219 2.287869 168.279907
v 63.400219 -0.002706 168.735519
v 67.251884 -0.000006 0.000006
v 67.251884 4.232410 4.232433
v 67.251884 5.529925 2.290575
v 67.251869 5.985543 -0.000006
v 67.251869 5.529930 -2.290563
v 67.251869 4.232417 -4.232421
v 67.251869 2.290561 -5.529955
v 67.251869 -0.000001 -5.985548
v 67.251869 -2.290570 -5.529931
v 67.251869 -4.232421 -4.232421
v 67.251884 -5.529925 -2.290562
v 67.251884 -5.985557 -0.000006
v 67.251884 -5.529927 2.290575
v 67.251884 -4.232428 4.232433
v 67.251884 3.011195 6.344673
v 67.251884 -3.011134 6.344673
v 67.251884 -0.000029 6.344648
v 67.251869 3.011188 75.026260
v 67.251869 -0.000038 75.026260
v 67.251869 -0.001352 81.379295
v 67.251869 -3.011139 75.026260
v 67.251869 4.232383 77.138504
v 67.251869 -4.232459 77.138504
v 67.251869 5.529881 79.080360
v 67.251869 -5.529970 79.080360
v 67.251869 5.984198 81.375198
v 67.251869 -5.986902 81.375198
v 67.251869 5.527270 83.678246
v 67.251869 -5.532591 83.678246
v 67.251869 4.229764 85.620079
v 67.251869 -4.235097 85.620079
v 67.251869 3.008379 87.732269
v 67.251869 -3.013947 87.732269
v 67.251869 -0.002663 87.732269
v 67.251884 3.008350 156.405304
v 67.251884 -0.002706 156.405304
v 67.251869 -0.002706 162.749969
v 67.251884 -3.013989 156.405304
v 67.251884 4.229716 158.517517
v 67.251884 -4.235126 158.517517
v 67.251869 5.527225 160.459396
v 67.251884 -5.532626 160.459396
v 67.251884 5.982851 162.750000
v 67.251869 -5.988255 162.750000
v 67.251869 5.527224 165.040512
v 67.251869 -5.532628 165.040512
v 67.251869 4.229714 166.982391
v 67.251869 -4.235127 166.982391
v 67.251869 2.287868 168.279907
v 67.251869 -2.293275 168.279907
v 67.251869 -0.002707 168.735519
vn 1.0000 -0.0000 -0.0000
vn -1.0000 -0.0000 -0.0000
vn -0.0000 -1.0000 -0.0000
vn -0.0000 -0.9239 -0.3827
vn -0.0000 -0.8490 0.5284
vn -0.0000 -0.9240 0.3825
vn -0.0000 -0.8657 0.5006
vn -0.0000 1.0000 -0.0000
vn -0.0000 0.9239 0.3827
vn -0.0000 -0.8490 -0.5283
vn -0.0000 -0.8657 -0.5005
vn -0.0000 0.9242 0.3820
vn -0.0000 0.8490 0.5283
vn -0.0000 -0.9239 0.3827
vn -0.0000 -0.0000 -1.0000
vn -0.0000 0.3827 -0.9239
vn -0.0000 -0.8657 0.5005
vn -0.0000 -0.8490 0.5283
vn -0.0000 -0.3827 0.9239
vn -0.0000 -0.7071 0.7071
vn -0.0000 0.7071 0.7071
vn -0.0000 0.3827 0.9239
vn -0.0000 0.8657 -0.5005
vn -0.0000 0.8491 -0.5283
vn -0.0000 0.8490 -0.5283
vn -0.0000 0.9239 -0.3827
vn -0.0000 -0.3827 -0.9239
vn -0.0000 -0.9241 -0.3823
vn -0.0000 0.7071 -0.7071
vn -0.0000 0.8657 -0.5006
vn -0.0000 0.8657 0.5006
vn -0.0000 1.0000 -0.0009
vn -0.0000 0.9238 -0.3828
vn -0.0000 -0.7071 -0.7071
vn -0.0000 -1.0000 0.0002
vn -0.0000 -0.0000 1.0000
vn -0.0000 -0.8657 -0.5006
vn -0.0000 0.8657 0.5005
vn -0.0000 0.8490 0.5284
vn -0.0000 0.9240 0.3825
vn -0.0000 -0.9242 0.3820
vn -0.0000 -0.8491 -0.5283
vn -0.0000 0.9241 -0.3823
vn -0.0000 -1.0000 -0.0009
vn -0.0000 -0.9238 -0.3828
vn -0.0000 1.0000 0.0002
vt 0.718059 0.843456
vt 0.707642 0.843436
vt 0.708398 0.839470
vt 0.710686 0.836071
vt 0.708397 0.847457
vt 0.710685 0.850834
vt 0.714085 0.853078
vt 0.718062 0.853890
vt 0.722061 0.853079
vt 0.725449 0.850835
vt 0.727704 0.847458
vt 0.728493 0.843437
vt 0.727705 0.839471
vt 0.725450 0.836071
vt 0.712819 0.832383
vt 0.723328 0.832383
vt 0.718063 0.832383
vt 0.285708 0.062960
vt 0.406227 0.058627
vt 0.405993 0.063537
vt 0.406015 0.068703
vt 0.285575 0.068103
vt 0.718063 0.701591
vt 0.718068 0.712653
vt 0.712825 0.712653
vt 0.723333 0.712653
vt 0.710692 0.708998
vt 0.725455 0.708999
vt 0.708403 0.705576
vt 0.727711 0.705577
vt 0.707648 0.701611
vt 0.728499 0.701611
vt 0.708404 0.697589
vt 0.727711 0.697590
vt 0.710681 0.694190
vt 0.725456 0.694191
vt 0.712825 0.690513
vt 0.723323 0.690514
vt 0.718069 0.690513
vt 0.415125 0.070436
vt 0.419713 0.073824
vt 0.416313 0.075046
vt 0.132663 0.072980
vt 0.137351 0.068214
vt 0.136651 0.073924
vt 0.718072 0.559741
vt 0.718074 0.570794
vt 0.712831 0.570794
vt 0.723328 0.570795
vt 0.710687 0.567106
vt 0.725461 0.567107
vt 0.708410 0.563718
vt 0.727717 0.563718
vt 0.707643 0.559752
vt 0.728494 0.559753
vt 0.708410 0.555730
vt 0.727717 0.555731
vt 0.710687 0.552376
vt 0.725462 0.552376
vt 0.714076 0.550099
vt 0.722074 0.550099
vt 0.718075 0.549321
vt 0.412692 0.070458
vt 0.409715 0.069725
vt 0.414632 0.063870
vt 0.417335 0.069592
vt 0.419146 0.068203
vt 0.420357 0.066337
vt 0.420857 0.064159
vt 0.420579 0.061949
vt 0.419535 0.059905
vt 0.417891 0.058294
vt 0.415725 0.057272
vt 0.413147 0.057039
vt 0.410092 0.057694
vt 0.275928 0.062797
vt 0.285708 0.057705
vt 0.281753 0.069403
vt 0.281931 0.056328
vt 0.278587 0.070547
vt 0.278876 0.055106
vt 0.275799 0.070847
vt 0.276076 0.054695
vt 0.272988 0.070514
vt 0.273255 0.054995
vt 0.269945 0.069303
vt 0.270122 0.056128
vt 0.266123 0.067925
vt 0.266201 0.057505
vt 0.266101 0.062648
vt 0.144594 0.061649
vt 0.144527 0.056472
vt 0.135878 0.061252
vt 0.144294 0.066692
vt 0.140383 0.067603
vt 0.140817 0.055383
vt 0.137917 0.054617
vt 0.134707 0.067870
vt 0.135429 0.054617
vt 0.132540 0.066825
vt 0.133229 0.055439
vt 0.130863 0.065192
vt 0.131430 0.056827
vt 0.129852 0.063126
vt 0.130174 0.058716
vt 0.129630 0.060849
vt 0.271989 0.075635
vt 0.268623 0.074868
vt 0.265135 0.074179
vt 0.134329 0.049984
vt 0.130930 0.051173
vt 0.286741 0.074646
vt 0.282897 0.075346
vt 0.272677 0.049518
vt 0.268889 0.050140
vt 0.412692 0.075635
vt 0.144993 0.073524
vt 0.425556 0.060660
vt 0.425911 0.064615
vt 0.409093 0.075324
vt 0.405482 0.074879
vt 0.124809 0.064270
vt 0.126397 0.067992
vt 0.127897 0.053350
vt 0.125675 0.056505
vt 0.413714 0.051340
vt 0.409615 0.051384
vt 0.145093 0.050273
vt 0.141483 0.049851
vt 0.417669 0.052229
vt 0.137962 0.049496
vt 0.424912 0.068436
vt 0.279331 0.075990
vt 0.423901 0.057039
vt 0.286697 0.051518
vt 0.283275 0.050818
vt 0.405493 0.051851
vt 0.276410 0.049496
vt 0.279954 0.049996
vt 0.422723 0.071591
vt 0.275599 0.076135
vt 0.421168 0.054161
vt 0.265201 0.050807
vt 0.124553 0.060282
vt 0.140806 0.073957
vt 0.129130 0.070991
s 1
f 3/1/1 2/2/1 1/3/1
f 3/1/1 1/3/1 4/4/1
f 3/1/1 5/5/1 2/2/1
f 3/1/1 6/6/1 5/5/1
f 3/1/1 7/7/1 6/6/1
f 3/1/1 8/8/1 7/7/1
f 3/1/1 9/9/1 8/8/1
f 3/1/1 10/10/1 9/9/1
f 3/1/1 11/11/1 10/10/1
f 3/1/1 12/12/1 11/11/1
f 3/1/1 13/13/1 12/12/1
f 3/1/1 14/14/1 13/13/1
f 3/1/1 4/4/1 15/15/1
f 3/1/1 16/16/1 14/14/1
f 3/1/1 15/15/1 17/17/1
f 3/1/1 17/17/1 16/16/1
f 70/18/2 67/19/2 68/20/2
f 70/18/2 66/21/2 69/22/2
f 20/23/1 19/24/1 18/25/1
f 20/23/1 21/26/1 19/24/1
f 20/23/1 18/25/1 22/27/1
f 20/23/1 23/28/1 21/26/1
f 20/23/1 22/27/1 24/29/1
f 20/23/1 25/30/1 23/28/1
f 20/23/1 24/29/1 26/31/1
f 20/23/1 27/32/1 25/30/1
f 20/23/1 26/31/1 28/33/1
f 20/23/1 29/34/1 27/32/1
f 20/23/1 28/33/1 30/35/1
f 20/23/1 31/36/1 29/34/1
f 20/23/1 30/35/1 32/37/1
f 20/23/1 33/38/1 31/36/1
f 20/23/1 32/37/1 34/39/1
f 20/23/1 34/39/1 33/38/1
f 55/40/3 11/41/4 12/42/3
f 44/43/3 92/44/4 42/45/4
f 37/46/1 36/47/1 35/48/1
f 37/46/1 38/49/1 36/47/1
f 37/46/1 35/48/1 39/50/1
f 37/46/1 40/51/1 38/49/1
f 37/46/1 39/50/1 41/52/1
f 37/46/1 42/53/1 40/51/1
f 37/46/1 41/52/1 43/54/1
f 37/46/1 44/55/1 42/53/1
f 37/46/1 43/54/1 45/56/1
f 37/46/1 46/57/1 44/55/1
f 37/46/1 45/56/1 47/58/1
f 37/46/1 48/59/1 46/57/1
f 37/46/1 47/58/1 49/60/1
f 37/46/1 50/61/1 48/59/1
f 37/46/1 49/60/1 51/62/1
f 37/46/1 51/62/1 50/61/1
f 54/63/2 53/64/2 52/65/2
f 55/40/2 54/63/2 52/65/2
f 56/66/2 55/40/2 52/65/2
f 57/67/2 56/66/2 52/65/2
f 58/68/2 57/67/2 52/65/2
f 59/69/2 58/68/2 52/65/2
f 60/70/2 59/69/2 52/65/2
f 61/71/2 60/70/2 52/65/2
f 62/72/2 61/71/2 52/65/2
f 63/73/2 62/72/2 52/65/2
f 64/74/2 63/73/2 52/65/2
f 65/75/2 64/74/2 52/65/2
f 53/64/2 66/21/2 52/65/2
f 67/19/2 65/75/2 52/65/2
f 66/21/2 68/20/2 52/65/2
f 68/20/2 67/19/2 52/65/2
f 19/24/1 15/15/1 18/25/1
f 70/18/2 69/22/2 71/76/2
f 72/77/2 70/18/2 71/76/2
f 69/22/2 73/78/2 71/76/2
f 71/76/2 74/79/2 72/77/2
f 73/78/2 75/80/2 71/76/2
f 76/81/2 74/79/2 71/76/2
f 71/76/2 75/80/2 77/82/2
f 78/83/2 76/81/2 71/76/2
f 71/76/2 77/82/2 79/84/2
f 71/76/2 80/85/2 78/83/2
f 71/76/2 79/84/2 81/86/2
f 71/76/2 82/87/2 80/85/2
f 71/76/2 81/86/2 83/88/2
f 71/76/2 84/89/2 82/87/2
f 71/76/2 83/88/2 85/90/2
f 71/76/2 85/90/2 84/89/2
f 84/89/2 87/91/2 89/92/2
f 34/39/1 35/48/1 36/47/1
f 88/93/2 87/91/2 86/94/2
f 88/93/2 89/92/2 87/91/2
f 88/93/2 86/94/2 90/95/2
f 88/93/2 91/96/2 89/92/2
f 88/93/2 90/95/2 92/44/2
f 88/93/2 93/97/2 91/96/2
f 88/93/2 92/44/2 94/98/2
f 88/93/2 95/99/2 93/97/2
f 88/93/2 94/98/2 96/100/2
f 88/93/2 97/101/2 95/99/2
f 88/93/2 96/100/2 98/102/2
f 88/93/2 99/103/2 97/101/2
f 88/93/2 98/102/2 100/104/2
f 88/93/2 101/105/2 99/103/2
f 88/93/2 100/104/2 102/106/2
f 88/93/2 102/106/2 101/105/2
f 81/86/5 29/107/6 31/108/5
f 83/88/7 31/108/5 33/109/7
f 43/110/8 97/101/9 45/111/9
f 73/78/10 21/112/11 23/113/10
f 19/24/1 16/16/1 17/17/1
f 28/114/12 82/87/13 30/115/13
f 13/116/14 55/40/3 12/42/3
f 83/88/3 38/117/3 86/94/3
f 59/69/15 7/118/16 8/119/15
f 66/21/17 14/120/18 16/121/17
f 50/122/19 98/102/20 48/123/20
f 47/124/21 101/105/22 49/125/22
f 1/126/9 65/75/13 4/127/13
f 35/128/23 91/96/24 39/129/25
f 2/130/8 64/74/9 1/126/9
f 39/129/25 93/97/26 41/131/26
f 58/68/27 8/119/15 9/132/27
f 41/131/26 95/99/8 43/110/8
f 25/133/28 73/78/10 23/113/10
f 60/70/16 6/134/29 7/118/16
f 69/22/3 16/121/3 21/112/3
f 18/135/30 74/79/25 22/136/25
f 53/64/18 13/116/14 14/120/18
f 85/90/2 86/94/2 87/91/2
f 44/43/3 96/100/14 94/98/3
f 4/127/13 67/19/31 15/137/31
f 33/38/1 36/47/1 38/49/1
f 18/135/8 67/19/8 72/77/8
f 26/138/32 80/85/12 28/114/12
f 24/139/33 78/83/32 26/138/32
f 57/67/34 9/132/27 10/140/34
f 22/136/25 76/81/33 24/139/33
f 79/84/6 27/141/35 29/107/6
f 45/111/9 99/103/21 47/124/21
f 77/82/35 25/133/28 27/141/35
f 56/66/4 10/140/34 11/41/4
f 62/72/26 2/130/8 5/142/26
f 32/143/8 89/92/8 35/128/8
f 51/144/36 100/104/19 50/122/19
f 49/125/22 102/106/36 51/144/36
f 90/95/10 38/117/37 40/145/10
f 30/115/13 84/89/38 32/143/38
f 92/44/4 40/145/10 42/45/4
f 61/71/29 5/142/26 6/134/29
f 48/123/20 96/100/14 46/146/14
f 105/1/2 104/2/2 103/3/2
f 105/1/2 103/3/2 106/4/2
f 105/1/2 107/5/2 104/2/2
f 105/1/2 108/6/2 107/5/2
f 105/1/2 109/7/2 108/6/2
f 105/1/2 110/8/2 109/7/2
f 105/1/2 111/9/2 110/8/2
f 105/1/2 112/10/2 111/9/2
f 105/1/2 113/11/2 112/10/2
f 105/1/2 114/12/2 113/11/2
f 105/1/2 115/13/2 114/12/2
f 105/1/2 116/14/2 115/13/2
f 105/1/2 106/4/2 117/15/2
f 105/1/2 118/16/2 116/14/2
f 105/1/2 117/15/2 119/17/2
f 105/1/2 119/17/2 118/16/2
f 172/18/1 169/19/1 170/20/1
f 172/18/1 168/21/1 171/22/1
f 122/23/2 121/24/2 120/25/2
f 122/23/2 123/26/2 121/24/2
f 122/23/2 120/25/2 124/27/2
f 122/23/2 125/28/2 123/26/2
f 122/23/2 124/27/2 126/29/2
f 122/23/2 127/30/2 125/28/2
f 122/23/2 126/29/2 128/31/2
f 122/23/2 129/32/2 127/30/2
f 122/23/2 128/31/2 130/33/2
f 122/23/2 131/34/2 129/32/2
f 122/23/2 130/33/2 132/35/2
f 122/23/2 133/36/2 131/34/2
f 122/23/2 132/35/2 134/37/2
f 122/23/2 135/38/2 133/36/2
f 122/23/2 134/37/2 136/39/2
f 122/23/2 136/39/2 135/38/2
f 157/40/8 113/41/26 114/42/8
f 146/43/8 194/44/26 144/45/26
f 139/46/2 138/47/2 137/48/2
f 139/46/2 140/49/2 138/47/2
f 139/46/2 137/48/2 141/50/2
f 139/46/2 142/51/2 140/49/2
f 139/46/2 141/50/2 143/52/2
f 139/46/2 144/53/2 142/51/2
f 139/46/2 143/52/2 145/54/2
f 139/46/2 146/55/2 144/53/2
f 139/46/2 145/54/2 147/56/2
f 139/46/2 148/57/2 146/55/2
f 139/46/2 147/56/2 149/58/2
f 139/46/2 150/59/2 148/57/2
f 139/46/2 149/58/2 151/60/2
f 139/46/2 152/61/2 150/59/2
f 139/46/2 151/60/2 153/62/2
f 139/46/2 153/62/2 152/61/2
f 156/63/1 155/64/1 154/65/1
f 157/40/1 156/63/1 154/65/1
f 158/66/1 157/40/1 154/65/1
f 159/67/1 158/66/1 154/65/1
f 160/68/1 159/67/1 154/65/1
f 161/69/1 160/68/1 154/65/1
f 162/70/1 161/69/1 154/65/1
f 163/71/1 162/70/1 154/65/1
f 164/72/1 163/71/1 154/65/1
f 165/73/1 164/72/1 154/65/1
f 166/74/1 165/73/1 154/65/1
f 167/75/1 166/74/1 154/65/1
f 155/64/1 168/21/1 154/65/1
f 169/19/1 167/75/1 154/65/1
f 168/21/1 170/20/1 154/65/1
f 170/20/1 169/19/1 154/65/1
f 121/24/2 117/15/2 120/25/2
f 172/18/1 171/22/1 173/76/1
f 174/77/1 172/18/1 173/76/1
f 171/22/1 175/78/1 173/76/1
f 173/76/1 176/79/1 174/77/1
f 175/78/1 177/80/1 173/76/1
f 178/81/1 176/79/1 173/76/1
f 173/76/1 177/80/1 179/82/1
f 180/83/1 178/81/1 173/76/1
f 173/76/1 179/82/1 181/84/1
f 173/76/1 182/85/1 180/83/1
f 173/76/1 181/84/1 183/86/1
f 173/76/1 184/87/1 182/85/1
f 173/76/1 183/86/1 185/88/1
f 173/76/1 186/89/1 184/87/1
f 173/76/1 185/88/1 187/90/1
f 173/76/1 187/90/1 186/89/1
f 186/89/1 189/91/1 191/92/1
f 136/39/2 137/48/2 138/47/2
f 190/93/1 189/91/1 188/94/1
f 190/93/1 191/92/1 189/91/1
f 190/93/1 188/94/1 192/95/1
f 190/93/1 193/96/1 191/92/1
f 190/93/1 192/95/1 194/44/1
f 190/93/1 195/97/1 193/96/1
f 190/93/1 194/44/1 196/98/1
f 190/93/1 197/99/1 195/97/1
f 190/93/1 196/98/1 198/100/1
f 190/93/1 199/101/1 197/99/1
f 190/93/1 198/100/1 200/102/1
f 190/93/1 201/103/1 199/101/1
f 190/93/1 200/102/1 202/104/1
f 190/93/1 203/105/1 201/103/1
f 190/93/1 202/104/1 204/106/1
f 190/93/1 204/106/1 203/105/1
f 183/86/39 131/107/40 133/108/39
f 185/88/31 133/108/39 135/109/31
f 145/110/3 199/101/14 147/111/14
f 125/113/25 171/22/23 123/112/23
f 121/24/2 118/16/2 119/17/2
f 130/114/41 184/87/18 132/115/18
f 115/116/9 157/40/8 114/42/8
f 185/88/8 140/117/8 188/94/8
f 161/69/15 109/118/27 110/119/15
f 168/21/38 116/120/13 118/121/38
f 152/122/22 200/102/21 150/123/21
f 149/124/20 203/105/19 151/125/19
f 103/126/14 167/75/18 106/127/18
f 137/128/11 193/96/42 141/129/42
f 104/130/3 166/74/14 103/126/14
f 141/129/42 195/97/4 143/131/4
f 160/68/16 110/119/15 111/132/16
f 143/131/4 197/99/3 145/110/3
f 177/80/43 125/113/25 127/133/43
f 109/118/27 163/71/34 108/134/34
f 171/22/8 118/121/8 123/112/8
f 120/135/37 176/79/10 124/136/10
f 155/64/13 115/116/9 116/120/13
f 187/90/1 188/94/1 189/91/1
f 146/43/8 198/100/9 196/98/8
f 106/127/18 169/19/7 117/137/7
f 135/38/2 138/47/2 140/49/2
f 120/135/3 169/19/3 174/77/3
f 128/138/44 182/85/41 130/114/41
f 126/139/45 180/83/44 128/138/44
f 159/67/29 111/132/16 112/140/29
f 124/136/10 178/81/45 126/139/45
f 181/84/40 129/141/46 131/107/40
f 147/111/14 201/103/20 149/124/20
f 179/82/46 127/133/43 129/141/46
f 158/66/26 112/140/29 113/41/26
f 164/72/4 104/130/3 107/142/4
f 134/143/3 191/92/3 137/128/3
f 153/144/36 202/104/22 152/122/22
f 151/125/19 204/106/36 153/144/36
f 192/95/25 140/117/30 142/145/25
f 132/115/18 186/89/17 134/143/17
f 194/44/26 142/145/25 144/45/26
f 163/71/34 107/142/4 108/134/34
f 150/123/21 198/100/9 148/146/9
f 70/18/2 72/77/2 67/19/2
f 70/18/2 68/20/2 66/21/2
f 55/40/3 56/66/4 11/41/4
f 44/43/3 94/98/3 92/44/4
f 19/24/1 17/17/1 15/15/1
f 84/89/2 85/90/2 87/91/2
f 34/39/1 32/37/1 35/48/1
f 81/86/5 79/84/6 29/107/6
f 83/88/7 81/86/5 31/108/5
f 43/110/8 95/99/8 97/101/9
f 73/78/10 69/22/11 21/112/11
f 19/24/1 21/26/1 16/16/1
f 28/114/12 80/85/12 82/87/13
f 13/116/14 54/63/14 55/40/3
f 83/88/3 33/109/3 38/117/3
f 59/69/15 60/70/16 7/118/16
f 66/21/17 53/64/18 14/120/18
f 50/122/19 100/104/19 98/102/20
f 47/124/21 99/103/21 101/105/22
f 1/126/9 64/74/9 65/75/13
f 35/128/23 89/92/23 91/96/24
f 2/130/8 63/73/8 64/74/9
f 39/129/25 91/96/24 93/97/26
f 58/68/27 59/69/15 8/119/15
f 41/131/26 93/97/26 95/99/8
f 25/133/28 75/80/28 73/78/10
f 60/70/16 61/71/29 6/134/29
f 69/22/3 66/21/3 16/121/3
f 18/135/30 72/77/30 74/79/25
f 53/64/18 54/63/14 13/116/14
f 85/90/2 83/88/2 86/94/2
f 44/43/3 46/146/14 96/100/14
f 4/127/13 65/75/13 67/19/31
f 33/38/1 34/39/1 36/47/1
f 18/135/8 15/137/8 67/19/8
f 26/138/32 78/83/32 80/85/12
f 24/139/33 76/81/33 78/83/32
f 57/67/34 58/68/27 9/132/27
f 22/136/25 74/79/25 76/81/33
f 79/84/6 77/82/35 27/141/35
f 45/111/9 97/101/9 99/103/21
f 77/82/35 75/80/28 25/133/28
f 56/66/4 57/67/34 10/140/34
f 62/72/26 63/73/8 2/130/8
f 32/143/8 84/89/8 89/92/8
f 51/144/36 102/106/36 100/104/19
f 49/125/22 101/105/22 102/106/36
f 90/95/10 86/94/37 38/117/37
f 30/115/13 82/87/13 84/89/38
f 92/44/4 90/95/10 40/145/10
f 61/71/29 62/72/26 5/142/26
f 48/123/20 98/102/20 96/100/14
f 172/18/1 174/77/1 169/19/1
f 172/18/1 170/20/1 168/21/1
f 157/40/8 158/66/26 113/41/26
f 146/43/8 196/98/8 194/44/26
f 121/24/2 119/17/2 117/15/2
f 186/89/1 187/90/1 189/91/1
f 136/39/2 134/37/2 137/48/2
f 183/86/39 181/84/40 131/107/40
f 185/88/31 183/86/39 133/108/39
f 145/110/3 197/99/3 199/101/14
f 125/113/25 175/78/25 171/22/23
f 121/24/2 123/26/2 118/16/2
f 130/114/41 182/85/41 184/87/18
f 115/116/9 156/63/9 157/40/8
f 185/88/8 135/109/8 140/117/8
f 161/69/15 162/70/27 109/118/27
f 168/21/38 155/64/13 116/120/13
f 152/122/22 202/104/22 200/102/21
f 149/124/20 201/103/20 203/105/19
f 103/126/14 166/74/14 167/75/18
f 137/128/11 191/92/11 193/96/42
f 104/130/3 165/73/3 166/74/14
f 141/129/42 193/96/42 195/97/4
f 160/68/16 161/69/15 110/119/15
f 143/131/4 195/97/4 197/99/3
f 177/80/43 175/78/25 125/113/25
f 109/118/27 162/70/27 163/71/34
f 171/22/8 168/21/8 118/121/8
f 120/135/37 174/77/37 176/79/10
f 155/64/13 156/63/9 115/116/9
f 187/90/1 185/88/1 188/94/1
f 146/43/8 148/146/9 198/100/9
f 106/127/18 167/75/18 169/19/7
f 135/38/2 136/39/2 138/47/2
f 120/135/3 117/137/3 169/19/3
f 128/138/44 180/83/44 182/85/41
f 126/139/45 178/81/45 180/83/44
f 159/67/29 160/68/16 111/132/16
f 124/136/10 176/79/10 178/81/45
f 181/84/40 179/82/46 129/141/46
f 147/111/14 199/101/14 201/103/20
f 179/82/46 177/80/43 127/133/43
f 158/66/26 159/67/29 112/140/29
f 164/72/4 165/73/3 104/130/3
f 134/143/3 186/89/3 191/92/3
f 153/144/36 204/106/36 202/104/22
f 151/125/19 203/105/19 204/106/36
f 192/95/25 188/94/30 140/117/30
f 132/115/18 184/87/18 186/89/17
f 194/44/26 192/95/25 142/145/25
f 163/71/34 164/72/4 107/142/4
f 150/123/21 200/102/21 198/100/9
