# Blender 5.2.1 LTS
# www.blender.org
o s060_mech_push_rod_to_connect.001
v -69.295807 -0.000006 -0.000013
v -69.295815 4.407998 8.212174
v -69.295815 5.041205 5.032111
v -72.497047 -0.000006 -0.000013
v -72.497055 -4.178274 8.212176
v -72.497055 -5.032133 5.041194
v -69.295815 -6.578284 2.731737
v -69.295815 -5.908592 3.934355
v -72.497055 6.583186 2.719882
v -72.497055 5.915673 3.923696
v -72.497055 7.035631 1.392882
v -72.497055 7.122927 -0.006435
v -69.295815 7.035631 1.392882
v -69.295815 7.122927 -0.006435
v -69.295815 6.583186 2.719882
v -69.295815 -5.032133 5.041194
v -69.295815 -4.178274 8.212176
v -69.295815 5.915673 3.923696
v -72.497055 5.041205 5.032111
v -72.497055 4.407998 8.212174
v -72.497055 -5.908590 3.934336
v -72.497055 -6.578284 2.731737
v -72.497055 -7.033120 1.405539
v -72.497055 -7.122941 0.006410
v -69.295815 -7.033120 1.405539
v -69.295815 -7.122941 0.006410
v -72.497055 -7.035635 -1.392913
v -72.497055 -6.583192 -2.719900
v -69.295815 -7.035635 -1.392913
v -69.295815 -6.583192 -2.719900
v -72.497055 -5.967047 -3.979296
v -72.497055 -5.041218 -5.032149
v -69.295815 -5.967047 -3.979296
v -69.295815 -5.041218 -5.032149
v -69.295815 -0.006426 -7.122941
v -69.295815 -1.405568 -7.033144
v -69.295815 -2.731754 -6.578296
v -69.295815 -3.990039 -5.959901
v -72.497055 -1.405568 -7.033144
v -72.497055 -0.006426 -7.122941
v -72.497055 -2.731754 -6.578296
v -72.497055 -3.990039 -5.959901
v -69.295815 1.392877 -7.035648
v -69.295815 2.719887 -6.583173
v -69.295815 3.979280 -5.967056
v -69.295815 5.032128 -5.041213
v -72.497055 3.979271 -5.967056
v -72.497055 5.032128 -5.041213
v -72.497055 2.719887 -6.583173
v -72.497055 1.392877 -7.035648
v -72.497055 5.959855 -3.990043
v -72.497055 6.578268 -2.731768
v -69.295815 5.959855 -3.990043
v -69.295815 6.578268 -2.731768
v -72.497055 7.033109 -1.405601
v -69.295815 7.033109 -1.405601
v -71.923538 -2.579032 9.223929
v -72.497055 -2.834058 8.939062
v -72.497055 3.092503 8.939060
v -71.923538 2.837068 9.223927
v -71.923538 1.696135 154.802612
v -71.923538 -1.529951 154.802612
v -72.497055 1.848285 154.972290
v -72.497055 -1.681856 154.972290
v -72.497055 2.631857 158.752777
v -72.497055 -2.482534 158.752777
v -72.497055 -2.370410 167.194351
v -72.497055 -1.620915 167.562698
v -72.497055 -2.991132 160.641556
v -72.497055 -2.996542 166.641724
v -72.497055 -3.513192 161.300873
v -72.497055 -3.548010 166.014603
v -72.497055 -3.912093 162.017181
v -72.497055 -3.915015 165.264435
v -72.497055 -4.183014 162.807129
v -72.497055 -4.184512 164.474030
v -72.497055 -4.236516 163.640533
v -72.497055 -0.830976 167.833618
v -72.497055 0.002419 167.887085
v -72.497055 0.835911 167.835114
v -72.497055 1.626340 167.565598
v -72.497055 2.376489 167.198608
v -72.497055 3.003621 166.647125
v -72.497055 3.009026 160.646973
v -72.497055 3.556219 166.021011
v -72.497055 3.529901 161.307220
v -72.497055 3.927503 162.024231
v -72.497055 3.924575 165.271484
v -72.497055 4.195499 164.481567
v -72.497055 4.197001 162.814651
v -72.497055 4.249000 163.648163
v -69.295815 -2.482534 158.752777
v -69.295815 2.631857 158.752777
v -69.295815 3.009026 160.646973
v -69.295815 -2.991132 160.641556
v -69.295815 3.529901 161.307220
v -69.295815 -3.513193 161.300827
v -69.295815 0.002419 167.887085
v -69.295815 -1.620915 167.562698
v -69.295815 -0.830976 167.833618
v -69.295815 1.626340 167.565598
v -69.295815 0.835911 167.835114
v -69.295815 -2.996542 166.641724
v -69.295815 -2.370410 167.194351
v -69.295815 -3.915015 165.264435
v -69.295815 -3.548010 166.014603
v -69.295815 -4.236516 163.640533
v -69.295815 -4.184512 164.474030
v -69.295815 -3.912093 162.017181
v -69.295815 -4.183014 162.807129
v -69.295815 3.003621 166.647125
v -69.295815 2.376495 167.198608
v -69.295815 3.924575 165.271484
v -69.295815 3.556219 166.021011
v -69.295815 4.249000 163.648163
v -69.295815 4.195499 164.481567
v -69.295815 3.927503 162.024231
v -69.295815 4.197001 162.814651
v 69.295807 -0.000002 -0.000025
v 69.295815 4.408003 8.212161
v 69.295815 5.041211 5.032098
v 72.497047 -0.000002 -0.000025
v 72.497055 -4.178268 8.212164
v 72.497055 -5.032128 5.041182
v 69.295815 -6.578279 2.731725
v 69.295815 -5.908587 3.934343
v 72.497055 6.583190 2.719868
v 72.497055 5.915678 3.923683
v 72.497055 7.035635 1.392869
v 72.497055 7.122932 -0.006448
v 69.295815 7.035635 1.392869
v 69.295815 7.122932 -0.006448
v 69.295815 6.583190 2.719868
v 69.295815 -5.032128 5.041182
v 69.295815 -4.178268 8.212164
v 69.295815 5.915678 3.923683
v 72.497055 5.041211 5.032098
v 72.497055 4.408003 8.212161
v 72.497055 -5.908586 3.934324
v 72.497055 -6.578279 2.731725
v 72.497055 -7.033115 1.405527
v 72.497055 -7.122937 0.006398
v 69.295815 -7.033115 1.405527
v 69.295815 -7.122937 0.006398
v 72.497055 -7.035630 -1.392925
v 72.497055 -6.583188 -2.719912
v 69.295815 -7.035630 -1.392925
v 69.295815 -6.583188 -2.719912
v 72.497055 -5.967043 -3.979308
v 72.497055 -5.041214 -5.032161
v 69.295815 -5.967043 -3.979308
v 69.295815 -5.041214 -5.032161
v 69.295815 -0.006422 -7.122954
v 69.295815 -1.405564 -7.033157
v 69.295815 -2.731750 -6.578308
v 69.295815 -3.990035 -5.959913
v 72.497055 -1.405564 -7.033157
v 72.497055 -0.006422 -7.122954
v 72.497055 -2.731750 -6.578308
v 72.497055 -3.990035 -5.959913
v 69.295815 1.392881 -7.035660
v 69.295815 2.719891 -6.583185
v 69.295815 3.979285 -5.967069
v 69.295815 5.032132 -5.041226
v 72.497055 3.979275 -5.967069
v 72.497055 5.032132 -5.041226
v 72.497055 2.719891 -6.583185
v 72.497055 1.392881 -7.035660
v 72.497055 5.959859 -3.990056
v 72.497055 6.578273 -2.731781
v 69.295815 5.959859 -3.990056
v 69.295815 6.578273 -2.731781
v 72.497055 7.033113 -1.405614
v 69.295815 7.033113 -1.405614
v 71.923538 -2.579026 9.223917
v 72.497055 -2.834053 8.939050
v 72.497055 3.092509 8.939047
v 71.923538 2.837073 9.223915
v 71.923538 1.696153 154.802597
v 71.923538 -1.529933 154.802597
v 72.497055 1.848302 154.972290
v 72.497055 -1.681839 154.972290
v 72.497055 2.631875 158.752762
v 72.497055 -2.482516 158.752762
v 72.497055 -2.370391 167.194336
v 72.497055 -1.620897 167.562683
v 72.497055 -2.991115 160.641541
v 72.497055 -2.996523 166.641708
v 72.497055 -3.513174 161.300873
v 72.497055 -3.547992 166.014587
v 72.497055 -3.912075 162.017166
v 72.497055 -3.914996 165.264420
v 72.497055 -4.182996 162.807114
v 72.497055 -4.184494 164.474014
v 72.497055 -4.236498 163.640518
v 72.497055 -0.830958 167.833603
v 72.497055 0.002438 167.887070
v 72.497055 0.835929 167.835098
v 72.497055 1.626359 167.565582
v 72.497055 2.376508 167.198593
v 72.497055 3.003639 166.647125
v 72.497055 3.009044 160.646957
v 72.497055 3.556237 166.020996
v 72.497055 3.529918 161.307205
v 72.497055 3.927521 162.024216
v 72.497055 3.924594 165.271484
v 72.497055 4.195517 164.481552
v 72.497055 4.197019 162.814651
v 72.497055 4.249018 163.648148
v 69.295815 -2.482516 158.752762
v 69.295815 2.631875 158.752762
v 69.295815 3.009044 160.646957
v 69.295815 -2.991115 160.641541
v 69.295815 3.529918 161.307205
v 69.295815 -3.513175 161.300812
v 69.295815 0.002438 167.887070
v 69.295815 -1.620897 167.562683
v 69.295815 -0.830958 167.833603
v 69.295815 1.626359 167.565582
v 69.295815 0.835929 167.835098
v 69.295815 -2.996523 166.641708
v 69.295815 -2.370391 167.194336
v 69.295815 -3.914996 165.264420
v 69.295815 -3.547992 166.014587
v 69.295815 -4.236498 163.640518
v 69.295815 -4.184494 164.474014
v 69.295815 -3.912075 162.017166
v 69.295815 -4.182996 162.807114
v 69.295815 3.003639 166.647125
v 69.295815 2.376513 167.198593
v 69.295815 3.924594 165.271484
v 69.295815 3.556237 166.020996
v 69.295815 4.249018 163.648148
v 69.295815 4.195517 164.481552
v 69.295815 3.927521 162.024216
v 69.295815 4.197019 162.814651
vn -1.0000 -0.0000 -0.0000
vn 1.0000 -0.0000 -0.0000
vn -0.4030 0.9152 -0.0072
vn -0.2585 0.9660 -0.0070
vn -0.2580 0.9661 -0.0070
vn -0.2837 -0.0000 -0.9589
vn -0.4448 -0.0000 0.8956
vn -0.4033 -0.9150 -0.0078
vn -0.2590 -0.9658 -0.0076
vn -0.4036 -0.9149 -0.0078
vn 1.0000 0.0001 -0.0000
vn -0.0000 0.7065 0.7077
vn -0.0000 0.8310 0.5563
vn -0.0000 0.3819 -0.9242
vn -0.0000 0.1942 -0.9810
vn -0.0000 -0.9810 0.1942
vn -0.0000 -0.9242 0.3819
vn -0.0000 -1.0000 0.0009
vn -0.0000 -0.9810 -0.1942
vn -0.0000 0.3819 0.9242
vn -0.0000 0.5548 0.8320
vn -0.0000 0.1942 0.9810
vn -0.0000 1.0000 -0.0009
vn -0.0000 0.9810 0.1942
vn -0.0000 -0.3835 0.9235
vn -0.0000 -0.1960 0.9806
vn -0.0000 0.9810 -0.1942
vn -0.0000 0.9141 -0.4054
vn -0.0000 -0.3835 -0.9235
vn -0.0000 -0.1960 -0.9806
vn -0.0000 0.9235 0.3835
vn -0.0000 -0.8320 0.5548
vn -0.0000 0.9235 -0.3835
vn -0.0000 0.9806 -0.1960
vn -0.0000 0.8325 -0.5540
vn -0.0000 0.9080 -0.4189
vn -0.0000 -0.9806 -0.1960
vn -0.0000 -1.0000 -0.0009
vn -0.0000 -0.8315 0.5555
vn -0.0000 -0.9134 0.4071
vn -0.0000 0.7065 -0.7077
vn -0.0000 0.8310 -0.5563
vn -0.0000 0.9080 0.4189
vn -0.0000 0.8325 0.5540
vn -0.0000 -0.0009 -1.0000
vn -0.0000 0.9141 0.4054
vn -0.0000 0.5548 -0.8320
vn -0.0000 0.3818 -0.9242
vn -0.0000 0.9806 0.1960
vn -0.0000 1.0000 0.0009
vn -0.0000 -0.0009 1.0000
vn -0.0000 0.9957 -0.0922
vn -0.0000 0.9946 0.1040
vn -0.0000 -0.7077 -0.7065
vn -0.0000 -0.8320 -0.5548
vn -0.0000 -0.9806 0.1960
vn -0.0000 -0.5563 -0.8310
vn -0.0000 -0.7078 0.7065
vn -0.0000 -0.9242 -0.3819
vn -0.0000 -0.9906 0.1367
vn -0.0000 -0.8932 0.4497
vn -0.0000 -0.5563 0.8310
vn -0.0000 -0.9242 -0.3818
vn -0.0000 -0.8315 -0.5555
vn -0.0000 -0.9134 -0.4071
vn -0.0000 -0.9921 -0.1256
vn -0.0000 -0.8932 -0.4497
vn -0.4030 -0.9152 0.0072
vn -0.2585 -0.9660 0.0070
vn -0.2580 -0.9661 0.0070
vn -0.2837 -0.0000 0.9589
vn -0.4448 -0.0000 -0.8956
vn -0.4033 0.9150 0.0078
vn -0.2590 0.9658 0.0076
vn -0.4036 0.9149 0.0078
vn 1.0000 -0.0001 -0.0000
vn -0.0000 -0.7065 -0.7077
vn -0.0000 -0.8310 -0.5563
vn -0.0000 -0.3819 0.9242
vn -0.0000 -0.1942 0.9810
vn -0.0000 0.9242 -0.3819
vn -0.0000 -0.3819 -0.9242
vn -0.0000 -0.5548 -0.8320
vn -0.0000 -0.1942 -0.9810
vn -0.0000 0.3835 -0.9235
vn -0.0000 0.1960 -0.9806
vn -0.0000 -0.9141 0.4054
vn -0.0000 0.3835 0.9235
vn -0.0000 0.1960 0.9806
vn -0.0000 -0.9235 -0.3835
vn -0.0000 0.8320 -0.5548
vn -0.0000 -0.9235 0.3835
vn -0.0000 -0.8325 0.5540
vn -0.0000 -0.9080 0.4189
vn -0.0000 0.8315 -0.5555
vn -0.0000 0.9134 -0.4071
vn -0.0000 -0.7065 0.7077
vn -0.0000 -0.8310 0.5563
vn -0.0000 -0.9080 -0.4189
vn -0.0000 -0.8325 -0.5540
vn -0.0000 0.0009 1.0000
vn -0.0000 -0.9141 -0.4054
vn -0.0000 -0.5548 0.8320
vn -0.0000 0.0009 -1.0000
vn -0.0000 -0.9957 0.0922
vn -0.0000 -0.9946 -0.1040
vn -0.0000 0.7077 0.7065
vn -0.0000 0.8320 0.5548
vn -0.0000 0.5563 0.8310
vn -0.0000 0.7078 -0.7065
vn -0.0000 0.9242 0.3819
vn -0.0000 0.9906 -0.1367
vn -0.0000 0.8932 -0.4497
vn -0.0000 0.5563 -0.8310
vn -0.0000 0.8315 0.5555
vn -0.0000 0.9134 0.4071
vn -0.0000 0.9921 0.1256
vn -0.0000 0.8932 0.4497
vn -0.4033 0.9150 -0.0072
vn -0.2585 -0.9660 -0.0076
vn -0.4033 -0.9150 0.0072
vn -0.2585 0.9660 0.0076
vt 0.008291 0.778139
vt 0.026523 0.783971
vt 0.017246 0.786210
vt 0.007861 0.784150
vt 0.013599 0.788081
vt 0.876132 0.827518
vt 0.882282 0.824761
vt 0.883360 0.826755
vt 0.027288 0.786267
vt 0.027731 0.788420
vt 0.020875 0.787972
vt 0.027917 0.790464
vt 0.021815 0.789701
vt 0.027670 0.792420
vt 0.860478 0.831061
vt 0.860642 0.828761
vt 0.867077 0.831124
vt 0.861463 0.826523
vt 0.874426 0.826339
vt 0.880850 0.822903
vt 0.879453 0.817557
vt 0.862573 0.824518
vt 0.867510 0.829133
vt 0.864030 0.822710
vt 0.869696 0.562185
vt 0.875700 0.551297
vt 0.881439 0.562351
vt 0.019303 0.786723
vt 0.006780 0.788621
vt 0.007171 0.786486
vt 0.012673 0.789851
vt 0.006864 0.792553
vt 0.006644 0.790610
vt 0.012437 0.791741
vt 0.884095 0.828995
vt 0.877264 0.829211
vt 0.884241 0.831338
vt 0.008123 0.796091
vt 0.007283 0.794406
vt 0.012911 0.793494
vt 0.884043 0.833650
vt 0.877642 0.831242
vt 0.883256 0.835854
vt 0.010490 0.799003
vt 0.009119 0.797687
vt 0.014006 0.794911
vt 0.882223 0.837937
vt 0.877209 0.833266
vt 0.880678 0.839667
vt 0.874337 0.836082
vt 0.874564 0.842924
vt 0.872221 0.843082
vt 0.876771 0.842222
vt 0.876019 0.834950
vt 0.878887 0.841222
vt 0.017256 0.801562
vt 0.015411 0.801437
vt 0.017244 0.796230
vt 0.013642 0.800900
vt 0.011940 0.800163
vt 0.015532 0.795882
vt 0.869887 0.842884
vt 0.872295 0.836471
vt 0.867706 0.842107
vt 0.865600 0.841053
vt 0.870293 0.836027
vt 0.863858 0.839496
vt 0.024088 0.799000
vt 0.022615 0.800151
vt 0.020482 0.794917
vt 0.020896 0.800902
vt 0.019099 0.801432
vt 0.018975 0.795867
vt 0.026430 0.796058
vt 0.025437 0.797673
vt 0.021542 0.793457
vt 0.862337 0.837716
vt 0.868598 0.834881
vt 0.861337 0.835634
vt 0.027278 0.794310
vt 0.022012 0.791666
vt 0.860580 0.833394
vt 0.867477 0.833133
vt 0.865177 0.817393
vt 0.871153 0.566453
vt 0.013033 0.775097
vt 0.012097 0.586639
vt 0.014892 0.588327
vt 0.026330 0.777862
vt 0.011051 0.776594
vt 0.023681 0.776462
vt 0.024302 0.575390
vt 0.021950 0.586664
vt 0.870547 0.563313
vt 0.879652 0.566583
vt 0.009738 0.575296
vt 0.019735 0.588118
vt 0.012854 0.558386
vt 0.009952 0.570707
vt 0.011691 0.559247
vt 0.009400 0.569032
vt 0.010585 0.560184
vt 0.009071 0.567489
vt 0.009801 0.561410
vt 0.008798 0.565791
vt 0.009151 0.562734
vt 0.008902 0.564202
vt 0.014185 0.557870
vt 0.015650 0.557530
vt 0.017094 0.557535
vt 0.018539 0.557684
vt 0.019952 0.558212
vt 0.021254 0.558873
vt 0.022380 0.559834
vt 0.024139 0.570980
vt 0.023418 0.560919
vt 0.024788 0.569566
vt 0.025137 0.568032
vt 0.024157 0.562182
vt 0.024785 0.563557
vt 0.025308 0.566543
vt 0.025091 0.565011
vt 0.880579 0.563445
vt 0.022042 0.775236
vt 0.878403 0.551893
vt 0.877100 0.551400
vt 0.874323 0.551360
vt 0.873014 0.551801
vt 0.880689 0.553446
vt 0.879628 0.552486
vt 0.882179 0.555748
vt 0.881583 0.554485
vt 0.882694 0.558456
vt 0.882598 0.557068
vt 0.882110 0.561159
vt 0.882569 0.559845
vt 0.870690 0.553292
vt 0.871718 0.552397
vt 0.869114 0.555578
vt 0.869740 0.554352
vt 0.868530 0.558292
vt 0.868633 0.556880
vt 0.869034 0.561000
vt 0.868593 0.559669
vt 0.027799 0.554001
vt 0.020032 0.806594
vt 0.003219 0.557405
vt 0.002513 0.796171
vt 0.001736 0.793586
vt 0.023141 0.550677
vt 0.033140 0.790753
vt 0.032918 0.793442
vt 0.011697 0.550093
vt 0.032069 0.568102
vt 0.014455 0.806573
vt 0.011742 0.805885
vt 0.030829 0.558499
vt 0.032162 0.796111
vt 0.031118 0.798659
vt 0.031153 0.572128
vt 0.001652 0.562455
vt 0.001502 0.788299
vt 0.001891 0.785775
vt 0.029473 0.800944
vt 0.027593 0.803018
vt 0.025581 0.552256
vt 0.032228 0.782891
vt 0.033117 0.788042
vt 0.017256 0.806895
vt 0.025278 0.804617
vt 0.022784 0.805927
vt 0.032172 0.563436
vt 0.017481 0.549302
vt 0.031162 0.777541
vt 0.005133 0.800947
vt 0.001502 0.790943
vt 0.009270 0.804573
vt 0.006986 0.803017
vt 0.006655 0.552992
vt 0.002303 0.783408
vt 0.003301 0.777727
vt 0.003557 0.798688
vt 0.001717 0.567332
vt 0.004130 0.575853
vt 0.002501 0.571483
vt 0.002104 0.569519
vt 0.868666 0.827416
vt 0.029475 0.556216
vt 0.002285 0.559976
vt 0.020372 0.549812
vt 0.014549 0.549503
vt 0.032182 0.565858
vt 0.004775 0.555144
vt 0.031634 0.570193
vt 0.001584 0.565011
vt 0.032739 0.785455
vt 0.031617 0.561028
vt 0.029981 0.575888
vt 0.009036 0.551404
s 1
f 5/1/1 19/2/1 4/3/1
f 6/4/1 5/1/1 4/5/1
f 1/6/2 8/7/2 7/8/2
f 10/9/1 9/10/1 4/11/1
f 9/10/1 11/12/1 4/13/1
f 11/12/1 12/14/1 4/13/1
f 14/15/2 13/16/2 1/17/2
f 1/17/2 13/16/2 15/18/2
f 8/7/2 1/19/2 16/20/2
f 17/21/2 16/20/2 1/19/2
f 15/18/2 18/22/2 1/23/2
f 1/23/2 18/22/2 3/24/2
f 96/25/2 98/26/2 97/27/2
f 19/2/1 10/9/1 4/28/1
f 22/29/1 21/30/1 4/31/1
f 21/30/1 6/4/1 4/31/1
f 24/32/1 23/33/1 4/34/1
f 23/33/1 22/29/1 4/34/1
f 7/8/2 25/35/2 1/36/2
f 1/36/2 25/35/2 26/37/2
f 28/38/1 27/39/1 4/40/1
f 27/39/1 24/32/1 4/40/1
f 26/37/2 29/41/2 1/42/2
f 1/42/2 29/41/2 30/43/2
f 32/44/1 31/45/1 4/46/1
f 31/45/1 28/38/1 4/46/1
f 30/43/2 33/47/2 1/48/2
f 1/48/2 33/47/2 34/49/2
f 1/50/2 36/51/2 35/52/2
f 37/53/2 36/51/2 1/50/2
f 1/54/2 38/55/2 37/53/2
f 34/49/2 38/55/2 1/54/2
f 40/56/1 39/57/1 4/58/1
f 39/57/1 41/59/1 4/58/1
f 41/59/1 42/60/1 4/61/1
f 42/60/1 32/44/1 4/61/1
f 35/52/2 43/62/2 1/63/2
f 1/63/2 43/62/2 44/64/2
f 44/64/2 45/65/2 1/66/2
f 1/66/2 45/65/2 46/67/2
f 48/68/1 47/69/1 4/70/1
f 47/69/1 49/71/1 4/70/1
f 49/71/1 50/72/1 4/73/1
f 50/72/1 40/56/1 4/73/1
f 52/74/1 51/75/1 4/76/1
f 51/75/1 48/68/1 4/76/1
f 46/67/2 53/77/2 1/78/2
f 1/78/2 53/77/2 54/79/2
f 12/14/1 55/80/1 4/81/1
f 55/80/1 52/74/1 4/81/1
f 54/79/2 56/82/2 1/83/2
f 1/83/2 56/82/2 14/15/2
f 17/21/2 3/24/2 2/84/2
f 93/85/2 17/21/2 2/84/2
f 57/86/3 64/87/4 62/88/5
f 20/89/1 5/1/1 58/90/1
f 59/91/1 20/89/1 58/90/1
f 58/90/1 5/1/1 64/87/1
f 20/89/1 59/91/1 65/92/1
f 59/91/1 63/93/1 65/92/1
f 94/94/2 92/95/2 93/85/2
f 5/1/1 66/96/1 64/87/1
f 64/87/6 61/97/6 62/88/6
f 67/98/1 66/96/1 69/99/1
f 70/100/1 67/98/1 69/99/1
f 70/100/1 69/99/1 71/101/1
f 72/102/1 70/100/1 71/101/1
f 72/102/1 71/101/1 73/103/1
f 74/104/1 72/102/1 73/103/1
f 74/104/1 73/103/1 75/105/1
f 76/106/1 74/104/1 75/105/1
f 75/105/1 77/107/1 76/106/1
f 68/108/1 78/109/1 65/92/1
f 78/109/1 79/110/1 65/92/1
f 79/110/1 80/111/1 65/92/1
f 80/111/1 81/112/1 65/92/1
f 81/112/1 82/113/1 65/92/1
f 82/113/1 83/114/1 65/92/1
f 83/114/1 84/115/1 65/92/1
f 83/114/1 85/116/1 84/115/1
f 85/116/1 86/117/1 84/115/1
f 85/116/1 87/118/1 86/117/1
f 85/116/1 88/119/1 87/118/1
f 88/119/1 89/120/1 87/118/1
f 89/120/1 90/121/1 87/118/1
f 89/120/1 91/122/1 90/121/1
f 96/25/2 95/123/2 94/94/2
f 60/124/7 58/90/7 57/86/7
f 65/92/1 64/87/1 66/96/1
f 67/98/1 65/92/1 66/96/1
f 60/124/8 63/93/9 59/91/10
f 99/125/2 97/27/2 98/26/2
f 100/126/2 99/125/2 98/26/2
f 102/127/2 98/26/2 101/128/2
f 97/27/2 99/125/2 103/129/2
f 104/130/2 103/129/2 99/125/2
f 105/131/2 97/27/2 103/129/2
f 106/132/2 105/131/2 103/129/2
f 97/27/2 105/131/2 107/133/2
f 108/134/2 107/133/2 105/131/2
f 97/27/2 107/133/2 109/135/2
f 110/136/11 109/135/2 107/133/2
f 101/128/2 96/25/2 111/137/2
f 112/138/2 101/128/2 111/137/2
f 111/137/2 96/25/2 113/139/2
f 114/140/2 111/137/2 113/139/2
f 113/139/2 96/25/2 115/141/2
f 116/142/2 113/139/2 115/141/2
f 117/143/2 115/141/2 96/25/2
f 118/144/2 115/141/2 117/143/2
f 111/145/12 85/116/13 83/114/12
f 49/71/14 43/146/15 50/72/15
f 76/106/16 105/147/17 74/104/17
f 24/32/18 29/148/19 26/149/18
f 101/150/20 82/113/21 81/112/20
f 80/111/22 101/150/20 81/112/20
f 12/14/23 13/151/24 14/152/23
f 99/153/25 78/109/26 68/108/25
f 90/121/27 117/154/28 87/118/28
f 41/59/29 36/155/30 37/156/29
f 85/116/13 113/157/31 88/119/31
f 105/147/17 72/102/32 74/104/17
f 52/74/33 56/158/34 54/159/33
f 86/117/35 94/160/36 84/115/36
f 75/105/37 107/161/38 77/107/38
f 21/30/39 7/162/40 8/163/39
f 48/68/41 53/164/42 46/165/41
f 83/114/12 112/166/21 111/145/12
f 3/167/43 10/9/44 19/2/43
f 40/56/45 36/155/30 39/57/30
f 10/9/44 15/168/46 9/10/46
f 52/74/33 53/164/42 51/75/42
f 40/56/45 43/146/15 35/169/45
f 9/10/46 13/151/24 11/12/24
f 48/68/41 45/170/47 47/69/47
f 117/154/28 86/117/35 87/118/28
f 44/171/48 47/69/47 45/170/47
f 89/120/49 115/172/50 91/122/50
f 78/109/26 98/173/51 79/110/51
f 65/92/52 2/174/53 20/89/53
f 32/44/54 33/175/55 31/45/55
f 22/29/40 25/176/56 7/162/40
f 98/173/51 80/111/22 79/110/51
f 32/44/54 38/177/57 34/178/54
f 72/102/32 103/179/58 70/100/58
f 3/167/43 20/89/53 2/174/53
f 12/14/23 56/158/34 55/80/34
f 28/38/59 29/148/19 27/39/19
f 24/32/18 25/176/56 23/33/56
f 5/1/60 16/180/61 17/181/60
f 103/179/58 67/98/62 70/100/58
f 67/98/62 99/153/25 68/108/25
f 28/38/59 33/175/55 30/182/63
f 6/4/61 8/163/39 16/180/61
f 41/59/29 38/177/57 42/60/57
f 71/101/64 109/183/65 73/103/65
f 113/157/31 89/120/49 88/119/31
f 115/172/50 90/121/27 91/122/50
f 107/161/38 76/106/16 77/107/38
f 94/160/36 65/92/52 84/115/36
f 92/184/66 5/1/60 17/181/60
f 95/185/67 66/96/66 92/184/66
f 57/86/1 61/97/1 60/124/1
f 69/99/67 97/186/64 71/101/64
f 109/183/65 75/105/37 73/103/65
f 123/1/1 137/2/1 122/3/1
f 124/4/1 123/1/1 122/5/1
f 119/6/2 126/7/2 125/8/2
f 128/9/1 127/10/1 122/11/1
f 127/10/1 129/12/1 122/13/1
f 129/12/1 130/14/1 122/13/1
f 132/15/2 131/16/2 119/17/2
f 119/17/2 131/16/2 133/18/2
f 126/7/2 119/19/2 134/20/2
f 135/21/2 134/20/2 119/19/2
f 133/18/2 136/22/2 119/23/2
f 119/23/2 136/22/2 121/24/2
f 214/25/2 216/26/2 215/27/2
f 137/2/1 128/9/1 122/28/1
f 140/29/1 139/30/1 122/31/1
f 139/30/1 124/4/1 122/31/1
f 142/32/1 141/33/1 122/34/1
f 141/33/1 140/29/1 122/34/1
f 125/8/2 143/35/2 119/36/2
f 119/36/2 143/35/2 144/37/2
f 146/38/1 145/39/1 122/40/1
f 145/39/1 142/32/1 122/40/1
f 144/37/2 147/41/2 119/42/2
f 119/42/2 147/41/2 148/43/2
f 150/44/1 149/45/1 122/46/1
f 149/45/1 146/38/1 122/46/1
f 148/43/2 151/47/2 119/48/2
f 119/48/2 151/47/2 152/49/2
f 119/50/2 154/51/2 153/52/2
f 155/53/2 154/51/2 119/50/2
f 119/54/2 156/55/2 155/53/2
f 152/49/2 156/55/2 119/54/2
f 158/56/1 157/57/1 122/58/1
f 157/57/1 159/59/1 122/58/1
f 159/59/1 160/60/1 122/61/1
f 160/60/1 150/44/1 122/61/1
f 153/52/2 161/62/2 119/63/2
f 119/63/2 161/62/2 162/64/2
f 162/64/2 163/65/2 119/66/2
f 119/66/2 163/65/2 164/67/2
f 166/68/1 165/69/1 122/70/1
f 165/69/1 167/71/1 122/70/1
f 167/71/1 168/72/1 122/73/1
f 168/72/1 158/56/1 122/73/1
f 170/74/1 169/75/1 122/76/1
f 169/75/1 166/68/1 122/76/1
f 164/67/2 171/77/2 119/78/2
f 119/78/2 171/77/2 172/79/2
f 130/14/1 173/80/1 122/81/1
f 173/80/1 170/74/1 122/81/1
f 172/79/2 174/82/2 119/83/2
f 119/83/2 174/82/2 132/15/2
f 135/21/2 121/24/2 120/84/2
f 211/85/2 135/21/2 120/84/2
f 175/86/68 182/87/69 180/88/70
f 138/89/1 123/1/1 176/90/1
f 177/91/1 138/89/1 176/90/1
f 176/90/1 123/1/1 182/87/1
f 138/89/1 177/91/1 183/92/1
f 177/91/1 181/93/1 183/92/1
f 212/94/2 210/95/2 211/85/2
f 123/1/1 184/96/1 182/87/1
f 182/87/71 179/97/71 180/88/71
f 185/98/1 184/96/1 187/99/1
f 188/100/1 185/98/1 187/99/1
f 188/100/1 187/99/1 189/101/1
f 190/102/1 188/100/1 189/101/1
f 190/102/1 189/101/1 191/103/1
f 192/104/1 190/102/1 191/103/1
f 192/104/1 191/103/1 193/105/1
f 194/106/1 192/104/1 193/105/1
f 193/105/1 195/107/1 194/106/1
f 186/108/1 196/109/1 183/92/1
f 196/109/1 197/110/1 183/92/1
f 197/110/1 198/111/1 183/92/1
f 198/111/1 199/112/1 183/92/1
f 199/112/1 200/113/1 183/92/1
f 200/113/1 201/114/1 183/92/1
f 201/114/1 202/115/1 183/92/1
f 201/114/1 203/116/1 202/115/1
f 203/116/1 204/117/1 202/115/1
f 203/116/1 205/118/1 204/117/1
f 203/116/1 206/119/1 205/118/1
f 206/119/1 207/120/1 205/118/1
f 207/120/1 208/121/1 205/118/1
f 207/120/1 209/122/1 208/121/1
f 214/25/2 213/123/2 212/94/2
f 178/124/72 176/90/72 175/86/72
f 183/92/1 182/87/1 184/96/1
f 185/98/1 183/92/1 184/96/1
f 178/124/73 181/93/74 177/91/75
f 217/125/2 215/27/2 216/26/2
f 218/126/2 217/125/2 216/26/2
f 220/127/2 216/26/2 219/128/2
f 215/27/2 217/125/2 221/129/2
f 222/130/2 221/129/2 217/125/2
f 223/131/2 215/27/2 221/129/2
f 224/132/2 223/131/2 221/129/2
f 215/27/2 223/131/2 225/133/2
f 226/134/2 225/133/2 223/131/2
f 215/27/2 225/133/2 227/135/2
f 228/136/76 227/135/2 225/133/2
f 219/128/2 214/25/2 229/137/2
f 230/138/2 219/128/2 229/137/2
f 229/137/2 214/25/2 231/139/2
f 232/140/2 229/137/2 231/139/2
f 231/139/2 214/25/2 233/141/2
f 234/142/2 231/139/2 233/141/2
f 235/143/2 233/141/2 214/25/2
f 236/144/2 233/141/2 235/143/2
f 229/145/77 203/116/78 201/114/77
f 167/71/79 161/146/80 168/72/80
f 194/106/27 223/147/81 192/104/81
f 142/32/23 147/148/24 144/149/23
f 199/112/82 230/166/83 200/113/83
f 198/111/84 219/150/82 199/112/82
f 130/14/18 131/151/19 132/152/18
f 217/153/85 196/109/86 186/108/85
f 208/121/16 235/154/87 205/118/87
f 159/59/88 154/155/89 155/156/88
f 203/116/78 231/157/90 206/119/90
f 223/147/81 190/102/91 192/104/81
f 170/74/92 174/158/56 172/159/92
f 204/117/93 212/160/94 202/115/94
f 193/105/49 225/161/50 195/107/50
f 139/30/95 125/162/96 126/163/95
f 166/68/97 171/164/98 164/165/97
f 200/113/83 229/145/77 201/114/77
f 121/167/99 128/9/100 137/2/99
f 158/56/101 154/155/89 157/57/89
f 128/9/100 133/168/102 127/10/102
f 170/74/92 171/164/98 169/75/98
f 158/56/101 161/146/80 153/169/101
f 127/10/102 131/151/19 129/12/19
f 166/68/97 163/170/103 165/69/103
f 235/154/87 204/117/93 205/118/87
f 167/71/79 163/170/103 162/171/79
f 207/120/37 233/172/38 209/122/38
f 196/109/86 216/173/104 197/110/104
f 183/92/105 120/174/106 138/89/106
f 150/44/107 151/175/108 149/45/108
f 140/29/96 143/176/34 125/162/96
f 216/173/104 198/111/84 197/110/104
f 150/44/107 156/177/109 152/178/107
f 190/102/91 221/179/110 188/100/110
f 121/167/99 138/89/106 120/174/106
f 130/14/18 174/158/56 173/80/56
f 146/38/111 147/148/24 145/39/24
f 142/32/23 143/176/34 141/33/34
f 123/1/112 134/180/113 135/181/112
f 221/179/110 185/98/114 188/100/110
f 185/98/114 217/153/85 186/108/85
f 146/38/111 151/175/108 148/182/111
f 124/4/113 126/163/95 134/180/113
f 159/59/88 156/177/109 160/60/109
f 189/101/115 227/183/116 191/103/116
f 231/157/90 207/120/37 206/119/90
f 233/172/38 208/121/16 209/122/38
f 225/161/50 194/106/27 195/107/50
f 212/160/94 183/92/105 202/115/94
f 210/184/117 123/1/112 135/181/112
f 213/185/118 184/96/117 210/184/117
f 175/86/1 179/97/1 178/124/1
f 187/99/118 215/186/115 189/101/115
f 227/183/116 193/105/49 191/103/116
f 5/1/1 20/89/1 19/2/1
f 96/25/2 101/128/2 98/26/2
f 17/21/2 1/187/2 3/24/2
f 93/85/2 92/95/2 17/21/2
f 57/86/3 58/90/119 64/87/4
f 94/94/2 95/123/2 92/95/2
f 64/87/6 63/93/6 61/97/6
f 96/25/2 97/27/2 95/123/2
f 60/124/7 59/91/7 58/90/7
f 65/92/1 63/93/1 64/87/1
f 67/98/1 68/108/1 65/92/1
f 60/124/8 61/97/120 63/93/9
f 111/145/12 114/188/13 85/116/13
f 49/71/14 44/171/48 43/146/15
f 76/106/16 108/189/16 105/147/17
f 24/32/18 27/39/19 29/148/19
f 101/150/20 112/166/21 82/113/21
f 80/111/22 102/190/22 101/150/20
f 12/14/23 11/12/24 13/151/24
f 99/153/25 100/191/26 78/109/26
f 90/121/27 118/192/27 117/154/28
f 41/59/29 39/57/30 36/155/30
f 85/116/13 114/188/13 113/157/31
f 105/147/17 106/193/32 72/102/32
f 52/74/33 55/80/34 56/158/34
f 86/117/35 96/194/35 94/160/36
f 75/105/37 110/195/37 107/161/38
f 21/30/39 22/29/40 7/162/40
f 48/68/41 51/75/42 53/164/42
f 83/114/12 82/113/21 112/166/21
f 3/167/43 18/196/44 10/9/44
f 40/56/45 35/169/45 36/155/30
f 10/9/44 18/196/44 15/168/46
f 52/74/33 54/159/33 53/164/42
f 40/56/45 50/72/15 43/146/15
f 9/10/46 15/168/46 13/151/24
f 48/68/41 46/165/41 45/170/47
f 117/154/28 96/194/35 86/117/35
f 44/171/48 49/71/14 47/69/47
f 89/120/49 116/197/49 115/172/50
f 78/109/26 100/191/26 98/173/51
f 65/92/52 93/198/52 2/174/53
f 32/44/54 34/178/54 33/175/55
f 22/29/40 23/33/56 25/176/56
f 98/173/51 102/190/22 80/111/22
f 32/44/54 42/60/57 38/177/57
f 72/102/32 106/193/32 103/179/58
f 3/167/43 19/2/43 20/89/53
f 12/14/23 14/152/23 56/158/34
f 28/38/59 30/182/63 29/148/19
f 24/32/18 26/149/18 25/176/56
f 5/1/60 6/4/61 16/180/61
f 103/179/58 104/199/62 67/98/62
f 67/98/62 104/199/62 99/153/25
f 28/38/59 31/45/55 33/175/55
f 6/4/61 21/30/39 8/163/39
f 41/59/29 37/156/29 38/177/57
f 71/101/64 97/186/64 109/183/65
f 113/157/31 116/197/49 89/120/49
f 115/172/50 118/192/27 90/121/27
f 107/161/38 108/189/16 76/106/16
f 94/160/36 93/198/52 65/92/52
f 92/184/66 66/96/66 5/1/60
f 95/185/67 69/99/67 66/96/66
f 57/86/1 62/88/1 61/97/1
f 69/99/67 95/185/67 97/186/64
f 109/183/65 110/195/37 75/105/37
f 123/1/1 138/89/1 137/2/1
f 214/25/2 219/128/2 216/26/2
f 135/21/2 119/187/2 121/24/2
f 211/85/2 210/95/2 135/21/2
f 175/86/68 176/90/121 182/87/69
f 212/94/2 213/123/2 210/95/2
f 182/87/71 181/93/71 179/97/71
f 214/25/2 215/27/2 213/123/2
f 178/124/72 177/91/72 176/90/72
f 183/92/1 181/93/1 182/87/1
f 185/98/1 186/108/1 183/92/1
f 178/124/73 179/97/122 181/93/74
f 229/145/77 232/188/78 203/116/78
f 167/71/79 162/171/79 161/146/80
f 194/106/27 226/189/27 223/147/81
f 142/32/23 145/39/24 147/148/24
f 199/112/82 219/150/82 230/166/83
f 198/111/84 220/190/84 219/150/82
f 130/14/18 129/12/19 131/151/19
f 217/153/85 218/191/86 196/109/86
f 208/121/16 236/192/16 235/154/87
f 159/59/88 157/57/89 154/155/89
f 203/116/78 232/188/78 231/157/90
f 223/147/81 224/193/91 190/102/91
f 170/74/92 173/80/56 174/158/56
f 204/117/93 214/194/93 212/160/94
f 193/105/49 228/195/49 225/161/50
f 139/30/95 140/29/96 125/162/96
f 166/68/97 169/75/98 171/164/98
f 200/113/83 230/166/83 229/145/77
f 121/167/99 136/196/100 128/9/100
f 158/56/101 153/169/101 154/155/89
f 128/9/100 136/196/100 133/168/102
f 170/74/92 172/159/92 171/164/98
f 158/56/101 168/72/80 161/146/80
f 127/10/102 133/168/102 131/151/19
f 166/68/97 164/165/97 163/170/103
f 235/154/87 214/194/93 204/117/93
f 167/71/79 165/69/103 163/170/103
f 207/120/37 234/197/37 233/172/38
f 196/109/86 218/191/86 216/173/104
f 183/92/105 211/198/105 120/174/106
f 150/44/107 152/178/107 151/175/108
f 140/29/96 141/33/34 143/176/34
f 216/173/104 220/190/84 198/111/84
f 150/44/107 160/60/109 156/177/109
f 190/102/91 224/193/91 221/179/110
f 121/167/99 137/2/99 138/89/106
f 130/14/18 132/152/18 174/158/56
f 146/38/111 148/182/111 147/148/24
f 142/32/23 144/149/23 143/176/34
f 123/1/112 124/4/113 134/180/113
f 221/179/110 222/199/114 185/98/114
f 185/98/114 222/199/114 217/153/85
f 146/38/111 149/45/108 151/175/108
f 124/4/113 139/30/95 126/163/95
f 159/59/88 155/156/88 156/177/109
f 189/101/115 215/186/115 227/183/116
f 231/157/90 234/197/37 207/120/37
f 233/172/38 236/192/16 208/121/16
f 225/161/50 226/189/27 194/106/27
f 212/160/94 211/198/105 183/92/105
f 210/184/117 184/96/117 123/1/112
f 213/185/118 187/99/118 184/96/117
f 175/86/1 180/88/1 179/97/1
f 187/99/118 213/185/118 215/186/115
f 227/183/116 228/195/49 193/105/49
