# Blender 5.2.1 LTS
# www.blender.org
o s060_mech_push_rod_to_connect.002
v -71.923538 -2.579032 9.223929
v -71.923538 2.837068 9.223927
v -71.923538 1.696135 154.802612
v -71.923538 -1.529951 154.802612
v 71.923538 -2.579026 9.223917
v 71.923538 2.837073 9.223915
v 71.923538 1.696153 154.802597
v 71.923538 -1.529933 154.802597
vn -1.0000 -0.0000 -0.0000
vn 1.0000 -0.0000 -0.0000
vt 0.013033 0.775097
vt 0.019735 0.588118
vt 0.022042 0.775236
vt 0.014892 0.588327
s 1
f 1/1/1 3/2/1 2/3/1
f 7/2/2 5/1/2 6/3/2
f 1/1/1 4/4/1 3/2/1
f 7/2/2 8/4/2 5/1/2
