# Blender 5.2.1 LTS
# www.blender.org
o s060_mech_push_rod
v -67.811523 13.104838 -6.595420
v -67.811523 13.723702 -5.268245
v -67.811523 13.797401 -6.110506
v -67.811523 12.264908 -5.395874
v -67.811523 12.338588 -6.238135
v -67.811523 12.957471 -4.910960
v -74.452667 12.264908 -5.395874
v -74.452667 12.957471 -4.910960
v -74.452667 13.723702 -5.268245
v -74.452667 13.797393 -6.110506
v -74.452667 13.104831 -6.595420
v -74.452667 12.338588 -6.238135
v -74.452667 12.804259 -0.965747
v -74.452667 13.839727 -2.001195
v -74.452667 13.620909 -1.184569
v -74.452667 13.241898 -2.599044
v -74.452667 12.425258 -2.380222
v -74.452667 12.206430 -1.563555
v -67.811523 12.327695 2.392022
v -74.452667 12.253998 1.549761
v -74.452667 12.327695 2.392022
v -67.811523 12.253998 1.549761
v -74.452667 12.946560 1.064850
v -67.811523 12.946560 1.064850
v -74.452667 13.712794 1.422132
v -67.811523 13.712794 1.422132
v -74.452667 13.786489 2.264402
v -67.811523 13.786489 2.264402
v -74.452667 13.093929 2.749307
v -67.811523 13.093929 2.749307
v -67.811523 12.804259 -0.965747
v -67.811523 12.206430 -1.563555
v -67.811523 13.620909 -1.184569
v -67.811523 13.839727 -2.001195
v -67.811523 13.241898 -2.599044
v -67.811523 12.425258 -2.380222
v -67.811523 12.327674 5.182231
v -67.811523 12.253981 6.024502
v -67.811523 12.946543 6.509416
v -67.811523 13.786470 5.309861
v -67.811523 13.093908 4.824950
v -67.811523 13.712775 6.152131
v -74.452667 13.093908 4.824950
v -74.452667 12.253981 6.024502
v -74.452667 12.327674 5.182231
v -74.452667 13.786470 5.309861
v -74.452667 13.712775 6.152131
v -74.452667 12.946543 6.509416
v -74.920982 -3.541954 0.000000
v -67.553452 -3.541954 0.000000
v -67.553452 -3.272338 -1.355438
v -74.920982 -3.272338 -1.355438
v -67.553452 -2.504534 -2.504559
v -74.920982 -2.504534 -2.504559
v -67.553452 -1.355436 -3.272363
v -74.920982 -1.355448 -3.272363
v -67.553452 -0.000010 -3.541966
v -74.920982 -0.000010 -3.541966
v -67.553452 1.355441 -3.272376
v -74.920982 1.355441 -3.272376
v -67.553452 2.504540 -2.504572
v -74.920982 2.504540 -2.504572
v -67.553452 3.272341 -1.355451
v -74.920982 3.272341 -1.355451
v -67.553452 3.541957 -0.000013
v -74.920982 3.541957 -0.000013
v -67.553452 3.272341 1.355426
v -74.920982 3.272341 1.355426
v -67.553452 2.504540 2.504497
v -74.920982 2.504540 2.504497
v -67.553452 1.355441 3.272300
v -74.920982 1.355441 3.272300
v -67.553452 -0.000010 3.541954
v -74.920982 -0.000010 3.541954
v -67.553452 -1.355435 3.272313
v -74.920982 -1.355435 3.272313
v -67.553452 -2.504534 2.504547
v -74.920982 -2.504534 2.504509
v -67.553452 -3.272338 1.355438
v -74.920982 -3.272338 1.355438
v -71.171959 -1.229383 9.756695
v -71.171959 -1.229385 2.595401
v -71.783859 -1.064972 2.595401
v -71.783852 -1.064971 9.756691
v -72.232384 -0.615201 2.595401
v -72.232384 -0.615201 9.756691
v -72.396774 0.000003 2.595401
v -72.396774 0.000005 9.756691
v -72.232384 0.615206 2.595389
v -72.232384 0.615209 9.756679
v -71.783852 1.064974 2.595389
v -71.783852 1.064974 9.756679
v -71.171959 1.229376 2.595389
v -71.171959 1.229377 9.756679
v -70.560059 1.064974 2.595389
v -70.560059 1.064974 9.756679
v -70.111526 0.615205 2.595389
v -70.111526 0.615208 9.756679
v -69.947136 0.000003 2.595401
v -69.947136 0.000004 9.756691
v -70.111526 -0.615206 2.595401
v -70.111526 -0.615205 9.756691
v -70.560059 -1.064972 2.595401
v -70.560059 -1.064971 9.756691
v -74.057091 16.159021 9.492903
v -74.057098 8.590105 -9.492906
v -74.057098 16.159031 -9.492906
v -74.057091 8.590098 9.492906
v -74.057098 -7.233517 -2.727186
v -74.057098 -7.233521 0.000000
v -74.057091 -7.233526 2.727183
v -74.057091 -10.367024 2.727180
v -74.057098 -10.367016 -2.727192
v -74.057098 -12.483521 -0.610691
v -74.057098 -11.425266 -2.443639
v -74.057098 -12.199962 -1.668945
v -74.057091 -12.483521 0.610675
v -74.057091 -12.199965 1.668929
v -74.057091 -11.425275 2.443623
v -68.211395 16.159031 -9.492906
v -68.211388 16.159021 9.492903
v -73.220001 15.162197 9.492903
v -69.048477 15.162197 9.492903
v -68.211388 8.590098 9.492906
v -69.048477 8.590098 9.492906
v -73.220016 15.162207 -9.492906
v -73.220001 8.590098 9.492906
v -73.220016 8.590105 -9.492906
v -73.220001 -7.233526 2.727183
v -73.220016 -7.233517 -2.727186
v -73.220016 -10.367016 -2.727192
v -73.220001 -10.367024 2.727180
v -73.220009 -12.483521 0.610675
v -73.220001 -11.425275 2.443623
v -73.220001 -12.199965 1.668929
v -73.220009 -12.483521 -0.610691
v -73.220016 -12.199961 -1.668945
v -73.220016 -11.425266 -2.443639
v -69.048485 15.162207 -9.492906
v -69.048477 8.590105 -9.492906
v -68.211395 8.590105 -9.492906
v -68.211395 -7.233518 -2.727186
v -68.211388 -7.233526 2.727183
v -69.048477 -7.233518 -2.727186
v -69.048477 -7.233526 2.727183
v -70.311684 -1.494140 73.710373
v -71.171959 -1.725296 11.289188
v -71.171959 -1.725283 73.710396
v -70.311684 -1.494146 11.289186
v -69.681923 -0.862636 73.710373
v -69.681923 -0.862649 11.289186
v -69.451416 0.000008 73.710373
v -69.451416 0.000004 11.289186
v -69.681923 0.862665 73.710373
v -69.681923 0.862652 11.289173
v -70.311684 1.494158 73.710373
v -70.311684 1.494152 11.289173
v -71.171959 1.725301 73.710373
v -71.171959 1.725288 11.289173
v -72.032227 1.494158 73.710373
v -72.032227 1.494152 11.289173
v -72.661995 0.862665 73.710373
v -72.661995 0.862652 11.289173
v -72.892502 0.000008 73.710373
v -72.892502 0.000004 11.289186
v -72.661995 -0.862636 73.710373
v -72.661995 -0.862642 11.289186
v -72.032227 -1.494132 73.710373
v -72.032234 -1.494145 11.289186
v -74.920982 0.000002 -0.000031
v 67.811516 13.104835 -6.595412
v 67.811516 13.723698 -5.268237
v 67.811516 13.797397 -6.110498
v 67.811516 12.264904 -5.395866
v 67.811516 12.338584 -6.238127
v 67.811516 12.957466 -4.910953
v 74.452660 12.264904 -5.395866
v 74.452660 12.957466 -4.910953
v 74.452660 13.723698 -5.268237
v 74.452660 13.797388 -6.110498
v 74.452660 13.104827 -6.595412
v 74.452660 12.338584 -6.238127
v 74.452660 12.804255 -0.965740
v 74.452660 13.839723 -2.001188
v 74.452660 13.620904 -1.184561
v 74.452660 13.241893 -2.599036
v 74.452660 12.425253 -2.380214
v 74.452660 12.206426 -1.563547
v 67.811516 12.327690 2.392029
v 74.452660 12.253993 1.549768
v 74.452660 12.327690 2.392029
v 67.811516 12.253993 1.549768
v 74.452660 12.946555 1.064858
v 67.811516 12.946555 1.064858
v 74.452660 13.712790 1.422139
v 67.811516 13.712790 1.422139
v 74.452660 13.786485 2.264410
v 67.811516 13.786485 2.264410
v 74.452660 13.093925 2.749314
v 67.811516 13.093925 2.749314
v 67.811516 12.804255 -0.965740
v 67.811516 12.206426 -1.563547
v 67.811516 13.620904 -1.184561
v 67.811516 13.839723 -2.001188
v 67.811516 13.241893 -2.599036
v 67.811516 12.425253 -2.380214
v 67.811516 12.327669 5.182238
v 67.811516 12.253975 6.024508
v 67.811516 12.946538 6.509423
v 67.811516 13.786466 5.309867
v 67.811516 13.093904 4.824957
v 67.811516 13.712770 6.152138
v 74.452660 13.093904 4.824957
v 74.452660 12.253975 6.024508
v 74.452660 12.327669 5.182238
v 74.452660 13.786466 5.309867
v 74.452660 13.712770 6.152138
v 74.452660 12.946538 6.509423
v 74.920982 -3.541957 0.000006
v 67.553452 -3.541957 0.000006
v 67.553452 -3.272342 -1.355432
v 74.920982 -3.272342 -1.355432
v 67.553452 -2.504538 -2.504553
v 74.920982 -2.504538 -2.504553
v 67.553452 -1.355439 -3.272357
v 74.920982 -1.355452 -3.272357
v 67.553452 -0.000013 -3.541960
v 74.920982 -0.000013 -3.541960
v 67.553452 1.355437 -3.272369
v 74.920982 1.355437 -3.272369
v 67.553452 2.504536 -2.504565
v 74.920982 2.504536 -2.504565
v 67.553452 3.272337 -1.355444
v 74.920982 3.272337 -1.355444
v 67.553452 3.541953 -0.000006
v 74.920982 3.541953 -0.000006
v 67.553452 3.272337 1.355432
v 74.920982 3.272337 1.355432
v 67.553452 2.504536 2.504503
v 74.920982 2.504536 2.504503
v 67.553452 1.355437 3.272307
v 74.920982 1.355437 3.272307
v 67.553452 -0.000014 3.541960
v 74.920982 -0.000014 3.541960
v 67.553452 -1.355439 3.272319
v 74.920982 -1.355439 3.272319
v 67.553452 -2.504538 2.504553
v 74.920982 -2.504538 2.504515
v 67.553452 -3.272342 1.355444
v 74.920982 -3.272342 1.355444
v 71.171959 -1.229388 9.756700
v 71.171959 -1.229389 2.595407
v 71.783852 -1.064976 2.595407
v 71.783852 -1.064975 9.756697
v 72.232384 -0.615205 2.595407
v 72.232384 -0.615205 9.756697
v 72.396774 -0.000001 2.595407
v 72.396774 0.000000 9.756697
v 72.232384 0.615202 2.595395
v 72.232384 0.615204 9.756684
v 71.783852 1.064970 2.595395
v 71.783852 1.064970 9.756684
v 71.171959 1.229372 2.595395
v 71.171959 1.229373 9.756684
v 70.560059 1.064970 2.595395
v 70.560059 1.064970 9.756684
v 70.111534 0.615201 2.595395
v 70.111534 0.615203 9.756684
v 69.947136 -0.000001 2.595407
v 69.947136 -0.000000 9.756697
v 70.111534 -0.615210 2.595407
v 70.111534 -0.615209 9.756697
v 70.560066 -1.064976 2.595407
v 70.560066 -1.064976 9.756697
v 74.057083 16.159016 9.492909
v 74.057098 8.590101 -9.492898
v 74.057098 16.159027 -9.492897
v 74.057083 8.590093 9.492911
v 74.057098 -7.233520 -2.727180
v 74.057098 -7.233524 0.000006
v 74.057083 -7.233529 2.727188
v 74.057083 -10.367027 2.727185
v 74.057098 -10.367019 -2.727187
v 74.057098 -12.483523 -0.610685
v 74.057098 -11.425270 -2.443634
v 74.057098 -12.199965 -1.668939
v 74.057083 -12.483524 0.610680
v 74.057083 -12.199969 1.668934
v 74.057083 -11.425278 2.443629
v 68.211395 16.159027 -9.492897
v 68.211380 16.159016 9.492909
v 73.220001 15.162191 9.492909
v 69.048470 15.162191 9.492909
v 68.211380 8.590093 9.492911
v 69.048470 8.590093 9.492911
v 73.220016 15.162204 -9.492897
v 73.220001 8.590093 9.492911
v 73.220016 8.590101 -9.492898
v 73.220001 -7.233529 2.727188
v 73.220016 -7.233520 -2.727180
v 73.220016 -10.367019 -2.727187
v 73.220001 -10.367027 2.727185
v 73.220001 -12.483524 0.610680
v 73.220001 -11.425278 2.443629
v 73.220001 -12.199969 1.668934
v 73.220001 -12.483523 -0.610685
v 73.220016 -12.199965 -1.668939
v 73.220016 -11.425270 -2.443634
v 69.048477 15.162204 -9.492897
v 69.048477 8.590101 -9.492898
v 68.211395 8.590101 -9.492898
v 68.211395 -7.233521 -2.727180
v 68.211380 -7.233529 2.727188
v 69.048477 -7.233521 -2.727180
v 69.048470 -7.233529 2.727188
v 70.311684 -1.494150 73.710373
v 71.171959 -1.725300 11.289194
v 71.171959 -1.725292 73.710396
v 70.311684 -1.494151 11.289190
v 69.681915 -0.862646 73.710373
v 69.681915 -0.862654 11.289190
v 69.451416 -0.000002 73.710373
v 69.451416 -0.000000 11.289190
v 69.681915 0.862655 73.710373
v 69.681915 0.862647 11.289178
v 70.311684 1.494148 73.710373
v 70.311684 1.494148 11.289178
v 71.171959 1.725291 73.710373
v 71.171959 1.725284 11.289178
v 72.032227 1.494148 73.710373
v 72.032227 1.494148 11.289178
v 72.661995 0.862655 73.710373
v 72.661995 0.862647 11.289178
v 72.892509 -0.000002 73.710373
v 72.892509 -0.000000 11.289190
v 72.661995 -0.862646 73.710373
v 72.661995 -0.862647 11.289190
v 72.032227 -1.494142 73.710373
v 72.032242 -1.494150 11.289190
v 74.920982 -0.000002 -0.000025
vn 1.0000 -0.0000 -0.0000
vn -1.0000 -0.0000 -0.0000
vn -0.0000 -0.3827 0.9239
vn -0.0000 -0.0000 1.0000
vn -0.0000 0.7071 -0.7071
vn -0.0000 0.3827 -0.9239
vn -0.4951 -0.8554 -0.1520
vn -0.8665 -0.4991 -0.0000
vn -0.8565 -0.4933 -0.1520
vn -0.0000 -0.7071 -0.7071
vn -0.0000 -0.8660 -0.5000
vn -0.0000 -0.9914 -0.1305
vn -0.0000 -0.0000 -1.0000
vn -0.0000 -0.1305 -0.9914
vn -0.0000 -0.2007 -0.9797
vn -0.0000 -0.4226 -0.9063
vn -0.0000 0.5735 0.8192
vn -0.0000 0.5736 0.8192
vn -0.0000 0.9962 0.0872
vn -0.0000 -0.5736 -0.8192
vn -0.0000 -0.7071 0.7071
vn -0.0000 -0.9659 -0.2588
vn -0.0000 -0.4226 0.9063
vn -0.0000 -0.9962 -0.0871
vn -0.0000 -0.9239 -0.3827
vn -0.0000 -0.2588 -0.9659
vn -0.0000 0.9659 0.2588
vn -0.0000 0.4226 0.9063
vn -0.0000 -1.0000 -0.0000
vn -0.0000 -0.9239 0.3827
vn -0.0000 0.5736 -0.8192
vn -0.0000 0.3827 0.9239
vn -0.0000 -0.1305 0.9914
vn -0.0000 -0.2007 0.9797
vn -0.0000 0.7071 0.7071
vn -0.0000 1.0000 -0.0000
vn -0.0000 0.9239 -0.3827
vn -0.0000 0.9884 -0.1520
vn 0.2595 0.9657 -0.0000
vn 0.4951 0.8554 -0.1520
vn -0.0000 -0.9659 0.2588
vn -0.0000 -0.9914 0.1305
vn -0.0000 0.2588 0.9659
vn -0.0000 -0.5736 0.8192
vn 0.8665 -0.4991 -0.0000
vn 0.9871 -0.0000 -0.1599
vn 0.8554 -0.4927 -0.1599
vn -0.0000 0.9962 -0.0872
vn -0.0000 0.4226 -0.9063
vn -0.0000 0.9239 0.3827
vn -0.0000 -0.9962 -0.0872
vn -0.0000 -0.9884 -0.1520
vn -0.2595 -0.9657 -0.0000
vn 0.2595 -0.9657 -0.0000
vn 0.4944 -0.8544 -0.1599
vn -0.0000 -0.9871 -0.1600
vn -0.9884 -0.0000 -0.1520
vn 0.8554 0.4927 -0.1599
vn -0.2595 0.9658 -0.0000
vn -0.4944 0.8544 -0.1599
vn -0.0000 0.9871 -0.1600
vn -0.7081 0.7061 -0.0000
vn -0.8554 0.4927 -0.1599
vn -0.8554 -0.4927 -0.1599
vn -0.9871 -0.0000 -0.1599
vn -0.0000 -0.3827 -0.9239
vn -0.0000 -0.2006 0.9797
vn 0.7081 -0.7061 -0.0000
vn 0.9884 -0.0000 -0.1520
vn 0.8565 -0.4933 -0.1520
vn 0.8665 0.4991 -0.0000
vn 0.8565 0.4933 -0.1520
vn 0.2595 0.9658 -0.0000
vn 0.4944 0.8544 -0.1599
vn -0.0000 -0.9962 0.0872
vn -0.0000 -0.2588 0.9659
vn -0.0000 -0.3931 0.9195
vn -0.7081 -0.7061 -0.0000
vn -0.4945 -0.8544 -0.1599
vn -0.8665 0.4991 -0.0000
vn -0.8565 0.4933 -0.1520
vn -0.4951 0.8555 -0.1520
vn -0.2595 0.9657 -0.0000
vn 0.4951 -0.8554 -0.1520
vn -0.0000 -0.3931 -0.9195
vn -0.4944 -0.8544 -0.1599
vn 0.7081 0.7061 -0.0000
vn 0.4951 0.8555 -0.1520
vt 0.200493 0.869321
vt 0.200493 0.870732
vt 0.199315 0.868621
vt 0.727025 0.940472
vt 0.724914 0.941672
vt 0.725603 0.940472
vt 0.198116 0.870732
vt 0.199315 0.871432
vt 0.479139 0.957140
vt 0.481428 0.969215
vt 0.479139 0.969215
vt 0.495047 0.957140
vt 0.497313 0.969215
vt 0.495047 0.969215
vt 0.600773 0.809361
vt 0.689733 0.810348
vt 0.600864 0.810939
vt 0.149344 0.749998
vt 0.149709 0.747843
vt 0.150332 0.749031
vt 0.151798 0.748597
vt 0.151564 0.747220
vt 0.497313 0.957140
vt 0.499590 0.969215
vt 0.212635 0.868621
vt 0.213834 0.869321
vt 0.211435 0.869321
vt 0.713188 0.951540
vt 0.714598 0.949141
vt 0.715265 0.950352
vt 0.212635 0.871432
vt 0.211435 0.870732
vt 0.713188 0.962449
vt 0.714598 0.962449
vt 0.712510 0.963638
vt 0.991673 0.821574
vt 0.989618 0.820352
vt 0.991673 0.819186
vt 0.714598 0.964882
vt 0.713188 0.964882
vt 0.148945 0.751565
vt 0.146704 0.756309
vt 0.147534 0.751132
vt 0.988918 0.832494
vt 0.987552 0.821574
vt 0.988918 0.821574
vt 0.724226 0.929519
vt 0.724226 0.940472
vt 0.991673 0.832494
vt 0.990307 0.821574
vt 0.728369 0.929519
vt 0.729758 0.940472
vt 0.728369 0.940472
vt 0.711799 0.962449
vt 0.710421 0.951540
vt 0.711799 0.951540
vt 0.725603 0.942861
vt 0.727025 0.942861
vt 0.727680 0.928330
vt 0.725603 0.927142
vt 0.727025 0.927142
vt 0.727680 0.941672
vt 0.718742 0.962449
vt 0.717342 0.951540
vt 0.718742 0.951540
vt 0.722837 0.929519
vt 0.722837 0.940472
vt 0.211435 0.866544
vt 0.200493 0.865167
vt 0.211435 0.865167
vt 0.504134 0.957140
vt 0.506389 0.969215
vt 0.504134 0.969215
vt 0.715965 0.962449
vt 0.714598 0.951540
vt 0.715965 0.951540
vt 0.717342 0.962449
vt 0.715265 0.963638
vt 0.989618 0.833694
vt 0.990307 0.832494
vt 0.990307 0.834916
vt 0.992373 0.833694
vt 0.990307 0.819186
vt 0.992373 0.820352
vt 0.846254 0.874308
vt 0.826180 0.848303
vt 0.857385 0.848303
vt 0.712510 0.950352
vt 0.713188 0.949141
vt 0.724914 0.928330
vt 0.725603 0.929519
vt 0.213834 0.870732
vt 0.727025 0.929519
vt 0.211435 0.872132
vt 0.472352 0.957140
vt 0.474607 0.969215
vt 0.472352 0.969215
vt 0.481428 0.957140
vt 0.483683 0.969215
vt 0.156499 0.751394
vt 0.158946 0.756047
vt 0.157557 0.756492
vt 0.483683 0.957140
vt 0.485949 0.969215
vt 0.490515 0.957140
vt 0.492781 0.969215
vt 0.490515 0.969215
vt 0.601092 0.817004
vt 0.689752 0.818324
vt 0.601060 0.818515
vt 0.154820 0.749017
vt 0.153741 0.747218
vt 0.155575 0.747906
vt 0.211435 0.873509
vt 0.200493 0.872132
vt 0.506389 0.957140
vt 0.508666 0.969215
vt 0.581891 0.822422
vt 0.597775 0.821329
vt 0.597676 0.822773
vt 0.485949 0.957140
vt 0.488226 0.969215
vt 0.488226 0.957140
vt 0.987552 0.832494
vt 0.986119 0.821574
vt 0.600594 0.807728
vt 0.689731 0.808759
vt 0.476873 0.957140
vt 0.476873 0.969215
vt 0.994473 0.832494
vt 0.993095 0.821574
vt 0.994473 0.821574
vt 0.581816 0.825111
vt 0.597522 0.824150
vt 0.597401 0.825483
vt 0.148222 0.749232
vt 0.689746 0.811958
vt 0.600943 0.812460
vt 0.581900 0.821067
vt 0.597785 0.819918
vt 0.153453 0.748585
vt 0.200493 0.867933
vt 0.211435 0.867933
vt 0.581918 0.816990
vt 0.597780 0.815563
vt 0.597760 0.817007
vt 0.581917 0.815657
vt 0.597779 0.814119
vt 0.597665 0.811242
vt 0.597755 0.812675
vt 0.137312 0.805960
vt 0.168289 0.796399
vt 0.168295 0.805942
vt 0.137300 0.784075
vt 0.137307 0.796417
vt 0.501857 0.957140
vt 0.501857 0.969215
vt 0.137320 0.818268
vt 0.168302 0.818250
vt 0.152830 0.756567
vt 0.168282 0.784057
vt 0.148104 0.756642
vt 0.155865 0.749961
vt 0.581914 0.812924
vt 0.169890 0.797743
vt 0.169894 0.804541
vt 0.169618 0.807541
vt 0.169624 0.818249
vt 0.826180 0.830662
vt 0.857385 0.837516
vt 0.826180 0.837516
vt 0.581859 0.823767
vt 0.837311 0.788693
vt 0.840788 0.785205
vt 0.846254 0.788693
vt 0.837756 0.786938
vt 0.839033 0.785671
vt 0.842766 0.785205
vt 0.844521 0.785671
vt 0.845787 0.786938
vt 0.135942 0.818269
vt 0.135936 0.807560
vt 0.169604 0.784057
vt 0.169610 0.794743
vt 0.993095 0.832494
vt 0.492781 0.957140
vt 0.600952 0.821547
vt 0.689757 0.823090
vt 0.600876 0.823070
vt 0.689754 0.819935
vt 0.601006 0.820048
vt 0.157264 0.845451
vt 0.148366 0.844090
vt 0.157263 0.844085
vt 0.200493 0.866544
vt 0.581920 0.818323
vt 0.597783 0.818462
vt 0.729758 0.929519
vt 0.731158 0.940472
vt 0.156887 0.749271
vt 0.157698 0.750926
vt 0.136044 0.783587
vt 0.846254 0.793847
vt 0.826180 0.819842
vt 0.837311 0.793847
vt 0.857385 0.819842
vt 0.581921 0.819690
vt 0.135656 0.804561
vt 0.135652 0.797762
vt 0.135929 0.794763
vt 0.135922 0.784076
vt 0.169581 0.783546
vt 0.158508 0.844606
vt 0.169535 0.818805
vt 0.581878 0.810225
vt 0.597497 0.809865
vt 0.581843 0.808903
vt 0.597373 0.808487
vt 0.499590 0.957140
vt 0.689747 0.813525
vt 0.601000 0.813971
vt 0.689749 0.815114
vt 0.601057 0.815482
vt 0.689751 0.816724
vt 0.121752 0.982029
vt 0.115237 0.991708
vt 0.113664 0.983596
vt 0.689759 0.824711
vt 0.600789 0.824614
vt 0.474607 0.957140
vt 0.689756 0.821512
vt 0.600613 0.826269
vt 0.689749 0.826278
vt 0.121734 0.991723
vt 0.119633 0.992572
vt 0.123357 0.990110
vt 0.117363 0.992572
vt 0.112807 0.987984
vt 0.113633 0.990092
vt 0.112800 0.985690
vt 0.117395 0.981126
vt 0.115287 0.981983
vt 0.119681 0.981158
vt 0.124237 0.985746
vt 0.123357 0.983645
vt 0.124229 0.988008
vt 0.223069 0.985711
vt 0.228777 0.986852
vt 0.223069 0.987989
vt 0.223925 0.990070
vt 0.223917 0.983605
vt 0.225559 0.991704
vt 0.225520 0.982003
vt 0.227656 0.992576
vt 0.227649 0.981131
vt 0.229911 0.992552
vt 0.229903 0.981155
vt 0.232016 0.991704
vt 0.232008 0.981987
vt 0.233618 0.990102
vt 0.233642 0.983621
vt 0.234490 0.987973
vt 0.234490 0.985742
vt 0.136054 0.818824
vt 0.198116 0.869321
vt 0.837311 0.874308
vt 0.857385 0.830662
vt 0.581891 0.811569
vt 0.581916 0.814302
vt 0.710422 0.962449
vt 0.200493 0.873509
vt 0.508666 0.957140
vt 0.986119 0.832494
vt 0.689730 0.807204
vt 0.148366 0.845456
vt 0.731158 0.929519
vt 0.991673 0.834916
vt 0.147088 0.844612
s 1
f 3/1/1 2/2/1 1/3/1
f 25/4/2 29/5/2 27/6/2
f 4/7/1 2/2/1 6/8/1
f 75/9/3 74/10/4 76/11/3
f 61/12/5 60/13/6 62/14/5
f 169/15/7 166/16/8 167/17/9
f 115/18/10 137/19/11 116/20/11
f 114/21/12 137/19/11 136/22/12
f 59/23/6 58/24/13 60/13/6
f 11/25/2 12/26/2 10/27/2
f 33/28/1 36/29/1 35/30/1
f 10/27/2 8/31/2 9/32/2
f 15/33/2 14/34/2 13/35/2
f 47/36/2 43/37/2 44/38/2
f 13/35/2 17/39/2 18/40/2
f 113/41/14 130/42/15 131/43/14
f 41/44/16 45/45/16 43/46/16
f 30/47/17 27/6/18 29/48/18
f 42/49/19 46/50/19 47/36/19
f 24/51/20 20/52/20 23/53/20
f 13/54/21 32/55/21 31/56/21
f 21/57/2 29/5/2 20/58/2
f 24/59/1 19/60/1 22/61/1
f 20/58/2 25/4/2 23/62/2
f 18/63/22 36/64/22 32/65/22
f 19/66/23 29/48/23 21/67/23
f 12/68/24 4/69/24 7/70/24
f 53/71/10 52/72/25 54/73/10
f 16/74/5 34/75/5 35/76/5
f 17/77/26 35/76/26 36/64/26
f 17/39/2 14/34/2 16/78/2
f 41/79/1 40/80/1 37/81/1
f 39/82/1 40/80/1 42/49/1
f 45/83/2 44/38/2 43/37/2
f 4/7/1 1/3/1 2/2/1
f 48/84/2 47/36/2 44/38/2
f 34/75/1 33/28/1 35/30/1
f 144/85/2 125/86/2 140/87/2
f 31/88/1 32/89/1 33/28/1
f 30/90/1 19/60/1 28/91/1
f 8/31/2 12/26/2 7/92/2
f 28/91/1 24/59/1 26/93/1
f 14/34/27 33/28/27 34/75/27
f 8/94/28 2/2/28 9/32/28
f 50/95/29 80/96/30 49/97/29
f 40/80/31 43/46/31 46/50/31
f 73/98/4 72/99/32 74/10/4
f 112/100/33 129/101/34 111/102/34
f 71/103/32 70/104/35 72/99/32
f 65/105/36 64/106/37 66/107/36
f 159/108/38 156/109/39 157/110/40
f 118/111/41 133/112/42 135/113/41
f 15/33/43 31/56/43 33/28/43
f 7/114/44 6/115/44 8/94/44
f 51/116/25 49/117/29 52/72/25
f 101/118/45 100/119/46 102/120/47
f 28/91/48 25/4/48 27/6/48
f 26/93/49 23/53/49 25/4/49
f 69/121/35 68/122/50 70/104/35
f 67/123/50 66/107/36 68/122/50
f 37/124/51 44/125/51 45/45/51
f 147/126/52 168/127/53 169/15/7
f 77/128/21 76/11/3 78/129/21
f 38/130/44 48/131/44 44/132/44
f 82/133/54 104/134/55 81/135/56
f 113/41/14 138/136/26 115/18/26
f 167/17/9 164/137/2 165/138/57
f 99/139/1 98/140/58 100/119/46
f 117/141/42 136/22/12 133/112/42
f 10/27/31 1/142/31 11/143/31
f 93/144/59 92/145/60 94/146/61
f 91/147/62 90/148/63 92/145/60
f 86/149/64 165/138/57 88/150/65
f 120/151/36 105/152/36 121/153/36
f 106/154/2 105/152/2 107/155/2
f 55/156/66 54/73/10 56/157/66
f 141/158/1 121/153/1 124/159/1
f 110/160/2 111/102/2 108/161/2
f 111/102/2 110/160/2 112/100/2
f 110/160/2 109/162/2 112/100/2
f 113/41/2 112/100/2 109/162/2
f 113/41/2 114/21/2 112/100/2
f 115/18/2 114/21/2 113/41/2
f 116/20/2 114/21/2 115/18/2
f 117/141/2 112/100/2 114/21/2
f 118/111/2 112/100/2 117/141/2
f 119/163/2 112/100/2 118/111/2
f 87/164/2 86/149/64 88/150/65
f 121/153/4 105/152/4 122/165/4
f 123/166/4 121/153/4 122/165/4
f 123/167/4 125/168/67 124/159/34
f 121/153/4 123/167/4 124/159/34
f 122/169/29 139/170/29 123/171/29
f 110/160/2 106/154/2 109/162/2
f 103/172/68 102/120/47 104/134/55
f 132/173/1 133/174/1 131/175/1
f 134/176/1 133/174/1 132/173/1
f 135/177/1 133/174/1 134/176/1
f 136/178/1 131/175/1 133/174/1
f 137/179/1 131/175/1 136/178/1
f 138/180/1 131/175/1 137/179/1
f 141/158/15 140/181/15 139/182/13
f 120/151/13 141/158/15 139/182/13
f 108/161/34 127/183/34 122/184/4
f 105/152/4 108/161/34 122/184/4
f 39/185/28 47/36/28 48/131/28
f 63/186/37 62/14/5 64/106/37
f 153/187/69 150/188/45 151/189/70
f 123/171/2 140/87/2 125/86/2
f 157/110/40 154/190/71 155/191/72
f 145/192/29 142/193/29 143/194/29
f 11/143/16 5/195/16 12/68/16
f 95/196/73 94/146/61 96/197/74
f 22/198/75 21/199/75 20/52/75
f 112/100/33 134/200/76 132/201/33
f 109/162/15 128/202/15 130/42/15
f 130/203/1 127/204/1 129/205/1
f 128/206/1 122/169/1 127/204/1
f 97/207/71 96/197/74 98/140/58
f 124/159/1 142/193/1 141/158/1
f 119/163/21 135/113/21 134/200/21
f 107/155/13 120/151/13 139/208/13
f 126/209/13 107/155/13 139/208/13
f 126/210/13 128/211/15 106/154/15
f 107/155/13 126/210/13 106/154/15
f 111/102/34 127/212/34 108/161/34
f 145/213/77 124/159/34 125/214/67
f 86/149/64 83/215/78 84/216/79
f 90/148/63 87/164/2 88/150/65
f 84/216/79 82/217/53 81/218/56
f 57/219/13 56/157/66 58/24/13
f 165/138/57 162/220/80 163/221/81
f 163/221/81 160/222/62 161/223/82
f 161/223/82 158/224/83 159/108/38
f 71/225/1 55/226/1 63/227/1
f 151/189/70 146/228/68 149/229/84
f 79/230/30 78/129/21 80/96/30
f 131/175/1 129/205/1 132/173/1
f 153/187/69 154/190/71 152/231/1
f 147/232/52 146/228/54 148/233/54
f 81/218/56 169/15/7 84/216/79
f 96/197/74 155/191/72 98/140/58
f 98/140/58 153/187/69 100/119/46
f 84/216/79 167/17/9 86/149/64
f 92/145/60 163/221/81 161/223/82
f 94/146/61 161/223/82 159/108/38
f 81/135/56 149/229/84 147/232/52
f 94/146/61 157/110/40 96/197/74
f 102/120/47 153/187/69 151/189/70
f 90/148/63 165/138/57 163/221/81
f 104/134/55 151/189/70 149/229/84
f 39/82/1 37/81/1 40/80/1
f 50/234/1 51/235/1 79/236/1
f 51/235/1 55/226/1 79/236/1
f 53/237/1 55/226/1 51/235/1
f 9/32/19 3/1/19 10/27/19
f 59/238/1 63/227/1 55/226/1
f 57/239/1 59/238/1 55/226/1
f 61/240/1 63/227/1 59/238/1
f 67/241/1 71/225/1 63/227/1
f 65/242/1 67/241/1 63/227/1
f 69/243/1 71/225/1 67/241/1
f 75/244/1 79/236/1 71/225/1
f 73/245/1 75/244/1 71/225/1
f 77/246/1 79/236/1 75/244/1
f 80/247/2 170/248/2 49/249/2
f 49/249/2 170/248/2 52/250/2
f 78/251/2 170/248/2 80/247/2
f 52/250/2 170/248/2 54/252/2
f 76/253/2 170/248/2 78/251/2
f 54/252/2 170/248/2 56/254/2
f 74/255/2 170/248/2 76/253/2
f 56/254/2 170/248/2 58/256/2
f 72/257/2 170/248/2 74/255/2
f 58/256/2 170/248/2 60/258/2
f 70/259/2 170/248/2 72/257/2
f 60/258/2 170/248/2 62/260/2
f 68/261/2 170/248/2 70/259/2
f 62/260/2 170/248/2 64/262/2
f 66/263/2 170/248/2 68/261/2
f 64/262/2 170/248/2 66/263/2
f 142/193/85 140/264/15 141/158/15
f 173/1/2 171/3/2 172/2/2
f 199/5/1 195/4/1 197/6/1
f 174/7/2 176/8/2 172/2/2
f 244/10/4 245/9/3 246/11/3
f 230/13/6 231/12/5 232/14/5
f 336/16/45 339/15/84 337/17/70
f 307/19/11 285/18/10 286/20/11
f 284/21/12 307/19/11 286/20/11
f 228/24/13 229/23/6 230/13/6
f 181/25/1 180/27/1 182/26/1
f 203/28/2 206/29/2 202/89/2
f 180/27/1 179/32/1 178/31/1
f 185/33/1 183/35/1 184/34/1
f 213/37/1 217/36/1 214/38/1
f 183/35/1 188/40/1 187/39/1
f 300/42/15 283/41/14 301/43/14
f 215/45/16 211/44/16 213/46/16
f 197/6/18 200/47/18 199/48/18
f 216/50/19 212/49/19 217/36/19
f 190/52/20 194/51/20 193/53/20
f 202/55/21 183/54/21 201/56/21
f 191/57/1 190/58/1 199/5/1
f 189/60/2 194/59/2 192/61/2
f 190/58/1 193/62/1 195/4/1
f 206/64/22 188/63/22 202/65/22
f 199/48/23 189/66/23 191/67/23
f 174/69/24 182/68/24 177/70/24
f 222/72/25 223/71/10 224/73/10
f 204/75/5 186/74/5 205/76/5
f 205/76/26 187/77/26 206/64/26
f 184/34/1 187/39/1 186/78/1
f 211/79/2 207/81/2 210/80/2
f 209/82/2 212/49/2 210/80/2
f 215/83/1 213/37/1 214/38/1
f 174/7/2 171/3/2 175/265/2
f 218/84/1 214/38/1 217/36/1
f 204/75/2 205/30/2 203/28/2
f 314/85/1 295/86/1 315/266/1
f 201/88/2 203/28/2 202/89/2
f 200/90/2 198/91/2 189/60/2
f 182/26/1 178/31/1 177/92/1
f 198/91/2 196/93/2 194/59/2
f 203/28/27 184/34/27 204/75/27
f 172/2/28 178/94/28 179/32/28
f 250/96/30 220/95/29 219/97/29
f 213/46/31 210/80/31 216/50/31
f 242/99/32 243/98/4 244/10/4
f 299/101/34 282/100/33 281/102/34
f 240/104/35 241/103/32 242/99/32
f 234/106/37 235/105/36 236/107/36
f 326/109/83 329/108/38 327/110/82
f 303/112/42 288/111/41 305/113/41
f 201/56/43 185/33/43 203/28/43
f 176/115/44 177/114/44 178/94/44
f 219/117/29 221/116/25 222/72/25
f 270/119/65 271/118/8 272/120/64
f 195/4/48 198/91/48 197/6/48
f 193/53/49 196/93/49 195/4/49
f 238/122/50 239/121/35 240/104/35
f 236/107/36 237/123/50 238/122/50
f 214/125/51 207/124/51 215/45/51
f 338/127/54 317/126/52 339/15/84
f 246/11/3 247/128/21 248/129/21
f 218/131/44 208/130/44 214/132/44
f 274/134/86 252/133/53 251/135/56
f 308/136/26 283/41/14 285/18/26
f 334/137/1 337/17/70 335/138/69
f 268/140/63 269/139/2 270/119/65
f 306/22/12 287/141/42 303/112/42
f 171/142/31 180/27/31 181/143/31
f 262/145/74 263/144/39 264/146/61
f 260/148/58 261/147/87 262/145/74
f 335/138/69 256/149/47 258/150/46
f 275/152/36 290/151/36 291/153/36
f 276/154/1 275/152/1 278/161/1
f 224/73/10 225/156/66 226/157/66
f 311/158/2 291/153/2 290/151/2
f 280/160/1 278/161/1 281/102/1
f 281/102/1 282/100/1 280/160/1
f 280/160/1 282/100/1 279/162/1
f 283/41/1 279/162/1 282/100/1
f 283/41/1 282/100/1 284/21/1
f 285/18/1 283/41/1 284/21/1
f 286/20/1 285/18/1 284/21/1
f 287/141/1 284/21/1 282/100/1
f 288/111/1 287/141/1 282/100/1
f 289/163/1 288/111/1 282/100/1
f 256/149/47 257/164/1 258/150/46
f 291/153/4 292/165/4 275/152/4
f 293/166/4 292/165/4 291/153/4
f 293/167/4 294/159/34 295/168/34
f 291/153/4 294/159/34 293/167/4
f 292/169/29 309/170/29 296/267/29
f 276/154/1 280/160/1 279/162/1
f 272/120/64 273/172/78 274/134/86
f 302/173/2 301/175/2 303/174/2
f 304/176/2 302/173/2 303/174/2
f 305/177/2 304/176/2 303/174/2
f 306/178/2 303/174/2 301/175/2
f 307/179/2 306/178/2 301/175/2
f 308/180/2 307/179/2 301/175/2
f 311/158/15 309/182/13 310/181/15
f 290/151/13 309/182/13 311/158/15
f 278/161/34 292/184/4 297/183/34
f 275/152/4 292/184/4 278/161/34
f 217/36/28 209/185/28 218/131/28
f 232/14/5 233/186/37 234/106/37
f 320/188/8 323/187/57 321/189/9
f 310/87/1 293/171/1 295/86/1
f 324/190/80 327/110/82 325/191/81
f 312/193/29 315/192/29 313/194/29
f 175/195/16 181/143/16 182/68/16
f 264/146/61 265/196/59 266/197/60
f 191/199/75 192/198/75 190/52/75
f 304/200/76 282/100/33 302/201/33
f 298/202/15 279/162/15 300/42/15
f 297/204/2 300/203/2 299/205/2
f 292/169/2 298/206/2 297/204/2
f 268/140/63 265/196/62 267/207/80
f 294/159/2 312/193/2 313/194/2
f 305/113/21 289/163/21 304/200/21
f 277/155/13 309/208/13 290/151/13
f 296/209/13 309/208/13 277/155/13
f 296/210/13 276/154/15 298/211/15
f 277/155/13 276/154/15 296/210/13
f 297/212/34 281/102/34 278/161/34
f 294/159/34 315/213/77 295/214/34
f 254/216/55 255/268/45 256/149/47
f 260/148/58 257/164/1 259/269/71
f 254/216/55 252/217/54 253/215/54
f 226/157/66 227/219/13 228/24/13
f 332/220/71 335/138/69 333/221/72
f 330/222/87 333/221/72 331/223/88
f 328/224/39 331/223/88 329/108/38
f 241/225/2 225/226/2 249/236/2
f 316/228/78 321/189/9 319/229/7
f 248/129/21 249/230/30 250/96/30
f 299/205/2 301/175/2 302/173/2
f 322/231/2 325/191/81 323/187/57
f 317/232/52 316/228/53 319/229/7
f 339/15/84 251/218/56 254/216/55
f 325/191/81 266/197/60 268/140/63
f 323/187/57 268/140/63 270/119/65
f 337/17/70 254/216/55 256/149/47
f 262/145/74 333/221/72 260/148/58
f 264/146/61 331/223/88 262/145/74
f 251/135/56 319/229/7 274/134/86
f 327/110/82 264/146/61 266/197/60
f 272/120/64 323/187/57 270/119/65
f 260/148/58 335/138/69 258/150/46
f 274/134/86 321/189/9 272/120/64
f 207/81/2 209/82/2 210/80/2
f 220/234/2 249/236/2 221/235/2
f 221/235/2 249/236/2 225/226/2
f 223/237/2 221/235/2 225/226/2
f 173/1/19 179/32/19 180/27/19
f 229/238/2 225/226/2 233/227/2
f 227/239/2 225/226/2 229/238/2
f 231/240/2 229/238/2 233/227/2
f 237/241/2 233/227/2 241/225/2
f 235/242/2 233/227/2 237/241/2
f 239/243/2 237/241/2 241/225/2
f 245/244/2 241/225/2 249/236/2
f 243/245/2 241/225/2 245/244/2
f 247/246/2 245/244/2 249/236/2
f 250/247/1 219/249/1 340/248/1
f 219/249/1 222/250/1 340/248/1
f 248/251/1 250/247/1 340/248/1
f 222/250/1 224/252/1 340/248/1
f 246/253/1 248/251/1 340/248/1
f 224/252/1 226/254/1 340/248/1
f 244/255/1 246/253/1 340/248/1
f 226/254/1 228/256/1 340/248/1
f 242/257/1 244/255/1 340/248/1
f 228/256/1 230/258/1 340/248/1
f 240/259/1 242/257/1 340/248/1
f 230/258/1 232/260/1 340/248/1
f 238/261/1 240/259/1 340/248/1
f 232/260/1 234/262/1 340/248/1
f 236/263/1 238/261/1 340/248/1
f 234/262/1 236/263/1 340/248/1
f 310/264/15 312/193/85 311/158/15
f 25/4/2 20/58/2 29/5/2
f 75/9/3 73/98/4 74/10/4
f 61/12/5 59/23/6 60/13/6
f 169/15/7 168/127/78 166/16/8
f 115/18/10 138/136/10 137/19/11
f 114/21/12 116/20/11 137/19/11
f 59/23/6 57/219/13 58/24/13
f 33/28/1 32/89/1 36/29/1
f 47/36/2 46/50/2 43/37/2
f 113/41/14 109/162/15 130/42/15
f 41/44/16 37/124/16 45/45/16
f 30/47/17 28/91/17 27/6/18
f 42/49/19 40/80/19 46/50/19
f 24/51/20 22/198/20 20/52/20
f 13/54/21 18/270/21 32/55/21
f 24/59/1 28/91/1 19/60/1
f 18/63/22 17/77/22 36/64/22
f 19/66/23 30/47/23 29/48/23
f 12/68/24 5/195/24 4/69/24
f 53/71/10 51/116/25 52/72/25
f 16/74/5 14/34/5 34/75/5
f 17/77/26 16/74/26 35/76/26
f 17/39/2 13/35/2 14/34/2
f 4/7/1 5/265/1 1/3/1
f 144/85/2 145/266/2 125/86/2
f 8/31/2 10/27/2 12/26/2
f 14/34/27 15/33/27 33/28/27
f 8/94/28 6/115/28 2/2/28
f 50/95/29 79/230/30 80/96/30
f 40/80/31 41/44/31 43/46/31
f 73/98/4 71/103/32 72/99/32
f 112/100/33 132/201/33 129/101/34
f 71/103/32 69/121/35 70/104/35
f 65/105/36 63/186/37 64/106/37
f 159/108/38 158/224/39 156/109/39
f 118/111/41 117/141/42 133/112/42
f 15/33/43 13/54/43 31/56/43
f 7/114/44 4/271/44 6/115/44
f 51/116/25 50/272/29 49/117/29
f 101/118/45 99/139/1 100/119/46
f 28/91/48 26/93/48 25/4/48
f 26/93/49 24/51/49 23/53/49
f 69/121/35 67/123/50 68/122/50
f 67/123/50 65/105/36 66/107/36
f 37/124/51 38/273/51 44/125/51
f 147/126/52 148/274/53 168/127/53
f 77/128/21 75/9/3 76/11/3
f 38/130/44 39/185/44 48/131/44
f 82/133/54 103/172/54 104/134/55
f 113/41/14 131/43/14 138/136/26
f 167/17/9 166/16/8 164/137/2
f 99/139/1 97/207/71 98/140/58
f 117/141/42 114/21/12 136/22/12
f 10/27/31 3/1/31 1/142/31
f 93/144/59 91/147/59 92/145/60
f 91/147/62 89/269/80 90/148/63
f 86/149/64 167/17/9 165/138/57
f 120/151/36 107/155/36 105/152/36
f 106/154/2 108/161/2 105/152/2
f 55/156/66 53/71/10 54/73/10
f 141/158/1 120/151/1 121/153/1
f 87/164/2 85/268/8 86/149/64
f 122/169/29 126/267/29 139/170/29
f 110/160/2 108/161/2 106/154/2
f 103/172/68 101/118/45 102/120/47
f 39/185/28 42/49/28 47/36/28
f 63/186/37 61/12/5 62/14/5
f 153/187/69 152/231/1 150/188/45
f 123/171/2 139/170/2 140/87/2
f 157/110/40 156/109/87 154/190/71
f 145/192/29 144/275/29 142/193/29
f 11/143/16 1/142/16 5/195/16
f 95/196/73 93/144/73 94/146/61
f 22/198/75 19/276/75 21/199/75
f 112/100/33 119/163/76 134/200/76
f 109/162/15 106/154/15 128/202/15
f 130/203/1 128/206/1 127/204/1
f 128/206/1 126/267/1 122/169/1
f 97/207/71 95/196/87 96/197/74
f 124/159/1 143/194/1 142/193/1
f 119/163/21 118/111/21 135/113/21
f 111/102/34 129/101/34 127/212/34
f 145/213/77 143/194/77 124/159/34
f 86/149/64 85/268/8 83/215/78
f 90/148/63 89/269/80 87/164/2
f 84/216/79 83/215/53 82/217/53
f 57/219/13 55/156/66 56/157/66
f 165/138/57 164/137/2 162/220/80
f 163/221/81 162/220/80 160/222/62
f 161/223/82 160/222/83 158/224/83
f 71/225/1 79/236/1 55/226/1
f 151/189/70 150/188/45 146/228/68
f 79/230/30 77/128/21 78/129/21
f 131/175/1 130/203/1 129/205/1
f 153/187/69 155/191/72 154/190/71
f 147/232/52 149/229/84 146/228/54
f 81/218/56 147/126/52 169/15/7
f 96/197/74 157/110/40 155/191/72
f 98/140/58 155/191/72 153/187/69
f 84/216/79 169/15/7 167/17/9
f 92/145/60 90/148/63 163/221/81
f 94/146/61 92/145/60 161/223/82
f 81/135/56 104/134/55 149/229/84
f 94/146/61 159/108/38 157/110/40
f 102/120/47 100/119/46 153/187/69
f 90/148/63 88/150/65 165/138/57
f 104/134/55 102/120/47 151/189/70
f 39/82/1 38/277/1 37/81/1
f 9/32/19 2/2/19 3/1/19
f 142/193/85 144/278/85 140/264/15
f 199/5/1 190/58/1 195/4/1
f 244/10/4 243/98/4 245/9/3
f 230/13/6 229/23/6 231/12/5
f 336/16/45 338/127/68 339/15/84
f 307/19/11 308/136/10 285/18/10
f 284/21/12 306/22/12 307/19/11
f 228/24/13 227/219/13 229/23/6
f 203/28/2 205/30/2 206/29/2
f 213/37/1 216/50/1 217/36/1
f 300/42/15 279/162/15 283/41/14
f 215/45/16 207/124/16 211/44/16
f 197/6/18 198/91/18 200/47/18
f 216/50/19 210/80/19 212/49/19
f 190/52/20 192/198/20 194/51/20
f 202/55/21 188/270/21 183/54/21
f 189/60/2 198/91/2 194/59/2
f 206/64/22 187/77/22 188/63/22
f 199/48/23 200/47/23 189/66/23
f 174/69/24 175/195/24 182/68/24
f 222/72/25 221/116/25 223/71/10
f 204/75/5 184/34/5 186/74/5
f 205/76/26 186/74/26 187/77/26
f 184/34/1 183/35/1 187/39/1
f 174/7/2 172/2/2 171/3/2
f 314/85/1 310/87/1 295/86/1
f 182/26/1 180/27/1 178/31/1
f 203/28/27 185/33/27 184/34/27
f 172/2/28 176/115/28 178/94/28
f 250/96/30 249/230/30 220/95/29
f 213/46/31 211/44/31 210/80/31
f 242/99/32 241/103/32 243/98/4
f 299/101/34 302/201/33 282/100/33
f 240/104/35 239/121/35 241/103/32
f 234/106/37 233/186/37 235/105/36
f 326/109/83 328/224/83 329/108/38
f 303/112/42 287/141/42 288/111/41
f 201/56/43 183/54/43 185/33/43
f 176/115/44 174/271/44 177/114/44
f 219/117/29 220/272/29 221/116/25
f 270/119/65 269/139/2 271/118/8
f 195/4/48 196/93/48 198/91/48
f 193/53/49 194/51/49 196/93/49
f 238/122/50 237/123/50 239/121/35
f 236/107/36 235/105/36 237/123/50
f 214/125/51 208/273/51 207/124/51
f 338/127/54 318/274/54 317/126/52
f 246/11/3 245/9/3 247/128/21
f 218/131/44 209/185/44 208/130/44
f 274/134/86 273/172/53 252/133/53
f 308/136/26 301/43/14 283/41/14
f 334/137/1 336/16/45 337/17/70
f 268/140/63 267/207/80 269/139/2
f 306/22/12 284/21/12 287/141/42
f 171/142/31 173/1/31 180/27/31
f 262/145/74 261/147/39 263/144/39
f 260/148/58 259/269/71 261/147/87
f 335/138/69 337/17/70 256/149/47
f 275/152/36 277/155/36 290/151/36
f 276/154/1 277/155/1 275/152/1
f 224/73/10 223/71/10 225/156/66
f 311/158/2 294/159/2 291/153/2
f 256/149/47 255/268/45 257/164/1
f 292/169/29 293/171/29 309/170/29
f 276/154/1 278/161/1 280/160/1
f 272/120/64 271/118/8 273/172/78
f 217/36/28 212/49/28 209/185/28
f 232/14/5 231/12/5 233/186/37
f 320/188/8 322/231/2 323/187/57
f 310/87/1 309/170/1 293/171/1
f 324/190/80 326/109/62 327/110/82
f 312/193/29 314/275/29 315/192/29
f 175/195/16 171/142/16 181/143/16
f 264/146/61 263/144/59 265/196/59
f 191/199/75 189/276/75 192/198/75
f 304/200/76 289/163/76 282/100/33
f 298/202/15 276/154/15 279/162/15
f 297/204/2 298/206/2 300/203/2
f 292/169/2 296/267/2 298/206/2
f 268/140/63 266/197/60 265/196/62
f 294/159/2 311/158/2 312/193/2
f 305/113/21 288/111/21 289/163/21
f 297/212/34 299/101/34 281/102/34
f 294/159/34 313/194/77 315/213/77
f 254/216/55 253/215/68 255/268/45
f 260/148/58 258/150/46 257/164/1
f 254/216/55 251/218/56 252/217/54
f 226/157/66 225/156/66 227/219/13
f 332/220/71 334/137/1 335/138/69
f 330/222/87 332/220/71 333/221/72
f 328/224/39 330/222/39 331/223/88
f 241/225/2 233/227/2 225/226/2
f 316/228/78 320/188/8 321/189/9
f 248/129/21 247/128/21 249/230/30
f 299/205/2 300/203/2 301/175/2
f 322/231/2 324/190/80 325/191/81
f 317/232/52 318/233/53 316/228/53
f 339/15/84 317/126/52 251/218/56
f 325/191/81 327/110/82 266/197/60
f 323/187/57 325/191/81 268/140/63
f 337/17/70 339/15/84 254/216/55
f 262/145/74 331/223/88 333/221/72
f 264/146/61 329/108/38 331/223/88
f 251/135/56 317/232/52 319/229/7
f 327/110/82 329/108/38 264/146/61
f 272/120/64 321/189/9 323/187/57
f 260/148/58 333/221/72 335/138/69
f 274/134/86 319/229/7 321/189/9
f 207/81/2 208/277/2 209/82/2
f 173/1/19 172/2/19 179/32/19
f 310/264/15 314/278/85 312/193/85
