# Blender 5.2.1 LTS
# www.blender.org
o s060_Wheels_01.002
v -75.499329 -20.620810 -0.000055
v -75.499336 -20.391336 1.153597
v -75.499336 -19.737837 2.131655
v -75.499336 -18.759804 2.785135
v -75.499336 -17.606140 3.014615
v -75.499336 -16.452463 2.785134
v -75.499336 -15.474436 2.131654
v -75.499336 -14.820944 1.153590
v -75.499336 -14.591457 -0.000056
v -75.499321 -14.820944 -1.153733
v -75.499321 -15.474436 -2.131728
v -75.499321 -16.452469 -2.785245
v -75.499336 -17.606140 -3.014731
v -75.499336 -18.759804 -2.785244
v -75.499336 -19.737843 -2.131727
v -75.499321 -20.391336 -1.153719
v -64.350082 -1.958825 0.814677
v -64.350082 0.008085 -0.000052
v -64.350082 -1.497330 1.505364
v -64.350082 -2.120883 -0.000059
v -64.350082 -0.806631 1.966852
v -64.350082 -1.958825 -0.814770
v -64.350082 0.008080 2.128928
v -64.350082 -1.497331 -1.505457
v -64.350082 0.822797 1.966851
v -64.350082 -0.806644 -1.966964
v -64.350082 1.513497 1.505363
v -64.350082 0.008080 -2.129028
v -64.350082 1.974997 0.814676
v -64.350082 0.822797 -1.966965
v -64.350082 2.137054 -0.000060
v -64.350082 1.513496 -1.505458
v -64.350082 1.974997 -0.814771
v -75.499329 -17.606134 -0.000052
v -59.574856 2.029676 11.496250
v -59.574844 0.002573 11.673599
v -59.574856 0.002572 -0.000059
v -59.574871 3.995211 10.969579
v -59.574844 -2.024537 11.496250
v -59.574856 5.839396 10.109631
v -59.574856 -3.990064 10.969583
v -59.574856 7.506253 8.942485
v -59.574856 -5.834256 10.109631
v -59.574871 8.945126 7.503633
v -59.574856 -7.501107 8.942485
v -59.574871 10.112264 5.836781
v -59.574856 -8.939964 7.503623
v -59.574871 10.972214 3.992582
v -59.574844 -10.107123 5.836765
v -59.574856 11.498891 2.027055
v -59.574856 -10.967060 3.992558
v -59.574844 11.676231 -0.000048
v -59.574856 -11.493738 2.027045
v -59.574856 11.498891 -2.027158
v -59.574856 -11.671086 -0.000057
v -59.574856 10.972226 -3.992671
v -59.574844 -11.493738 -2.027160
v -59.574856 10.112247 -5.836878
v -59.574844 -10.967069 -3.992673
v -59.574844 8.945124 -7.503721
v -59.574844 -10.107118 -5.836880
v -59.574844 7.506238 -8.942605
v -59.574844 -8.939974 -7.503731
v -59.574844 5.839379 -10.109750
v -59.574856 -7.501109 -8.942605
v -59.574856 3.995209 -10.969702
v -59.574856 -5.834265 -10.109750
v -59.574856 2.029674 -11.496349
v -59.574856 -3.990044 -10.969699
v -59.574856 0.002557 -11.673718
v -59.574856 -2.024546 -11.496363
v 75.499329 -20.620804 -0.000056
v 75.499336 -20.391329 1.153596
v 75.499336 -19.737831 2.131653
v 75.499336 -18.759798 2.785133
v 75.499336 -17.606134 3.014613
v 75.499336 -16.452456 2.785133
v 75.499336 -15.474430 2.131653
v 75.499336 -14.820937 1.153589
v 75.499336 -14.591452 -0.000057
v 75.499321 -14.820937 -1.153734
v 75.499321 -15.474430 -2.131729
v 75.499321 -16.452463 -2.785247
v 75.499336 -17.606134 -3.014733
v 75.499336 -18.759798 -2.785246
v 75.499336 -19.737837 -2.131729
v 75.499321 -20.391329 -1.153721
v 64.350082 -1.958820 0.814677
v 64.350082 0.008090 -0.000052
v 64.350082 -1.497325 1.505364
v 64.350082 -2.120877 -0.000059
v 64.350082 -0.806626 1.966852
v 64.350082 -1.958820 -0.814770
v 64.350082 0.008085 2.128928
v 64.350082 -1.497325 -1.505457
v 64.350082 0.822803 1.966851
v 64.350082 -0.806638 -1.966964
v 64.350082 1.513502 1.505363
v 64.350082 0.008085 -2.129028
v 64.350082 1.975003 0.814677
v 64.350082 0.822803 -1.966965
v 64.350082 2.137060 -0.000060
v 64.350082 1.513502 -1.505458
v 64.350082 1.975003 -0.814771
v 75.499329 -17.606129 -0.000054
v 59.574856 2.029681 11.496250
v 59.574844 0.002578 11.673599
v 59.574856 0.002578 -0.000059
v 59.574871 3.995216 10.969579
v 59.574844 -2.024532 11.496250
v 59.574856 5.839400 10.109631
v 59.574856 -3.990059 10.969583
v 59.574856 7.506258 8.942486
v 59.574856 -5.834251 10.109630
v 59.574871 8.945130 7.503634
v 59.574856 -7.501102 8.942484
v 59.574871 10.112268 5.836782
v 59.574856 -8.939960 7.503622
v 59.574871 10.972219 3.992583
v 59.574844 -10.107119 5.836764
v 59.574856 11.498897 2.027056
v 59.574856 -10.967054 3.992558
v 59.574844 11.676237 -0.000047
v 59.574856 -11.493733 2.027045
v 59.574856 11.498897 -2.027157
v 59.574856 -11.671081 -0.000058
v 59.574856 10.972232 -3.992670
v 59.574844 -11.493733 -2.027161
v 59.574856 10.112253 -5.836877
v 59.574844 -10.967063 -3.992674
v 59.574844 8.945129 -7.503720
v 59.574844 -10.107112 -5.836880
v 59.574844 7.506244 -8.942604
v 59.574844 -8.939967 -7.503732
v 59.574844 5.839386 -10.109749
v 59.574856 -7.501102 -8.942606
v 59.574856 3.995215 -10.969702
v 59.574856 -5.834259 -10.109751
v 59.574856 2.029681 -11.496349
v 59.574856 -3.990038 -10.969699
v 59.574856 0.002564 -11.673718
v 59.574856 -2.024539 -11.496363
v -56.917267 15.866784 -26.248478
v -56.917267 16.417467 -26.615799
v -56.917267 17.267021 -16.530409
v -56.917267 17.558949 -10.136236
v -56.917267 17.940712 -0.000045
v -56.917267 17.807978 10.279912
v -56.917267 17.408831 16.600592
v -56.917267 15.866804 26.248358
v -56.917267 16.417488 26.615675
v -59.539696 17.690596 -16.491344
v -59.539696 16.418945 -25.514006
v -59.539696 18.017181 -9.891363
v -59.539696 18.346087 0.000046
v -59.539711 18.247231 10.038575
v -59.539696 17.812479 16.572554
v -59.539684 16.418966 25.514044
v -59.539696 16.967009 25.869062
v -59.539696 16.966990 -25.869026
v -59.539684 20.415134 23.357218
v -56.917267 20.145481 24.005316
v -59.539684 24.027483 19.599020
v -56.917267 24.007969 20.142839
v -59.539696 26.957632 15.245335
v -56.917267 27.141018 15.668327
v -59.539696 29.116596 10.428440
v -56.917267 29.449524 10.717745
v -59.539711 30.438824 5.294676
v -56.917267 30.863287 5.441513
v -59.539711 30.884066 0.000033
v -56.917267 31.339359 -0.000067
v -59.539711 30.438824 -5.294610
v -56.917267 30.863287 -5.441628
v -59.539696 29.116590 -10.428371
v -56.917267 29.449505 -10.717882
v -59.539684 26.957624 -15.245266
v -56.917267 27.141012 -15.668459
v -59.539696 24.027477 -19.598946
v -56.917267 24.007950 -20.142946
v -59.539711 20.415127 -23.357117
v -56.917267 20.145473 -24.005421
v 56.917267 15.866790 -26.248476
v 56.917267 16.417475 -26.615799
v 56.917267 17.267029 -16.530407
v 56.917267 17.558956 -10.136234
v 56.917267 17.940718 -0.000043
v 56.917267 17.807981 10.279913
v 56.917267 17.408836 16.600594
v 56.917267 15.866809 26.248358
v 56.917267 16.417494 26.615675
v 59.539696 17.690603 -16.491343
v 59.539696 16.418951 -25.514006
v 59.539696 18.017189 -9.891361
v 59.539696 18.346094 0.000047
v 59.539711 18.247236 10.038577
v 59.539696 17.812483 16.572556
v 59.539684 16.418970 25.514044
v 59.539696 16.967014 25.869062
v 59.539696 16.966995 -25.869024
v 59.539684 20.415138 23.357220
v 56.917267 20.145487 24.005316
v 59.539684 24.027487 19.599022
v 56.917267 24.007973 20.142841
v 59.539696 26.957638 15.245338
v 56.917267 27.141024 15.668330
v 59.539696 29.116604 10.428442
v 56.917267 29.449530 10.717747
v 59.539711 30.438831 5.294679
v 56.917267 30.863295 5.441515
v 59.539711 30.884071 0.000036
v 56.917267 31.339365 -0.000064
v 59.539711 30.438831 -5.294608
v 56.917267 30.863295 -5.441626
v 59.539696 29.116596 -10.428369
v 56.917267 29.449511 -10.717880
v 59.539684 26.957632 -15.245263
v 56.917267 27.141018 -15.668456
v 59.539696 24.027485 -19.598944
v 56.917267 24.007957 -20.142944
v 59.539711 20.415134 -23.357117
v 56.917267 20.145481 -24.005421
vn -1.0000 -0.0000 -0.0000
vn 1.0000 -0.0000 -0.0000
vn -0.1505 0.9297 0.3361
vn -0.1427 0.8653 0.4805
vn -0.1341 0.8588 0.4944
vn -0.1290 0.7727 0.6215
vn -0.1206 0.7597 0.6390
vn 0.1668 -0.9851 0.0422
vn 0.1550 -0.9878 0.0117
vn 0.1669 -0.9850 0.0428
vn -0.1513 -0.9825 -0.1085
vn -0.1596 -0.9749 -0.1552
vn -0.1511 -0.9827 -0.1070
vn -0.1604 -0.9862 -0.0404
vn 0.1608 -0.9863 -0.0373
vn 0.1604 -0.9862 -0.0404
vn 0.1511 -0.9827 -0.1070
vn 0.1513 -0.9825 -0.1085
vn 0.1596 -0.9749 -0.1552
vn -0.1691 0.9856 -0.0000
vn -0.1676 0.9720 -0.1646
vn -0.1711 0.9853 -0.0000
vn 0.3324 -0.5143 0.7906
vn 0.3306 -0.5222 0.7862
vn 0.3302 -0.5238 0.7853
vn 0.1208 0.5744 -0.8096
vn 0.1177 0.6339 -0.7644
vn 0.1231 0.6561 -0.7446
vn 0.1206 0.7597 0.6390
vn 0.1231 0.6561 0.7446
vn 0.1290 0.7727 0.6215
vn 0.1341 0.8588 0.4944
vn 0.1427 0.8653 0.4805
vn 0.1505 0.9297 0.3361
vn 0.1573 0.9320 0.3266
vn 0.1573 0.9320 -0.3266
vn 0.1639 0.9718 -0.1694
vn 0.1676 0.9720 -0.1646
vn 0.1691 0.9856 -0.0000
vn 0.1711 0.9853 -0.0000
vn 0.1291 0.7727 -0.6215
vn 0.1341 0.8588 -0.4944
vn 0.1427 0.8653 -0.4805
vn 0.1206 0.7597 -0.6390
vn -0.1584 -0.9830 0.0927
vn -0.1646 -0.9764 0.1402
vn -0.1661 -0.9760 0.1406
vn -0.1669 -0.9850 0.0428
vn -0.1586 -0.9831 0.0911
vn -0.1550 -0.9878 0.0117
vn -0.1668 -0.9851 0.0422
vn 0.1586 -0.9831 0.0911
vn -0.3324 -0.5143 0.7906
vn -0.3306 -0.5222 0.7862
vn -0.3328 -0.5127 0.7915
vn -0.3306 -0.5222 -0.7862
vn -0.3324 -0.5143 -0.7905
vn -0.3328 -0.5127 -0.7914
vn -0.1177 0.6339 0.7644
vn -0.1208 0.5744 0.8096
vn -0.1123 0.5699 0.8140
vn -0.1206 0.7597 -0.6390
vn -0.1231 0.6561 -0.7446
vn -0.1291 0.7727 -0.6215
vn -0.1341 0.8588 -0.4944
vn -0.1427 0.8653 -0.4805
vn 0.1506 0.9297 -0.3361
vn -0.1639 0.9718 0.1694
vn -0.1573 0.9320 0.3266
vn -0.1676 0.9720 0.1646
vn 0.1676 0.9720 0.1646
vn -0.1639 0.9718 -0.1694
vn -0.1573 0.9320 -0.3266
vn -0.1506 0.9297 -0.3361
vn 0.1584 -0.9830 0.0927
vn 0.1646 -0.9764 0.1402
vn -0.1177 0.6339 -0.7644
vn -0.1208 0.5744 -0.8096
vn -0.1231 0.6561 0.7446
vn 0.1177 0.6339 0.7644
vn 0.1208 0.5744 0.8096
vn 0.1639 0.9718 0.1694
vn 0.3324 -0.5143 -0.7905
vn 0.3306 -0.5222 -0.7862
vn 0.3328 -0.5127 -0.7914
vn -0.1608 -0.9863 -0.0373
vn 0.1528 -0.9882 0.0115
vn -0.1616 -0.9745 -0.1558
vn 0.1616 -0.9745 -0.1558
vn 0.3328 -0.5127 0.7915
vn 0.1124 0.5699 -0.8140
vn -0.1528 -0.9882 0.0115
vn -0.3302 -0.5238 0.7853
vn -0.3302 -0.5238 -0.7852
vn 0.1661 -0.9760 0.1406
vn -0.1124 0.5699 -0.8140
vn 0.1123 0.5699 0.8140
vn 0.3302 -0.5238 -0.7852
vt -0.000135 -0.000135
vt 0.000000 0.000001
vt -0.000073 -0.000176
vt 0.000000 -0.000191
vt -0.000177 -0.000072
vt 0.000073 -0.000176
vt -0.000191 0.000001
vt 0.000135 -0.000135
vt -0.000177 0.000074
vt 0.000177 -0.000072
vt -0.000135 0.000136
vt 0.000191 0.000001
vt -0.000073 0.000177
vt 0.000177 0.000074
vt 0.000000 0.000192
vt 0.000135 0.000136
vt 0.000073 0.000177
vt -0.000192 -0.001773
vt 0.000000 -0.001582
vt -0.000104 -0.001832
vt 0.000000 -0.001853
vt -0.000250 -0.001686
vt 0.000104 -0.001832
vt -0.000271 -0.001582
vt 0.000192 -0.001773
vt -0.000250 -0.001478
vt 0.000250 -0.001686
vt -0.000192 -0.001390
vt 0.000271 -0.001582
vt -0.000104 -0.001332
vt 0.000250 -0.001478
vt 0.000000 -0.001311
vt 0.000192 -0.001390
vt 0.000104 -0.001332
vt 0.000000 0.000000
vt -0.001049 0.000000
vt -0.001033 0.000182
vt -0.000986 0.000359
vt -0.001033 -0.000182
vt -0.000908 0.000525
vt -0.000986 -0.000358
vt -0.000803 0.000674
vt -0.000908 -0.000524
vt -0.000674 0.000804
vt -0.000803 -0.000674
vt -0.000524 0.000909
vt -0.000674 -0.000803
vt -0.000359 0.000986
vt -0.000524 -0.000908
vt -0.000182 0.001033
vt -0.000359 -0.000985
vt 0.000000 0.001049
vt -0.000182 -0.001033
vt 0.000182 0.001033
vt 0.000000 -0.001049
vt 0.000359 0.000986
vt 0.000182 -0.001033
vt 0.000524 0.000909
vt 0.000359 -0.000985
vt 0.000674 0.000804
vt 0.000524 -0.000908
vt 0.000803 0.000674
vt 0.000674 -0.000803
vt 0.000908 0.000525
vt 0.000803 -0.000674
vt 0.000986 0.000359
vt 0.000908 -0.000524
vt 0.001033 0.000182
vt 0.000986 -0.000358
vt 0.001049 0.000000
vt 0.001033 -0.000182
vt 0.000135 -0.000135
vt 0.000073 -0.000176
vt -0.000000 0.000001
vt -0.000000 -0.000191
vt 0.000177 -0.000072
vt -0.000073 -0.000176
vt 0.000191 0.000001
vt -0.000135 -0.000135
vt 0.000177 0.000074
vt -0.000177 -0.000072
vt 0.000135 0.000136
vt -0.000191 0.000001
vt 0.000073 0.000177
vt -0.000177 0.000074
vt -0.000000 0.000192
vt -0.000135 0.000136
vt -0.000073 0.000177
vt 0.000192 -0.001773
vt 0.000104 -0.001832
vt -0.000000 -0.001582
vt -0.000000 -0.001853
vt 0.000250 -0.001686
vt -0.000104 -0.001832
vt 0.000271 -0.001582
vt -0.000192 -0.001773
vt 0.000250 -0.001478
vt -0.000250 -0.001686
vt 0.000192 -0.001390
vt -0.000271 -0.001582
vt 0.000104 -0.001332
vt -0.000250 -0.001478
vt -0.000000 -0.001311
vt -0.000192 -0.001390
vt -0.000104 -0.001332
vt -0.000000 0.000000
vt 0.001033 0.000182
vt 0.001049 0.000000
vt 0.000986 0.000359
vt 0.001033 -0.000182
vt 0.000908 0.000525
vt 0.000986 -0.000358
vt 0.000803 0.000674
vt 0.000908 -0.000524
vt 0.000674 0.000804
vt 0.000803 -0.000674
vt 0.000524 0.000909
vt 0.000674 -0.000803
vt 0.000359 0.000986
vt 0.000524 -0.000908
vt 0.000182 0.001033
vt 0.000359 -0.000985
vt -0.000000 0.001049
vt 0.000182 -0.001033
vt -0.000182 0.001033
vt -0.000000 -0.001049
vt -0.000359 0.000986
vt -0.000182 -0.001033
vt -0.000524 0.000909
vt -0.000359 -0.000985
vt -0.000674 0.000804
vt -0.000524 -0.000908
vt -0.000803 0.000674
vt -0.000674 -0.000803
vt -0.000908 0.000525
vt -0.000803 -0.000674
vt -0.000986 0.000359
vt -0.000908 -0.000524
vt -0.001033 0.000182
vt -0.000986 -0.000358
vt -0.001049 0.000000
vt -0.001033 -0.000182
vt -0.005114 0.000963
vt -0.005349 0.001370
vt -0.005114 0.001408
vt -0.005349 0.001761
vt -0.005114 0.001810
vt 0.005349 0.000889
vt 0.005114 0.000000
vt 0.005114 0.000911
vt -0.005114 -0.001492
vt -0.005349 -0.002292
vt -0.005349 -0.001489
vt -0.005114 -0.000924
vt 0.005349 -0.000902
vt 0.005114 -0.000924
vt 0.005349 -0.001489
vt 0.005114 -0.001492
vt 0.005349 -0.002292
vt -0.005114 -0.000000
vt -0.005349 -0.000476
vt -0.005349 0.000000
vt -0.005349 0.001475
vt -0.005114 0.001475
vt -0.005114 0.001426
vt 0.005349 0.001524
vt 0.005114 0.001810
vt 0.005349 0.001834
vt 0.005114 0.001810
vt 0.005349 0.002099
vt 0.005349 0.001761
vt 0.005114 0.001408
vt 0.005349 0.001370
vt 0.005114 0.000963
vt 0.005349 0.000937
vt 0.005349 -0.000937
vt 0.005114 -0.000489
vt 0.005349 -0.000476
vt 0.005114 -0.000000
vt 0.005349 0.000000
vt 0.005349 -0.001761
vt 0.005114 -0.001408
vt 0.005349 -0.001370
vt 0.005349 -0.002099
vt 0.005114 -0.001810
vt -0.001489 0.001600
vt -0.002292 0.001475
vt -0.002324 0.001524
vt -0.002099 0.001834
vt -0.001761 0.002159
vt 0.001489 0.001600
vt 0.001370 0.002422
vt 0.001761 0.002159
vt -0.000937 0.002616
vt -0.000902 0.001639
vt -0.001370 0.002422
vt 0.000476 0.002735
vt 0.000902 0.001639
vt 0.000000 0.001648
vt -0.000000 0.002775
vt -0.000000 0.001648
vt -0.000476 0.002735
vt 0.000476 0.002735
vt -0.000476 0.002735
vt -0.000889 0.001619
vt -0.000937 0.002616
vt 0.001370 0.002422
vt 0.000889 0.001619
vt 0.000937 0.002616
vt 0.002099 0.001834
vt 0.001482 0.001589
vt 0.001761 0.002159
vt 0.002324 0.001524
vt 0.002292 0.001475
vt -0.001370 0.002422
vt -0.001482 0.001589
vt -0.001761 0.002159
vt -0.005114 0.001485
vt -0.005349 0.002292
vt -0.005114 0.002358
vt -0.005114 0.000911
vt -0.005349 0.001482
vt -0.005114 0.000000
vt -0.005349 0.000889
vt 0.005349 0.001482
vt 0.005349 0.001475
vt 0.005114 0.001475
vt 0.005349 0.001524
vt -0.005114 0.001475
vt -0.005349 0.001475
vt -0.005349 0.001524
vt -0.005114 -0.001810
vt -0.005349 -0.002099
vt -0.005349 -0.001761
vt -0.005114 -0.001408
vt -0.005349 -0.001370
vt 0.005114 -0.000963
vt -0.005114 0.000489
vt -0.005349 0.000937
vt -0.005349 0.000476
vt 0.005349 0.000476
vt -0.005114 -0.000489
vt -0.005349 -0.000937
vt -0.005114 -0.000963
vt 0.005114 0.001485
vt 0.005349 0.002292
vt -0.005114 0.001810
vt -0.005349 0.001834
vt 0.002324 0.001524
vt 0.002292 0.001475
vt 0.002099 0.001834
vt 0.000937 0.002616
vt -0.005349 0.002099
vt -0.005114 0.002157
vt 0.000000 0.002775
vt -0.002099 0.001834
vt -0.002324 0.001524
vt -0.002292 0.001475
vt -0.005114 0.001810
vt -0.005349 0.001524
vt -0.005349 0.001834
vt 0.005114 0.000489
vt 0.005349 0.001475
vt 0.005114 0.001475
vt -0.005349 -0.000902
vt 0.005349 -0.000000
vt -0.005114 -0.002358
vt 0.005114 -0.002358
vt 0.005114 0.002157
vt 0.005114 -0.002157
vt -0.005349 -0.000000
vt 0.005114 0.001426
vt -0.005114 0.001426
vt 0.005349 0.001834
vt -0.005114 -0.002157
vt 0.005114 0.002358
vt 0.005114 0.001426
s 1
f 19/1/1 18/2/1 17/3/1
f 17/3/1 18/2/1 20/4/1
f 21/5/1 18/2/1 19/1/1
f 20/4/1 18/2/1 22/6/1
f 23/7/1 18/2/1 21/5/1
f 22/6/1 18/2/1 24/8/1
f 25/9/1 18/2/1 23/7/1
f 24/8/1 18/2/1 26/10/1
f 27/11/1 18/2/1 25/9/1
f 26/10/1 18/2/1 28/12/1
f 29/13/1 18/2/1 27/11/1
f 28/12/1 18/2/1 30/14/1
f 31/15/1 18/2/1 29/13/1
f 30/14/1 18/2/1 32/16/1
f 33/17/1 18/2/1 31/15/1
f 32/16/1 18/2/1 33/17/1
f 3/18/1 34/19/1 2/20/1
f 2/20/1 34/19/1 1/21/1
f 4/22/1 34/19/1 3/18/1
f 1/21/1 34/19/1 16/23/1
f 5/24/1 34/19/1 4/22/1
f 16/23/1 34/19/1 15/25/1
f 6/26/1 34/19/1 5/24/1
f 15/25/1 34/19/1 14/27/1
f 7/28/1 34/19/1 6/26/1
f 14/27/1 34/19/1 13/29/1
f 8/30/1 34/19/1 7/28/1
f 13/29/1 34/19/1 12/31/1
f 9/32/1 34/19/1 8/30/1
f 12/31/1 34/19/1 11/33/1
f 10/34/1 34/19/1 9/32/1
f 11/33/1 34/19/1 10/34/1
f 37/35/1 36/36/1 35/37/1
f 37/35/1 35/37/1 38/38/1
f 37/35/1 39/39/1 36/36/1
f 37/35/1 38/38/1 40/40/1
f 37/35/1 41/41/1 39/39/1
f 37/35/1 40/40/1 42/42/1
f 37/35/1 43/43/1 41/41/1
f 37/35/1 42/42/1 44/44/1
f 37/35/1 45/45/1 43/43/1
f 37/35/1 44/44/1 46/46/1
f 37/35/1 47/47/1 45/45/1
f 37/35/1 46/46/1 48/48/1
f 37/35/1 49/49/1 47/47/1
f 37/35/1 48/48/1 50/50/1
f 37/35/1 51/51/1 49/49/1
f 37/35/1 50/50/1 52/52/1
f 37/35/1 53/53/1 51/51/1
f 37/35/1 52/52/1 54/54/1
f 37/35/1 55/55/1 53/53/1
f 37/35/1 54/54/1 56/56/1
f 37/35/1 57/57/1 55/55/1
f 37/35/1 56/56/1 58/58/1
f 37/35/1 59/59/1 57/57/1
f 37/35/1 58/58/1 60/60/1
f 37/35/1 61/61/1 59/59/1
f 37/35/1 60/60/1 62/62/1
f 37/35/1 63/63/1 61/61/1
f 37/35/1 62/62/1 64/64/1
f 37/35/1 65/65/1 63/63/1
f 37/35/1 64/64/1 66/66/1
f 37/35/1 67/67/1 65/65/1
f 37/35/1 66/66/1 68/68/1
f 37/35/1 69/69/1 67/67/1
f 37/35/1 68/68/1 70/70/1
f 37/35/1 71/71/1 69/69/1
f 37/35/1 70/70/1 71/71/1
f 90/72/2 88/73/2 89/74/2
f 88/73/2 91/75/2 89/74/2
f 92/76/2 90/72/2 89/74/2
f 91/75/2 93/77/2 89/74/2
f 94/78/2 92/76/2 89/74/2
f 93/77/2 95/79/2 89/74/2
f 96/80/2 94/78/2 89/74/2
f 95/79/2 97/81/2 89/74/2
f 98/82/2 96/80/2 89/74/2
f 97/81/2 99/83/2 89/74/2
f 100/84/2 98/82/2 89/74/2
f 99/83/2 101/85/2 89/74/2
f 102/86/2 100/84/2 89/74/2
f 101/85/2 103/87/2 89/74/2
f 104/88/2 102/86/2 89/74/2
f 103/87/2 104/88/2 89/74/2
f 74/89/2 73/90/2 105/91/2
f 73/90/2 72/92/2 105/91/2
f 75/93/2 74/89/2 105/91/2
f 72/92/2 87/94/2 105/91/2
f 76/95/2 75/93/2 105/91/2
f 87/94/2 86/96/2 105/91/2
f 77/97/2 76/95/2 105/91/2
f 86/96/2 85/98/2 105/91/2
f 78/99/2 77/97/2 105/91/2
f 85/98/2 84/100/2 105/91/2
f 79/101/2 78/99/2 105/91/2
f 84/100/2 83/102/2 105/91/2
f 80/103/2 79/101/2 105/91/2
f 83/102/2 82/104/2 105/91/2
f 81/105/2 80/103/2 105/91/2
f 82/104/2 81/105/2 105/91/2
f 108/106/2 106/107/2 107/108/2
f 108/106/2 109/109/2 106/107/2
f 108/106/2 107/108/2 110/110/2
f 108/106/2 111/111/2 109/109/2
f 108/106/2 110/110/2 112/112/2
f 108/106/2 113/113/2 111/111/2
f 108/106/2 112/112/2 114/114/2
f 108/106/2 115/115/2 113/113/2
f 108/106/2 114/114/2 116/116/2
f 108/106/2 117/117/2 115/115/2
f 108/106/2 116/116/2 118/118/2
f 108/106/2 119/119/2 117/117/2
f 108/106/2 118/118/2 120/120/2
f 108/106/2 121/121/2 119/119/2
f 108/106/2 120/120/2 122/122/2
f 108/106/2 123/123/2 121/121/2
f 108/106/2 122/122/2 124/124/2
f 108/106/2 125/125/2 123/123/2
f 108/106/2 124/124/2 126/126/2
f 108/106/2 127/127/2 125/125/2
f 108/106/2 126/126/2 128/128/2
f 108/106/2 129/129/2 127/127/2
f 108/106/2 128/128/2 130/130/2
f 108/106/2 131/131/2 129/129/2
f 108/106/2 130/130/2 132/132/2
f 108/106/2 133/133/2 131/131/2
f 108/106/2 132/132/2 134/134/2
f 108/106/2 135/135/2 133/133/2
f 108/106/2 134/134/2 136/136/2
f 108/106/2 137/137/2 135/135/2
f 108/106/2 136/136/2 138/138/2
f 108/106/2 139/139/2 137/137/2
f 108/106/2 138/138/2 140/140/2
f 108/106/2 141/141/2 139/139/2
f 108/106/2 140/140/2 142/142/2
f 108/106/2 142/142/2 141/141/2
f 168/143/3 165/144/4 166/145/5
f 166/145/5 163/146/6 164/147/7
f 194/148/8 187/149/9 186/150/10
f 149/151/11 158/152/12 157/153/13
f 157/153/13 148/154/14 149/151/11
f 187/149/9 196/155/15 188/156/16
f 188/156/16 197/157/17 189/158/18
f 198/159/19 189/158/18 197/157/17
f 172/160/20 173/161/21 171/162/22
f 198/163/23 191/164/24 190/165/25
f 200/166/26 222/167/27 221/168/28
f 204/169/29 201/170/30 203/171/31
f 206/172/32 203/171/31 205/173/33
f 208/174/34 205/173/33 207/175/35
f 215/176/36 214/177/37 213/178/38
f 213/178/38 212/179/39 211/180/40
f 219/181/41 218/182/42 217/183/43
f 221/184/28 220/185/44 219/181/41
f 157/186/1 158/187/1 159/188/1
f 161/189/1 157/186/1 159/188/1
f 163/190/1 157/186/1 161/189/1
f 197/191/2 205/192/2 203/193/2
f 167/194/1 156/195/1 165/196/1
f 209/197/2 196/198/2 195/199/2
f 171/200/1 155/201/1 169/202/1
f 173/203/1 155/201/1 171/200/1
f 213/204/2 194/205/2 215/206/2
f 177/207/1 154/208/1 175/209/1
f 181/210/1 152/211/1 179/212/1
f 181/210/1 160/213/1 152/211/1
f 160/213/1 153/214/1 152/211/1
f 154/208/1 173/203/1 175/209/1
f 217/215/2 192/216/2 219/217/2
f 145/218/45 153/219/46 143/220/47
f 146/221/48 152/222/49 145/218/45
f 147/223/50 154/224/51 146/221/48
f 186/150/10 192/225/52 194/148/8
f 158/226/53 151/227/54 159/228/55
f 144/229/56 153/230/57 160/231/58
f 162/167/59 159/228/60 151/227/61
f 180/232/62 181/233/63 179/234/64
f 178/235/65 179/234/64 177/236/66
f 217/183/43 216/237/67 215/176/36
f 170/238/68 167/239/69 168/143/3
f 172/160/20 169/240/70 170/238/68
f 212/179/39 209/241/71 211/180/40
f 174/242/72 175/243/73 173/161/21
f 176/244/74 177/236/66 175/243/73
f 185/245/75 193/246/76 192/225/52
f 182/247/77 160/231/78 181/248/63
f 197/191/2 199/249/2 198/250/2
f 201/251/2 199/249/2 197/191/2
f 203/193/2 201/251/2 197/191/2
f 207/252/2 205/192/2 196/198/2
f 164/147/7 161/253/79 162/254/59
f 211/255/2 209/197/2 195/199/2
f 213/204/2 211/255/2 195/199/2
f 217/215/2 215/206/2 194/205/2
f 152/211/1 177/207/1 179/212/1
f 221/256/2 219/217/2 192/216/2
f 221/256/2 192/216/2 200/257/2
f 200/257/2 192/216/2 193/258/2
f 165/196/1 157/186/1 163/190/1
f 202/259/80 199/260/81 201/261/30
f 210/262/82 207/175/35 209/241/71
f 156/195/1 169/202/1 155/201/1
f 193/263/83 184/264/84 200/166/85
f 156/265/86 147/223/50 148/154/14
f 168/143/3 167/239/69 165/144/4
f 166/145/5 165/144/4 163/146/6
f 194/148/8 195/266/87 187/149/9
f 149/151/11 150/267/88 158/152/12
f 157/153/13 156/265/86 148/154/14
f 187/149/9 195/266/87 196/155/15
f 188/156/16 196/155/15 197/157/17
f 198/159/19 190/268/89 189/158/18
f 172/160/20 174/242/72 173/161/21
f 198/163/23 199/260/90 191/164/24
f 200/166/26 184/264/91 222/167/27
f 204/169/29 202/269/80 201/170/30
f 206/172/32 204/169/29 203/171/31
f 208/174/34 206/172/32 205/173/33
f 215/176/36 216/237/67 214/177/37
f 213/178/38 214/177/37 212/179/39
f 219/181/41 220/185/44 218/182/42
f 221/184/28 222/270/27 220/185/44
f 197/191/2 196/198/2 205/192/2
f 209/197/2 207/252/2 196/198/2
f 213/204/2 195/199/2 194/205/2
f 154/208/1 155/201/1 173/203/1
f 217/215/2 194/205/2 192/216/2
f 145/218/45 152/222/49 153/219/46
f 146/221/48 154/224/51 152/222/49
f 147/223/50 155/271/92 154/224/51
f 186/150/10 185/245/75 192/225/52
f 158/226/53 150/272/93 151/227/54
f 144/229/56 143/273/94 153/230/57
f 162/167/59 161/274/79 159/228/60
f 180/232/62 182/275/77 181/233/63
f 178/235/65 180/232/62 179/234/64
f 217/183/43 218/182/42 216/237/67
f 170/238/68 169/240/70 167/239/69
f 172/160/20 171/162/22 169/240/70
f 212/179/39 210/262/82 209/241/71
f 174/242/72 176/244/74 175/243/73
f 176/244/74 178/235/65 177/236/66
f 185/245/75 183/276/95 193/246/76
f 182/247/77 144/229/96 160/231/78
f 164/147/7 163/146/6 161/253/79
f 152/211/1 154/208/1 177/207/1
f 165/196/1 156/195/1 157/186/1
f 202/259/80 191/164/97 199/260/81
f 210/262/82 208/174/34 207/175/35
f 156/195/1 167/194/1 169/202/1
f 193/263/83 183/277/98 184/264/84
f 156/265/86 155/271/92 147/223/50
