# Blender 5.2.1 LTS
# www.blender.org
o s060_Wheels_02.005
v -51.997570 -6.886474 39.069679
v -51.997570 0.002607 39.672398
v -51.997581 6.891650 39.069691
v -51.997570 13.571371 37.279854
v -51.997581 19.838797 34.357338
v -51.997570 25.503540 30.390860
v -51.997570 30.393423 25.500902
v -51.997570 34.359928 19.836170
v -51.997570 37.282478 13.568746
v -51.997570 39.072289 6.889018
v -51.997570 39.675007 -0.000025
v -51.997570 39.072289 -6.889081
v -51.997570 37.282471 -13.568783
v -51.997570 34.359921 -19.836220
v -51.997570 30.393415 -25.500954
v -51.997570 25.503523 -30.390837
v -51.997570 19.838789 -34.357330
v -51.997555 13.571377 -37.279888
v -51.997555 6.891643 -39.069706
v -51.997555 0.002588 -39.672440
v -51.997555 -6.886436 -39.069706
v -51.997555 -13.566164 -37.279911
v -51.997543 -19.833601 -34.357353
v -51.997543 -25.498363 -30.390863
v -51.997555 -30.388266 -25.500954
v -51.997555 -34.354744 -19.836227
v -51.997570 -37.277302 -13.568789
v -51.997555 -39.067120 -6.889055
v -51.997555 -39.669849 -0.000013
v -51.997570 -39.067131 6.889024
v -51.997555 -37.277294 13.568765
v -51.997570 -34.354740 19.836184
v -51.997570 -30.388260 25.500927
v -51.997555 -25.498367 30.390797
v -51.997570 -19.833633 34.357288
v -51.997570 -13.566195 37.279865
v -52.597008 0.002607 39.802788
v -52.597019 6.914293 39.198128
v -52.597008 -6.909117 39.198078
v -52.597008 13.615969 37.402405
v -52.597008 -13.610781 37.402382
v -52.597019 19.904009 34.470230
v -52.597008 -19.898846 34.470230
v -52.597008 25.587366 30.490732
v -52.596992 -25.582180 30.490683
v -52.597008 30.493320 25.584717
v -52.597008 -30.488144 25.584717
v -52.597008 34.472843 19.901377
v -52.597008 -34.467667 19.901390
v -52.597008 37.404995 13.613350
v -52.596992 -37.399841 13.613343
v -52.597008 39.200703 6.911655
v -52.597008 -39.195557 6.911661
v -52.597008 39.805408 -0.000025
v -52.596992 -39.800247 -0.000013
v -52.597008 39.200703 -6.911724
v -52.596992 -39.195530 -6.911705
v -52.597008 37.404987 -13.613381
v -52.596992 -37.399849 -13.613387
v -52.597008 34.472836 -19.901421
v -52.596992 -34.467674 -19.901415
v -52.597008 30.493315 -25.584780
v -52.596992 -30.488152 -25.584780
v -52.596992 25.587349 -30.490723
v -52.596981 -25.582190 -30.490747
v -52.597008 19.904003 -34.470257
v -52.596981 -19.898815 -34.470268
v -52.596992 13.615975 -37.402416
v -52.596992 -13.610762 -37.402428
v -52.596992 6.914287 -39.198132
v -52.596992 -6.909086 -39.198132
v -52.596992 0.002588 -39.802841
v 51.997570 -6.886471 39.069675
v 51.997570 0.002610 39.672394
v 51.997581 6.891653 39.069691
v 51.997570 13.571374 37.279850
v 51.997581 19.838799 34.357334
v 51.997570 25.503542 30.390854
v 51.997570 30.393425 25.500896
v 51.997570 34.359928 19.836164
v 51.997570 37.282478 13.568739
v 51.997570 39.072289 6.889011
v 51.997570 39.675007 -0.000032
v 51.997570 39.072289 -6.889088
v 51.997570 37.282471 -13.568789
v 51.997570 34.359917 -19.836227
v 51.997570 30.393414 -25.500959
v 51.997570 25.503521 -30.390844
v 51.997570 19.838787 -34.357334
v 51.997555 13.571374 -37.279888
v 51.997555 6.891640 -39.069710
v 51.997555 0.002585 -39.672440
v 51.997555 -6.886439 -39.069710
v 51.997555 -13.566167 -37.279915
v 51.997543 -19.833605 -34.357353
v 51.997543 -25.498367 -30.390863
v 51.997555 -30.388269 -25.500954
v 51.997555 -34.354748 -19.836227
v 51.997570 -37.277302 -13.568789
v 51.997555 -39.067120 -6.889056
v 51.997555 -39.669849 -0.000013
v 51.997570 -39.067131 6.889023
v 51.997555 -37.277294 13.568765
v 51.997570 -34.354736 19.836184
v 51.997570 -30.388256 25.500927
v 51.997555 -25.498363 30.390797
v 51.997570 -19.833630 34.357288
v 51.997570 -13.566192 37.279861
v 52.597008 0.002610 39.802784
v 52.597019 6.914296 39.198124
v 52.597008 -6.909114 39.198074
v 52.597008 13.615973 37.402405
v 52.597008 -13.610778 37.402378
v 52.597019 19.904013 34.470222
v 52.597008 -19.898844 34.470230
v 52.597008 25.587368 30.490726
v 52.596992 -25.582176 30.490683
v 52.597008 30.493324 25.584711
v 52.597008 -30.488142 25.584717
v 52.597008 34.472847 19.901371
v 52.597008 -34.467663 19.901390
v 52.597008 37.404995 13.613343
v 52.596992 -37.399841 13.613343
v 52.597008 39.200703 6.911648
v 52.597008 -39.195557 6.911660
v 52.597008 39.805408 -0.000032
v 52.596992 -39.800247 -0.000013
v 52.597008 39.200703 -6.911731
v 52.596992 -39.195530 -6.911705
v 52.597008 37.404987 -13.613387
v 52.596992 -37.399849 -13.613387
v 52.597008 34.472832 -19.901428
v 52.596992 -34.467674 -19.901415
v 52.597008 30.493311 -25.584785
v 52.596992 -30.488153 -25.584780
v 52.596992 25.587347 -30.490730
v 52.596981 -25.582193 -30.490747
v 52.597008 19.903999 -34.470264
v 52.596981 -19.898817 -34.470268
v 52.596992 13.615973 -37.402420
v 52.596992 -13.610765 -37.402431
v 52.596992 6.914283 -39.198135
v 52.596992 -6.909089 -39.198135
v 52.596992 0.002585 -39.802841
v -61.863499 0.002581 32.452629
v -61.863499 0.002581 36.713684
v -61.863499 -6.372721 36.155930
v -61.863499 6.377852 36.155930
v -61.863499 -5.632787 31.959600
v -61.863499 5.637923 31.959600
v -61.863487 -11.096916 30.495514
v -61.863499 12.559422 34.499569
v -61.863499 -12.554279 34.499569
v -61.863499 11.102057 30.495514
v -61.863487 -16.223738 28.104822
v -61.863499 18.359449 31.795002
v -61.863487 -18.354301 31.795002
v -61.863499 16.228922 28.104809
v -61.863468 -20.857580 24.860132
v -61.863499 23.601721 28.124311
v -61.863468 -23.596548 28.124298
v -61.863499 20.862747 24.860170
v -61.863487 -24.857601 20.860132
v -61.863499 28.126907 23.599096
v -61.863487 -28.121744 23.599085
v -61.863499 24.862759 20.860170
v -61.863487 -28.102243 16.226286
v -61.863499 31.797586 18.356825
v -61.863487 -31.792410 18.356838
v -61.863499 28.107393 16.226324
v -61.863487 -30.492924 11.099433
v -61.863499 34.502167 12.556804
v -61.863468 -34.497017 12.556797
v -61.863499 30.498098 11.099446
v -61.863468 -31.957056 5.635324
v -61.863499 36.158524 6.375239
v -61.863468 -36.153351 6.375246
v -61.863499 31.962206 5.635311
v -61.863468 -32.450073 -0.000025
v -61.863499 36.716278 -0.000038
v -61.863468 -36.711109 -0.000025
v -61.863499 32.455250 -0.000031
v -61.863468 -31.957037 -5.635374
v -61.863499 36.158524 -6.375283
v -61.863468 -36.153351 -6.375289
v -61.863499 31.962206 -5.635367
v -61.863468 -30.492935 -11.099496
v -61.863499 34.502174 -12.556867
v -61.863468 -34.497017 -12.556853
v -61.863499 30.498093 -11.099471
v -61.863468 -28.102243 -16.226349
v -61.863499 31.797581 -18.356888
v -61.863468 -31.792416 -18.356874
v -61.863468 28.107388 -16.226336
v -61.863468 -24.857594 -20.860195
v -61.863487 28.126902 -23.599134
v -61.863468 -28.121752 -23.599134
v -61.863487 24.862751 -20.860182
v -61.863468 -20.857584 -24.860195
v -61.863487 23.601717 -28.124329
v -61.863468 -23.596533 -28.124342
v -61.863487 20.862724 -24.860207
v -61.863468 -16.223734 -28.104828
v -61.863487 18.359459 -31.795002
v -61.863468 -18.354279 -31.795027
v -61.863487 16.228907 -28.104828
v -61.863468 -11.096882 -30.495533
v -61.863468 12.559418 -34.499615
v -61.863468 -12.554240 -34.499615
v -61.863487 11.102041 -30.495520
v -61.863468 -5.632772 -31.959650
v -61.863468 6.377846 -36.155964
v -61.863468 -6.372676 -36.155964
v -61.863468 5.637919 -31.959637
v -61.863468 0.002589 -32.452667
v -61.863468 0.002588 -36.713722
v -53.547108 6.543289 37.094101
v -61.532677 6.444092 36.531601
v -61.532677 12.689874 34.858032
v -53.547108 12.885252 35.394783
v -53.547108 0.002594 37.666351
v -61.532677 18.550182 32.125351
v -61.532677 0.002581 37.095165
v -53.547119 18.835772 32.620045
v -53.547108 -6.538120 37.094101
v -61.532677 23.846916 28.416544
v -61.532677 -6.438948 36.531601
v -53.547108 24.214066 28.854113
v -53.547108 -12.880091 35.394783
v -61.532677 28.419142 23.844292
v -61.532677 -12.684737 34.858017
v -53.547119 28.856714 24.211454
v -53.547096 -18.830605 32.620033
v -61.532677 32.127945 18.547546
v -61.532661 -18.545029 32.125324
v -53.547108 32.622620 18.833160
v -53.547096 -24.208879 28.854088
v -61.532677 34.860626 12.687249
v -61.532661 -23.841730 28.416533
v -53.547108 35.397396 12.882640
v -53.547096 -28.851524 24.211441
v -61.532677 36.534206 6.441479
v -61.532661 -28.413965 23.844292
v -53.547108 37.096722 6.540664
v -53.547108 -32.617443 18.833136
v -61.532677 37.097759 -0.000038
v -61.532661 -32.122784 18.547546
v -53.547108 37.668949 -0.000038
v -53.547096 -35.392235 12.882634
v -61.532677 36.534206 -6.441535
v -61.532661 -34.855469 12.687268
v -53.547108 37.096722 -6.540727
v -53.547096 -37.091553 6.540670
v -61.532677 34.860622 -12.687318
v -61.532661 -36.529026 6.441473
v -53.547108 35.397388 -12.882690
v -53.547096 -37.663792 -0.000013
v -61.532677 32.127941 -18.547596
v -61.532661 -37.092590 -0.000025
v -53.547108 32.622616 -18.833199
v -53.547096 -37.091553 -6.540702
v -61.532677 28.419136 -23.844341
v -61.532661 -36.529026 -6.441542
v -53.547096 28.856707 -24.211466
v -53.547096 -35.392246 -12.882678
v -61.532677 23.846901 -28.416552
v -61.532661 -34.855469 -12.687330
v -53.547108 24.214062 -28.854113
v -53.547096 -32.617451 -18.833210
v -61.532661 18.550167 -32.125362
v -61.532661 -32.122791 -18.547596
v -53.547096 18.835793 -32.620037
v -53.547081 -28.851532 -24.211479
v -61.532661 12.689881 -34.858063
v -61.532661 -28.413965 -23.844341
v -53.547096 12.885260 -35.394817
v -53.547096 -24.208897 -28.854126
v -61.532661 6.444099 -36.531624
v -61.532661 -23.841734 -28.416576
v -53.547096 6.543296 -37.094143
v -53.547081 -18.830570 -32.620049
v -61.532661 0.002588 -37.095203
v -61.532661 -18.545000 -32.125374
v -53.547081 0.002588 -37.666393
v -53.547081 -12.880052 -35.394817
v -61.532661 -6.438929 -36.531639
v -61.532661 -12.684717 -34.858074
v -53.547081 -6.538088 -37.094143
v -53.228714 6.868743 38.939739
v -53.228714 13.526235 37.155872
v -53.228714 0.002607 39.540455
v -53.228714 19.772844 34.243046
v -53.228714 -6.863555 38.939739
v -53.228714 25.418724 30.289785
v -53.228714 -13.521047 37.155872
v -53.228714 30.292347 25.416088
v -53.228703 -19.767668 34.243034
v -53.228714 34.245647 19.770199
v -53.228703 -25.413551 30.289709
v -53.228714 37.158474 13.523609
v -53.228703 -30.287172 25.416113
v -53.228714 38.942337 6.866093
v -53.228703 -34.240471 19.770212
v -53.228714 39.543064 -0.000025
v -53.228703 -37.153309 13.523622
v -53.228703 38.942337 -6.866149
v -53.228703 -38.937180 6.866112
v -53.228703 37.158466 -13.523660
v -53.228703 -39.537895 -0.000013
v -53.228703 34.245640 -19.770256
v -53.228703 -38.937176 -6.866156
v -53.228703 30.292330 -25.416138
v -53.228703 -37.153316 -13.523647
v -53.228703 25.418709 -30.289762
v -53.228687 -34.240471 -19.770250
v -53.228703 19.772812 -34.243050
v -53.228687 -30.287178 -25.416138
v -53.228703 13.526229 -37.155907
v -53.228687 -25.413542 -30.289776
v -53.228687 6.868725 -38.939770
v -53.228687 -19.767643 -34.243076
v -53.228687 0.002588 -39.540485
v -53.228687 -13.521034 -37.155895
v -53.228687 -6.863536 -38.939770
v 61.863499 0.002584 32.452625
v 61.863499 0.002585 36.713676
v 61.863499 -6.372718 36.155922
v 61.863499 6.377855 36.155922
v 61.863499 -5.632784 31.959593
v 61.863499 5.637926 31.959593
v 61.863487 -11.096913 30.495508
v 61.863499 12.559425 34.499561
v 61.863499 -12.554276 34.499561
v 61.863499 11.102059 30.495508
v 61.863487 -16.223734 28.104816
v 61.863499 18.359451 31.794994
v 61.863487 -18.354298 31.795002
v 61.863499 16.228926 28.104803
v 61.863468 -20.857578 24.860128
v 61.863499 23.601725 28.124304
v 61.863468 -23.596544 28.124298
v 61.863499 20.862749 24.860163
v 61.863487 -24.857599 20.860130
v 61.863499 28.126911 23.599091
v 61.863487 -28.121742 23.599085
v 61.863499 24.862759 20.860165
v 61.863487 -28.102243 16.226286
v 61.863499 31.797588 18.356819
v 61.863487 -31.792408 18.356838
v 61.863499 28.107393 16.226316
v 61.863487 -30.492924 11.099432
v 61.863499 34.502167 12.556797
v 61.863468 -34.497017 12.556797
v 61.863499 30.498098 11.099440
v 61.863468 -31.957056 5.635322
v 61.863499 36.158524 6.375232
v 61.863468 -36.153351 6.375245
v 61.863499 31.962206 5.635304
v 61.863468 -32.450073 -0.000026
v 61.863499 36.716278 -0.000045
v 61.863468 -36.711109 -0.000026
v 61.863499 32.455250 -0.000038
v 61.863468 -31.957037 -5.635375
v 61.863499 36.158524 -6.375290
v 61.863468 -36.153351 -6.375290
v 61.863499 31.962206 -5.635374
v 61.863468 -30.492935 -11.099498
v 61.863499 34.502174 -12.556873
v 61.863468 -34.497017 -12.556854
v 61.863499 30.498093 -11.099477
v 61.863468 -28.102243 -16.226349
v 61.863499 31.797577 -18.356894
v 61.863468 -31.792419 -18.356874
v 61.863468 28.107388 -16.226341
v 61.863468 -24.857595 -20.860199
v 61.863487 28.126898 -23.599140
v 61.863468 -28.121754 -23.599134
v 61.863487 24.862749 -20.860189
v 61.863468 -20.857586 -24.860197
v 61.863487 23.601715 -28.124336
v 61.863468 -23.596537 -28.124342
v 61.863487 20.862724 -24.860214
v 61.863468 -16.223738 -28.104834
v 61.863487 18.359455 -31.795008
v 61.863468 -18.354282 -31.795027
v 61.863487 16.228903 -28.104834
v 61.863468 -11.096884 -30.495533
v 61.863468 12.559414 -34.499615
v 61.863468 -12.554243 -34.499615
v 61.863487 11.102039 -30.495520
v 61.863468 -5.632775 -31.959650
v 61.863468 6.377843 -36.155964
v 61.863468 -6.372679 -36.155964
v 61.863468 5.637916 -31.959637
v 61.863468 0.002586 -32.452667
v 61.863468 0.002585 -36.713722
v 53.547108 6.543293 37.094097
v 61.532677 6.444095 36.531593
v 61.532677 12.689878 34.858025
v 53.547108 12.885255 35.394779
v 53.547108 0.002597 37.666348
v 61.532677 18.550186 32.125343
v 61.532677 0.002585 37.095158
v 53.547119 18.835775 32.620041
v 53.547108 -6.538117 37.094097
v 61.532677 23.846920 28.416538
v 61.532677 -6.438945 36.531593
v 53.547108 24.214069 28.854107
v 53.547108 -12.880088 35.394779
v 61.532677 28.419146 23.844286
v 61.532677 -12.684734 34.858013
v 53.547119 28.856716 24.211449
v 53.547096 -18.830603 32.620033
v 61.532677 32.127949 18.547541
v 61.532661 -18.545025 32.125324
v 53.547108 32.622623 18.833155
v 53.547096 -24.208878 28.854088
v 61.532677 34.860626 12.687243
v 61.532661 -23.841728 28.416533
v 53.547108 35.397396 12.882633
v 53.547096 -28.851522 24.211441
v 61.532677 36.534206 6.441472
v 61.532661 -28.413963 23.844292
v 53.547108 37.096722 6.540657
v 53.547108 -32.617443 18.833136
v 61.532677 37.097759 -0.000045
v 61.532661 -32.122780 18.547546
v 53.547108 37.668949 -0.000045
v 53.547096 -35.392235 12.882633
v 61.532677 36.534206 -6.441543
v 61.532661 -34.855469 12.687267
v 53.547108 37.096722 -6.540734
v 53.547096 -37.091553 6.540669
v 61.532677 34.860622 -12.687325
v 61.532661 -36.529026 6.441472
v 53.547108 35.397388 -12.882697
v 53.547096 -37.663792 -0.000013
v 61.532677 32.127937 -18.547602
v 61.532661 -37.092590 -0.000026
v 53.547108 32.622612 -18.833204
v 53.547096 -37.091553 -6.540702
v 61.532677 28.419132 -23.844349
v 61.532661 -36.529026 -6.441543
v 53.547096 28.856705 -24.211473
v 53.547096 -35.392246 -12.882678
v 61.532677 23.846897 -28.416557
v 61.532661 -34.855469 -12.687331
v 53.547108 24.214060 -28.854118
v 53.547096 -32.617455 -18.833210
v 61.532661 18.550163 -32.125366
v 61.532661 -32.122791 -18.547596
v 53.547096 18.835791 -32.620041
v 53.547081 -28.851534 -24.211479
v 61.532661 12.689878 -34.858063
v 61.532661 -28.413969 -23.844341
v 53.547096 12.885257 -35.394821
v 53.547096 -24.208899 -28.854126
v 61.532661 6.444096 -36.531624
v 61.532661 -23.841738 -28.416576
v 53.547096 6.543293 -37.094143
v 53.547081 -18.830574 -32.620049
v 61.532661 0.002585 -37.095203
v 61.532661 -18.545004 -32.125374
v 53.547081 0.002585 -37.666397
v 53.547081 -12.880054 -35.394821
v 61.532661 -6.438931 -36.531639
v 61.532661 -12.684720 -34.858074
v 53.547081 -6.538092 -37.094143
v 53.228714 6.868747 38.939739
v 53.228714 13.526237 37.155869
v 53.228714 0.002610 39.540451
v 53.228714 19.772846 34.243042
v 53.228714 -6.863552 38.939739
v 53.228714 25.418728 30.289780
v 53.228714 -13.521044 37.155869
v 53.228714 30.292351 25.416082
v 53.228703 -19.767666 34.243034
v 53.228714 34.245651 19.770193
v 53.228703 -25.413548 30.289709
v 53.228714 37.158474 13.523603
v 53.228703 -30.287169 25.416113
v 53.228714 38.942337 6.866086
v 53.228703 -34.240467 19.770212
v 53.228714 39.543064 -0.000032
v 53.228703 -37.153309 13.523622
v 53.228703 38.942337 -6.866157
v 53.228703 -38.937180 6.866111
v 53.228703 37.158466 -13.523665
v 53.228703 -39.537895 -0.000013
v 53.228703 34.245636 -19.770262
v 53.228703 -38.937176 -6.866157
v 53.228703 30.292326 -25.416143
v 53.228703 -37.153316 -13.523647
v 53.228703 25.418705 -30.289770
v 53.228687 -34.240475 -19.770250
v 53.228703 19.772810 -34.243057
v 53.228687 -30.287182 -25.416138
v 53.228703 13.526225 -37.155910
v 53.228687 -25.413546 -30.289776
v 53.228687 6.868721 -38.939774
v 53.228687 -19.767647 -34.243076
v 53.228687 0.002585 -39.540485
v 53.228687 -13.521037 -37.155895
v 53.228687 -6.863540 -38.939774
vn -0.2126 -0.1697 -0.9623
vn -0.2125 -0.3342 -0.9182
vn 0.2126 -0.9771 -0.0000
vn 0.2126 -0.9623 0.1697
vn -0.2125 0.8462 -0.4886
vn -0.2126 0.7485 -0.6281
vn -0.2125 -0.3342 0.9182
vn -0.2125 -0.1697 0.9623
vn -0.2125 0.4886 0.8462
vn -0.2125 0.6281 0.7485
vn -0.2126 -0.4886 0.8462
vn -0.2126 0.3342 0.9182
vn -0.2126 0.1697 0.9623
vn -0.2126 -0.6281 0.7485
vn 0.2126 -0.9182 0.3342
vn -0.2125 -0.7485 0.6281
vn -0.2125 0.9182 -0.3342
vn -0.2126 0.7485 0.6281
vn -0.2126 0.9623 0.1697
vn -0.2125 0.9182 0.3342
vn 0.2125 -0.7485 0.6281
vn 0.2126 -0.6281 0.7485
vn 0.2125 0.9182 0.3342
vn 0.2126 0.8462 0.4886
vn -0.2126 -0.9623 0.1697
vn -0.2126 -0.9182 0.3342
vn 0.2126 -0.1697 -0.9623
vn 0.2126 -0.0000 -0.9771
vn -0.2126 -0.9771 -0.0000
vn -0.2126 0.9623 -0.1697
vn -0.2126 -0.0000 -0.9771
vn 0.2126 -0.9182 -0.3342
vn 0.2126 -0.9623 -0.1697
vn -0.2126 -0.9182 -0.3342
vn -0.2126 -0.9623 -0.1697
vn -0.2126 0.3342 -0.9182
vn -0.2126 0.1697 -0.9623
vn -0.2126 -0.8462 -0.4886
vn -0.2126 -0.8462 0.4886
vn -0.2126 -0.7485 -0.6281
vn -0.2126 0.4886 -0.8462
vn -0.2126 0.6281 -0.7485
vn -0.2126 0.8462 0.4886
vn -0.2126 -0.4886 -0.8462
vn 0.2125 0.6281 0.7485
vn 0.2125 0.4886 0.8462
vn 0.2125 0.9182 -0.3342
vn 0.2126 0.9623 -0.1697
vn 0.2126 0.3342 -0.9182
vn 0.2126 0.4886 -0.8462
vn 0.2126 0.6281 -0.7485
vn -0.2126 -0.0000 0.9771
vn -0.2126 -0.6281 -0.7485
vn 0.2126 0.1697 0.9623
vn 0.2126 -0.0000 0.9771
vn 0.2126 0.3342 0.9182
vn 0.2125 -0.1697 0.9623
vn 0.2126 0.7485 0.6281
vn 0.2126 -0.4886 -0.8462
vn 0.2125 -0.3342 -0.9182
vn 0.2126 -0.4886 0.8462
vn 0.2125 -0.3342 0.9182
vn 0.2125 0.8462 -0.4886
vn 0.2126 -0.8462 0.4886
vn 0.2126 -0.7485 -0.6281
vn 0.2126 -0.8462 -0.4886
vn 0.2126 0.9771 -0.0000
vn 0.2126 0.9623 0.1697
vn 0.2126 0.7485 -0.6281
vn -0.2126 0.9771 -0.0000
vn 0.2126 -0.6281 -0.7485
vn 0.2126 0.1697 -0.9623
vn 0.7555 -0.5674 0.3276
vn 0.7555 -0.6157 0.2241
vn 0.3835 -0.7075 0.5936
vn 0.3835 -0.7998 0.4618
vn 1.0000 -0.0000 -0.0000
vn -1.0000 -0.0000 -0.0000
vn 0.7555 0.3276 0.5674
vn 0.7555 0.2241 0.6157
vn 0.7555 0.1138 0.6452
vn 0.7555 0.1138 -0.6452
vn 0.7555 0.2241 -0.6157
vn 0.7555 -0.5019 -0.4211
vn 0.7555 -0.4211 -0.5019
vn 0.7555 0.5019 0.4211
vn 0.7555 0.4211 0.5019
vn 0.7555 -0.1138 0.6452
vn 0.7555 -0.0000 0.6552
vn 0.7555 0.5674 0.3276
vn 0.7555 -0.2241 0.6157
vn -0.7555 -0.2241 0.6157
vn -0.7555 -0.1138 0.6452
vn 0.7554 -0.3276 0.5674
vn 0.7555 -0.4211 0.5019
vn 0.7555 0.6452 0.1138
vn 0.7555 0.6157 0.2241
vn 0.7555 0.6552 -0.0000
vn 0.7555 -0.5019 0.4211
vn 0.7555 -0.3276 -0.5674
vn 0.7555 -0.2241 -0.6156
vn -0.7555 -0.5674 -0.3276
vn -0.7555 -0.6156 -0.2241
vn 0.7555 0.5674 -0.3276
vn 0.7555 0.6157 -0.2241
vn 0.7555 -0.1138 -0.6452
vn 0.7555 -0.0000 -0.6551
vn -0.7555 0.6552 -0.0000
vn -0.7555 0.6452 0.1138
vn 0.7555 0.4211 -0.5019
vn 0.7555 0.5019 -0.4211
vn 0.7555 -0.6551 -0.0000
vn 0.7555 -0.6452 -0.1138
vn 0.7555 -0.6452 0.1138
vn 0.7555 -0.6156 -0.2241
vn 0.7555 0.3276 -0.5674
vn 0.7555 -0.5674 -0.3276
vn -0.7554 -0.3276 0.5674
vn 0.7555 0.6452 -0.1138
vn -0.7555 -0.6452 -0.1138
vn -0.7555 -0.6551 -0.0000
vn 0.9859 0.0291 0.1649
vn 0.9859 0.0573 0.1574
vn -0.9859 -0.0000 -0.1675
vn -0.9859 0.0291 -0.1650
vn 0.9859 -0.0837 0.1451
vn 0.9859 -0.0573 0.1574
vn 0.9859 -0.0291 0.1649
vn 0.9859 -0.0000 0.1675
vn -0.9859 0.0573 0.1574
vn -0.9859 0.0291 0.1649
vn -0.9859 0.1283 -0.1077
vn -0.9859 0.1451 -0.0837
vn 0.9859 0.1283 0.1077
vn 0.9859 0.1451 0.0837
vn -0.9859 -0.0000 0.1675
vn -0.9859 -0.0291 0.1649
vn 0.9859 0.1574 -0.0573
vn 0.9859 0.1650 -0.0291
vn -0.9859 -0.1574 -0.0573
vn -0.9859 -0.1649 -0.0291
vn 0.9859 0.1574 0.0573
vn -0.9859 -0.1649 0.0291
vn -0.9859 -0.1675 -0.0000
vn 0.9859 0.0837 -0.1451
vn 0.9859 0.0573 -0.1574
vn -0.9859 -0.1451 0.0837
vn -0.9859 -0.1574 0.0573
vn 0.9859 -0.1649 0.0291
vn 0.9859 -0.1574 0.0573
vn -0.9859 -0.1451 -0.0837
vn -0.9859 -0.0837 -0.1451
vn -0.9859 -0.0573 -0.1574
vn 0.9859 -0.1649 -0.0291
vn 0.9859 -0.1675 -0.0000
vn 0.9859 -0.1650 -0.0291
vn 0.9859 0.1451 -0.0837
vn 0.9859 0.1283 -0.1077
vn 0.9859 -0.1574 -0.0573
vn 0.9859 0.1675 -0.0000
vn 0.9859 0.1649 0.0291
vn 0.9859 -0.1451 -0.0837
vn 0.9859 0.1077 -0.1283
vn 0.9859 0.1077 0.1283
vn 0.9859 -0.0837 -0.1451
vn 0.9859 -0.1077 -0.1283
vn 0.9859 -0.1283 -0.1077
vn -0.9859 0.1649 0.0291
vn -0.9859 0.1574 0.0573
vn 0.9859 0.0291 -0.1650
vn 0.9859 -0.0000 -0.1675
vn 0.9859 -0.0573 -0.1574
vn -0.9859 0.1675 -0.0000
vn 0.3835 -0.4618 -0.7998
vn 0.3836 -0.5936 -0.7075
vn 0.3836 -0.3159 -0.8678
vn 0.3836 -0.7075 -0.5936
vn 0.3836 0.4618 -0.7998
vn 0.3835 0.3159 -0.8678
vn 0.3835 -0.1604 0.9095
vn 0.3835 -0.3159 0.8678
vn 0.3835 -0.7998 -0.4618
vn 0.3835 -0.0000 0.9235
vn 0.3835 0.5936 0.7075
vn 0.3835 0.7075 0.5936
vn 0.3835 -0.5936 0.7075
vn 0.3836 0.1604 0.9095
vn 0.3835 -0.1604 -0.9095
vn 0.3836 -0.0000 -0.9235
vn 0.3835 0.5936 -0.7075
vn 0.3836 -0.9095 0.1604
vn 0.3835 -0.9235 -0.0000
vn 0.3836 0.7074 -0.5936
vn 0.3836 0.7075 -0.5936
vn 0.3835 -0.8678 0.3159
vn 0.3835 0.7998 -0.4618
vn 0.3835 -0.9095 -0.1604
vn -0.3835 0.7075 0.5936
vn -0.3835 0.7998 0.4618
vn 0.3836 0.9095 -0.1604
vn 0.3835 0.8678 -0.3159
vn 0.3836 -0.8678 -0.3159
vn 0.3835 -0.4618 0.7998
vn 0.3835 0.9095 0.1604
vn 0.3835 0.9235 -0.0000
vn -0.3835 0.9095 0.1604
vn -0.3835 0.9235 -0.0000
vn 0.3835 0.8678 0.3159
vn -0.3836 -0.9095 0.1604
vn -0.3835 -0.9235 -0.0000
vn 0.3835 0.7998 0.4618
vn 0.3836 0.1604 -0.9095
vn 0.3835 0.3159 0.8678
vn -0.3835 -0.4618 0.7998
vn -0.3835 -0.5936 0.7075
vn -0.3836 -0.3159 -0.8678
vn -0.3835 -0.4618 -0.7998
vn -0.3835 -0.7998 -0.4618
vn -0.3836 -0.7075 -0.5936
vn 0.9859 -0.1283 0.1077
vn 0.9859 -0.1077 0.1283
vn -0.7555 -0.5019 0.4211
vn -0.7555 -0.4211 0.5019
vn -0.7555 0.2241 -0.6157
vn -0.7555 0.1138 -0.6452
vn -0.7555 0.3276 0.5674
vn -0.7555 0.4211 0.5019
vn -0.7555 -0.0000 0.6552
vn -0.7555 0.1138 0.6452
vn -0.7555 -0.5019 -0.4211
vn -0.7555 0.6157 0.2241
vn -0.7555 0.5674 0.3276
vn -0.7555 -0.5674 0.3276
vn -0.7555 0.6157 -0.2241
vn -0.7555 0.5674 -0.3276
vn -0.7555 0.5019 0.4211
vn -0.7555 0.6452 -0.1138
vn -0.7555 0.4211 -0.5019
vn -0.7555 0.5019 -0.4211
vn -0.7555 -0.6157 0.2241
vn -0.7555 -0.6452 0.1138
vn -0.7555 0.2241 0.6157
vn -0.7555 0.3276 -0.5674
vn -0.7555 -0.0000 -0.6551
vn -0.7555 -0.4211 -0.5019
vn -0.7555 -0.1138 -0.6452
vn -0.7555 -0.3276 -0.5674
vn -0.7555 -0.2241 -0.6156
vn -0.9859 0.0837 0.1451
vn -0.9859 -0.1077 -0.1283
vn -0.9859 -0.1283 -0.1077
vn -0.9859 0.1077 0.1283
vn 0.9859 0.0837 0.1451
vn -0.9859 0.1283 0.1077
vn -0.9859 -0.0837 0.1451
vn -0.9859 -0.0573 0.1574
vn -0.9859 0.0837 -0.1451
vn -0.9859 0.1077 -0.1283
vn -0.9859 -0.1077 0.1283
vn 0.9859 0.1650 0.0291
vn -0.9859 -0.1283 0.1077
vn -0.9859 0.1451 0.0837
vn 0.9859 -0.0291 -0.1649
vn -0.9859 0.1650 -0.0291
vn -0.9859 0.1574 -0.0573
vn 0.9859 -0.1451 0.0837
vn -0.9859 0.0573 -0.1574
vn -0.9859 -0.0291 -0.1649
vn -0.3835 0.7998 -0.4618
vn -0.3836 0.7075 -0.5936
vn -0.3836 0.7074 -0.5936
vn 0.3835 0.4618 0.7998
vn -0.3835 0.5936 -0.7075
vn -0.3836 -0.0000 -0.9235
vn -0.3835 -0.1604 -0.9095
vn -0.3836 -0.5936 -0.7075
vn -0.3836 -0.8678 -0.3159
vn -0.3835 0.3159 -0.8678
vn -0.3836 0.1604 -0.9095
vn -0.3835 -0.9095 -0.1604
vn -0.3836 0.4618 -0.7998
vn -0.3835 -0.7998 0.4618
vn -0.3835 -0.8678 0.3159
vn -0.3835 0.8678 -0.3159
vn -0.3835 -0.7075 0.5936
vn -0.3836 0.9095 -0.1604
vn -0.3835 0.8678 0.3159
vn -0.3835 -0.3159 0.8678
vn -0.3835 -0.1604 0.9095
vn -0.3835 -0.0000 0.9235
vn -0.3836 0.1604 0.9095
vn -0.3835 0.5936 0.7075
vn -0.3835 0.3159 0.8678
vn -0.3835 0.4618 0.7998
vt 0.002731 0.501228
vt 0.001499 0.488542
vt 0.001770 0.501330
vt 0.055856 0.423325
vt 0.068346 0.422292
vt 0.056067 0.424280
vt 0.056856 0.563913
vt 0.044640 0.560659
vt 0.056586 0.564874
vt 0.133069 0.452913
vt 0.140072 0.463379
vt 0.133875 0.452370
vt 0.144028 0.512055
vt 0.141011 0.524254
vt 0.144988 0.512253
vt 0.125976 0.442487
vt 0.145834 0.499880
vt 0.146622 0.487518
vt 0.145664 0.487597
vt 0.115757 0.434834
vt 0.116319 0.434056
vt 0.068271 0.421340
vt 0.080674 0.422302
vt 0.105188 0.427588
vt 0.069078 0.566058
vt 0.068976 0.566992
vt 0.140107 0.523879
vt 0.134912 0.535448
vt 0.105780 0.559417
vt 0.117182 0.553730
vt 0.116630 0.552963
vt 0.104781 0.428471
vt 0.126855 0.545368
vt 0.080755 0.421342
vt 0.005197 0.513556
vt 0.004212 0.513843
vt 0.081560 0.566007
vt 0.081629 0.567005
vt 0.032441 0.433869
vt 0.044191 0.428412
vt 0.033013 0.434699
vt 0.043767 0.427530
vt 0.016138 0.536125
vt 0.008780 0.525737
vt 0.015344 0.536688
vt 0.023274 0.442991
vt 0.022580 0.442305
vt 0.093143 0.423371
vt 0.014314 0.452200
vt 0.024383 0.545624
vt 0.033557 0.554399
vt 0.034114 0.553592
vt 0.126154 0.544691
vt 0.134034 0.534903
vt 0.002486 0.488608
vt 0.003461 0.475781
vt 0.023693 0.546331
vt 0.092908 0.424317
vt 0.143436 0.475438
vt 0.144360 0.475187
vt 0.008660 0.463815
vt 0.007727 0.463409
vt 0.146786 0.499923
vt 0.139162 0.463777
vt 0.004442 0.476006
vt 0.045055 0.559782
vt 0.125242 0.443165
vt 0.015107 0.452739
vt 0.094202 0.564749
vt 0.106186 0.560287
vt 0.009679 0.525318
vt 0.093938 0.563797
vt 0.128684 0.510449
vt 0.130048 0.500168
vt 0.127934 0.510216
vt 0.092620 0.425341
vt 0.104305 0.429458
vt 0.123517 0.490327
vt 0.130328 0.489897
vt 0.064255 0.542068
vt 0.072770 0.549685
vt 0.073220 0.542967
vt 0.121394 0.508204
vt 0.123258 0.499377
vt 0.041431 0.532362
vt 0.045632 0.541991
vt 0.038019 0.537274
vt 0.030243 0.520937
vt 0.031064 0.531454
vt 0.035377 0.527216
vt 0.038428 0.450360
vt 0.036178 0.461017
vt 0.031550 0.456614
vt 0.056047 0.539665
vt 0.062816 0.548417
vt 0.124028 0.519762
vt 0.113042 0.524190
vt 0.118463 0.528414
vt 0.117975 0.516569
vt 0.099482 0.536162
vt 0.093584 0.546544
vt 0.102998 0.542080
vt 0.091280 0.540020
vt 0.083358 0.549162
vt 0.082397 0.542218
vt 0.096714 0.441664
vt 0.101841 0.452351
vt 0.093918 0.447925
vt 0.026299 0.513819
vt 0.025201 0.524395
vt 0.048132 0.536583
vt 0.054088 0.545747
vt 0.023606 0.506129
vt 0.020676 0.516352
vt 0.050098 0.450229
vt 0.042678 0.455266
vt 0.016176 0.498469
vt 0.017627 0.507630
vt 0.024001 0.481959
vt 0.016399 0.489222
vt 0.018249 0.480246
vt 0.113626 0.453289
vt 0.114622 0.465033
vt 0.120260 0.461118
vt 0.106851 0.530822
vt 0.111357 0.535981
vt 0.125345 0.470046
vt 0.122124 0.481403
vt 0.119119 0.472865
vt 0.022465 0.489893
vt 0.067241 0.444322
vt 0.076587 0.436955
vt 0.066184 0.437477
vt 0.105724 0.446687
vt 0.108827 0.458120
vt 0.055963 0.440028
vt 0.046524 0.444520
vt 0.026953 0.474542
vt 0.021659 0.471840
vt 0.085310 0.445075
vt 0.086901 0.438365
vt 0.128713 0.479734
vt 0.053846 0.546412
vt 0.062645 0.549152
vt 0.046071 0.443858
vt 0.106165 0.446038
vt 0.037630 0.537823
vt 0.093866 0.547312
vt 0.083483 0.550044
vt 0.103404 0.542775
vt 0.119101 0.528901
vt 0.111900 0.536567
vt 0.024608 0.524819
vt 0.020031 0.516648
vt 0.124762 0.520107
vt 0.097025 0.440927
vt 0.076664 0.436144
vt 0.114198 0.452685
vt 0.017547 0.480035
vt 0.055641 0.439139
vt 0.016960 0.507790
vt 0.026213 0.464137
vt 0.021019 0.471527
vt 0.129499 0.479524
vt 0.130825 0.500285
vt 0.126063 0.469733
vt 0.031047 0.456148
vt 0.120922 0.460666
vt 0.045332 0.542595
vt 0.030586 0.531948
vt 0.015700 0.489162
vt 0.144604 0.487733
vt 0.141426 0.499611
vt 0.144801 0.499809
vt 0.009505 0.512294
vt 0.010633 0.524836
vt 0.006211 0.513265
vt 0.121993 0.446232
vt 0.132182 0.453539
vt 0.124476 0.443909
vt 0.138197 0.464201
vt 0.139136 0.476632
vt 0.142384 0.475730
vt 0.135130 0.465636
vt 0.046940 0.555736
vt 0.057094 0.562907
vt 0.045502 0.558802
vt 0.133148 0.534315
vt 0.122916 0.541605
vt 0.125376 0.543962
vt 0.069171 0.565005
vt 0.081181 0.561625
vt 0.069469 0.561672
vt 0.035643 0.438408
vt 0.044629 0.429404
vt 0.046041 0.432532
vt 0.113983 0.549317
vt 0.115983 0.552096
vt 0.068698 0.426620
vt 0.056337 0.425297
vt 0.068424 0.423333
vt 0.025146 0.544865
vt 0.019807 0.533462
vt 0.017020 0.535470
vt 0.057198 0.428572
vt 0.091780 0.428602
vt 0.080575 0.423363
vt 0.080294 0.426671
vt 0.024056 0.443772
vt 0.033635 0.435587
vt 0.008914 0.477093
vt 0.003598 0.488656
vt 0.005506 0.476273
vt 0.093657 0.562760
vt 0.103825 0.555340
vt 0.092752 0.559493
vt 0.034746 0.552709
vt 0.027526 0.542399
vt 0.135967 0.522111
vt 0.130370 0.532486
vt 0.012869 0.465742
vt 0.009669 0.464296
vt 0.016037 0.453393
vt 0.141294 0.488055
vt 0.105298 0.558434
vt 0.057972 0.559720
vt 0.115109 0.435720
vt 0.003814 0.501095
vt 0.022317 0.498048
vt 0.058416 0.446538
vt 0.076333 0.443854
vt 0.030961 0.467773
vt 0.102850 0.432587
vt 0.072716 0.550501
vt 0.131104 0.489873
vt 0.025654 0.463750
vt 0.066087 0.436664
vt 0.015464 0.498532
vt 0.037913 0.449800
vt 0.087088 0.437603
vt 0.036663 0.549922
vt 0.139709 0.511057
vt 0.142995 0.511796
vt 0.018887 0.455358
vt 0.139132 0.523459
vt 0.129395 0.455397
vt 0.113110 0.438463
vt 0.007025 0.488888
vt 0.081444 0.564966
vt 0.013731 0.523336
vt 0.026478 0.446130
vt 0.007231 0.500744
s 1
f 143/1/1 94/2/2 93/3/1
f 29/4/3 53/5/4 55/6/3
f 132/7/5 87/8/6 86/9/5
f 113/10/7 73/11/8 108/12/7
f 114/13/9 78/14/10 77/15/9
f 107/16/11 113/10/7 108/12/7
f 112/17/12 75/18/13 110/19/13
f 117/20/14 107/16/11 106/21/14
f 30/22/4 51/23/15 53/5/4
f 105/24/16 117/20/14 106/21/14
f 130/25/17 86/9/5 85/26/17
f 116/27/10 79/28/18 78/14/10
f 124/29/19 81/30/20 122/31/20
f 33/24/21 45/20/22 47/32/21
f 50/31/23 8/33/24 9/30/23
f 102/22/25 123/23/26 103/34/26
f 21/3/27 72/35/28 20/36/28
f 101/4/29 125/5/25 102/22/25
f 128/37/30 85/26/17 84/38/30
f 144/35/31 93/3/1 92/36/31
f 27/39/32 57/40/33 59/41/32
f 99/39/34 129/40/35 100/42/35
f 140/43/36 91/44/37 90/45/36
f 133/46/38 99/39/34 98/47/38
f 104/48/39 119/32/16 105/24/16
f 97/49/40 133/46/38 98/47/38
f 138/50/41 88/51/42 136/52/42
f 120/53/43 79/28/18 118/54/18
f 141/55/2 95/56/44 94/2/2
f 6/14/45 42/13/46 5/15/46
f 13/26/47 56/37/48 12/38/48
f 68/43/49 17/57/50 18/45/49
f 66/50/50 16/51/51 17/57/50
f 103/34/26 121/58/39 104/48/39
f 73/11/8 109/59/52 74/60/52
f 137/61/53 97/49/40 96/62/53
f 3/18/54 37/59/55 2/60/55
f 40/17/56 3/18/54 4/63/56
f 1/11/57 37/59/55 39/64/57
f 5/15/46 40/17/56 4/63/56
f 139/65/44 96/62/53 95/56/44
f 136/52/42 87/8/6 134/66/6
f 112/17/12 77/15/9 76/63/12
f 7/28/58 44/27/45 6/14/45
f 23/56/59 69/55/60 22/2/60
f 48/53/24 7/28/58 8/33/24
f 35/16/61 41/10/62 43/67/61
f 14/9/63 58/25/47 13/26/47
f 32/48/64 47/32/21 49/58/64
f 25/49/65 61/46/66 63/68/65
f 31/34/15 49/58/64 51/23/15
f 11/69/67 52/29/68 10/70/68
f 1/11/57 41/10/62 36/12/62
f 56/37/48 11/69/67 12/38/48
f 142/71/37 92/36/31 91/44/37
f 27/39/32 61/46/66 26/47/66
f 28/42/33 55/6/3 57/40/33
f 122/31/20 80/33/43 120/53/43
f 100/42/35 127/6/29 101/4/29
f 15/8/69 60/7/63 14/9/63
f 34/21/22 43/67/61 45/20/22
f 64/52/51 15/8/69 16/51/51
f 109/59/52 75/18/13 74/60/52
f 124/29/19 83/69/70 82/70/19
f 24/62/71 63/68/65 65/61/71
f 52/29/68 9/30/23 10/70/68
f 24/62/71 67/65/59 23/56/59
f 19/44/72 68/43/49 18/45/49
f 140/43/36 89/57/41 138/50/41
f 72/35/28 19/44/72 20/36/28
f 22/2/60 71/1/27 21/3/27
f 128/37/30 83/69/70 126/72/70
f 427/73/73 353/74/74 349/75/73
f 119/32/75 483/76/76 481/77/75
f 355/78/77 353/74/77 357/79/77
f 334/80/77 328/81/77 330/82/77
f 173/74/78 167/83/78 171/84/78
f 166/85/78 160/86/78 164/87/78
f 354/88/77 348/89/77 350/90/77
f 208/91/78 206/92/78 204/93/78
f 338/94/77 332/95/77 334/80/77
f 345/96/77 339/97/77 341/98/77
f 349/75/77 343/99/77 345/96/77
f 331/100/77 327/101/77 333/102/77
f 353/74/77 347/83/77 349/75/77
f 169/75/78 163/99/78 167/83/78
f 149/103/78 146/104/78 145/105/78
f 330/82/77 326/104/77 325/105/77
f 201/106/78 195/107/78 199/108/78
f 358/109/77 352/110/77 354/88/77
f 161/98/78 163/99/78 165/96/78
f 162/111/78 156/112/78 160/86/78
f 362/113/77 356/114/77 358/109/77
f 394/115/77 388/91/77 390/116/77
f 362/113/77 364/117/77 360/118/77
f 194/119/78 188/120/78 192/121/78
f 373/122/77 367/123/77 369/124/77
f 341/98/77 335/125/77 337/126/77
f 185/127/78 179/128/78 183/129/78
f 374/119/77 368/120/77 370/130/77
f 386/92/77 388/91/77 384/93/77
f 391/131/77 389/132/77 393/133/77
f 377/134/77 371/135/77 373/122/77
f 394/115/77 396/136/77 392/137/77
f 198/138/78 192/121/78 196/139/78
f 389/132/77 383/140/77 385/141/77
f 181/142/78 175/78/78 179/128/78
f 402/143/79 332/95/80 336/112/79
f 399/144/80 328/81/81 332/95/80
f 458/145/82 388/91/83 392/137/82
f 455/146/84 381/106/85 377/134/84
f 410/147/86 340/86/87 344/87/86
f 407/148/88 326/104/89 403/149/89
f 348/89/90 410/147/86 344/87/86
f 411/150/91 327/101/88 407/148/88
f 231/150/92 147/101/93 153/102/92
f 411/150/91 337/126/94 333/102/91
f 419/151/95 337/126/94 415/152/94
f 356/114/96 418/153/97 352/110/97
f 360/118/98 422/154/96 356/114/96
f 423/155/99 341/98/95 419/151/95
f 459/156/85 385/141/100 381/106/85
f 423/155/99 349/75/73 345/96/99
f 385/141/100 467/157/101 389/132/101
f 271/158/102 189/124/103 193/122/102
f 438/159/104 368/120/105 372/121/104
f 393/133/106 462/160/107 396/136/107
f 180/118/108 242/154/109 246/161/108
f 380/162/110 442/163/111 376/139/111
f 439/164/112 365/127/113 361/142/112
f 431/165/74 357/79/114 353/74/74
f 443/166/113 369/124/115 365/127/113
f 388/91/83 450/167/116 384/93/116
f 451/158/117 369/124/115 447/168/115
f 406/169/87 336/112/79 340/86/87
f 455/146/84 373/122/117 451/158/117
f 157/126/118 231/150/92 153/102/92
f 364/117/119 426/161/98 360/118/98
f 185/127/120 259/164/121 181/142/121
f 352/110/97 414/170/90 348/89/90
f 434/171/105 364/117/119 368/120/105
f 189/124/103 263/166/120 185/127/120
f 469/172/122 400/173/123 470/174/123
f 284/175/124 320/176/125 322/177/124
f 413/178/126 475/179/127 477/180/126
f 473/181/128 401/182/129 471/183/129
f 220/173/130 289/172/131 290/174/130
f 475/179/127 405/184/128 473/181/128
f 264/185/132 310/186/133 312/187/132
f 378/138/77 380/162/77 376/139/77
f 476/188/134 416/189/135 478/190/135
f 221/182/136 293/181/137 291/183/136
f 488/191/138 432/192/139 436/193/138
f 265/194/140 311/195/141 261/196/141
f 478/190/135 420/197/142 480/198/142
f 253/199/143 309/200/144 307/201/143
f 496/202/145 456/203/146 498/204/146
f 261/196/141 309/200/144 257/205/144
f 245/206/147 305/207/148 303/76/147
f 487/201/149 429/208/150 485/207/150
f 249/208/148 307/201/143 305/207/148
f 265/194/140 315/209/151 313/210/140
f 281/211/152 323/212/153 321/213/152
f 441/196/154 489/200/155 491/195/156
f 490/186/157 444/185/158 492/187/158
f 445/194/159 491/195/156 493/210/159
f 484/214/160 424/215/161 428/216/160
f 495/209/162 445/194/159 493/210/159
f 494/217/163 452/218/145 496/202/145
f 476/188/134 408/219/164 412/220/134
f 501/213/165 457/221/166 499/222/166
f 457/221/166 497/223/167 499/222/166
f 217/224/131 291/183/136 289/172/131
f 244/215/168 300/198/169 302/225/168
f 500/176/170 464/175/171 502/177/171
f 503/212/172 461/211/165 501/213/165
f 490/186/157 436/193/138 440/226/157
f 304/214/173 244/215/168 302/225/168
f 139/65/174 499/222/175 137/61/175
f 141/55/176 501/213/174 139/65/174
f 137/61/175 497/223/177 135/68/177
f 496/202/178 140/43/179 138/50/178
f 111/64/180 475/179/181 473/181/180
f 135/68/177 495/209/182 133/46/182
f 109/59/183 473/181/180 471/183/183
f 116/27/184 476/188/185 118/54/185
f 117/20/186 481/77/75 479/227/186
f 110/19/187 471/183/183 469/172/187
f 504/228/188 141/55/176 143/1/188
f 502/177/189 143/1/188 144/35/189
f 494/217/190 138/50/178 136/52/190
f 125/5/191 489/200/192 487/201/191
f 492/187/193 136/52/190 134/66/194
f 123/23/195 487/201/191 485/207/195
f 490/186/196 134/66/194 132/7/196
f 121/58/76 485/207/195 483/76/76
f 129/40/197 489/200/192 127/6/192
f 296/188/198 48/53/199 298/190/199
f 128/37/200 488/191/201 130/25/201
f 129/40/197 493/210/202 491/195/197
f 117/20/186 477/180/203 115/67/203
f 482/225/204 126/72/205 124/29/204
f 302/225/206 54/72/207 304/214/207
f 480/198/208 124/29/204 122/31/208
f 53/5/209 309/200/210 55/6/210
f 478/190/211 122/31/208 120/53/211
f 500/176/212 144/35/189 142/71/212
f 476/188/185 120/53/211 118/54/185
f 112/17/213 469/172/187 470/174/213
f 43/67/214 299/227/215 45/20/215
f 498/204/179 142/71/212 140/43/179
f 323/212/216 67/65/217 321/213/217
f 315/209/218 63/68/219 61/46/218
f 173/74/78 175/78/78 177/79/78
f 216/136/78 214/115/78 212/137/78
f 329/103/77 326/104/77 327/101/77
f 153/102/78 155/125/78 157/126/78
f 346/85/77 340/86/77 342/111/77
f 161/98/78 155/125/78 159/97/78
f 370/130/77 364/117/77 366/229/77
f 205/141/78 199/108/78 203/140/78
f 158/94/78 152/95/78 156/112/78
f 395/230/77 393/133/77 396/136/77
f 381/106/77 375/107/77 377/134/77
f 174/88/78 168/89/78 172/110/78
f 182/113/78 176/114/78 180/118/78
f 365/127/77 359/128/77 361/142/77
f 154/80/78 148/81/78 152/95/78
f 350/90/77 344/87/77 346/85/77
f 385/141/77 379/108/77 381/106/77
f 184/117/78 182/113/78 180/118/78
f 190/130/78 184/117/78 188/120/78
f 193/122/78 187/123/78 191/135/78
f 342/111/77 336/112/77 338/94/77
f 193/122/78 195/107/78 197/134/78
f 209/132/78 203/140/78 207/231/78
f 209/132/78 211/131/78 213/133/78
f 200/162/78 198/138/78 196/139/78
f 178/109/78 172/110/78 176/114/78
f 204/93/78 202/232/78 200/162/78
f 378/138/77 372/121/77 374/119/77
f 335/125/77 333/102/77 337/126/77
f 170/90/78 164/87/78 168/89/78
f 382/232/77 384/93/77 380/162/77
f 213/133/78 215/230/78 216/136/78
f 361/142/77 355/78/77 357/79/77
f 421/233/220 479/227/221 481/77/220
f 214/115/78 208/91/78 212/137/78
f 147/101/78 151/100/78 153/102/78
f 369/124/77 363/129/77 365/127/77
f 189/124/78 183/129/78 187/123/78
f 150/82/78 146/104/78 148/81/78
f 243/155/222 161/98/223 165/96/222
f 208/91/224 278/145/225 212/137/225
f 156/112/226 226/169/227 160/86/227
f 146/104/228 218/234/229 148/81/229
f 275/146/230 193/122/102 197/134/230
f 435/235/114 361/142/112 357/79/114
f 403/149/89 328/81/81 398/234/81
f 384/93/116 446/236/110 380/162/110
f 172/110/231 234/170/232 238/153/231
f 169/75/233 243/155/222 165/96/222
f 188/120/234 258/159/235 192/121/235
f 239/151/223 157/126/118 161/98/223
f 389/132/101 466/237/106 393/133/106
f 160/86/227 230/147/236 164/87/236
f 184/117/237 246/161/108 250/238/237
f 200/162/238 262/163/239 266/236/238
f 184/117/237 254/171/234 188/120/234
f 173/74/240 247/73/233 169/75/233
f 227/148/93 146/104/228 147/101/93
f 177/79/241 251/165/240 173/74/240
f 192/121/235 262/163/239 196/139/239
f 181/142/121 255/235/241 177/79/241
f 442/163/111 372/121/104 376/139/111
f 152/95/242 222/143/226 156/112/226
f 204/93/243 266/236/238 270/167/243
f 168/89/232 230/147/236 234/170/232
f 148/81/229 219/144/242 152/95/242
f 208/91/224 270/167/243 274/239/224
f 176/114/109 238/153/231 242/154/109
f 462/160/107 392/137/82 396/136/107
f 212/137/225 282/160/244 216/136/244
f 201/106/245 275/146/230 197/134/230
f 213/133/246 282/160/244 286/237/246
f 205/141/247 279/156/245 201/106/245
f 209/132/248 286/237/246 287/157/248
f 205/141/247 287/157/248 283/240/247
f 492/187/158 448/241/163 494/217/163
f 489/200/155 433/199/149 487/201/149
f 224/242/249 290/174/130 292/243/249
f 277/221/250 317/223/251 273/244/251
f 228/219/252 292/243/249 294/245/252
f 472/243/253 408/219/164 474/245/164
f 296/188/254 228/219/252 294/245/252
f 233/178/255 295/179/256 229/246/256
f 272/218/257 314/217/258 316/202/257
f 237/247/259 297/180/255 233/178/255
f 480/198/142 424/215/161 482/225/260
f 241/233/261 299/227/259 237/247/259
f 240/197/169 298/190/262 300/198/169
f 241/233/261 303/76/147 301/77/261
f 504/228/263 465/248/172 503/212/172
f 486/249/139 428/216/160 432/192/139
f 306/249/264 248/216/173 304/214/173
f 498/204/146 460/250/170 500/176/170
f 308/191/265 252/192/264 306/249/264
f 483/76/266 421/233/220 481/77/220
f 485/207/150 425/206/266 483/76/266
f 236/189/262 296/188/254 298/190/262
f 470/174/123 404/242/253 472/243/253
f 225/184/137 295/179/256 293/181/137
f 268/241/258 312/187/132 314/217/258
f 417/247/221 477/180/126 479/227/221
f 497/223/167 449/251/162 495/209/162
f 269/251/151 317/223/251 315/209/151
f 276/203/267 316/202/257 318/204/267
f 310/186/133 256/193/265 308/191/265
f 280/250/125 318/204/267 320/176/125
f 277/221/250 321/213/152 319/222/250
f 471/183/129 397/224/122 469/172/122
f 502/177/171 468/252/263 504/228/263
f 288/252/268 322/177/124 324/228/268
f 285/248/153 324/228/268 323/212/153
f 310/186/269 62/66/270 312/187/271
f 112/17/213 472/243/272 114/13/272
f 133/46/182 493/210/202 131/41/202
f 312/187/271 64/52/273 314/217/273
f 322/177/274 71/1/275 324/228/275
f 319/222/276 67/65/217 65/61/276
f 324/228/275 69/55/216 323/212/216
f 313/210/277 61/46/218 59/41/277
f 318/204/278 70/71/279 320/176/279
f 57/40/280 313/210/277 59/41/277
f 316/202/281 68/43/278 318/204/278
f 309/200/210 57/40/280 55/6/210
f 126/72/205 486/249/200 128/37/200
f 113/10/181 477/180/203 475/179/181
f 49/58/282 305/207/283 51/23/283
f 320/176/279 72/35/274 322/177/274
f 314/217/273 66/50/281 316/202/281
f 114/13/272 474/245/184 116/27/184
f 308/191/284 60/7/269 310/186/269
f 47/32/285 303/76/282 49/58/282
f 317/223/219 65/61/276 63/68/219
f 45/20/215 301/77/285 47/32/285
f 306/249/286 54/72/207 56/37/286
f 298/190/199 50/31/287 300/198/287
f 300/198/287 52/29/206 302/225/206
f 41/10/288 297/180/214 43/67/214
f 51/23/283 307/201/209 53/5/209
f 39/64/289 295/179/288 41/10/288
f 488/191/201 132/7/196 130/25/201
f 37/59/290 293/181/289 39/64/289
f 308/191/284 56/37/286 58/25/284
f 38/19/291 291/183/290 37/59/290
f 296/188/198 44/27/292 46/54/198
f 40/17/293 289/172/291 38/19/291
f 294/245/292 42/13/294 44/27/292
f 292/243/294 40/17/293 42/13/294
f 143/1/1 141/55/2 94/2/2
f 29/4/3 30/22/4 53/5/4
f 132/7/5 134/66/6 87/8/6
f 113/10/7 111/64/8 73/11/8
f 114/13/9 116/27/10 78/14/10
f 107/16/11 115/67/11 113/10/7
f 112/17/12 76/63/12 75/18/13
f 117/20/14 115/67/11 107/16/11
f 30/22/4 31/34/15 51/23/15
f 105/24/16 119/32/16 117/20/14
f 130/25/17 132/7/5 86/9/5
f 116/27/10 118/54/18 79/28/18
f 124/29/19 82/70/19 81/30/20
f 33/24/21 34/21/22 45/20/22
f 50/31/23 48/53/24 8/33/24
f 102/22/25 125/5/25 123/23/26
f 21/3/27 71/1/27 72/35/28
f 101/4/29 127/6/29 125/5/25
f 128/37/30 130/25/17 85/26/17
f 144/35/31 143/1/1 93/3/1
f 27/39/32 28/42/33 57/40/33
f 99/39/34 131/41/34 129/40/35
f 140/43/36 142/71/37 91/44/37
f 133/46/38 131/41/34 99/39/34
f 104/48/39 121/58/39 119/32/16
f 97/49/40 135/68/40 133/46/38
f 138/50/41 89/57/41 88/51/42
f 120/53/43 80/33/43 79/28/18
f 141/55/2 139/65/44 95/56/44
f 6/14/45 44/27/45 42/13/46
f 13/26/47 58/25/47 56/37/48
f 68/43/49 66/50/50 17/57/50
f 66/50/50 64/52/51 16/51/51
f 103/34/26 123/23/26 121/58/39
f 73/11/8 111/64/8 109/59/52
f 137/61/53 135/68/40 97/49/40
f 3/18/54 38/19/54 37/59/55
f 40/17/56 38/19/54 3/18/54
f 1/11/57 2/60/55 37/59/55
f 5/15/46 42/13/46 40/17/56
f 139/65/44 137/61/53 96/62/53
f 136/52/42 88/51/42 87/8/6
f 112/17/12 114/13/9 77/15/9
f 7/28/58 46/54/58 44/27/45
f 23/56/59 67/65/59 69/55/60
f 48/53/24 46/54/58 7/28/58
f 35/16/61 36/12/62 41/10/62
f 14/9/63 60/7/63 58/25/47
f 32/48/64 33/24/21 47/32/21
f 25/49/65 26/47/66 61/46/66
f 31/34/15 32/48/64 49/58/64
f 11/69/67 54/72/67 52/29/68
f 1/11/57 39/64/57 41/10/62
f 56/37/48 54/72/67 11/69/67
f 142/71/37 144/35/31 92/36/31
f 27/39/32 59/41/32 61/46/66
f 28/42/33 29/4/3 55/6/3
f 122/31/20 81/30/20 80/33/43
f 100/42/35 129/40/35 127/6/29
f 15/8/69 62/66/69 60/7/63
f 34/21/22 35/16/61 43/67/61
f 64/52/51 62/66/69 15/8/69
f 109/59/52 110/19/13 75/18/13
f 124/29/19 126/72/70 83/69/70
f 24/62/71 25/49/65 63/68/65
f 52/29/68 50/31/23 9/30/23
f 24/62/71 65/61/71 67/65/59
f 19/44/72 70/71/72 68/43/49
f 140/43/36 90/45/36 89/57/41
f 72/35/28 70/71/72 19/44/72
f 22/2/60 69/55/60 71/1/27
f 128/37/30 84/38/30 83/69/70
f 427/73/73 431/165/74 353/74/74
f 119/32/75 121/58/76 483/76/76
f 355/78/77 351/84/77 353/74/77
f 334/80/77 332/95/77 328/81/77
f 173/74/78 169/75/78 167/83/78
f 166/85/78 162/111/78 160/86/78
f 354/88/77 352/110/77 348/89/77
f 208/91/78 210/116/78 206/92/78
f 338/94/77 336/112/77 332/95/77
f 345/96/77 343/99/77 339/97/77
f 349/75/77 347/83/77 343/99/77
f 331/100/77 329/103/77 327/101/77
f 353/74/77 351/84/77 347/83/77
f 169/75/78 165/96/78 163/99/78
f 149/103/78 147/101/78 146/104/78
f 330/82/77 328/81/77 326/104/77
f 201/106/78 197/134/78 195/107/78
f 358/109/77 356/114/77 352/110/77
f 161/98/78 159/97/78 163/99/78
f 162/111/78 158/94/78 156/112/78
f 362/113/77 360/118/77 356/114/77
f 394/115/77 392/137/77 388/91/77
f 362/113/77 366/229/77 364/117/77
f 194/119/78 190/130/78 188/120/78
f 373/122/77 371/135/77 367/123/77
f 341/98/77 339/97/77 335/125/77
f 185/127/78 181/142/78 179/128/78
f 374/119/77 372/121/77 368/120/77
f 386/92/77 390/116/77 388/91/77
f 391/131/77 387/231/77 389/132/77
f 377/134/77 375/107/77 371/135/77
f 394/115/77 395/230/77 396/136/77
f 198/138/78 194/119/78 192/121/78
f 389/132/77 387/231/77 383/140/77
f 181/142/78 177/79/78 175/78/78
f 402/143/79 399/144/80 332/95/80
f 399/144/80 398/234/81 328/81/81
f 458/145/82 454/239/83 388/91/83
f 455/146/84 459/156/85 381/106/85
f 410/147/86 406/169/87 340/86/87
f 407/148/88 327/101/88 326/104/89
f 348/89/90 414/170/90 410/147/86
f 411/150/91 333/102/91 327/101/88
f 231/150/92 227/148/93 147/101/93
f 411/150/91 415/152/94 337/126/94
f 419/151/95 341/98/95 337/126/94
f 356/114/96 422/154/96 418/153/97
f 360/118/98 426/161/98 422/154/96
f 423/155/99 345/96/99 341/98/95
f 459/156/85 463/240/100 385/141/100
f 423/155/99 427/73/73 349/75/73
f 385/141/100 463/240/100 467/157/101
f 271/158/102 267/168/103 189/124/103
f 438/159/104 434/171/105 368/120/105
f 393/133/106 466/237/106 462/160/107
f 180/118/108 176/114/109 242/154/109
f 380/162/110 446/236/110 442/163/111
f 439/164/112 443/166/113 365/127/113
f 431/165/74 435/235/114 357/79/114
f 443/166/113 447/168/115 369/124/115
f 388/91/83 454/239/83 450/167/116
f 451/158/117 373/122/117 369/124/115
f 406/169/87 402/143/79 336/112/79
f 455/146/84 377/134/84 373/122/117
f 157/126/118 235/152/118 231/150/92
f 364/117/119 430/238/119 426/161/98
f 185/127/120 263/166/120 259/164/121
f 352/110/97 418/153/97 414/170/90
f 434/171/105 430/238/119 364/117/119
f 189/124/103 267/168/103 263/166/120
f 469/172/122 397/224/122 400/173/123
f 284/175/124 280/250/125 320/176/125
f 413/178/126 409/246/127 475/179/127
f 473/181/128 405/184/128 401/182/129
f 220/173/130 217/224/131 289/172/131
f 475/179/127 409/246/127 405/184/128
f 264/185/132 260/226/133 310/186/133
f 378/138/77 382/232/77 380/162/77
f 476/188/134 412/220/134 416/189/135
f 221/182/136 225/184/137 293/181/137
f 488/191/138 486/249/139 432/192/139
f 265/194/140 313/210/140 311/195/141
f 478/190/135 416/189/135 420/197/142
f 253/199/143 257/205/144 309/200/144
f 496/202/145 452/218/145 456/203/146
f 261/196/141 311/195/141 309/200/144
f 245/206/147 249/208/148 305/207/148
f 487/201/149 433/199/149 429/208/150
f 249/208/148 253/199/143 307/201/143
f 265/194/140 269/251/151 315/209/151
f 281/211/152 285/248/153 323/212/153
f 441/196/154 437/205/155 489/200/155
f 490/186/157 440/226/157 444/185/158
f 445/194/159 441/196/154 491/195/156
f 484/214/160 482/225/260 424/215/161
f 495/209/162 449/251/162 445/194/159
f 494/217/163 448/241/163 452/218/145
f 476/188/134 474/245/164 408/219/164
f 501/213/165 461/211/165 457/221/166
f 457/221/166 453/244/167 497/223/167
f 217/224/131 221/182/136 291/183/136
f 244/215/168 240/197/169 300/198/169
f 500/176/170 460/250/170 464/175/171
f 503/212/172 465/248/172 461/211/165
f 490/186/157 488/191/138 436/193/138
f 304/214/173 248/216/173 244/215/168
f 139/65/174 501/213/174 499/222/175
f 141/55/176 503/212/176 501/213/174
f 137/61/175 499/222/175 497/223/177
f 496/202/178 498/204/179 140/43/179
f 111/64/180 113/10/181 475/179/181
f 135/68/177 497/223/177 495/209/182
f 109/59/183 111/64/180 473/181/180
f 116/27/184 474/245/184 476/188/185
f 117/20/186 119/32/75 481/77/75
f 110/19/187 109/59/183 471/183/183
f 504/228/188 503/212/176 141/55/176
f 502/177/189 504/228/188 143/1/188
f 494/217/190 496/202/178 138/50/178
f 125/5/191 127/6/192 489/200/192
f 492/187/193 494/217/190 136/52/190
f 123/23/195 125/5/191 487/201/191
f 490/186/196 492/187/193 134/66/194
f 121/58/76 123/23/195 485/207/195
f 129/40/197 491/195/197 489/200/192
f 296/188/198 46/54/198 48/53/199
f 128/37/200 486/249/200 488/191/201
f 129/40/197 131/41/202 493/210/202
f 117/20/186 479/227/186 477/180/203
f 482/225/204 484/214/205 126/72/205
f 302/225/206 52/29/206 54/72/207
f 480/198/208 482/225/204 124/29/204
f 53/5/209 307/201/209 309/200/210
f 478/190/211 480/198/208 122/31/208
f 500/176/212 502/177/189 144/35/189
f 476/188/185 478/190/211 120/53/211
f 112/17/213 110/19/187 469/172/187
f 43/67/214 297/180/214 299/227/215
f 498/204/179 500/176/212 142/71/212
f 323/212/216 69/55/216 67/65/217
f 315/209/218 317/223/219 63/68/219
f 173/74/78 171/84/78 175/78/78
f 216/136/78 215/230/78 214/115/78
f 329/103/77 325/105/77 326/104/77
f 153/102/78 151/100/78 155/125/78
f 346/85/77 344/87/77 340/86/77
f 161/98/78 157/126/78 155/125/78
f 370/130/77 368/120/77 364/117/77
f 205/141/78 201/106/78 199/108/78
f 158/94/78 154/80/78 152/95/78
f 395/230/77 391/131/77 393/133/77
f 381/106/77 379/108/77 375/107/77
f 174/88/78 170/90/78 168/89/78
f 182/113/78 178/109/78 176/114/78
f 365/127/77 363/129/77 359/128/77
f 154/80/78 150/82/78 148/81/78
f 350/90/77 348/89/77 344/87/77
f 385/141/77 383/140/77 379/108/77
f 184/117/78 186/229/78 182/113/78
f 190/130/78 186/229/78 184/117/78
f 193/122/78 189/124/78 187/123/78
f 342/111/77 340/86/77 336/112/77
f 193/122/78 191/135/78 195/107/78
f 209/132/78 205/141/78 203/140/78
f 209/132/78 207/231/78 211/131/78
f 200/162/78 202/232/78 198/138/78
f 178/109/78 174/88/78 172/110/78
f 204/93/78 206/92/78 202/232/78
f 378/138/77 376/139/77 372/121/77
f 335/125/77 331/100/77 333/102/77
f 170/90/78 166/85/78 164/87/78
f 382/232/77 386/92/77 384/93/77
f 213/133/78 211/131/78 215/230/78
f 361/142/77 359/128/77 355/78/77
f 421/233/220 417/247/221 479/227/221
f 214/115/78 210/116/78 208/91/78
f 147/101/78 149/103/78 151/100/78
f 369/124/77 367/123/77 363/129/77
f 189/124/78 185/127/78 183/129/78
f 150/82/78 145/105/78 146/104/78
f 243/155/222 239/151/223 161/98/223
f 208/91/224 274/239/224 278/145/225
f 156/112/226 222/143/226 226/169/227
f 146/104/228 223/149/228 218/234/229
f 275/146/230 271/158/102 193/122/102
f 435/235/114 439/164/112 361/142/112
f 403/149/89 326/104/89 328/81/81
f 384/93/116 450/167/116 446/236/110
f 172/110/231 168/89/232 234/170/232
f 169/75/233 247/73/233 243/155/222
f 188/120/234 254/171/234 258/159/235
f 239/151/223 235/152/118 157/126/118
f 389/132/101 467/157/101 466/237/106
f 160/86/227 226/169/227 230/147/236
f 184/117/237 180/118/108 246/161/108
f 200/162/238 196/139/239 262/163/239
f 184/117/237 250/238/237 254/171/234
f 173/74/240 251/165/240 247/73/233
f 227/148/93 223/149/228 146/104/228
f 177/79/241 255/235/241 251/165/240
f 192/121/235 258/159/235 262/163/239
f 181/142/121 259/164/121 255/235/241
f 442/163/111 438/159/104 372/121/104
f 152/95/242 219/144/242 222/143/226
f 204/93/243 200/162/238 266/236/238
f 168/89/232 164/87/236 230/147/236
f 148/81/229 218/234/229 219/144/242
f 208/91/224 204/93/243 270/167/243
f 176/114/109 172/110/231 238/153/231
f 462/160/107 458/145/82 392/137/82
f 212/137/225 278/145/225 282/160/244
f 201/106/245 279/156/245 275/146/230
f 213/133/246 216/136/244 282/160/244
f 205/141/247 283/240/247 279/156/245
f 209/132/248 213/133/246 286/237/246
f 205/141/247 209/132/248 287/157/248
f 492/187/158 444/185/158 448/241/163
f 489/200/155 437/205/155 433/199/149
f 224/242/249 220/173/130 290/174/130
f 277/221/250 319/222/250 317/223/251
f 228/219/252 224/242/249 292/243/249
f 472/243/253 404/242/253 408/219/164
f 296/188/254 232/220/254 228/219/252
f 233/178/255 297/180/255 295/179/256
f 272/218/257 268/241/258 314/217/258
f 237/247/259 299/227/259 297/180/255
f 480/198/142 420/197/142 424/215/161
f 241/233/261 301/77/261 299/227/259
f 240/197/169 236/189/262 298/190/262
f 241/233/261 245/206/147 303/76/147
f 504/228/263 468/252/263 465/248/172
f 486/249/139 484/214/160 428/216/160
f 306/249/264 252/192/264 248/216/173
f 498/204/146 456/203/146 460/250/170
f 308/191/265 256/193/265 252/192/264
f 483/76/266 425/206/266 421/233/220
f 485/207/150 429/208/150 425/206/266
f 236/189/262 232/220/254 296/188/254
f 470/174/123 400/173/123 404/242/253
f 225/184/137 229/246/256 295/179/256
f 268/241/258 264/185/132 312/187/132
f 417/247/221 413/178/126 477/180/126
f 497/223/167 453/244/167 449/251/162
f 269/251/151 273/244/251 317/223/251
f 276/203/267 272/218/257 316/202/257
f 310/186/133 260/226/133 256/193/265
f 280/250/125 276/203/267 318/204/267
f 277/221/250 281/211/152 321/213/152
f 471/183/129 401/182/129 397/224/122
f 502/177/171 464/175/171 468/252/263
f 288/252/268 284/175/124 322/177/124
f 285/248/153 288/252/268 324/228/268
f 310/186/269 60/7/269 62/66/270
f 112/17/213 470/174/213 472/243/272
f 133/46/182 495/209/182 493/210/202
f 312/187/271 62/66/270 64/52/273
f 322/177/274 72/35/274 71/1/275
f 319/222/276 321/213/217 67/65/217
f 324/228/275 71/1/275 69/55/216
f 313/210/277 315/209/218 61/46/218
f 318/204/278 68/43/278 70/71/279
f 57/40/280 311/195/280 313/210/277
f 316/202/281 66/50/281 68/43/278
f 309/200/210 311/195/280 57/40/280
f 126/72/205 484/214/205 486/249/200
f 113/10/181 115/67/203 477/180/203
f 49/58/282 303/76/282 305/207/283
f 320/176/279 70/71/279 72/35/274
f 314/217/273 64/52/273 66/50/281
f 114/13/272 472/243/272 474/245/184
f 308/191/284 58/25/284 60/7/269
f 47/32/285 301/77/285 303/76/282
f 317/223/219 319/222/276 65/61/276
f 45/20/215 299/227/215 301/77/285
f 306/249/286 304/214/207 54/72/207
f 298/190/199 48/53/199 50/31/287
f 300/198/287 50/31/287 52/29/206
f 41/10/288 295/179/288 297/180/214
f 51/23/283 305/207/283 307/201/209
f 39/64/289 293/181/289 295/179/288
f 488/191/201 490/186/196 132/7/196
f 37/59/290 291/183/290 293/181/289
f 308/191/284 306/249/286 56/37/286
f 38/19/291 289/172/291 291/183/290
f 296/188/198 294/245/292 44/27/292
f 40/17/293 290/174/293 289/172/291
f 294/245/292 292/243/294 42/13/294
f 292/243/294 290/174/293 40/17/293
