# Blender 5.2.1 LTS
# www.blender.org
o s060_Wheels_01.001
v -53.547108 6.543283 37.094059
v -61.532677 6.444086 36.531559
v -61.532677 12.689868 34.857998
v -53.547108 12.885246 35.394741
v -53.547108 0.002588 37.666317
v -61.532677 18.550177 32.125317
v -61.532677 0.002575 37.095123
v -53.547119 18.835766 32.620003
v -53.547108 -6.538127 37.094063
v -61.532677 23.846910 28.416513
v -61.532677 -6.438954 36.531563
v -53.547108 24.214060 28.854078
v -53.547108 -12.880096 35.394749
v -61.532677 28.419136 23.844263
v -61.532677 -12.684744 34.857979
v -53.547119 28.856707 24.211414
v -53.547096 -18.830612 32.619999
v -61.532677 32.127941 18.547516
v -61.532661 -18.545034 32.125286
v -53.547108 32.622616 18.833120
v -53.547096 -24.208887 28.854048
v -61.532677 34.860622 12.687219
v -61.532661 -23.841738 28.416500
v -53.547108 35.397388 12.882604
v -53.547096 -28.851532 24.211401
v -61.532677 36.534199 6.441448
v -61.532661 -28.413973 23.844263
v -53.547108 37.096718 6.540627
v -53.547108 -32.617451 18.833101
v -61.532677 37.097752 -0.000069
v -61.532661 -32.122791 18.547516
v -53.547108 37.668941 -0.000075
v -53.547096 -35.392239 12.882595
v -61.532677 36.534199 -6.441567
v -61.532661 -34.855476 12.687238
v -53.547108 37.096718 -6.540763
v -53.547096 -37.091560 6.540633
v -61.532677 34.860615 -12.687350
v -61.532661 -36.529030 6.441442
v -53.547108 35.397385 -12.882726
v -53.547096 -37.663799 -0.000050
v -61.532677 32.127934 -18.547628
v -61.532661 -37.092594 -0.000056
v -53.547108 32.622608 -18.833233
v -53.547096 -37.091560 -6.540740
v -61.532677 28.419128 -23.844368
v -61.532661 -36.529030 -6.441574
v -53.547096 28.856701 -24.211500
v -53.547096 -35.392250 -12.882717
v -61.532677 23.846893 -28.416582
v -61.532661 -34.855476 -12.687363
v -53.547108 24.214056 -28.854153
v -53.547096 -32.617458 -18.833244
v -61.532661 18.550161 -32.125385
v -61.532661 -32.122795 -18.547628
v -53.547096 18.835787 -32.620075
v -53.547081 -28.851538 -24.211514
v -61.532661 12.689876 -34.858093
v -61.532661 -28.413973 -23.844368
v -53.547096 12.885254 -35.394855
v -53.547096 -24.208902 -28.854166
v -61.532661 6.444093 -36.531651
v -61.532661 -23.841740 -28.416607
v -53.547096 6.543290 -37.094177
v -53.547081 -18.830578 -32.620087
v -61.532661 0.002582 -37.095226
v -61.532661 -18.545008 -32.125401
v -53.547081 0.002582 -37.666431
v -53.547081 -12.880057 -35.394855
v -61.532661 -6.438935 -36.531662
v -61.532661 -12.684723 -34.858105
v -53.547081 -6.538095 -37.094177
v 53.547108 6.543285 37.094059
v 61.532677 6.444088 36.531559
v 61.532677 12.689870 34.857998
v 53.547108 12.885248 35.394741
v 53.547108 0.002590 37.666317
v 61.532677 18.550179 32.125320
v 61.532677 0.002577 37.095123
v 53.547119 18.835768 32.620007
v 53.547108 -6.538125 37.094063
v 61.532677 23.846912 28.416513
v 61.532677 -6.438952 36.531563
v 53.547108 24.214062 28.854082
v 53.547108 -12.880095 35.394749
v 61.532677 28.419138 23.844269
v 61.532677 -12.684741 34.857979
v 53.547119 28.856710 24.211416
v 53.547096 -18.830608 32.619995
v 61.532677 32.127945 18.547523
v 61.532661 -18.545033 32.125282
v 53.547108 32.622616 18.833122
v 53.547096 -24.208883 28.854044
v 61.532677 34.860626 12.687225
v 61.532661 -23.841734 28.416500
v 53.547108 35.397396 12.882607
v 53.547096 -28.851528 24.211397
v 61.532677 36.534206 6.441454
v 61.532661 -28.413969 23.844263
v 53.547108 37.096722 6.540630
v 53.547108 -32.617447 18.833097
v 61.532677 37.097759 -0.000063
v 61.532661 -32.122787 18.547516
v 53.547108 37.668949 -0.000071
v 53.547096 -35.392235 12.882591
v 61.532677 36.534206 -6.441561
v 61.532661 -34.855469 12.687231
v 53.547108 37.096722 -6.540761
v 53.547096 -37.091553 6.540630
v 61.532677 34.860622 -12.687344
v 61.532661 -36.529026 6.441436
v 53.547108 35.397388 -12.882723
v 53.547096 -37.663792 -0.000054
v 61.532677 32.127945 -18.547623
v 61.532661 -37.092590 -0.000063
v 53.547108 32.622616 -18.833229
v 53.547096 -37.091553 -6.540743
v 61.532677 28.419138 -23.844368
v 61.532661 -36.529026 -6.441580
v 53.547096 28.856710 -24.211498
v 53.547096 -35.392246 -12.882720
v 61.532677 23.846903 -28.416582
v 61.532661 -34.855469 -12.687369
v 53.547108 24.214066 -28.854151
v 53.547096 -32.617447 -18.833248
v 61.532661 18.550171 -32.125385
v 61.532661 -32.122787 -18.547628
v 53.547096 18.835796 -32.620071
v 53.547081 -28.851528 -24.211517
v 61.532661 12.689884 -34.858093
v 61.532661 -28.413963 -23.844368
v 53.547096 12.885262 -35.394855
v 53.547096 -24.208893 -28.854170
v 61.532661 6.444101 -36.531651
v 61.532661 -23.841730 -28.416620
v 53.547096 6.543299 -37.094177
v 53.547081 -18.830568 -32.620090
v 61.532661 0.002591 -37.095226
v 61.532661 -18.544998 -32.125401
v 53.547081 0.002591 -37.666431
v 53.547081 -12.880049 -35.394855
v 61.532661 -6.438926 -36.531662
v 61.532661 -12.684714 -34.858105
v 53.547081 -6.538086 -37.094177
vn -0.0713 0.4987 0.8638
vn -0.0713 0.3411 0.9373
vn 0.0713 0.9373 -0.3412
vn 0.0713 0.8638 -0.4987
vn 0.0713 -0.0000 0.9975
vn 0.0713 0.1732 0.9823
vn 0.0713 0.4987 0.8638
vn 0.0713 0.3411 0.9373
vn 0.0713 -0.1732 0.9823
vn 0.0713 0.6411 0.7641
vn 0.0713 0.6412 0.7641
vn 0.0713 -0.3411 0.9373
vn 0.0713 0.7641 0.6411
vn 0.0713 -0.8638 0.4987
vn 0.0713 -0.7641 0.6411
vn 0.0713 0.8638 0.4987
vn 0.0713 -0.6412 0.7641
vn 0.0713 -0.4987 0.8638
vn 0.0713 0.9373 0.3412
vn 0.0713 0.9373 0.3411
vn 0.0713 -0.7641 0.6412
vn -0.0713 -0.8638 -0.4987
vn -0.0713 -0.9373 -0.3411
vn 0.0713 -0.3412 0.9373
vn 0.0713 0.9823 0.1732
vn 0.0713 0.9975 -0.0000
vn 0.0713 -0.9373 0.3412
vn 0.0713 -0.9373 0.3411
vn 0.0713 -0.6411 -0.7641
vn 0.0713 -0.7641 -0.6411
vn -0.0713 0.9975 -0.0000
vn -0.0713 0.9823 0.1732
vn 0.0713 0.9823 -0.1732
vn 0.0713 0.9373 -0.3411
vn -0.0713 -0.7641 0.6412
vn -0.0713 -0.6412 0.7641
vn -0.0713 -0.6411 0.7641
vn -0.0713 0.7641 0.6411
vn -0.0713 0.6412 0.7641
vn -0.0713 0.6411 0.7641
vn -0.0713 -0.1732 -0.9823
vn -0.0713 -0.0000 -0.9975
vn 0.0713 -0.9823 -0.1732
vn 0.0713 -0.9975 -0.0000
vn 0.0713 -0.9373 -0.3411
vn 0.0713 0.6411 -0.7641
vn 0.0713 0.7641 -0.6412
vn 0.0713 -0.8638 -0.4987
vn 0.0713 0.4987 -0.8638
vn -0.0713 0.8638 0.4987
vn -0.0713 0.9373 0.3411
vn 0.0713 -0.1732 -0.9823
vn 0.0713 -0.3411 -0.9373
vn -0.0713 0.1732 0.9823
vn -0.0713 -0.0000 0.9975
vn -0.0713 -0.1732 0.9823
vn -0.0713 -0.3411 0.9373
vn -0.0713 -0.9823 0.1732
vn -0.0713 -0.9975 -0.0000
vn 0.0713 -0.0000 -0.9975
vn -0.0713 0.8638 -0.4987
vn -0.0713 0.9373 -0.3412
vn 0.0713 0.1732 -0.9823
vn 0.0713 0.3411 -0.9373
vn 0.0713 0.3412 -0.9373
vn -0.0713 0.6411 -0.7641
vn -0.0713 0.7641 -0.6412
vn -0.0713 0.7641 -0.6411
vn -0.0713 -0.9373 0.3412
vn -0.0713 -0.8638 0.4987
vn 0.0713 -0.9823 0.1732
vn -0.0713 -0.9823 -0.1732
vn -0.0713 0.4987 -0.8638
vn -0.0713 -0.7641 0.6411
vn 0.0713 -0.3412 -0.9373
vn 0.0713 -0.4987 -0.8638
vn -0.0713 0.9373 -0.3411
vn -0.0713 0.9823 -0.1732
vn -0.0713 -0.9373 0.3411
vn -0.0713 -0.3412 -0.9373
vn -0.0713 -0.4987 -0.8638
vn -0.0713 -0.3412 0.9373
vn -0.0713 -0.4987 0.8638
vn -0.0713 -0.7641 -0.6411
vn -0.0713 0.3412 -0.9373
vn -0.0713 -0.6411 -0.7641
vn -0.0713 0.1732 -0.9823
vn -0.0713 0.3411 -0.9373
vn 0.0713 0.7641 -0.6411
vn -0.0713 -0.3411 -0.9373
vn 0.0713 -0.6411 0.7641
vt 0.139709 0.511057
vt 0.133967 0.499148
vt 0.141426 0.499611
vt 0.069469 0.561672
vt 0.059949 0.552291
vt 0.057972 0.559720
vt 0.139136 0.476632
vt 0.133672 0.488860
vt 0.141294 0.488055
vt 0.132289 0.509305
vt 0.135130 0.465636
vt 0.131678 0.478648
vt 0.135967 0.522111
vt 0.128932 0.519099
vt 0.129395 0.455397
vt 0.128020 0.468872
vt 0.130370 0.532486
vt 0.123881 0.528234
vt 0.089774 0.435962
vt 0.102850 0.432587
vt 0.091780 0.428602
vt 0.117333 0.536288
vt 0.122916 0.541605
vt 0.113110 0.438463
vt 0.116319 0.451610
vt 0.121993 0.446232
vt 0.113983 0.549317
vt 0.109425 0.543114
vt 0.099501 0.439569
vt 0.032083 0.451637
vt 0.035643 0.438408
vt 0.040252 0.444908
vt 0.122868 0.459746
vt 0.103825 0.555340
vt 0.090683 0.552136
vt 0.092752 0.559493
vt 0.079600 0.434099
vt 0.080294 0.426671
vt 0.012869 0.465742
vt 0.025245 0.459711
vt 0.018887 0.455358
vt 0.081181 0.561625
vt 0.070100 0.554076
vt 0.108459 0.444858
vt 0.007231 0.500744
vt 0.017021 0.510116
vt 0.009505 0.512294
vt 0.046041 0.432532
vt 0.059128 0.435988
vt 0.057198 0.428572
vt 0.049320 0.439589
vt 0.036663 0.549922
vt 0.050190 0.548787
vt 0.041118 0.543536
vt 0.026478 0.446130
vt 0.032997 0.536874
vt 0.027526 0.542399
vt 0.015008 0.499878
vt 0.007025 0.488888
vt 0.069310 0.434162
vt 0.068698 0.426620
vt 0.013731 0.523336
vt 0.026131 0.528928
vt 0.020741 0.519894
vt 0.019807 0.533462
vt 0.046940 0.555736
vt 0.014875 0.489385
vt 0.008914 0.477093
vt 0.080448 0.554001
vt 0.016586 0.478975
vt 0.100434 0.548434
vt 0.020226 0.468967
s 1
f 8/1/1 3/2/2 4/3/2
f 112/4/3 114/5/4 116/6/4
f 77/7/5 74/8/6 73/9/6
f 80/1/7 75/2/8 78/10/7
f 81/11/9 79/12/5 77/7/5
f 84/13/10 78/10/7 82/14/11
f 85/15/12 83/16/9 81/11/9
f 88/17/13 82/14/11 86/18/13
f 103/19/14 97/20/15 101/21/14
f 88/17/13 90/22/16 92/23/16
f 93/24/17 91/25/18 89/26/18
f 96/27/19 90/22/16 94/28/20
f 99/29/21 93/24/17 97/20/15
f 55/30/22 49/31/23 51/32/23
f 89/26/18 87/33/24 85/15/12
f 100/34/25 102/35/26 104/36/26
f 107/37/27 101/21/14 105/38/28
f 133/39/29 131/40/30 129/41/30
f 30/35/31 28/34/32 32/36/31
f 108/42/33 110/43/34 112/4/3
f 27/29/35 21/24/36 23/44/37
f 16/17/38 10/14/39 12/13/40
f 72/45/41 66/46/42 68/47/42
f 117/48/43 115/49/44 113/50/44
f 121/31/45 119/51/43 117/48/43
f 124/52/46 118/53/47 122/54/46
f 127/30/48 121/31/45 125/55/48
f 124/52/46 126/56/49 128/57/49
f 18/22/50 16/17/38 20/23/50
f 24/27/51 18/22/50 20/23/50
f 142/58/52 141/59/53 144/45/52
f 2/8/54 5/7/55 1/9/54
f 11/16/56 13/15/57 9/11/56
f 7/12/55 9/11/56 5/7/55
f 39/60/58 41/50/59 37/61/58
f 144/45/52 138/46/60 142/58/52
f 12/13/40 6/10/1 8/1/1
f 42/5/61 40/4/62 44/6/61
f 3/2/2 1/9/54 4/3/2
f 131/40/30 125/55/48 129/41/30
f 136/62/63 130/63/64 134/64/63
f 132/65/65 126/56/49 130/63/64
f 52/52/66 46/53/67 48/66/68
f 35/37/69 29/21/70 31/19/70
f 111/60/71 105/38/28 109/61/71
f 43/49/59 45/48/72 41/50/59
f 136/62/63 138/46/60 140/47/60
f 54/56/73 52/52/66 56/57/73
f 28/34/32 22/28/51 24/27/51
f 31/19/70 25/20/74 27/29/35
f 143/67/75 137/68/76 141/59/53
f 38/43/77 36/42/78 40/4/62
f 34/69/78 32/36/31 36/42/78
f 39/60/58 33/38/79 35/37/69
f 47/51/72 49/31/23 45/48/72
f 71/67/80 65/68/81 67/70/81
f 73/9/6 75/2/8 76/3/8
f 15/33/82 17/26/83 13/15/57
f 48/66/68 42/5/61 44/6/61
f 139/70/76 133/39/29 137/68/76
f 100/34/25 94/28/20 98/71/25
f 19/25/83 21/24/36 17/26/83
f 104/36/26 106/69/33 108/42/33
f 59/40/84 53/55/22 55/30/22
f 60/65/85 54/56/73 56/57/73
f 59/40/84 61/39/86 57/41/84
f 64/62/87 58/63/88 60/65/85
f 67/70/81 61/39/86 63/72/86
f 66/46/42 64/62/87 68/47/42
f 113/50/44 111/60/71 109/61/71
f 120/66/89 114/5/4 118/53/47
f 70/58/41 69/59/90 71/67/80
f 8/1/1 6/10/1 3/2/2
f 112/4/3 110/43/34 114/5/4
f 77/7/5 79/12/5 74/8/6
f 80/1/7 76/3/8 75/2/8
f 81/11/9 83/16/9 79/12/5
f 84/13/10 80/1/7 78/10/7
f 85/15/12 87/33/24 83/16/9
f 88/17/13 84/13/10 82/14/11
f 103/19/14 99/29/21 97/20/15
f 88/17/13 86/18/13 90/22/16
f 93/24/17 95/44/91 91/25/18
f 96/27/19 92/23/16 90/22/16
f 99/29/21 95/44/91 93/24/17
f 55/30/22 53/55/22 49/31/23
f 89/26/18 91/25/18 87/33/24
f 100/34/25 98/71/25 102/35/26
f 107/37/27 103/19/14 101/21/14
f 133/39/29 135/72/29 131/40/30
f 30/35/31 26/71/32 28/34/32
f 108/42/33 106/69/33 110/43/34
f 27/29/35 25/20/74 21/24/36
f 16/17/38 14/18/38 10/14/39
f 72/45/41 70/58/41 66/46/42
f 117/48/43 119/51/43 115/49/44
f 121/31/45 123/32/45 119/51/43
f 124/52/46 120/66/89 118/53/47
f 127/30/48 123/32/45 121/31/45
f 124/52/46 122/54/46 126/56/49
f 18/22/50 14/18/38 16/17/38
f 24/27/51 22/28/51 18/22/50
f 142/58/52 143/67/75 141/59/53
f 2/8/54 7/12/55 5/7/55
f 11/16/56 15/33/82 13/15/57
f 7/12/55 11/16/56 9/11/56
f 39/60/58 43/49/59 41/50/59
f 144/45/52 140/47/60 138/46/60
f 12/13/40 10/14/39 6/10/1
f 42/5/61 38/43/77 40/4/62
f 3/2/2 2/8/54 1/9/54
f 131/40/30 127/30/48 125/55/48
f 136/62/63 132/65/65 130/63/64
f 132/65/65 128/57/49 126/56/49
f 52/52/66 50/54/66 46/53/67
f 35/37/69 33/38/79 29/21/70
f 111/60/71 107/37/27 105/38/28
f 43/49/59 47/51/72 45/48/72
f 136/62/63 134/64/63 138/46/60
f 54/56/73 50/54/66 52/52/66
f 28/34/32 26/71/32 22/28/51
f 31/19/70 29/21/70 25/20/74
f 143/67/75 139/70/76 137/68/76
f 38/43/77 34/69/78 36/42/78
f 34/69/78 30/35/31 32/36/31
f 39/60/58 37/61/58 33/38/79
f 47/51/72 51/32/23 49/31/23
f 71/67/80 69/59/90 65/68/81
f 73/9/6 74/8/6 75/2/8
f 15/33/82 19/25/83 17/26/83
f 48/66/68 46/53/67 42/5/61
f 139/70/76 135/72/29 133/39/29
f 100/34/25 96/27/19 94/28/20
f 19/25/83 23/44/37 21/24/36
f 104/36/26 102/35/26 106/69/33
f 59/40/84 57/41/84 53/55/22
f 60/65/85 58/63/88 54/56/73
f 59/40/84 63/72/86 61/39/86
f 64/62/87 62/64/87 58/63/88
f 67/70/81 65/68/81 61/39/86
f 66/46/42 62/64/87 64/62/87
f 113/50/44 115/49/44 111/60/71
f 120/66/89 116/6/4 114/5/4
f 70/58/41 72/45/41 69/59/90
