# Blender 5.2.1 LTS
# www.blender.org
o s060_Wheels_02.002
v -53.547108 6.543289 37.094101
v -61.532677 6.444092 36.531597
v -61.532677 12.689874 34.858028
v -53.547108 12.885252 35.394783
v -53.547108 0.002594 37.666351
v -61.532677 18.550182 32.125347
v -61.532677 0.002581 37.095161
v -53.547119 18.835772 32.620045
v -53.547108 -6.538120 37.094101
v -61.532677 23.846916 28.416542
v -61.532677 -6.438948 36.531597
v -53.547108 24.214066 28.854113
v -53.547108 -12.880091 35.394783
v -61.532677 28.419142 23.844290
v -61.532677 -12.684737 34.858013
v -53.547119 28.856714 24.211454
v -53.547096 -18.830605 32.620033
v -61.532677 32.127945 18.547544
v -61.532661 -18.545029 32.125320
v -53.547108 32.622620 18.833160
v -53.547096 -24.208879 28.854088
v -61.532677 34.860626 12.687249
v -61.532661 -23.841730 28.416529
v -53.547108 35.397396 12.882640
v -53.547096 -28.851524 24.211441
v -61.532677 36.534206 6.441479
v -61.532661 -28.413965 23.844290
v -53.547108 37.096722 6.540664
v -53.547108 -32.617443 18.833136
v -61.532677 37.097759 -0.000038
v -61.532661 -32.122784 18.547544
v -53.547108 37.668949 -0.000038
v -53.547096 -35.392235 12.882634
v -61.532677 36.534206 -6.441535
v -61.532661 -34.855469 12.687268
v -53.547108 37.096722 -6.540727
v -53.547096 -37.091553 6.540670
v -61.532677 34.860622 -12.687318
v -61.532661 -36.529026 6.441473
v -53.547108 35.397388 -12.882690
v -53.547096 -37.663792 -0.000013
v -61.532677 32.127941 -18.547598
v -61.532661 -37.092590 -0.000025
v -53.547108 32.622616 -18.833199
v -53.547096 -37.091553 -6.540702
v -61.532677 28.419136 -23.844343
v -61.532661 -36.529026 -6.441542
v -53.547096 28.856707 -24.211466
v -53.547096 -35.392246 -12.882678
v -61.532677 23.846901 -28.416553
v -61.532661 -34.855469 -12.687330
v -53.547108 24.214062 -28.854113
v -53.547096 -32.617451 -18.833210
v -61.532661 18.550167 -32.125362
v -61.532661 -32.122791 -18.547598
v -53.547096 18.835793 -32.620037
v -53.547081 -28.851532 -24.211479
v -61.532661 12.689881 -34.858063
v -61.532661 -28.413965 -23.844343
v -53.547096 12.885260 -35.394817
v -53.547096 -24.208897 -28.854126
v -61.532661 6.444099 -36.531624
v -61.532661 -23.841734 -28.416578
v -53.547096 6.543296 -37.094143
v -53.547081 -18.830570 -32.620049
v -61.532661 0.002588 -37.095203
v -61.532661 -18.545000 -32.125374
v -53.547081 0.002588 -37.666393
v -53.547081 -12.880052 -35.394817
v -61.532661 -6.438929 -36.531639
v -61.532661 -12.684717 -34.858074
v -53.547081 -6.538088 -37.094143
v 53.547108 6.543293 37.094097
v 61.532677 6.444095 36.531593
v 61.532677 12.689878 34.858025
v 53.547108 12.885255 35.394779
v 53.547108 0.002597 37.666348
v 61.532677 18.550186 32.125340
v 61.532677 0.002585 37.095158
v 53.547119 18.835775 32.620041
v 53.547108 -6.538117 37.094097
v 61.532677 23.846920 28.416534
v 61.532677 -6.438945 36.531593
v 53.547108 24.214069 28.854107
v 53.547108 -12.880088 35.394779
v 61.532677 28.419146 23.844284
v 61.532677 -12.684734 34.858013
v 53.547119 28.856716 24.211449
v 53.547096 -18.830603 32.620033
v 61.532677 32.127949 18.547539
v 61.532661 -18.545025 32.125320
v 53.547108 32.622623 18.833155
v 53.547096 -24.208878 28.854088
v 61.532677 34.860626 12.687243
v 61.532661 -23.841728 28.416529
v 53.547108 35.397396 12.882633
v 53.547096 -28.851522 24.211441
v 61.532677 36.534206 6.441472
v 61.532661 -28.413963 23.844290
v 53.547108 37.096722 6.540657
v 53.547108 -32.617443 18.833136
v 61.532677 37.097759 -0.000045
v 61.532661 -32.122780 18.547544
v 53.547108 37.668949 -0.000045
v 53.547096 -35.392235 12.882633
v 61.532677 36.534206 -6.441543
v 61.532661 -34.855469 12.687267
v 53.547108 37.096722 -6.540734
v 53.547096 -37.091553 6.540669
v 61.532677 34.860622 -12.687325
v 61.532661 -36.529026 6.441472
v 53.547108 35.397388 -12.882697
v 53.547096 -37.663792 -0.000013
v 61.532677 32.127937 -18.547604
v 61.532661 -37.092590 -0.000026
v 53.547108 32.622612 -18.833204
v 53.547096 -37.091553 -6.540702
v 61.532677 28.419132 -23.844351
v 61.532661 -36.529026 -6.441543
v 53.547096 28.856705 -24.211473
v 53.547096 -35.392246 -12.882678
v 61.532677 23.846897 -28.416559
v 61.532661 -34.855469 -12.687331
v 53.547108 24.214060 -28.854118
v 53.547096 -32.617455 -18.833210
v 61.532661 18.550163 -32.125366
v 61.532661 -32.122791 -18.547598
v 53.547096 18.835791 -32.620041
v 53.547081 -28.851534 -24.211479
v 61.532661 12.689878 -34.858067
v 61.532661 -28.413969 -23.844343
v 53.547096 12.885257 -35.394821
v 53.547096 -24.208899 -28.854126
v 61.532661 6.444096 -36.531628
v 61.532661 -23.841738 -28.416578
v 53.547096 6.543293 -37.094143
v 53.547081 -18.830574 -32.620049
v 61.532661 0.002585 -37.095203
v 61.532661 -18.545004 -32.125374
v 53.547081 0.002585 -37.666397
v 53.547081 -12.880054 -35.394821
v 61.532661 -6.438931 -36.531639
v 61.532661 -12.684720 -34.858078
v 53.547081 -6.538092 -37.094143
vn -0.0713 0.4987 0.8638
vn -0.0713 0.3411 0.9373
vn -0.0713 0.9373 -0.3411
vn -0.0713 0.9823 -0.1732
vn -0.0713 0.9373 -0.3412
vn 0.0713 -0.1732 0.9823
vn 0.0713 -0.0000 0.9975
vn 0.0713 0.4987 0.8638
vn 0.0713 0.3411 0.9373
vn -0.0713 0.1732 0.9823
vn -0.0713 -0.0000 0.9975
vn -0.0713 -0.9823 -0.1732
vn -0.0713 -0.9373 -0.3411
vn 0.0713 -0.3411 0.9373
vn 0.0713 0.1732 0.9823
vn -0.0713 -0.9373 0.3411
vn -0.0713 -0.9823 0.1732
vn 0.0713 0.7641 0.6411
vn 0.0713 0.8638 0.4987
vn 0.0713 -0.6412 0.7641
vn 0.0713 -0.4987 0.8638
vn 0.0713 0.8638 -0.4987
vn 0.0713 0.9373 -0.3411
vn 0.0713 -0.7641 0.6411
vn 0.0713 -0.8638 -0.4987
vn 0.0713 -0.9373 -0.3412
vn 0.0713 -0.9373 -0.3411
vn -0.0713 0.4987 -0.8638
vn -0.0713 0.6411 -0.7641
vn 0.0713 0.9975 -0.0000
vn 0.0713 0.9823 0.1732
vn 0.0713 0.6412 0.7641
vn 0.0713 0.9823 -0.1732
vn 0.0713 -0.9823 0.1732
vn 0.0713 -0.9373 0.3411
vn 0.0713 -0.9373 0.3412
vn -0.0713 -0.3412 -0.9373
vn -0.0713 -0.4987 -0.8638
vn 0.0713 -0.8638 0.4987
vn -0.0713 0.8638 0.4987
vn -0.0713 0.7641 0.6411
vn 0.0713 -0.3412 0.9373
vn 0.0713 -0.9823 -0.1732
vn 0.0713 0.6411 -0.7641
vn 0.0713 0.7641 -0.6412
vn -0.0713 -0.4987 0.8638
vn -0.0713 -0.6411 0.7641
vn -0.0713 -0.6412 0.7641
vn -0.0713 -0.7641 0.6412
vn 0.0713 -0.1732 -0.9823
vn 0.0713 -0.0000 -0.9975
vn 0.0713 0.3412 -0.9373
vn 0.0713 0.4987 -0.8638
vn 0.0713 0.3411 -0.9373
vn 0.0713 -0.6411 -0.7641
vn 0.0713 -0.7641 -0.6412
vn 0.0713 -0.7641 -0.6411
vn 0.0713 0.9373 0.3411
vn -0.0713 0.7641 -0.6412
vn -0.0713 0.7641 -0.6411
vn 0.0713 0.1732 -0.9823
vn -0.0713 -0.9975 -0.0000
vn -0.0713 0.3412 -0.9373
vn -0.0713 -0.1732 0.9823
vn 0.0713 -0.3411 -0.9373
vn -0.0713 0.6411 0.7641
vn 0.0713 -0.4987 -0.8638
vn -0.0713 0.6412 0.7641
vn -0.0713 -0.3412 0.9373
vn -0.0713 -0.3411 0.9373
vn 0.0713 -0.9975 -0.0000
vn -0.0713 0.9373 0.3411
vn -0.0713 0.9823 0.1732
vn -0.0713 -0.7641 0.6411
vn -0.0713 -0.8638 0.4987
vn -0.0713 0.9975 -0.0000
vn 0.0713 0.6411 0.7641
vn 0.0713 -0.3412 -0.9373
vn -0.0713 0.8638 -0.4987
vn 0.0713 0.7641 -0.6411
vn -0.0713 -0.9373 -0.3412
vn -0.0713 -0.8638 -0.4987
vn -0.0713 -0.7641 -0.6411
vn -0.0713 -0.6411 -0.7641
vn -0.0713 -0.0000 -0.9975
vn -0.0713 0.1732 -0.9823
vn -0.0713 0.3411 -0.9373
vn -0.0713 -0.1732 -0.9823
vn -0.0713 -0.3411 -0.9373
vn 0.0713 -0.6411 0.7641
vt 0.139709 0.511057
vt 0.133967 0.499148
vt 0.141426 0.499611
vt 0.070100 0.554076
vt 0.081181 0.561625
vt 0.069469 0.561672
vt 0.135130 0.465636
vt 0.131678 0.478648
vt 0.139136 0.476632
vt 0.132289 0.509305
vt 0.133672 0.488860
vt 0.141294 0.488055
vt 0.049320 0.439589
vt 0.035643 0.438408
vt 0.046041 0.432532
vt 0.129395 0.455397
vt 0.128020 0.468872
vt 0.079600 0.434099
vt 0.068698 0.426620
vt 0.080294 0.426671
vt 0.130370 0.532486
vt 0.117333 0.536288
vt 0.122916 0.541605
vt 0.113110 0.438463
vt 0.116319 0.451610
vt 0.121993 0.446232
vt 0.057972 0.559720
vt 0.059949 0.552291
vt 0.099501 0.439569
vt 0.102850 0.432587
vt 0.026478 0.446130
vt 0.040252 0.444908
vt 0.032997 0.536874
vt 0.036663 0.549922
vt 0.027526 0.542399
vt 0.092752 0.559493
vt 0.100434 0.548434
vt 0.090683 0.552136
vt 0.128932 0.519099
vt 0.123881 0.528234
vt 0.080448 0.554001
vt 0.014875 0.489385
vt 0.008914 0.477093
vt 0.016586 0.478975
vt 0.091780 0.428602
vt 0.122868 0.459746
vt 0.050190 0.548787
vt 0.041118 0.543536
vt 0.108459 0.444858
vt 0.007231 0.500744
vt 0.017021 0.510116
vt 0.015008 0.499878
vt 0.019807 0.533462
vt 0.026131 0.528928
vt 0.012869 0.465742
vt 0.025245 0.459711
vt 0.018887 0.455358
vt 0.113983 0.549317
vt 0.109425 0.543114
vt 0.046940 0.555736
vt 0.013731 0.523336
vt 0.009505 0.512294
vt 0.059128 0.435988
vt 0.057198 0.428572
vt 0.007025 0.488888
vt 0.135967 0.522111
vt 0.103825 0.555340
vt 0.069310 0.434162
vt 0.089774 0.435962
vt 0.032083 0.451637
vt 0.020226 0.468967
vt 0.020741 0.519894
s 1
f 8/1/1 3/2/2 4/3/2
f 38/4/3 36/5/4 40/6/5
f 81/7/6 79/8/7 77/9/7
f 80/1/8 75/2/9 78/10/8
f 2/11/10 5/9/11 1/12/10
f 47/13/12 49/14/13 45/15/12
f 85/16/14 83/17/6 81/7/6
f 73/12/15 75/2/9 76/3/9
f 35/18/16 37/19/17 33/20/16
f 88/21/18 90/22/19 92/23/19
f 93/24/20 91/25/21 89/26/21
f 116/27/22 110/4/23 114/28/22
f 99/29/24 93/24/20 97/30/24
f 125/31/25 123/32/26 121/14/27
f 54/33/28 52/34/29 56/35/28
f 104/36/30 98/37/31 102/38/30
f 88/21/18 82/39/32 86/40/18
f 104/36/30 106/41/33 108/5/33
f 109/19/34 107/18/35 105/20/36
f 108/5/33 110/4/23 112/6/23
f 71/42/37 65/43/38 67/44/38
f 107/18/35 101/45/39 105/20/36
f 18/22/40 16/21/41 20/23/40
f 89/26/21 87/46/42 85/16/14
f 121/14/27 119/13/43 117/15/43
f 124/34/44 118/47/45 122/48/44
f 19/25/46 21/24/47 17/26/46
f 23/49/48 25/30/49 21/24/47
f 144/50/50 138/51/51 142/52/50
f 132/53/52 126/33/53 130/54/54
f 133/55/55 131/56/56 129/57/57
f 96/58/58 90/22/19 94/59/58
f 52/34/29 46/47/59 48/60/60
f 136/61/61 138/51/51 140/62/51
f 101/45/39 99/29/24 97/30/24
f 43/63/62 45/15/12 41/64/62
f 60/53/63 54/33/28 56/35/28
f 3/2/2 1/12/10 4/3/2
f 7/8/11 9/7/64 5/9/11
f 131/56/56 125/31/25 129/57/57
f 142/52/50 141/65/65 144/50/50
f 12/66/66 6/10/1 8/1/1
f 139/44/67 133/55/55 137/43/67
f 16/21/41 10/39/68 12/66/66
f 15/46/69 17/26/46 13/16/70
f 117/15/43 115/63/71 113/64/71
f 24/58/72 18/22/40 20/23/40
f 124/34/44 126/33/53 128/35/53
f 28/67/73 22/59/72 24/58/72
f 27/29/74 29/45/75 25/30/49
f 113/64/71 111/68/34 109/19/34
f 35/18/16 29/45/75 31/69/75
f 77/9/7 74/11/15 73/12/15
f 32/36/76 26/37/73 28/67/73
f 84/66/77 78/10/8 82/39/32
f 143/42/78 137/43/67 141/65/65
f 42/28/79 40/6/5 44/27/79
f 120/60/80 114/28/22 118/47/45
f 48/60/60 42/28/79 44/27/79
f 11/17/64 13/16/70 9/7/64
f 100/67/31 94/59/58 98/37/31
f 51/32/81 53/31/82 49/14/13
f 59/56/83 61/55/84 57/57/83
f 59/56/83 53/31/82 55/70/82
f 66/51/85 64/61/86 68/62/85
f 34/41/4 32/36/76 36/5/4
f 64/61/86 58/54/87 60/53/63
f 67/44/38 61/55/84 63/71/84
f 136/61/61 130/54/54 134/72/61
f 39/68/17 41/64/62 37/19/17
f 72/50/88 66/51/85 68/62/85
f 70/52/88 69/65/89 71/42/37
f 8/1/1 6/10/1 3/2/2
f 38/4/3 34/41/4 36/5/4
f 81/7/6 83/17/6 79/8/7
f 80/1/8 76/3/9 75/2/9
f 2/11/10 7/8/11 5/9/11
f 47/13/12 51/32/81 49/14/13
f 85/16/14 87/46/42 83/17/6
f 73/12/15 74/11/15 75/2/9
f 35/18/16 39/68/17 37/19/17
f 88/21/18 86/40/18 90/22/19
f 93/24/20 95/49/90 91/25/21
f 116/27/22 112/6/23 110/4/23
f 99/29/24 95/49/90 93/24/20
f 125/31/25 127/70/25 123/32/26
f 54/33/28 50/48/29 52/34/29
f 104/36/30 100/67/31 98/37/31
f 88/21/18 84/66/77 82/39/32
f 104/36/30 102/38/30 106/41/33
f 109/19/34 111/68/34 107/18/35
f 108/5/33 106/41/33 110/4/23
f 71/42/37 69/65/89 65/43/38
f 107/18/35 103/69/39 101/45/39
f 18/22/40 14/40/41 16/21/41
f 89/26/21 91/25/21 87/46/42
f 121/14/27 123/32/26 119/13/43
f 124/34/44 120/60/80 118/47/45
f 19/25/46 23/49/48 21/24/47
f 23/49/48 27/29/74 25/30/49
f 144/50/50 140/62/51 138/51/51
f 132/53/52 128/35/53 126/33/53
f 133/55/55 135/71/55 131/56/56
f 96/58/58 92/23/19 90/22/19
f 52/34/29 50/48/29 46/47/59
f 136/61/61 134/72/61 138/51/51
f 101/45/39 103/69/39 99/29/24
f 43/63/62 47/13/12 45/15/12
f 60/53/63 58/54/87 54/33/28
f 3/2/2 2/11/10 1/12/10
f 7/8/11 11/17/64 9/7/64
f 131/56/56 127/70/25 125/31/25
f 142/52/50 143/42/78 141/65/65
f 12/66/66 10/39/68 6/10/1
f 139/44/67 135/71/55 133/55/55
f 16/21/41 14/40/41 10/39/68
f 15/46/69 19/25/46 17/26/46
f 117/15/43 119/13/43 115/63/71
f 24/58/72 22/59/72 18/22/40
f 124/34/44 122/48/44 126/33/53
f 28/67/73 26/37/73 22/59/72
f 27/29/74 31/69/75 29/45/75
f 113/64/71 115/63/71 111/68/34
f 35/18/16 33/20/16 29/45/75
f 77/9/7 79/8/7 74/11/15
f 32/36/76 30/38/76 26/37/73
f 84/66/77 80/1/8 78/10/8
f 143/42/78 139/44/67 137/43/67
f 42/28/79 38/4/3 40/6/5
f 120/60/80 116/27/22 114/28/22
f 48/60/60 46/47/59 42/28/79
f 11/17/64 15/46/69 13/16/70
f 100/67/31 96/58/58 94/59/58
f 51/32/81 55/70/82 53/31/82
f 59/56/83 63/71/84 61/55/84
f 59/56/83 57/57/83 53/31/82
f 66/51/85 62/72/86 64/61/86
f 34/41/4 30/38/76 32/36/76
f 64/61/86 62/72/86 58/54/87
f 67/44/38 65/43/38 61/55/84
f 136/61/61 132/53/52 130/54/54
f 39/68/17 43/63/62 41/64/62
f 72/50/88 70/52/88 66/51/85
f 70/52/88 72/50/88 69/65/89
