# Blender 5.2.1 LTS
# www.blender.org
o s060_Wheels_01.003
v -61.863499 0.002575 32.452595
v -61.863499 0.002575 36.713646
v -61.863499 -6.372727 36.155895
v -61.863499 6.377846 36.155891
v -61.863499 -5.632793 31.959562
v -61.863499 5.637917 31.959562
v -61.863487 -11.096922 30.495483
v -61.863499 12.559416 34.499531
v -61.863499 -12.554285 34.499538
v -61.863499 11.102051 30.495483
v -61.863487 -16.223743 28.104784
v -61.863499 18.359442 31.794970
v -61.863487 -18.354307 31.794964
v -61.863499 16.228916 28.104784
v -61.863468 -20.857586 24.860109
v -61.863499 23.601715 28.124273
v -61.863468 -23.596554 28.124260
v -61.863499 20.862741 24.860146
v -61.863487 -24.857607 20.860096
v -61.863499 28.126902 23.599073
v -61.863487 -28.121752 23.599049
v -61.863499 24.862751 20.860134
v -61.863487 -28.102249 16.226250
v -61.863499 31.797581 18.356802
v -61.863487 -31.792416 18.356802
v -61.863499 28.107388 16.226288
v -61.863487 -30.492929 11.099397
v -61.863499 34.502159 12.556773
v -61.863468 -34.497021 12.556767
v -61.863499 30.498093 11.099422
v -61.863468 -31.957062 5.635293
v -61.863499 36.158516 6.375208
v -61.863468 -36.153358 6.375215
v -61.863499 31.962200 5.635280
v -61.863468 -32.450081 -0.000056
v -61.863499 36.716274 -0.000069
v -61.863468 -36.711117 -0.000056
v -61.863499 32.455242 -0.000063
v -61.863468 -31.957043 -5.635405
v -61.863499 36.158516 -6.375315
v -61.863468 -36.153358 -6.375321
v -61.863499 31.962200 -5.635399
v -61.863468 -30.492941 -11.099534
v -61.863499 34.502167 -12.556898
v -61.863468 -34.497021 -12.556886
v -61.863499 30.498087 -11.099509
v -61.863468 -28.102249 -16.226387
v -61.863499 31.797573 -18.356915
v -61.863468 -31.792423 -18.356901
v -61.863468 28.107382 -16.226376
v -61.863468 -24.857601 -20.860222
v -61.863487 28.126896 -23.599161
v -61.863468 -28.121758 -23.599161
v -61.863487 24.862745 -20.860209
v -61.863468 -20.857590 -24.860214
v -61.863487 23.601711 -28.124367
v -61.863468 -23.596539 -28.124380
v -61.863487 20.862719 -24.860228
v -61.863468 -16.223740 -28.104853
v -61.863487 18.359451 -31.795033
v -61.863468 -18.354286 -31.795057
v -61.863487 16.228901 -28.104853
v -61.863468 -11.096888 -30.495558
v -61.863468 12.559411 -34.499638
v -61.863468 -12.554246 -34.499638
v -61.863487 11.102036 -30.495544
v -61.863468 -5.632778 -31.959681
v -61.863468 6.377840 -36.155998
v -61.863468 -6.372683 -36.155998
v -61.863468 5.637912 -31.959669
v -61.863468 0.002582 -32.452698
v -61.863468 0.002582 -36.713753
v -51.997581 -6.886480 39.069641
v -51.997581 0.002600 39.672356
v -51.997593 6.891643 39.069660
v -51.997581 13.571364 37.279816
v -51.997593 19.838789 34.357304
v -51.997581 25.503532 30.390825
v -51.997581 30.393415 25.500862
v -51.997581 34.359921 19.836132
v -51.997581 37.282471 13.568708
v -51.997581 39.072285 6.888980
v -51.997581 39.674999 -0.000063
v -51.997581 39.072285 -6.889118
v -51.997581 37.282467 -13.568821
v -51.997581 34.359913 -19.836258
v -51.997581 30.393410 -25.500988
v -51.997581 25.503517 -30.390875
v -51.997581 19.838783 -34.357368
v -51.997570 13.571371 -37.279922
v -51.997570 6.891637 -39.069744
v -51.997570 0.002582 -39.672474
v -51.997570 -6.886443 -39.069744
v -51.997570 -13.566170 -37.279949
v -51.997555 -19.833607 -34.357391
v -51.997555 -25.498369 -30.390900
v -51.997570 -30.388271 -25.500988
v -51.997570 -34.354752 -19.836264
v -51.997581 -37.277309 -13.568827
v -51.997570 -39.067127 -6.889093
v -51.997570 -39.669857 -0.000050
v -51.997581 -39.067139 6.888987
v -51.997570 -37.277302 13.568727
v -51.997581 -34.354744 19.836145
v -51.997581 -30.388266 25.500887
v -51.997570 -25.498373 30.390757
v -51.997581 -19.833639 34.357254
v -51.997581 -13.566201 37.279819
v -53.547108 6.543283 37.094059
v -61.532677 6.444086 36.531559
v -61.532677 12.689868 34.857998
v -53.547108 12.885246 35.394741
v -53.547108 0.002588 37.666317
v -61.532677 18.550177 32.125317
v -61.532677 0.002575 37.095123
v -53.547119 18.835766 32.620003
v -53.547108 -6.538127 37.094063
v -61.532677 23.846910 28.416508
v -61.532677 -6.438954 36.531563
v -53.547108 24.214060 28.854078
v -53.547108 -12.880096 35.394749
v -61.532677 28.419136 23.844269
v -61.532677 -12.684744 34.857979
v -53.547119 28.856707 24.211414
v -53.547096 -18.830612 32.619999
v -61.532677 32.127941 18.547523
v -61.532661 -18.545034 32.125286
v -53.547108 32.622616 18.833120
v -53.547096 -24.208887 28.854048
v -61.532677 34.860622 12.687219
v -61.532661 -23.841738 28.416508
v -53.547108 35.397388 12.882604
v -53.547096 -28.851532 24.211401
v -61.532677 36.534199 6.441448
v -61.532661 -28.413973 23.844269
v -53.547108 37.096718 6.540627
v -53.547108 -32.617451 18.833101
v -61.532677 37.097752 -0.000069
v -61.532661 -32.122791 18.547523
v -53.547108 37.668941 -0.000075
v -53.547096 -35.392239 12.882595
v -61.532677 36.534199 -6.441567
v -61.532661 -34.855476 12.687238
v -53.547108 37.096718 -6.540763
v -53.547096 -37.091560 6.540633
v -61.532677 34.860615 -12.687350
v -61.532661 -36.529030 6.441442
v -53.547108 35.397385 -12.882726
v -53.547096 -37.663799 -0.000050
v -61.532677 32.127934 -18.547623
v -61.532661 -37.092594 -0.000056
v -53.547108 32.622608 -18.833233
v -53.547096 -37.091560 -6.540740
v -61.532677 28.419128 -23.844362
v -61.532661 -36.529030 -6.441574
v -53.547096 28.856701 -24.211500
v -53.547096 -35.392250 -12.882717
v -61.532677 23.846893 -28.416588
v -61.532661 -34.855476 -12.687363
v -53.547108 24.214056 -28.854153
v -53.547096 -32.617458 -18.833244
v -61.532661 18.550161 -32.125393
v -61.532661 -32.122795 -18.547623
v -53.547096 18.835787 -32.620075
v -53.547081 -28.851538 -24.211514
v -61.532661 12.689876 -34.858086
v -61.532661 -28.413973 -23.844362
v -53.547096 12.885254 -35.394855
v -53.547096 -24.208902 -28.854166
v -61.532661 6.444093 -36.531658
v -61.532661 -23.841740 -28.416613
v -53.547096 6.543290 -37.094177
v -53.547081 -18.830578 -32.620087
v -61.532661 0.002582 -37.095234
v -61.532661 -18.545008 -32.125404
v -53.547081 0.002582 -37.666431
v -53.547081 -12.880057 -35.394855
v -61.532661 -6.438935 -36.531670
v -61.532661 -12.684723 -34.858101
v -53.547081 -6.538095 -37.094177
v -53.228714 6.868737 38.939705
v -53.228714 13.526229 37.155827
v -53.228714 0.002600 39.540417
v -53.228714 19.772837 34.243011
v -53.228714 -6.863562 38.939705
v -53.228714 25.418718 30.289743
v -53.228714 -13.521052 37.155834
v -53.228714 30.292341 25.416048
v -53.228703 -19.767673 34.243000
v -53.228714 34.245640 19.770163
v -53.228703 -25.413557 30.289675
v -53.228714 37.158466 13.523572
v -53.228703 -30.287178 25.416073
v -53.228714 38.942333 6.866055
v -53.228703 -34.240479 19.770174
v -53.228714 39.543060 -0.000063
v -53.228703 -37.153316 13.523584
v -53.228703 38.942333 -6.866187
v -53.228703 -38.937187 6.866074
v -53.228703 37.158459 -13.523697
v -53.228703 -39.537903 -0.000050
v -53.228703 34.245636 -19.770294
v -53.228703 -38.937180 -6.866193
v -53.228703 30.292322 -25.416172
v -53.228703 -37.153320 -13.523685
v -53.228703 25.418703 -30.289801
v -53.228687 -34.240479 -19.770287
v -53.228703 19.772806 -34.243088
v -53.228687 -30.287184 -25.416172
v -53.228703 13.526222 -37.155945
v -53.228687 -25.413548 -30.289814
v -53.228687 6.868719 -38.939808
v -53.228687 -19.767649 -34.243111
v -53.228687 0.002582 -39.540520
v -53.228687 -13.521040 -37.155930
v -53.228687 -6.863543 -38.939808
v -52.597008 0.002600 39.802753
v -52.597019 6.914287 39.198093
v -52.597008 -6.909123 39.198040
v -52.597008 13.615963 37.402363
v -52.597008 -13.610787 37.402348
v -52.597019 19.904003 34.470196
v -52.597008 -19.898851 34.470188
v -52.597008 25.587358 30.490698
v -52.596992 -25.582186 30.490648
v -52.597008 30.493315 25.584677
v -52.597008 -30.488152 25.584682
v -52.597008 34.472836 19.901340
v -52.597008 -34.467674 19.901352
v -52.597008 37.404987 13.613312
v -52.596992 -37.399849 13.613306
v -52.597008 39.200695 6.911617
v -52.597008 -39.195564 6.911623
v -52.597008 39.805401 -0.000063
v -52.596992 -39.800251 -0.000050
v -52.597008 39.200695 -6.911761
v -52.596992 -39.195538 -6.911742
v -52.597008 37.404980 -13.613419
v -52.596992 -37.399857 -13.613425
v -52.597008 34.472832 -19.901459
v -52.596992 -34.467678 -19.901453
v -52.597008 30.493307 -25.584814
v -52.596992 -30.488157 -25.584814
v -52.596992 25.587343 -30.490761
v -52.596981 -25.582195 -30.490786
v -52.597008 19.903997 -34.470295
v -52.596981 -19.898821 -34.470306
v -52.596992 13.615969 -37.402454
v -52.596992 -13.610768 -37.402466
v -52.596992 6.914280 -39.198170
v -52.596992 -6.909092 -39.198170
v -52.596992 0.002582 -39.802876
v 61.863499 0.002577 32.452595
v 61.863499 0.002577 36.713646
v 61.863499 -6.372725 36.155895
v 61.863499 6.377848 36.155891
v 61.863499 -5.632790 31.959562
v 61.863499 5.637919 31.959562
v 61.863487 -11.096919 30.495483
v 61.863499 12.559418 34.499531
v 61.863499 -12.554283 34.499538
v 61.863499 11.102055 30.495483
v 61.863487 -16.223740 28.104784
v 61.863499 18.359446 31.794973
v 61.863487 -18.354305 31.794960
v 61.863499 16.228918 28.104784
v 61.863468 -20.857582 24.860102
v 61.863499 23.601717 28.124279
v 61.863468 -23.596552 28.124260
v 61.863499 20.862745 24.860146
v 61.863487 -24.857603 20.860096
v 61.863499 28.126905 23.599073
v 61.863487 -28.121748 23.599049
v 61.863499 24.862757 20.860140
v 61.863487 -28.102243 16.226250
v 61.863499 31.797583 18.356802
v 61.863487 -31.792414 18.356802
v 61.863499 28.107393 16.226294
v 61.863487 -30.492924 11.099397
v 61.863499 34.502167 12.556780
v 61.863468 -34.497017 12.556761
v 61.863499 30.498098 11.099422
v 61.863468 -31.957056 5.635286
v 61.863499 36.158524 6.375215
v 61.863468 -36.153351 6.375208
v 61.863499 31.962206 5.635286
v 61.863468 -32.450073 -0.000063
v 61.863499 36.716278 -0.000063
v 61.863468 -36.711109 -0.000063
v 61.863499 32.455250 -0.000056
v 61.863468 -31.957037 -5.635411
v 61.863499 36.158524 -6.375309
v 61.863468 -36.153351 -6.375328
v 61.863499 31.962206 -5.635393
v 61.863468 -30.492935 -11.099534
v 61.863499 34.502174 -12.556892
v 61.863468 -34.497017 -12.556892
v 61.863499 30.498093 -11.099503
v 61.863468 -28.102243 -16.226387
v 61.863499 31.797583 -18.356915
v 61.863468 -31.792414 -18.356909
v 61.863468 28.107388 -16.226368
v 61.863468 -24.857594 -20.860228
v 61.863487 28.126905 -23.599161
v 61.863468 -28.121748 -23.599167
v 61.863487 24.862753 -20.860209
v 61.863468 -20.857582 -24.860214
v 61.863487 23.601721 -28.124367
v 61.863468 -23.596529 -28.124380
v 61.863487 20.862726 -24.860228
v 61.863468 -16.223730 -28.104853
v 61.863487 18.359461 -31.795021
v 61.863468 -18.354277 -31.795057
v 61.863487 16.228909 -28.104853
v 61.863468 -11.096880 -30.495558
v 61.863468 12.559420 -34.499638
v 61.863468 -12.554237 -34.499638
v 61.863487 11.102043 -30.495544
v 61.863468 -5.632770 -31.959681
v 61.863468 6.377849 -36.155998
v 61.863468 -6.372674 -36.155998
v 61.863468 5.637921 -31.959669
v 61.863468 0.002591 -32.452698
v 61.863468 0.002591 -36.713753
v 51.997581 -6.886477 39.069641
v 51.997581 0.002602 39.672356
v 51.997593 6.891645 39.069660
v 51.997581 13.571368 37.279816
v 51.997593 19.838793 34.357307
v 51.997581 25.503536 30.390829
v 51.997581 30.393419 25.500866
v 51.997581 34.359924 19.836136
v 51.997581 37.282478 13.568711
v 51.997581 39.072289 6.888983
v 51.997581 39.675007 -0.000059
v 51.997581 39.072289 -6.889115
v 51.997581 37.282471 -13.568817
v 51.997581 34.359924 -19.836254
v 51.997581 30.393419 -25.500984
v 51.997581 25.503527 -30.390873
v 51.997581 19.838793 -34.357365
v 51.997570 13.571381 -37.279922
v 51.997570 6.891645 -39.069744
v 51.997570 0.002591 -39.672474
v 51.997570 -6.886434 -39.069744
v 51.997570 -13.566161 -37.279949
v 51.997555 -19.833599 -34.357395
v 51.997555 -25.498360 -30.390903
v 51.997570 -30.388262 -25.500990
v 51.997570 -34.354740 -19.836267
v 51.997581 -37.277302 -13.568830
v 51.997570 -39.067120 -6.889096
v 51.997570 -39.669849 -0.000053
v 51.997581 -39.067131 6.888983
v 51.997570 -37.277294 13.568724
v 51.997581 -34.354740 19.836142
v 51.997581 -30.388262 25.500885
v 51.997570 -25.498369 30.390753
v 51.997581 -19.833635 34.357250
v 51.997581 -13.566198 37.279819
v 53.547108 6.543285 37.094059
v 61.532677 6.444088 36.531559
v 61.532677 12.689870 34.857998
v 53.547108 12.885248 35.394741
v 53.547108 0.002590 37.666317
v 61.532677 18.550179 32.125320
v 61.532677 0.002577 37.095123
v 53.547119 18.835768 32.620007
v 53.547108 -6.538125 37.094063
v 61.532677 23.846912 28.416513
v 61.532677 -6.438952 36.531563
v 53.547108 24.214062 28.854082
v 53.547108 -12.880095 35.394749
v 61.532677 28.419138 23.844269
v 61.532677 -12.684741 34.857979
v 53.547119 28.856710 24.211416
v 53.547096 -18.830608 32.619995
v 61.532677 32.127945 18.547523
v 61.532661 -18.545033 32.125282
v 53.547108 32.622616 18.833122
v 53.547096 -24.208883 28.854044
v 61.532677 34.860626 12.687225
v 61.532661 -23.841734 28.416500
v 53.547108 35.397396 12.882607
v 53.547096 -28.851528 24.211397
v 61.532677 36.534206 6.441454
v 61.532661 -28.413969 23.844263
v 53.547108 37.096722 6.540630
v 53.547108 -32.617447 18.833097
v 61.532677 37.097759 -0.000063
v 61.532661 -32.122787 18.547516
v 53.547108 37.668949 -0.000071
v 53.547096 -35.392235 12.882591
v 61.532677 36.534206 -6.441561
v 61.532661 -34.855469 12.687231
v 53.547108 37.096722 -6.540761
v 53.547096 -37.091553 6.540630
v 61.532677 34.860622 -12.687344
v 61.532661 -36.529026 6.441436
v 53.547108 35.397388 -12.882723
v 53.547096 -37.663792 -0.000054
v 61.532677 32.127945 -18.547623
v 61.532661 -37.092590 -0.000063
v 53.547108 32.622616 -18.833229
v 53.547096 -37.091553 -6.540743
v 61.532677 28.419138 -23.844362
v 61.532661 -36.529026 -6.441580
v 53.547096 28.856710 -24.211498
v 53.547096 -35.392246 -12.882720
v 61.532677 23.846903 -28.416588
v 61.532661 -34.855469 -12.687369
v 53.547108 24.214066 -28.854151
v 53.547096 -32.617447 -18.833248
v 61.532661 18.550171 -32.125393
v 61.532661 -32.122787 -18.547628
v 53.547096 18.835796 -32.620071
v 53.547081 -28.851528 -24.211517
v 61.532661 12.689884 -34.858086
v 61.532661 -28.413963 -23.844362
v 53.547096 12.885262 -35.394855
v 53.547096 -24.208893 -28.854170
v 61.532661 6.444101 -36.531658
v 61.532661 -23.841730 -28.416613
v 53.547096 6.543299 -37.094177
v 53.547081 -18.830568 -32.620090
v 61.532661 0.002591 -37.095234
v 61.532661 -18.544998 -32.125404
v 53.547081 0.002591 -37.666431
v 53.547081 -12.880049 -35.394855
v 61.532661 -6.438926 -36.531670
v 61.532661 -12.684714 -34.858101
v 53.547081 -6.538086 -37.094177
v 53.228714 6.868740 38.939705
v 53.228714 13.526232 37.155827
v 53.228714 0.002602 39.540417
v 53.228714 19.772840 34.243015
v 53.228714 -6.863559 38.939705
v 53.228714 25.418720 30.289747
v 53.228714 -13.521049 37.155834
v 53.228714 30.292345 25.416050
v 53.228703 -19.767672 34.242996
v 53.228714 34.245644 19.770164
v 53.228703 -25.413555 30.289673
v 53.228714 37.158474 13.523575
v 53.228703 -30.287174 25.416069
v 53.228714 38.942337 6.866058
v 53.228703 -34.240475 19.770172
v 53.228714 39.543064 -0.000059
v 53.228703 -37.153309 13.523582
v 53.228703 38.942337 -6.866184
v 53.228703 -38.937180 6.866071
v 53.228703 37.158466 -13.523694
v 53.228703 -39.537895 -0.000053
v 53.228703 34.245644 -19.770290
v 53.228703 -38.937176 -6.866196
v 53.228703 30.292332 -25.416168
v 53.228703 -37.153316 -13.523687
v 53.228703 25.418713 -30.289797
v 53.228687 -34.240467 -19.770290
v 53.228703 19.772816 -34.243084
v 53.228687 -30.287174 -25.416176
v 53.228703 13.526232 -37.155945
v 53.228687 -25.413540 -30.289816
v 53.228687 6.868727 -38.939808
v 53.228687 -19.767639 -34.243114
v 53.228687 0.002591 -39.540520
v 53.228687 -13.521030 -37.155930
v 53.228687 -6.863534 -38.939808
v 52.597008 0.002602 39.802753
v 52.597019 6.914289 39.198093
v 52.597008 -6.909121 39.198040
v 52.597008 13.615966 37.402363
v 52.597008 -13.610784 37.402348
v 52.597019 19.904007 34.470200
v 52.597008 -19.898849 34.470184
v 52.597008 25.587362 30.490702
v 52.596992 -25.582184 30.490644
v 52.597008 30.493317 25.584679
v 52.597008 -30.488148 25.584679
v 52.597008 34.472839 19.901342
v 52.597008 -34.467670 19.901350
v 52.597008 37.404995 13.613316
v 52.596992 -37.399841 13.613303
v 52.597008 39.200703 6.911620
v 52.597008 -39.195557 6.911620
v 52.597008 39.805408 -0.000059
v 52.596992 -39.800247 -0.000053
v 52.597008 39.200703 -6.911758
v 52.596992 -39.195530 -6.911746
v 52.597008 37.404987 -13.613416
v 52.596992 -37.399849 -13.613428
v 52.597008 34.472839 -19.901455
v 52.596992 -34.467670 -19.901455
v 52.597008 30.493317 -25.584810
v 52.596992 -30.488148 -25.584816
v 52.596992 25.587353 -30.490757
v 52.596981 -25.582186 -30.490789
v 52.597008 19.904007 -34.470291
v 52.596981 -19.898811 -34.470310
v 52.596992 13.615978 -37.402454
v 52.596992 -13.610759 -37.402466
v 52.596992 6.914289 -39.198170
v 52.596992 -6.909083 -39.198170
v 52.596992 0.002591 -39.802876
vn -0.7555 -0.6156 0.2241
vn -0.7555 -0.5674 0.3276
vn -0.3835 -0.7075 0.5936
vn -0.3835 -0.7998 0.4618
vn 1.0000 -0.0000 -0.0000
vn -1.0000 -0.0000 -0.0000
vn 0.7555 0.3276 0.5674
vn 0.7555 0.2241 0.6157
vn 0.7555 0.1138 0.6452
vn 0.7555 0.4211 0.5019
vn 0.7555 -0.0000 0.6552
vn -0.7555 -0.5019 -0.4211
vn -0.7555 -0.5674 -0.3276
vn -0.7555 -0.6551 -0.0000
vn -0.7555 -0.6452 0.1138
vn 0.7555 0.5674 0.3276
vn 0.7555 0.5019 0.4211
vn 0.7555 -0.6156 0.2241
vn 0.7555 -0.6452 0.1138
vn 0.7555 0.6157 0.2241
vn 0.7555 -0.2241 0.6157
vn 0.7554 -0.3276 0.5674
vn 0.7555 0.6452 0.1138
vn 0.7555 -0.4211 0.5019
vn 0.7555 -0.2241 -0.6156
vn 0.7555 -0.1138 -0.6452
vn 0.7555 -0.5019 0.4211
vn -0.7555 -0.3276 -0.5674
vn -0.7555 -0.4211 -0.5019
vn 0.7555 -0.5674 0.3276
vn 0.7555 -0.3276 -0.5674
vn 0.7555 0.5674 -0.3276
vn 0.7555 0.6157 -0.2241
vn -0.7555 -0.6452 -0.1138
vn 0.7555 0.5019 -0.4211
vn 0.7555 -0.6551 -0.0000
vn 0.7555 0.4211 -0.5019
vn 0.7555 -0.6452 -0.1138
vn 0.7555 -0.1138 0.6452
vn 0.7555 -0.6156 -0.2241
vn -0.7555 0.2241 -0.6157
vn -0.7555 0.1138 -0.6452
vn 0.7555 -0.5674 -0.3276
vn 0.7555 0.1138 -0.6452
vn 0.7555 0.2241 -0.6157
vn 0.7555 -0.5019 -0.4211
vn -0.7555 0.2241 0.6157
vn -0.7555 0.3276 0.5674
vn 0.7555 -0.4211 -0.5019
vn 0.7555 0.6452 -0.1138
vn -0.7555 -0.6156 -0.2241
vn -0.2126 -0.6281 -0.7485
vn -0.2126 -0.7485 -0.6281
vn -0.9859 0.1077 0.1283
vn -0.9859 0.0837 0.1451
vn 0.9859 -0.0000 0.1675
vn 0.9859 0.0291 0.1649
vn -0.9859 -0.0837 0.1451
vn -0.9859 -0.0573 0.1574
vn 0.9859 -0.0291 0.1649
vn 0.9859 0.0837 0.1451
vn 0.9859 0.1077 0.1283
vn -0.9859 0.1077 -0.1283
vn -0.9859 0.1283 -0.1077
vn -0.9859 0.0837 -0.1451
vn 0.9859 -0.0837 0.1451
vn 0.9859 -0.0573 0.1574
vn 0.9859 0.1283 0.1077
vn 0.9859 0.1451 0.0837
vn -0.9859 -0.1283 0.1077
vn -0.9859 -0.1451 0.0837
vn 0.9859 0.0573 -0.1574
vn 0.9859 0.0291 -0.1650
vn 0.9859 -0.1574 -0.0573
vn 0.9859 -0.1649 -0.0291
vn 0.9859 0.1574 0.0573
vn 0.9859 0.1649 0.0291
vn 0.9859 -0.1451 0.0837
vn 0.9859 -0.1283 0.1077
vn 0.9859 0.0837 -0.1451
vn 0.9859 -0.1574 0.0573
vn 0.9859 0.1649 -0.0291
vn 0.9859 0.1675 -0.0000
vn -0.9859 0.1574 0.0573
vn -0.9859 0.1451 0.0837
vn 0.9859 0.1574 -0.0573
vn 0.9859 -0.1077 0.1283
vn -0.9859 -0.1574 0.0573
vn -0.9859 0.1283 0.1077
vn 0.9859 0.1451 -0.0837
vn 0.9859 0.1283 -0.1077
vn 0.9859 0.1077 -0.1283
vn 0.9859 -0.1077 -0.1283
vn 0.9859 -0.1283 -0.1077
vn -0.9859 0.1649 0.0291
vn -0.9859 -0.1574 -0.0573
vn -0.9859 -0.1451 -0.0837
vn -0.9859 -0.0000 -0.1675
vn -0.9859 0.0291 -0.1650
vn -0.9859 0.1574 -0.0573
vn -0.9859 0.1649 -0.0291
vn -0.9859 0.0291 0.1649
vn -0.9859 -0.0000 0.1675
vn 0.9859 -0.0000 -0.1675
vn 0.9859 -0.0291 -0.1649
vn -0.9859 0.1675 -0.0000
vn 0.2125 0.9182 -0.3342
vn 0.2126 0.9623 -0.1697
vn -0.2126 0.4886 -0.8462
vn -0.2126 0.6281 -0.7485
vn 0.2126 0.9623 0.1697
vn 0.2125 0.9182 0.3342
vn -0.2126 0.3342 0.9182
vn -0.2125 0.4886 0.8462
vn 0.2126 -0.6281 -0.7485
vn 0.2126 -0.4886 -0.8462
vn -0.2126 0.6281 0.7485
vn 0.2125 0.4886 0.8462
vn 0.2126 0.3342 0.9182
vn -0.2126 0.7485 0.6281
vn 0.2126 -0.0000 -0.9771
vn 0.2126 0.1697 -0.9623
vn -0.2126 0.8462 0.4886
vn -0.2125 -0.7485 0.6281
vn -0.2126 -0.6281 0.7485
vn -0.2125 0.9182 0.3342
vn 0.2126 -0.9771 -0.0000
vn 0.2126 -0.9623 0.1697
vn -0.2126 0.9623 0.1697
vn 0.2125 -0.7485 0.6281
vn 0.2126 -0.6281 0.7485
vn -0.2126 0.9771 -0.0000
vn -0.2125 -0.3342 0.9182
vn -0.2125 -0.1697 0.9623
vn -0.2126 0.9623 -0.1697
vn -0.2126 -0.9771 -0.0000
vn -0.2126 -0.9623 0.1697
vn -0.2125 0.9182 -0.3342
vn 0.2126 0.9771 -0.0000
vn 0.2126 -0.9182 -0.3342
vn 0.2126 -0.9623 -0.1697
vn -0.2126 -0.9182 -0.3342
vn -0.2126 -0.9623 -0.1697
vn -0.2126 -0.0000 0.9771
vn -0.2126 0.1697 0.9623
vn -0.2126 -0.8462 -0.4886
vn 0.2126 0.7485 0.6281
vn 0.2126 0.6281 0.7485
vn -0.2126 -0.1697 -0.9623
vn -0.2125 -0.3342 -0.9182
vn 0.2126 0.1697 0.9623
vn 0.2126 0.8462 0.4886
vn 0.2125 -0.3342 -0.9182
vn -0.2126 -0.4886 -0.8462
vn 0.2126 -0.8462 -0.4886
vn -0.2126 -0.0000 -0.9771
vn -0.2126 0.1697 -0.9623
vn -0.2126 -0.9182 0.3342
vn -0.2126 -0.8462 0.4886
vn -0.2126 0.8462 -0.4886
vn -0.2126 0.7485 -0.6281
vn 0.3835 -0.4618 -0.7998
vn 0.3836 -0.5936 -0.7075
vn 0.3835 0.3159 0.8678
vn 0.3835 0.4618 0.7998
vn 0.3836 -0.7075 -0.5936
vn -0.3836 0.4618 -0.7998
vn -0.3835 0.3159 -0.8678
vn -0.3835 -0.3159 0.8678
vn -0.3835 -0.4618 0.7998
vn 0.3835 -0.7998 -0.4618
vn 0.3835 0.1604 -0.9095
vn 0.3836 -0.0000 -0.9235
vn 0.3835 0.5936 0.7075
vn 0.3835 0.7075 0.5936
vn -0.3835 0.3159 0.8678
vn -0.3836 0.1604 0.9095
vn 0.3835 -0.5936 0.7075
vn 0.3835 -0.7075 0.5936
vn 0.3835 -0.1604 -0.9095
vn 0.3836 -0.3159 -0.8678
vn 0.3835 0.5936 -0.7075
vn 0.3836 0.4618 -0.7998
vn 0.3836 -0.9095 0.1604
vn 0.3835 -0.9235 -0.0000
vn 0.3836 0.7075 -0.5936
vn 0.3835 -0.1604 0.9095
vn 0.3835 -0.3159 0.8678
vn 0.3835 0.7998 -0.4618
vn 0.3835 -0.7998 0.4618
vn 0.3835 -0.8678 0.3159
vn 0.3835 -0.9095 -0.1604
vn 0.3835 0.7998 0.4618
vn 0.3835 0.3159 -0.8678
vn -0.3835 -0.0000 0.9235
vn 0.3835 -0.4618 0.7998
vn 0.3835 0.9095 0.1604
vn 0.3835 0.9235 -0.0000
vn 0.3835 0.8678 0.3159
vn -0.3835 0.1604 -0.9095
vn -0.3836 -0.0000 -0.9235
vn 0.3835 -0.0000 0.9235
vn -0.3836 -0.7075 -0.5936
vn -0.3836 -0.5936 -0.7075
vn 0.3836 0.1604 0.9095
vn -0.3835 0.7998 0.4618
vn -0.3835 0.8678 0.3159
vn -0.3835 -0.4618 -0.7998
vn -0.3836 -0.3159 -0.8678
vn -0.3835 -0.7998 -0.4618
vn -0.7555 -0.5019 0.4211
vn 0.7555 0.3276 -0.5674
vn -0.7555 -0.4211 0.5019
vn -0.7554 -0.3276 0.5674
vn -0.7555 0.4211 0.5019
vn -0.7555 0.5019 0.4211
vn -0.7555 -0.1138 0.6452
vn -0.7555 -0.0000 0.6552
vn -0.7555 0.1138 0.6452
vn -0.7555 -0.2241 0.6157
vn -0.7555 0.6157 -0.2241
vn -0.7555 0.5674 -0.3276
vn -0.7555 0.6452 0.1138
vn -0.7555 0.6157 0.2241
vn -0.7555 0.6552 -0.0000
vn -0.7555 0.6452 -0.1138
vn -0.7555 0.4211 -0.5019
vn -0.7555 0.5019 -0.4211
vn 0.7555 -0.0000 -0.6551
vn 0.7555 0.6552 -0.0000
vn -0.7555 0.3276 -0.5674
vn -0.7555 0.5674 0.3276
vn -0.7555 -0.0000 -0.6551
vn -0.7555 -0.1138 -0.6452
vn -0.7555 -0.2241 -0.6156
vn 0.9859 -0.0573 -0.1574
vn 0.9859 -0.1675 -0.0000
vn 0.9859 -0.1649 0.0291
vn -0.9859 0.0573 0.1574
vn -0.9859 -0.0837 -0.1451
vn -0.9859 -0.0573 -0.1574
vn 0.9859 0.0573 0.1574
vn -0.9859 -0.0291 0.1649
vn 0.9859 -0.1451 -0.0837
vn -0.9859 -0.1077 0.1283
vn 0.9859 -0.0837 -0.1451
vn -0.9859 -0.0291 -0.1649
vn -0.9859 -0.1649 0.0291
vn -0.9859 -0.1675 -0.0000
vn -0.9859 -0.1649 -0.0291
vn 0.9859 0.0838 0.1451
vn -0.9859 -0.1650 -0.0291
vn -0.9859 -0.1077 -0.1283
vn -0.9859 -0.1283 -0.1077
vn -0.9859 0.1451 -0.0837
vn -0.9859 0.0573 -0.1574
vn 0.2126 -0.0000 0.9771
vn 0.2125 -0.1697 0.9623
vn 0.2125 -0.3342 0.9182
vn 0.2126 -0.4886 0.8462
vn -0.2126 -0.4886 0.8462
vn 0.2126 -0.8462 0.4886
vn 0.2126 -0.9182 0.3342
vn -0.2126 0.3342 -0.9182
vn 0.2126 0.8462 -0.4886
vn 0.2126 0.7485 -0.6281
vn 0.2126 0.6281 -0.7485
vn 0.2126 -0.7485 -0.6281
vn 0.2126 0.3342 -0.9182
vn 0.2126 0.4886 -0.8462
vn 0.2126 -0.1697 -0.9623
vn -0.3835 -0.1604 0.9095
vn -0.3835 0.4618 0.7998
vn 0.3836 -0.8678 -0.3159
vn -0.3835 -0.1604 -0.9095
vn -0.3836 -0.8678 -0.3159
vn -0.3835 -0.9095 -0.1604
vn -0.3836 0.7075 -0.5936
vn -0.3835 0.5936 -0.7075
vn -0.3835 -0.9235 -0.0000
vn 0.3836 0.9095 -0.1604
vn -0.3835 0.9095 0.1604
vn -0.3835 0.9235 -0.0000
vn -0.3835 -0.8678 0.3159
vn -0.3836 -0.9095 0.1604
vn -0.3835 0.8678 -0.3159
vn -0.3835 0.7998 -0.4618
vn -0.3835 -0.5936 0.7075
vn -0.3836 0.9095 -0.1604
vn 0.3835 0.8678 -0.3159
vn -0.3835 0.7075 0.5936
vn -0.3835 0.5936 0.7075
vt 0.130048 0.500168
vt 0.128684 0.510449
vt 0.127934 0.510216
vt 0.104781 0.428471
vt 0.092620 0.425341
vt 0.092908 0.424317
vt 0.091280 0.540020
vt 0.083358 0.549162
vt 0.093584 0.546544
vt 0.055963 0.440028
vt 0.050098 0.450229
vt 0.046524 0.444520
vt 0.096714 0.441664
vt 0.101841 0.452351
vt 0.105724 0.446687
vt 0.064255 0.542068
vt 0.072770 0.549685
vt 0.073220 0.542967
vt 0.106851 0.530822
vt 0.102998 0.542080
vt 0.111357 0.535981
vt 0.056047 0.539665
vt 0.062816 0.548417
vt 0.058416 0.446538
vt 0.066184 0.437477
vt 0.117975 0.516569
vt 0.118463 0.528414
vt 0.124028 0.519762
vt 0.041431 0.532362
vt 0.045632 0.541991
vt 0.048132 0.536583
vt 0.113042 0.524190
vt 0.067241 0.444322
vt 0.076587 0.436955
vt 0.054088 0.545747
vt 0.035377 0.527216
vt 0.038019 0.537274
vt 0.031064 0.531454
vt 0.108827 0.458120
vt 0.076333 0.443854
vt 0.086901 0.438365
vt 0.026299 0.513819
vt 0.025201 0.524395
vt 0.030243 0.520937
vt 0.022465 0.489893
vt 0.016176 0.498469
vt 0.022317 0.498048
vt 0.113626 0.453289
vt 0.114622 0.465033
vt 0.120260 0.461118
vt 0.026953 0.474542
vt 0.018249 0.480246
vt 0.021659 0.471840
vt 0.125345 0.470046
vt 0.122124 0.481403
vt 0.128713 0.479734
vt 0.016399 0.489222
vt 0.099482 0.536162
vt 0.093918 0.447925
vt 0.024001 0.481959
vt 0.023606 0.506129
vt 0.020676 0.516352
vt 0.017627 0.507630
vt 0.123517 0.490327
vt 0.119119 0.472865
vt 0.053846 0.546412
vt 0.062645 0.549152
vt 0.045332 0.542595
vt 0.083483 0.550044
vt 0.072716 0.550501
vt 0.106165 0.446038
vt 0.131104 0.489873
vt 0.130328 0.489897
vt 0.037630 0.537823
vt 0.130825 0.500285
vt 0.030586 0.531948
vt 0.103404 0.542775
vt 0.024608 0.524819
vt 0.119101 0.528901
vt 0.111900 0.536567
vt 0.066087 0.436664
vt 0.124762 0.520107
vt 0.097025 0.440927
vt 0.076664 0.436144
vt 0.017547 0.480035
vt 0.129499 0.479524
vt 0.021019 0.471527
vt 0.026213 0.464137
vt 0.093866 0.547312
vt 0.126063 0.469733
vt 0.038428 0.450360
vt 0.046071 0.443858
vt 0.114198 0.452685
vt 0.120922 0.460666
vt 0.015700 0.489162
vt 0.008660 0.463815
vt 0.014314 0.452200
vt 0.007727 0.463409
vt 0.135967 0.522111
vt 0.142995 0.511796
vt 0.139132 0.523459
vt 0.142384 0.475730
vt 0.141294 0.488055
vt 0.144604 0.487733
vt 0.121993 0.446232
vt 0.132182 0.453539
vt 0.129395 0.455397
vt 0.138197 0.464201
vt 0.139136 0.476632
vt 0.036663 0.549922
vt 0.045502 0.558802
vt 0.034746 0.552709
vt 0.027526 0.542399
vt 0.025146 0.544865
vt 0.124476 0.443909
vt 0.133148 0.534315
vt 0.122916 0.541605
vt 0.125376 0.543962
vt 0.102850 0.432587
vt 0.104305 0.429458
vt 0.017020 0.535470
vt 0.013731 0.523336
vt 0.010633 0.524836
vt 0.035643 0.438408
vt 0.044629 0.429404
vt 0.033635 0.435587
vt 0.115983 0.552096
vt 0.103825 0.555340
vt 0.105298 0.558434
vt 0.019807 0.533462
vt 0.080575 0.423363
vt 0.091780 0.428602
vt 0.081444 0.564966
vt 0.092752 0.559493
vt 0.081181 0.561625
vt 0.113983 0.549317
vt 0.069171 0.565005
vt 0.069469 0.561672
vt 0.113110 0.438463
vt 0.115109 0.435720
vt 0.057094 0.562907
vt 0.046940 0.555736
vt 0.135130 0.465636
vt 0.012869 0.465742
vt 0.016037 0.453393
vt 0.009669 0.464296
vt 0.130370 0.532486
vt 0.024056 0.443772
vt 0.009505 0.512294
vt 0.006211 0.513265
vt 0.007231 0.500744
vt 0.003814 0.501095
vt 0.057972 0.559720
vt 0.093657 0.562760
vt 0.068976 0.566992
vt 0.081560 0.566007
vt 0.081629 0.567005
vt 0.024383 0.545624
vt 0.033557 0.554399
vt 0.034114 0.553592
vt 0.105780 0.559417
vt 0.117182 0.553730
vt 0.106186 0.560287
vt 0.145834 0.499880
vt 0.144988 0.512253
vt 0.146786 0.499923
vt 0.004442 0.476006
vt 0.003461 0.475781
vt 0.144028 0.512055
vt 0.141011 0.524254
vt 0.140107 0.523879
vt 0.134912 0.535448
vt 0.005197 0.513556
vt 0.008780 0.525737
vt 0.004212 0.513843
vt 0.126154 0.544691
vt 0.134034 0.534903
vt 0.105188 0.427588
vt 0.115757 0.434834
vt 0.116319 0.434056
vt 0.116630 0.552963
vt 0.126855 0.545368
vt 0.055856 0.423325
vt 0.068346 0.422292
vt 0.056067 0.424280
vt 0.094202 0.564749
vt 0.133069 0.452913
vt 0.140072 0.463379
vt 0.133875 0.452370
vt 0.093938 0.563797
vt 0.068271 0.421340
vt 0.032441 0.433869
vt 0.044191 0.428412
vt 0.033013 0.434699
vt 0.043767 0.427530
vt 0.143436 0.475438
vt 0.146622 0.487518
vt 0.144360 0.475187
vt 0.023274 0.442991
vt 0.022580 0.442305
vt 0.002731 0.501228
vt 0.001499 0.488542
vt 0.001770 0.501330
vt 0.002486 0.488608
vt 0.009679 0.525318
vt 0.080755 0.421342
vt 0.093143 0.423371
vt 0.056856 0.563913
vt 0.044640 0.560659
vt 0.056586 0.564874
vt 0.015107 0.452739
vt 0.016138 0.536125
vt 0.125242 0.443165
vt 0.145664 0.487597
vt 0.056337 0.425297
vt 0.068424 0.423333
vt 0.045055 0.559782
vt 0.139162 0.463777
vt 0.144801 0.499809
vt 0.005506 0.476273
vt 0.121394 0.508204
vt 0.036178 0.461017
vt 0.031550 0.456614
vt 0.085310 0.445075
vt 0.123258 0.499377
vt 0.082397 0.542218
vt 0.030961 0.467773
vt 0.042678 0.455266
vt 0.031047 0.456148
vt 0.025654 0.463750
vt 0.020031 0.516648
vt 0.016960 0.507790
vt 0.015464 0.498532
vt 0.055641 0.439139
vt 0.037913 0.449800
vt 0.087088 0.437603
vt 0.007025 0.488888
vt 0.003598 0.488656
vt 0.068698 0.426620
vt 0.139709 0.511057
vt 0.008914 0.477093
vt 0.141426 0.499611
vt 0.026478 0.446130
vt 0.080294 0.426671
vt 0.046041 0.432532
vt 0.057198 0.428572
vt 0.018887 0.455358
vt 0.125976 0.442487
vt 0.080674 0.422302
vt 0.069078 0.566058
vt 0.015344 0.536688
vt 0.023693 0.546331
s 1
f 29/1/1 139/2/2 25/3/2
f 227/4/3 195/5/4 229/6/4
f 257/7/5 254/8/5 255/9/5
f 72/10/6 70/11/6 68/12/6
f 309/13/5 303/14/5 305/15/5
f 262/16/5 256/17/5 258/18/5
f 263/19/5 261/20/5 265/21/5
f 266/22/5 260/23/5 262/16/5
f 323/24/5 321/25/5 324/10/5
f 9/20/6 11/19/6 13/21/6
f 271/26/5 269/27/5 273/28/5
f 274/29/5 268/30/5 270/31/5
f 267/32/5 265/21/5 269/27/5
f 319/33/5 317/34/5 321/25/5
f 14/22/6 8/23/6 12/35/6
f 26/36/6 20/37/6 24/38/6
f 53/15/6 47/39/6 51/14/6
f 315/40/5 313/41/5 317/34/5
f 286/42/5 280/43/5 282/44/5
f 17/27/6 19/26/6 21/28/6
f 298/45/5 292/46/5 294/47/5
f 301/48/5 295/49/5 297/50/5
f 54/51/6 48/52/6 52/53/6
f 293/54/5 287/55/5 289/56/5
f 46/45/6 40/46/6 44/57/6
f 3/9/6 7/58/6 9/20/6
f 277/3/5 271/26/5 273/28/5
f 313/41/5 307/59/5 309/13/5
f 259/58/5 255/9/5 261/20/5
f 270/31/5 264/35/5 266/22/5
f 22/29/6 16/30/6 20/37/6
f 302/60/5 296/57/5 298/45/5
f 38/61/6 32/62/6 36/63/6
f 37/56/6 31/64/6 35/55/6
f 45/50/6 39/65/6 43/49/6
f 10/16/6 4/17/6 8/23/6
f 366/66/7 260/23/8 264/35/7
f 363/67/8 256/17/9 260/23/8
f 370/68/10 264/35/7 268/30/10
f 367/69/11 256/17/9 362/70/9
f 167/71/12 49/48/13 53/15/12
f 37/56/14 147/72/15 33/73/15
f 276/38/16 374/74/17 272/37/17
f 395/75/18 285/73/19 281/1/18
f 280/43/20 378/76/16 276/38/16
f 375/77/21 265/21/22 261/20/21
f 284/62/23 382/78/20 280/43/20
f 383/79/24 265/21/22 379/80/22
f 317/34/25 430/81/26 321/25/26
f 387/82/27 269/27/24 383/79/24
f 61/41/28 171/83/29 57/13/29
f 387/82/27 277/3/30 273/28/27
f 313/41/31 431/84/25 317/34/25
f 391/2/30 281/1/18 277/3/30
f 402/85/32 296/57/33 300/52/32
f 41/54/34 151/86/14 37/56/14
f 406/87/35 300/52/32 304/53/35
f 399/72/19 289/56/36 285/73/19
f 308/88/37 406/87/35 304/53/35
f 403/86/36 293/54/38 289/56/36
f 375/77/21 255/9/39 371/89/39
f 407/90/38 297/50/40 293/54/38
f 64/91/41 170/92/42 68/12/42
f 415/93/43 297/50/40 411/94/40
f 422/92/44 316/91/45 320/12/44
f 419/71/46 301/48/43 415/93/43
f 8/23/47 114/66/48 12/35/48
f 419/71/46 309/13/49 305/15/46
f 33/73/15 143/75/1 29/1/1
f 423/83/49 313/41/31 309/13/49
f 398/95/33 292/46/50 296/57/33
f 45/50/51 155/90/34 41/54/34
f 497/96/52 349/97/53 348/98/52
f 120/99/54 184/100/55 186/101/54
f 435/102/56 361/103/57 433/104/57
f 125/105/58 187/106/59 121/107/59
f 437/108/60 365/109/56 435/102/56
f 436/100/61 372/99/62 438/101/62
f 160/110/63 204/111/64 206/112/63
f 164/113/65 206/112/63 208/114/65
f 377/105/66 439/106/67 441/115/66
f 440/116/68 380/117/69 442/118/69
f 133/119/70 195/5/71 193/120/70
f 462/121/72 424/122/73 464/123/73
f 409/124/74 455/125/75 457/126/74
f 444/127/76 388/128/77 446/129/77
f 447/5/78 385/119/79 445/120/79
f 460/114/80 420/130/72 462/121/72
f 449/131/81 389/132/78 447/5/78
f 450/133/82 392/134/83 396/135/82
f 132/136/84 190/118/85 192/127/84
f 452/137/86 396/135/82 400/138/86
f 381/139/87 441/115/66 443/140/87
f 137/132/71 197/131/88 195/5/71
f 128/117/85 188/116/89 190/118/85
f 454/141/90 408/142/91 456/111/91
f 439/106/67 369/143/60 437/108/60
f 456/111/91 412/110/92 458/112/92
f 421/144/93 461/145/94 463/146/93
f 458/112/92 416/113/80 460/114/80
f 440/116/68 372/99/62 376/147/68
f 136/128/95 192/127/84 194/129/95
f 157/124/96 207/148/97 205/126/96
f 176/149/98 212/123/99 214/150/98
f 200/137/100 144/135/101 198/133/101
f 109/103/102 183/102/103 181/104/102
f 466/150/104 432/151/105 468/152/105
f 452/137/86 404/153/90 454/141/90
f 196/154/106 136/128/95 194/129/95
f 85/155/107 236/156/108 84/157/108
f 498/158/109 340/159/110 496/160/110
f 232/161/111 81/162/112 82/163/111
f 472/164/113 329/165/114 328/166/113
f 96/98/115 247/167/116 95/168/116
f 474/169/114 330/170/117 329/165/114
f 77/165/118 220/164/119 76/166/119
f 476/171/117 331/172/120 330/170/117
f 252/173/121 91/174/122 92/175/121
f 480/176/123 331/172/120 478/177/120
f 357/178/124 477/179/125 358/180/125
f 482/181/126 332/182/123 480/176/123
f 101/183/127 233/184/128 235/185/127
f 484/161/129 333/162/126 482/181/126
f 105/178/130 225/179/131 227/4/130
f 484/161/129 335/186/132 334/163/129
f 473/187/133 325/188/134 360/189/133
f 488/156/135 335/186/132 486/190/132
f 353/183/136 485/184/137 354/191/137
f 488/156/135 337/155/138 336/157/135
f 236/156/108 83/186/139 84/157/108
f 99/192/140 237/193/141 239/194/140
f 351/192/142 489/193/143 352/195/143
f 469/196/144 327/197/145 326/198/144
f 493/199/146 351/192/142 350/200/146
f 79/172/147 224/171/148 78/170/148
f 503/201/149 346/202/150 345/203/149
f 220/164/119 75/197/151 76/166/119
f 228/176/152 79/172/147 80/182/152
f 95/168/116 249/204/153 94/202/153
f 499/167/154 348/98/52 347/168/154
f 99/192/140 241/199/155 98/200/155
f 325/188/134 469/196/144 326/198/144
f 504/173/156 343/174/157 502/205/157
f 355/206/158 481/6/159 356/207/159
f 492/208/160 339/209/161 338/210/160
f 499/167/162 463/146/163 497/96/163
f 472/164/164 436/100/165 474/169/165
f 497/96/163 461/145/166 495/211/166
f 208/114/167 248/212/168 210/121/168
f 221/187/169 189/115/170 223/213/170
f 495/211/166 459/148/171 493/199/171
f 464/123/172 504/173/173 502/205/172
f 476/171/174 440/116/175 478/177/175
f 220/164/176 181/104/177 218/214/177
f 477/179/178 445/120/179 443/140/178
f 468/152/180 501/204/181 503/201/180
f 466/150/173 503/201/180 504/173/173
f 458/112/182 498/158/183 496/160/182
f 485/184/184 453/215/185 451/216/184
f 456/111/186 496/160/182 494/217/186
f 471/218/187 439/106/188 437/108/187
f 454/141/189 494/217/186 492/208/189
f 481/6/190 449/131/191 447/5/190
f 489/193/192 453/215/185 487/185/185
f 479/4/179 447/5/190 445/120/179
f 440/116/175 480/176/193 478/177/175
f 462/121/194 502/205/172 500/212/194
f 218/214/177 183/102/195 217/196/195
f 475/213/196 443/140/178 441/115/196
f 446/129/197 486/190/198 484/161/197
f 473/187/188 441/115/196 439/106/188
f 444/127/199 484/161/197 482/181/199
f 212/123/200 252/173/201 214/150/201
f 442/118/193 482/181/199 480/176/193
f 469/196/202 437/108/187 435/102/202
f 209/145/203 245/96/204 243/211/203
f 470/214/205 435/102/202 433/104/205
f 190/118/206 230/181/207 192/127/207
f 472/164/164 433/104/205 434/219/164
f 213/220/208 249/204/209 247/167/208
f 207/148/210 243/211/203 241/199/210
f 283/64/5 281/1/5 285/73/5
f 6/18/6 2/8/6 4/17/6
f 49/48/6 43/49/6 47/39/6
f 281/1/5 275/221/5 277/3/5
f 290/61/5 292/46/5 288/63/5
f 13/21/6 15/32/6 17/27/6
f 314/222/5 316/91/5 312/223/5
f 61/41/6 55/59/6 59/224/6
f 282/44/5 276/38/5 278/36/5
f 25/3/6 19/26/6 23/221/6
f 290/61/5 284/62/5 286/42/5
f 29/1/6 23/221/6 27/225/6
f 30/44/6 24/38/6 28/43/6
f 29/1/6 31/64/6 33/73/6
f 322/11/5 324/10/5 320/12/5
f 65/34/6 67/33/6 69/25/6
f 41/54/6 35/55/6 39/65/6
f 40/46/6 38/61/6 36/63/6
f 64/91/6 62/222/6 60/223/6
f 5/7/6 2/8/6 1/226/6
f 60/223/6 58/227/6 56/88/6
f 34/42/6 28/43/6 32/62/6
f 50/60/6 44/57/6 48/52/6
f 61/41/6 63/40/6 65/34/6
f 56/88/6 54/51/6 52/53/6
f 305/15/5 299/39/5 301/48/5
f 306/51/5 300/52/5 302/60/5
f 57/13/6 51/14/6 55/59/6
f 18/31/6 12/35/6 16/30/6
f 278/36/5 272/37/5 274/29/5
f 310/227/5 312/223/5 308/88/5
f 69/25/6 71/24/6 72/10/6
f 385/119/79 443/140/87 445/120/79
f 322/11/5 316/91/5 318/228/5
f 70/11/6 64/91/6 68/12/6
f 258/18/5 254/8/5 253/226/5
f 297/50/5 291/65/5 293/54/5
f 289/56/5 283/64/5 285/73/5
f 25/3/2 135/82/211 21/28/211
f 316/91/45 414/229/212 312/223/212
f 131/79/213 13/21/214 17/27/213
f 57/13/29 167/71/12 53/15/12
f 16/30/215 122/74/216 20/37/216
f 119/89/217 2/8/218 3/9/217
f 115/69/218 4/17/219 2/8/218
f 123/77/220 3/9/217 9/20/220
f 312/223/212 410/230/37 308/88/37
f 135/82/211 17/27/213 21/28/211
f 44/57/221 150/85/222 48/52/222
f 32/62/223 130/78/224 134/231/223
f 36/63/225 134/231/223 138/232/225
f 374/74/17 268/30/10 272/37/17
f 40/46/226 138/232/225 142/233/226
f 56/88/227 154/87/228 158/230/227
f 40/46/226 146/95/221 44/57/221
f 163/93/13 45/50/51 49/48/13
f 371/89/39 254/8/11 367/69/11
f 321/25/26 426/234/229 324/10/229
f 288/63/230 386/231/23 284/62/23
f 48/52/222 154/87/228 52/53/228
f 13/21/214 123/77/220 9/20/220
f 60/223/231 158/230/227 162/229/231
f 24/38/232 122/74/216 126/76/232
f 64/91/41 162/229/231 166/235/41
f 4/17/219 111/67/47 8/23/47
f 12/35/48 118/68/215 16/30/215
f 426/234/229 320/12/44 324/10/229
f 68/12/42 174/234/233 72/10/233
f 292/46/50 390/232/230 288/63/230
f 69/25/234 174/234/233 178/81/234
f 28/43/224 126/76/232 130/78/224
f 65/34/235 178/81/234 179/84/235
f 61/41/28 179/84/235 175/236/28
f 468/152/105 429/237/236 467/238/236
f 453/215/237 397/239/238 451/216/238
f 116/240/55 182/219/239 184/100/55
f 173/241/240 215/238/241 213/220/240
f 433/104/57 364/242/242 434/219/242
f 117/143/243 187/106/59 185/108/243
f 188/116/89 120/99/54 186/101/54
f 306/51/5 308/88/5 304/53/5
f 461/145/94 413/243/244 459/148/244
f 129/139/245 189/115/58 125/105/58
f 451/216/238 393/244/81 449/131/81
f 133/119/70 191/140/245 129/139/245
f 465/220/246 421/144/93 463/146/93
f 459/148/244 409/124/74 457/126/74
f 177/237/241 216/152/247 215/238/241
f 198/133/101 140/134/106 196/154/106
f 405/245/75 453/215/237 455/125/75
f 141/244/88 199/216/248 197/131/88
f 442/118/69 384/136/76 444/127/76
f 145/239/248 201/215/249 199/216/248
f 467/238/236 425/241/246 465/220/246
f 153/245/250 201/215/249 149/246/249
f 434/219/242 368/240/251 436/100/61
f 157/124/96 203/125/252 153/245/250
f 112/242/239 181/104/102 182/219/239
f 169/144/253 209/145/254 165/247/254
f 156/142/64 202/141/255 204/111/64
f 161/243/97 209/145/254 207/148/97
f 168/130/256 208/114/65 210/121/256
f 113/109/103 185/108/243 183/102/103
f 464/123/73 428/149/104 466/150/104
f 169/144/253 213/220/240 211/146/253
f 172/122/99 210/121/256 212/123/99
f 202/141/255 148/138/100 200/137/100
f 180/151/247 214/150/98 216/152/247
f 448/154/83 388/128/77 392/134/83
f 75/197/151 217/196/257 74/198/257
f 83/186/139 232/161/111 82/163/111
f 73/188/258 217/196/257 219/218/258
f 108/189/259 219/218/258 221/187/259
f 496/160/110 339/209/161 494/217/161
f 107/248/260 221/187/259 223/213/260
f 356/207/159 479/4/124 357/178/124
f 106/180/131 223/213/260 225/179/131
f 354/191/137 483/249/158 355/206/158
f 359/248/261 473/187/133 360/189/133
f 490/250/138 338/210/160 337/155/138
f 104/207/262 227/4/130 229/6/262
f 349/97/53 493/199/146 350/200/146
f 103/206/263 229/6/262 231/249/263
f 230/181/112 80/182/152 81/162/112
f 102/191/128 231/249/263 233/184/128
f 504/173/156 345/203/149 344/175/156
f 358/180/125 475/213/261 359/248/261
f 500/212/264 343/174/157 342/251/264
f 100/195/141 235/185/127 237/193/141
f 86/210/265 238/250/107 85/155/107
f 352/195/143 487/185/136 353/183/136
f 87/209/266 240/208/265 86/210/265
f 501/204/150 347/168/154 346/202/150
f 244/160/267 87/209/266 88/159/267
f 98/200/155 243/211/268 97/97/268
f 472/164/113 327/197/145 470/214/145
f 97/97/268 245/96/115 96/98/115
f 248/212/269 89/252/270 90/251/269
f 78/170/148 222/169/118 77/165/118
f 91/174/122 248/212/269 90/251/269
f 500/212/264 341/252/109 498/158/109
f 246/158/270 88/159/267 89/252/270
f 94/202/153 251/201/271 93/203/271
f 93/203/271 252/173/121 92/175/121
f 217/196/195 185/108/272 219/218/272
f 184/100/273 220/164/176 222/169/273
f 493/199/171 457/126/274 491/194/274
f 460/114/183 500/212/194 498/158/183
f 214/150/201 251/201/275 216/152/275
f 211/146/204 247/167/208 245/96/204
f 216/152/275 249/204/209 215/238/209
f 205/126/276 241/199/210 239/194/276
f 210/121/168 250/205/200 212/123/200
f 237/193/277 205/126/276 239/194/276
f 204/111/278 244/160/279 206/112/279
f 201/215/280 237/193/277 235/185/280
f 486/190/198 450/133/281 488/156/281
f 194/129/282 234/190/283 196/154/283
f 229/6/4 197/131/284 231/249/284
f 231/249/284 199/216/285 233/184/285
f 206/112/279 246/158/167 208/114/167
f 474/169/165 438/101/174 476/171/174
f 200/137/286 240/208/287 202/141/287
f 223/213/170 191/140/288 225/179/288
f 200/137/286 236/156/289 238/250/286
f 225/179/288 193/120/3 227/4/3
f 198/133/289 234/190/283 236/156/289
f 488/156/281 452/137/290 490/250/290
f 192/127/207 232/161/282 194/129/282
f 233/184/285 201/215/280 235/185/280
f 483/249/191 451/216/184 449/131/191
f 219/218/272 187/106/169 221/187/169
f 452/137/290 492/208/189 490/250/290
f 202/141/287 242/217/278 204/111/278
f 188/116/291 228/176/206 190/118/206
f 489/193/192 457/126/274 455/125/192
f 188/116/291 224/171/292 226/177/291
f 186/101/292 222/169/273 224/171/292
f 501/204/181 465/220/162 499/167/162
f 29/1/1 143/75/1 139/2/2
f 227/4/3 193/120/3 195/5/4
f 257/7/5 253/226/5 254/8/5
f 72/10/6 71/24/6 70/11/6
f 309/13/5 307/59/5 303/14/5
f 262/16/5 260/23/5 256/17/5
f 263/19/5 259/58/5 261/20/5
f 266/22/5 264/35/5 260/23/5
f 323/24/5 319/33/5 321/25/5
f 9/20/6 7/58/6 11/19/6
f 271/26/5 267/32/5 269/27/5
f 274/29/5 272/37/5 268/30/5
f 267/32/5 263/19/5 265/21/5
f 319/33/5 315/40/5 317/34/5
f 14/22/6 10/16/6 8/23/6
f 26/36/6 22/29/6 20/37/6
f 53/15/6 49/48/6 47/39/6
f 315/40/5 311/224/5 313/41/5
f 286/42/5 284/62/5 280/43/5
f 17/27/6 15/32/6 19/26/6
f 298/45/5 296/57/5 292/46/5
f 301/48/5 299/39/5 295/49/5
f 54/51/6 50/60/6 48/52/6
f 293/54/5 291/65/5 287/55/5
f 46/45/6 42/47/6 40/46/6
f 3/9/6 5/7/6 7/58/6
f 277/3/5 275/221/5 271/26/5
f 313/41/5 311/224/5 307/59/5
f 259/58/5 257/7/5 255/9/5
f 270/31/5 268/30/5 264/35/5
f 22/29/6 18/31/6 16/30/6
f 302/60/5 300/52/5 296/57/5
f 38/61/6 34/42/6 32/62/6
f 37/56/6 33/73/6 31/64/6
f 45/50/6 41/54/6 39/65/6
f 10/16/6 6/18/6 4/17/6
f 366/66/7 363/67/8 260/23/8
f 363/67/8 362/70/9 256/17/9
f 370/68/10 366/66/7 264/35/7
f 367/69/11 254/8/11 256/17/9
f 167/71/12 163/93/13 49/48/13
f 37/56/14 151/86/14 147/72/15
f 276/38/16 378/76/16 374/74/17
f 395/75/18 399/72/19 285/73/19
f 280/43/20 382/78/20 378/76/16
f 375/77/21 379/80/22 265/21/22
f 284/62/23 386/231/23 382/78/20
f 383/79/24 269/27/24 265/21/22
f 317/34/25 431/84/25 430/81/26
f 387/82/27 273/28/27 269/27/24
f 61/41/28 175/236/28 171/83/29
f 387/82/27 391/2/30 277/3/30
f 313/41/31 427/236/31 431/84/25
f 391/2/30 395/75/18 281/1/18
f 402/85/32 398/95/33 296/57/33
f 41/54/34 155/90/34 151/86/14
f 406/87/35 402/85/32 300/52/32
f 399/72/19 403/86/36 289/56/36
f 308/88/37 410/230/37 406/87/35
f 403/86/36 407/90/38 293/54/38
f 375/77/21 261/20/21 255/9/39
f 407/90/38 411/94/40 297/50/40
f 64/91/41 166/235/41 170/92/42
f 415/93/43 301/48/43 297/50/40
f 422/92/44 418/235/45 316/91/45
f 419/71/46 305/15/46 301/48/43
f 8/23/47 111/67/47 114/66/48
f 419/71/46 423/83/49 309/13/49
f 33/73/15 147/72/15 143/75/1
f 423/83/49 427/236/31 313/41/31
f 398/95/33 394/233/50 292/46/50
f 45/50/51 159/94/51 155/90/34
f 497/96/52 495/211/53 349/97/53
f 120/99/54 116/240/55 184/100/55
f 435/102/56 365/109/56 361/103/57
f 125/105/58 189/115/58 187/106/59
f 437/108/60 369/143/60 365/109/56
f 436/100/61 368/240/251 372/99/62
f 160/110/63 156/142/64 204/111/64
f 164/113/65 160/110/63 206/112/63
f 377/105/66 373/107/67 439/106/67
f 440/116/68 376/147/68 380/117/69
f 133/119/70 137/132/71 195/5/71
f 462/121/72 420/130/72 424/122/73
f 409/124/74 405/245/75 455/125/75
f 444/127/76 384/136/76 388/128/77
f 447/5/78 389/132/78 385/119/79
f 460/114/80 416/113/80 420/130/72
f 449/131/81 393/244/81 389/132/78
f 450/133/82 448/154/83 392/134/83
f 132/136/84 128/117/85 190/118/85
f 452/137/86 450/133/82 396/135/82
f 381/139/87 377/105/66 441/115/66
f 137/132/71 141/244/88 197/131/88
f 128/117/85 124/147/89 188/116/89
f 454/141/90 404/153/90 408/142/91
f 439/106/67 373/107/67 369/143/60
f 456/111/91 408/142/91 412/110/92
f 421/144/93 417/247/94 461/145/94
f 458/112/92 412/110/92 416/113/80
f 440/116/68 438/101/62 372/99/62
f 136/128/95 132/136/84 192/127/84
f 157/124/96 161/243/97 207/148/97
f 176/149/98 172/122/99 212/123/99
f 200/137/100 148/138/100 144/135/101
f 109/103/102 113/109/103 183/102/103
f 466/150/104 428/149/104 432/151/105
f 452/137/86 400/138/86 404/153/90
f 196/154/106 140/134/106 136/128/95
f 85/155/107 238/250/107 236/156/108
f 498/158/109 341/252/109 340/159/110
f 232/161/111 230/181/112 81/162/112
f 472/164/113 474/169/114 329/165/114
f 96/98/115 245/96/115 247/167/116
f 474/169/114 476/171/117 330/170/117
f 77/165/118 222/169/118 220/164/119
f 476/171/117 478/177/120 331/172/120
f 252/173/121 250/205/122 91/174/122
f 480/176/123 332/182/123 331/172/120
f 357/178/124 479/4/124 477/179/125
f 482/181/126 333/162/126 332/182/123
f 101/183/127 102/191/128 233/184/128
f 484/161/129 334/163/129 333/162/126
f 105/178/130 106/180/131 225/179/131
f 484/161/129 486/190/132 335/186/132
f 473/187/133 471/218/134 325/188/134
f 488/156/135 336/157/135 335/186/132
f 353/183/136 487/185/136 485/184/137
f 488/156/135 490/250/138 337/155/138
f 236/156/108 234/190/139 83/186/139
f 99/192/140 100/195/141 237/193/141
f 351/192/142 491/194/142 489/193/143
f 469/196/144 470/214/145 327/197/145
f 493/199/146 491/194/142 351/192/142
f 79/172/147 226/177/147 224/171/148
f 503/201/149 501/204/150 346/202/150
f 220/164/119 218/214/151 75/197/151
f 228/176/152 226/177/147 79/172/147
f 95/168/116 247/167/116 249/204/153
f 499/167/154 497/96/52 348/98/52
f 99/192/140 239/194/140 241/199/155
f 325/188/134 471/218/134 469/196/144
f 504/173/156 344/175/156 343/174/157
f 355/206/158 483/249/158 481/6/159
f 492/208/160 494/217/161 339/209/161
f 499/167/162 465/220/162 463/146/163
f 472/164/164 434/219/164 436/100/165
f 497/96/163 463/146/163 461/145/166
f 208/114/167 246/158/167 248/212/168
f 221/187/169 187/106/169 189/115/170
f 495/211/166 461/145/166 459/148/171
f 464/123/172 466/150/173 504/173/173
f 476/171/174 438/101/174 440/116/175
f 220/164/176 182/219/176 181/104/177
f 477/179/178 479/4/179 445/120/179
f 468/152/180 467/238/181 501/204/181
f 466/150/173 468/152/180 503/201/180
f 458/112/182 460/114/183 498/158/183
f 485/184/184 487/185/185 453/215/185
f 456/111/186 458/112/182 496/160/182
f 471/218/187 473/187/188 439/106/188
f 454/141/189 456/111/186 494/217/186
f 481/6/190 483/249/191 449/131/191
f 489/193/192 455/125/192 453/215/185
f 479/4/179 481/6/190 447/5/190
f 440/116/175 442/118/193 480/176/193
f 462/121/194 464/123/172 502/205/172
f 218/214/177 181/104/177 183/102/195
f 475/213/196 477/179/178 443/140/178
f 446/129/197 448/154/198 486/190/198
f 473/187/188 475/213/196 441/115/196
f 444/127/199 446/129/197 484/161/197
f 212/123/200 250/205/200 252/173/201
f 442/118/193 444/127/199 482/181/199
f 469/196/202 471/218/187 437/108/187
f 209/145/203 211/146/204 245/96/204
f 470/214/205 469/196/202 435/102/202
f 190/118/206 228/176/206 230/181/207
f 472/164/164 470/214/205 433/104/205
f 213/220/208 215/238/209 249/204/209
f 207/148/210 209/145/203 243/211/203
f 283/64/5 279/225/5 281/1/5
f 6/18/6 1/226/6 2/8/6
f 49/48/6 45/50/6 43/49/6
f 281/1/5 279/225/5 275/221/5
f 290/61/5 294/47/5 292/46/5
f 13/21/6 11/19/6 15/32/6
f 314/222/5 318/228/5 316/91/5
f 61/41/6 57/13/6 55/59/6
f 282/44/5 280/43/5 276/38/5
f 25/3/6 21/28/6 19/26/6
f 290/61/5 288/63/5 284/62/5
f 29/1/6 25/3/6 23/221/6
f 30/44/6 26/36/6 24/38/6
f 29/1/6 27/225/6 31/64/6
f 322/11/5 323/24/5 324/10/5
f 65/34/6 63/40/6 67/33/6
f 41/54/6 37/56/6 35/55/6
f 40/46/6 42/47/6 38/61/6
f 64/91/6 66/228/6 62/222/6
f 5/7/6 3/9/6 2/8/6
f 60/223/6 62/222/6 58/227/6
f 34/42/6 30/44/6 28/43/6
f 50/60/6 46/45/6 44/57/6
f 61/41/6 59/224/6 63/40/6
f 56/88/6 58/227/6 54/51/6
f 305/15/5 303/14/5 299/39/5
f 306/51/5 304/53/5 300/52/5
f 57/13/6 53/15/6 51/14/6
f 18/31/6 14/22/6 12/35/6
f 278/36/5 276/38/5 272/37/5
f 310/227/5 314/222/5 312/223/5
f 69/25/6 67/33/6 71/24/6
f 385/119/79 381/139/87 443/140/87
f 322/11/5 320/12/5 316/91/5
f 70/11/6 66/228/6 64/91/6
f 258/18/5 256/17/5 254/8/5
f 297/50/5 295/49/5 291/65/5
f 289/56/5 287/55/5 283/64/5
f 25/3/2 139/2/2 135/82/211
f 316/91/45 418/235/45 414/229/212
f 131/79/213 127/80/214 13/21/214
f 57/13/29 171/83/29 167/71/12
f 16/30/215 118/68/215 122/74/216
f 119/89/217 115/69/218 2/8/218
f 115/69/218 110/70/219 4/17/219
f 123/77/220 119/89/217 3/9/217
f 312/223/212 414/229/212 410/230/37
f 135/82/211 131/79/213 17/27/213
f 44/57/221 146/95/221 150/85/222
f 32/62/223 28/43/224 130/78/224
f 36/63/225 32/62/223 134/231/223
f 374/74/17 370/68/10 268/30/10
f 40/46/226 36/63/225 138/232/225
f 56/88/227 52/53/228 154/87/228
f 40/46/226 142/233/226 146/95/221
f 163/93/13 159/94/51 45/50/51
f 371/89/39 255/9/39 254/8/11
f 321/25/26 430/81/26 426/234/229
f 288/63/230 390/232/230 386/231/23
f 48/52/222 150/85/222 154/87/228
f 13/21/214 127/80/214 123/77/220
f 60/223/231 56/88/227 158/230/227
f 24/38/232 20/37/216 122/74/216
f 64/91/41 60/223/231 162/229/231
f 4/17/219 110/70/219 111/67/47
f 12/35/48 114/66/48 118/68/215
f 426/234/229 422/92/44 320/12/44
f 68/12/42 170/92/42 174/234/233
f 292/46/50 394/233/50 390/232/230
f 69/25/234 72/10/233 174/234/233
f 28/43/224 24/38/232 126/76/232
f 65/34/235 69/25/234 178/81/234
f 61/41/28 65/34/235 179/84/235
f 468/152/105 432/151/105 429/237/236
f 453/215/237 401/246/237 397/239/238
f 116/240/55 112/242/239 182/219/239
f 173/241/240 177/237/241 215/238/241
f 433/104/57 361/103/57 364/242/242
f 117/143/243 121/107/59 187/106/59
f 188/116/89 124/147/89 120/99/54
f 306/51/5 310/227/5 308/88/5
f 461/145/94 417/247/94 413/243/244
f 129/139/245 191/140/245 189/115/58
f 451/216/238 397/239/238 393/244/81
f 133/119/70 193/120/70 191/140/245
f 465/220/246 425/241/246 421/144/93
f 459/148/244 413/243/244 409/124/74
f 177/237/241 180/151/247 216/152/247
f 198/133/101 144/135/101 140/134/106
f 405/245/75 401/246/237 453/215/237
f 141/244/88 145/239/248 199/216/248
f 442/118/69 380/117/69 384/136/76
f 145/239/248 149/246/249 201/215/249
f 467/238/236 429/237/236 425/241/246
f 153/245/250 203/125/252 201/215/249
f 434/219/242 364/242/242 368/240/251
f 157/124/96 205/126/96 203/125/252
f 112/242/239 109/103/102 181/104/102
f 169/144/253 211/146/253 209/145/254
f 156/142/64 152/153/255 202/141/255
f 161/243/97 165/247/254 209/145/254
f 168/130/256 164/113/65 208/114/65
f 113/109/103 117/143/243 185/108/243
f 464/123/73 424/122/73 428/149/104
f 169/144/253 173/241/240 213/220/240
f 172/122/99 168/130/256 210/121/256
f 202/141/255 152/153/255 148/138/100
f 180/151/247 176/149/98 214/150/98
f 448/154/83 446/129/77 388/128/77
f 75/197/151 218/214/151 217/196/257
f 83/186/139 234/190/139 232/161/111
f 73/188/258 74/198/257 217/196/257
f 108/189/259 73/188/258 219/218/258
f 496/160/110 340/159/110 339/209/161
f 107/248/260 108/189/259 221/187/259
f 356/207/159 481/6/159 479/4/124
f 106/180/131 107/248/260 223/213/260
f 354/191/137 485/184/137 483/249/158
f 359/248/261 475/213/261 473/187/133
f 490/250/138 492/208/160 338/210/160
f 104/207/262 105/178/130 227/4/130
f 349/97/53 495/211/53 493/199/146
f 103/206/263 104/207/262 229/6/262
f 230/181/112 228/176/152 80/182/152
f 102/191/128 103/206/263 231/249/263
f 504/173/156 503/201/149 345/203/149
f 358/180/125 477/179/125 475/213/261
f 500/212/264 502/205/157 343/174/157
f 100/195/141 101/183/127 235/185/127
f 86/210/265 240/208/265 238/250/107
f 352/195/143 489/193/143 487/185/136
f 87/209/266 242/217/266 240/208/265
f 501/204/150 499/167/154 347/168/154
f 244/160/267 242/217/266 87/209/266
f 98/200/155 241/199/155 243/211/268
f 472/164/113 328/166/113 327/197/145
f 97/97/268 243/211/268 245/96/115
f 248/212/269 246/158/270 89/252/270
f 78/170/148 224/171/148 222/169/118
f 91/174/122 250/205/122 248/212/269
f 500/212/264 342/251/264 341/252/109
f 246/158/270 244/160/267 88/159/267
f 94/202/153 249/204/153 251/201/271
f 93/203/271 251/201/271 252/173/121
f 217/196/195 183/102/195 185/108/272
f 184/100/273 182/219/176 220/164/176
f 493/199/171 459/148/171 457/126/274
f 460/114/183 462/121/194 500/212/194
f 214/150/201 252/173/201 251/201/275
f 211/146/204 213/220/208 247/167/208
f 216/152/275 251/201/275 249/204/209
f 205/126/276 207/148/210 241/199/210
f 210/121/168 248/212/168 250/205/200
f 237/193/277 203/125/277 205/126/276
f 204/111/278 242/217/278 244/160/279
f 201/215/280 203/125/277 237/193/277
f 486/190/198 448/154/198 450/133/281
f 194/129/282 232/161/282 234/190/283
f 229/6/4 195/5/4 197/131/284
f 231/249/284 197/131/284 199/216/285
f 206/112/279 244/160/279 246/158/167
f 474/169/165 436/100/165 438/101/174
f 200/137/286 238/250/286 240/208/287
f 223/213/170 189/115/170 191/140/288
f 200/137/286 198/133/289 236/156/289
f 225/179/288 191/140/288 193/120/3
f 198/133/289 196/154/283 234/190/283
f 488/156/281 450/133/281 452/137/290
f 192/127/207 230/181/207 232/161/282
f 233/184/285 199/216/285 201/215/280
f 483/249/191 485/184/184 451/216/184
f 219/218/272 185/108/272 187/106/169
f 452/137/290 454/141/189 492/208/189
f 202/141/287 240/208/287 242/217/278
f 188/116/291 226/177/291 228/176/206
f 489/193/192 491/194/274 457/126/274
f 188/116/291 186/101/292 224/171/292
f 186/101/292 184/100/273 222/169/273
f 501/204/181 467/238/181 465/220/162
