# Blender 5.2.1 LTS
# www.blender.org
o s060_Wheels_01.002
v -75.499329 -20.620810 -0.000055
v -75.499336 -20.391336 1.153597
v -75.499336 -19.737837 2.131655
v -75.499336 -18.759804 2.785135
v -75.499336 -17.606140 3.014615
v -75.499336 -16.452463 2.785134
v -75.499336 -15.474436 2.131654
v -75.499336 -14.820944 1.153590
v -75.499336 -14.591457 -0.000056
v -75.499321 -14.820944 -1.153733
v -75.499321 -15.474436 -2.131728
v -75.499321 -16.452469 -2.785245
v -75.499336 -17.606140 -3.014731
v -75.499336 -18.759804 -2.785244
v -75.499336 -19.737843 -2.131727
v -75.499321 -20.391336 -1.153719
v -64.350082 -1.958825 0.814677
v -64.350082 0.008085 -0.000052
v -64.350082 -1.497330 1.505364
v -64.350082 -2.120883 -0.000059
v -64.350082 -0.806631 1.966852
v -64.350082 -1.958825 -0.814770
v -64.350082 0.008080 2.128928
v -64.350082 -1.497331 -1.505457
v -64.350082 0.822797 1.966851
v -64.350082 -0.806644 -1.966964
v -64.350082 1.513497 1.505363
v -64.350082 0.008080 -2.129028
v -64.350082 1.974997 0.814676
v -64.350082 0.822797 -1.966965
v -64.350082 2.137054 -0.000060
v -64.350082 1.513496 -1.505458
v -64.350082 1.974997 -0.814771
v -75.499329 -17.606134 -0.000052
v -59.574856 2.029676 11.496250
v -59.574844 0.002573 11.673599
v -59.574856 0.002572 -0.000059
v -59.574871 3.995211 10.969579
v -59.574844 -2.024537 11.496250
v -59.574856 5.839396 10.109631
v -59.574856 -3.990064 10.969583
v -59.574856 7.506253 8.942485
v -59.574856 -5.834256 10.109631
v -59.574871 8.945126 7.503633
v -59.574856 -7.501107 8.942485
v -59.574871 10.112264 5.836781
v -59.574856 -8.939964 7.503623
v -59.574871 10.972214 3.992582
v -59.574844 -10.107123 5.836765
v -59.574856 11.498891 2.027055
v -59.574856 -10.967060 3.992558
v -59.574844 11.676231 -0.000048
v -59.574856 -11.493738 2.027045
v -59.574856 11.498891 -2.027158
v -59.574856 -11.671086 -0.000057
v -59.574856 10.972226 -3.992671
v -59.574844 -11.493738 -2.027160
v -59.574856 10.112247 -5.836878
v -59.574844 -10.967069 -3.992673
v -59.574844 8.945124 -7.503721
v -59.574844 -10.107118 -5.836880
v -59.574844 7.506238 -8.942605
v -59.574844 -8.939974 -7.503731
v -59.574844 5.839379 -10.109750
v -59.574856 -7.501109 -8.942605
v -59.574856 3.995209 -10.969702
v -59.574856 -5.834265 -10.109750
v -59.574856 2.029674 -11.496349
v -59.574856 -3.990044 -10.969699
v -59.574856 0.002557 -11.673718
v -59.574856 -2.024546 -11.496363
v 75.499329 -20.620804 -0.000056
v 75.499336 -20.391329 1.153596
v 75.499336 -19.737831 2.131653
v 75.499336 -18.759798 2.785133
v 75.499336 -17.606134 3.014613
v 75.499336 -16.452456 2.785133
v 75.499336 -15.474430 2.131653
v 75.499336 -14.820937 1.153589
v 75.499336 -14.591452 -0.000057
v 75.499321 -14.820937 -1.153734
v 75.499321 -15.474430 -2.131729
v 75.499321 -16.452463 -2.785247
v 75.499336 -17.606134 -3.014733
v 75.499336 -18.759798 -2.785246
v 75.499336 -19.737837 -2.131729
v 75.499321 -20.391329 -1.153721
v 64.350082 -1.958820 0.814677
v 64.350082 0.008090 -0.000052
v 64.350082 -1.497325 1.505364
v 64.350082 -2.120877 -0.000059
v 64.350082 -0.806626 1.966852
v 64.350082 -1.958820 -0.814770
v 64.350082 0.008085 2.128928
v 64.350082 -1.497325 -1.505457
v 64.350082 0.822803 1.966851
v 64.350082 -0.806638 -1.966964
v 64.350082 1.513502 1.505363
v 64.350082 0.008085 -2.129028
v 64.350082 1.975003 0.814677
v 64.350082 0.822803 -1.966965
v 64.350082 2.137060 -0.000060
v 64.350082 1.513502 -1.505458
v 64.350082 1.975003 -0.814771
v 75.499329 -17.606129 -0.000054
v 59.574856 2.029681 11.496250
v 59.574844 0.002578 11.673599
v 59.574856 0.002578 -0.000059
v 59.574871 3.995216 10.969579
v 59.574844 -2.024532 11.496250
v 59.574856 5.839400 10.109631
v 59.574856 -3.990059 10.969583
v 59.574856 7.506258 8.942486
v 59.574856 -5.834251 10.109630
v 59.574871 8.945130 7.503634
v 59.574856 -7.501102 8.942484
v 59.574871 10.112268 5.836782
v 59.574856 -8.939960 7.503622
v 59.574871 10.972219 3.992583
v 59.574844 -10.107119 5.836764
v 59.574856 11.498897 2.027056
v 59.574856 -10.967054 3.992558
v 59.574844 11.676237 -0.000047
v 59.574856 -11.493733 2.027045
v 59.574856 11.498897 -2.027157
v 59.574856 -11.671081 -0.000058
v 59.574856 10.972232 -3.992670
v 59.574844 -11.493733 -2.027161
v 59.574856 10.112253 -5.836877
v 59.574844 -10.967063 -3.992674
v 59.574844 8.945129 -7.503720
v 59.574844 -10.107112 -5.836880
v 59.574844 7.506244 -8.942604
v 59.574844 -8.939967 -7.503732
v 59.574844 5.839386 -10.109749
v 59.574856 -7.501102 -8.942606
v 59.574856 3.995215 -10.969702
v 59.574856 -5.834259 -10.109751
v 59.574856 2.029681 -11.496349
v 59.574856 -3.990038 -10.969699
v 59.574856 0.002564 -11.673718
v 59.574856 -2.024539 -11.496363
v -56.917267 15.866784 -26.248478
v -56.917267 16.417467 -26.615799
v -56.917267 17.267021 -16.530409
v -56.917267 17.558949 -10.136236
v -56.917267 17.940712 -0.000045
v -56.917267 17.807978 10.279912
v -56.917267 17.408831 16.600592
v -56.917267 15.866804 26.248358
v -56.917267 16.417488 26.615675
v -59.539696 17.690596 -16.491344
v -59.539696 16.418945 -25.514006
v -59.539696 18.017181 -9.891363
v -59.539696 18.346087 0.000046
v -59.539711 18.247231 10.038575
v -59.539696 17.812479 16.572554
v -59.539684 16.418966 25.514044
v -59.539696 16.967009 25.869062
v -59.539696 16.966990 -25.869026
v -59.539684 20.415134 23.357218
v -56.917267 20.145481 24.005316
v -59.539684 24.027483 19.599020
v -56.917267 24.007969 20.142839
v -59.539696 26.957632 15.245335
v -56.917267 27.141018 15.668327
v -59.539696 29.116596 10.428440
v -56.917267 29.449524 10.717745
v -59.539711 30.438824 5.294676
v -56.917267 30.863287 5.441513
v -59.539711 30.884066 0.000033
v -56.917267 31.339359 -0.000067
v -59.539711 30.438824 -5.294610
v -56.917267 30.863287 -5.441628
v -59.539696 29.116590 -10.428371
v -56.917267 29.449505 -10.717882
v -59.539684 26.957624 -15.245266
v -56.917267 27.141012 -15.668459
v -59.539696 24.027477 -19.598946
v -56.917267 24.007950 -20.142946
v -59.539711 20.415127 -23.357117
v -56.917267 20.145473 -24.005421
v 56.917267 15.866790 -26.248476
v 56.917267 16.417475 -26.615799
v 56.917267 17.267029 -16.530407
v 56.917267 17.558956 -10.136234
v 56.917267 17.940718 -0.000043
v 56.917267 17.807981 10.279913
v 56.917267 17.408836 16.600594
v 56.917267 15.866809 26.248358
v 56.917267 16.417494 26.615675
v 59.539696 17.690603 -16.491343
v 59.539696 16.418951 -25.514006
v 59.539696 18.017189 -9.891361
v 59.539696 18.346094 0.000047
v 59.539711 18.247236 10.038577
v 59.539696 17.812483 16.572556
v 59.539684 16.418970 25.514044
v 59.539696 16.967014 25.869062
v 59.539696 16.966995 -25.869024
v 59.539684 20.415138 23.357220
v 56.917267 20.145487 24.005316
v 59.539684 24.027487 19.599022
v 56.917267 24.007973 20.142841
v 59.539696 26.957638 15.245338
v 56.917267 27.141024 15.668330
v 59.539696 29.116604 10.428442
v 56.917267 29.449530 10.717747
v 59.539711 30.438831 5.294679
v 56.917267 30.863295 5.441515
v 59.539711 30.884071 0.000036
v 56.917267 31.339365 -0.000064
v 59.539711 30.438831 -5.294608
v 56.917267 30.863295 -5.441626
v 59.539696 29.116596 -10.428369
v 56.917267 29.449511 -10.717880
v 59.539684 26.957632 -15.245263
v 56.917267 27.141018 -15.668456
v 59.539696 24.027485 -19.598944
v 56.917267 24.007957 -20.142944
v 59.539711 20.415134 -23.357117
v 56.917267 20.145481 -24.005421
vn -1.0000 -0.0000 -0.0000
vn 1.0000 -0.0000 -0.0000
vn -0.1505 0.9297 0.3361
vn -0.1427 0.8653 0.4805
vn -0.1341 0.8588 0.4944
vn -0.1290 0.7727 0.6215
vn -0.1206 0.7597 0.6390
vn 0.1668 -0.9851 0.0422
vn 0.1550 -0.9878 0.0117
vn 0.1669 -0.9850 0.0428
vn -0.1513 -0.9825 -0.1085
vn -0.1596 -0.9749 -0.1552
vn -0.1511 -0.9827 -0.1070
vn -0.1604 -0.9862 -0.0404
vn 0.1608 -0.9863 -0.0373
vn 0.1604 -0.9862 -0.0404
vn 0.1511 -0.9827 -0.1070
vn 0.1513 -0.9825 -0.1085
vn 0.1596 -0.9749 -0.1552
vn -0.1691 0.9856 -0.0000
vn -0.1676 0.9720 -0.1646
vn -0.1711 0.9853 -0.0000
vn 0.3324 -0.5143 0.7906
vn 0.3306 -0.5222 0.7862
vn 0.3302 -0.5238 0.7853
vn 0.1208 0.5744 -0.8096
vn 0.1177 0.6339 -0.7644
vn 0.1231 0.6561 -0.7446
vn 0.1206 0.7597 0.6390
vn 0.1231 0.6561 0.7446
vn 0.1290 0.7727 0.6215
vn 0.1341 0.8588 0.4944
vn 0.1427 0.8653 0.4805
vn 0.1505 0.9297 0.3361
vn 0.1573 0.9320 0.3266
vn 0.1573 0.9320 -0.3266
vn 0.1639 0.9718 -0.1694
vn 0.1676 0.9720 -0.1646
vn 0.1691 0.9856 -0.0000
vn 0.1711 0.9853 -0.0000
vn 0.1291 0.7727 -0.6215
vn 0.1341 0.8588 -0.4944
vn 0.1427 0.8653 -0.4805
vn 0.1206 0.7597 -0.6390
vn -0.1584 -0.9830 0.0927
vn -0.1646 -0.9764 0.1402
vn -0.1661 -0.9760 0.1406
vn -0.1669 -0.9850 0.0428
vn -0.1586 -0.9831 0.0911
vn -0.1550 -0.9878 0.0117
vn -0.1668 -0.9851 0.0422
vn 0.1586 -0.9831 0.0911
vn -0.3324 -0.5143 0.7906
vn -0.3306 -0.5222 0.7862
vn -0.3328 -0.5127 0.7915
vn -0.3306 -0.5222 -0.7862
vn -0.3324 -0.5143 -0.7905
vn -0.3328 -0.5127 -0.7914
vn -0.1177 0.6339 0.7644
vn -0.1208 0.5744 0.8096
vn -0.1123 0.5699 0.8140
vn -0.1206 0.7597 -0.6390
vn -0.1231 0.6561 -0.7446
vn -0.1291 0.7727 -0.6215
vn -0.1341 0.8588 -0.4944
vn -0.1427 0.8653 -0.4805
vn 0.1506 0.9297 -0.3361
vn -0.1639 0.9718 0.1694
vn -0.1573 0.9320 0.3266
vn -0.1676 0.9720 0.1646
vn 0.1676 0.9720 0.1646
vn -0.1639 0.9718 -0.1694
vn -0.1573 0.9320 -0.3266
vn -0.1506 0.9297 -0.3361
vn 0.1584 -0.9830 0.0927
vn 0.1646 -0.9764 0.1402
vn -0.1177 0.6339 -0.7644
vn -0.1208 0.5744 -0.8096
vn -0.1231 0.6561 0.7446
vn 0.1177 0.6339 0.7644
vn 0.1208 0.5744 0.8096
vn 0.1639 0.9718 0.1694
vn 0.3324 -0.5143 -0.7905
vn 0.3306 -0.5222 -0.7862
vn 0.3328 -0.5127 -0.7914
vn -0.1608 -0.9863 -0.0373
vn 0.1528 -0.9882 0.0115
vn -0.1616 -0.9745 -0.1558
vn 0.1616 -0.9745 -0.1558
vn 0.3328 -0.5127 0.7915
vn 0.1124 0.5699 -0.8140
vn -0.1528 -0.9882 0.0115
vn -0.3302 -0.5238 0.7853
vn -0.3302 -0.5238 -0.7852
vn 0.1661 -0.9760 0.1406
vn -0.1124 0.5699 -0.8140
vn 0.1123 0.5699 0.8140
vn 0.3302 -0.5238 -0.7852
vt 0.755041 0.566202
vt 0.752372 0.565863
vt 0.754937 0.565154
vt 0.754422 0.564237
vt 0.754768 0.567214
vt 0.753662 0.563567
vt 0.754124 0.568025
vt 0.752673 0.563189
vt 0.753173 0.568482
vt 0.751606 0.563219
vt 0.752123 0.568541
vt 0.750640 0.563677
vt 0.751126 0.568155
vt 0.750005 0.564510
vt 0.750351 0.567486
vt 0.749748 0.565520
vt 0.749859 0.566575
vt 0.846123 0.881400
vt 0.845283 0.885675
vt 0.844416 0.881390
vt 0.842866 0.882033
vt 0.847702 0.882036
vt 0.841650 0.883259
vt 0.848904 0.883251
vt 0.841006 0.884818
vt 0.849560 0.884830
vt 0.841009 0.886531
vt 0.849565 0.886520
vt 0.841665 0.888110
vt 0.848905 0.888096
vt 0.842868 0.889302
vt 0.847708 0.889314
vt 0.844431 0.889955
vt 0.846158 0.889958
vt 0.073371 0.493639
vt 0.076545 0.507444
vt 0.074115 0.507767
vt 0.071692 0.507621
vt 0.078961 0.506701
vt 0.069316 0.507085
vt 0.081145 0.505580
vt 0.067118 0.506158
vt 0.083153 0.504045
vt 0.065062 0.504828
vt 0.084812 0.502181
vt 0.063328 0.503214
vt 0.086153 0.500036
vt 0.061889 0.501334
vt 0.087086 0.497684
vt 0.060724 0.499237
vt 0.087596 0.495196
vt 0.059974 0.497018
vt 0.087660 0.492662
vt 0.059586 0.494680
vt 0.087272 0.490139
vt 0.059578 0.492294
vt 0.086429 0.487758
vt 0.059981 0.489950
vt 0.085170 0.485542
vt 0.060778 0.487707
vt 0.083539 0.483589
vt 0.061932 0.485596
vt 0.081617 0.481956
vt 0.063447 0.483723
vt 0.079429 0.480711
vt 0.065274 0.482112
vt 0.077059 0.479880
vt 0.067339 0.480857
vt 0.074590 0.479453
vt 0.069680 0.479980
vt 0.072080 0.479491
vt 0.032372 0.519493
vt 0.038874 0.524195
vt 0.037195 0.525434
vt 0.044223 0.528979
vt 0.042871 0.530356
vt 0.042840 0.487683
vt 0.047975 0.500029
vt 0.044914 0.486827
vt 0.053274 0.521378
vt 0.054740 0.535170
vt 0.051311 0.521882
vt 0.051235 0.513292
vt 0.049027 0.513541
vt 0.026121 0.505482
vt 0.027116 0.497602
vt 0.028322 0.504932
vt 0.055393 0.536489
vt 0.056686 0.535452
vt 0.036529 0.465600
vt 0.033086 0.469433
vt 0.034353 0.470236
vt 0.050020 0.532688
vt 0.034271 0.518451
vt 0.027221 0.490174
vt 0.024907 0.497850
vt 0.030987 0.476244
vt 0.026462 0.482671
vt 0.028515 0.482992
vt 0.029165 0.475661
vt 0.054311 0.535371
vt 0.030712 0.511946
vt 0.045779 0.500557
vt 0.040797 0.479219
vt 0.037361 0.465628
vt 0.042756 0.478651
vt 0.038647 0.464430
vt 0.037009 0.464117
vt 0.049257 0.533989
vt 0.025040 0.490176
vt 0.028633 0.512781
s 1
f 19/1/1 18/2/1 17/3/1
f 17/3/1 18/2/1 20/4/1
f 21/5/1 18/2/1 19/1/1
f 20/4/1 18/2/1 22/6/1
f 23/7/1 18/2/1 21/5/1
f 22/6/1 18/2/1 24/8/1
f 25/9/1 18/2/1 23/7/1
f 24/8/1 18/2/1 26/10/1
f 27/11/1 18/2/1 25/9/1
f 26/10/1 18/2/1 28/12/1
f 29/13/1 18/2/1 27/11/1
f 28/12/1 18/2/1 30/14/1
f 31/15/1 18/2/1 29/13/1
f 30/14/1 18/2/1 32/16/1
f 33/17/1 18/2/1 31/15/1
f 32/16/1 18/2/1 33/17/1
f 3/18/1 34/19/1 2/20/1
f 2/20/1 34/19/1 1/21/1
f 4/22/1 34/19/1 3/18/1
f 1/21/1 34/19/1 16/23/1
f 5/24/1 34/19/1 4/22/1
f 16/23/1 34/19/1 15/25/1
f 6/26/1 34/19/1 5/24/1
f 15/25/1 34/19/1 14/27/1
f 7/28/1 34/19/1 6/26/1
f 14/27/1 34/19/1 13/29/1
f 8/30/1 34/19/1 7/28/1
f 13/29/1 34/19/1 12/31/1
f 9/32/1 34/19/1 8/30/1
f 12/31/1 34/19/1 11/33/1
f 10/34/1 34/19/1 9/32/1
f 11/33/1 34/19/1 10/34/1
f 37/35/1 36/36/1 35/37/1
f 37/35/1 35/37/1 38/38/1
f 37/35/1 39/39/1 36/36/1
f 37/35/1 38/38/1 40/40/1
f 37/35/1 41/41/1 39/39/1
f 37/35/1 40/40/1 42/42/1
f 37/35/1 43/43/1 41/41/1
f 37/35/1 42/42/1 44/44/1
f 37/35/1 45/45/1 43/43/1
f 37/35/1 44/44/1 46/46/1
f 37/35/1 47/47/1 45/45/1
f 37/35/1 46/46/1 48/48/1
f 37/35/1 49/49/1 47/47/1
f 37/35/1 48/48/1 50/50/1
f 37/35/1 51/51/1 49/49/1
f 37/35/1 50/50/1 52/52/1
f 37/35/1 53/53/1 51/51/1
f 37/35/1 52/52/1 54/54/1
f 37/35/1 55/55/1 53/53/1
f 37/35/1 54/54/1 56/56/1
f 37/35/1 57/57/1 55/55/1
f 37/35/1 56/56/1 58/58/1
f 37/35/1 59/59/1 57/57/1
f 37/35/1 58/58/1 60/60/1
f 37/35/1 61/61/1 59/59/1
f 37/35/1 60/60/1 62/62/1
f 37/35/1 63/63/1 61/61/1
f 37/35/1 62/62/1 64/64/1
f 37/35/1 65/65/1 63/63/1
f 37/35/1 64/64/1 66/66/1
f 37/35/1 67/67/1 65/65/1
f 37/35/1 66/66/1 68/68/1
f 37/35/1 69/69/1 67/67/1
f 37/35/1 68/68/1 70/70/1
f 37/35/1 71/71/1 69/69/1
f 37/35/1 70/70/1 71/71/1
f 90/1/2 88/3/2 89/2/2
f 88/3/2 91/4/2 89/2/2
f 92/5/2 90/1/2 89/2/2
f 91/4/2 93/6/2 89/2/2
f 94/7/2 92/5/2 89/2/2
f 93/6/2 95/8/2 89/2/2
f 96/9/2 94/7/2 89/2/2
f 95/8/2 97/10/2 89/2/2
f 98/11/2 96/9/2 89/2/2
f 97/10/2 99/12/2 89/2/2
f 100/13/2 98/11/2 89/2/2
f 99/12/2 101/14/2 89/2/2
f 102/15/2 100/13/2 89/2/2
f 101/14/2 103/16/2 89/2/2
f 104/17/2 102/15/2 89/2/2
f 103/16/2 104/17/2 89/2/2
f 74/18/2 73/20/2 105/19/2
f 73/20/2 72/21/2 105/19/2
f 75/22/2 74/18/2 105/19/2
f 72/21/2 87/23/2 105/19/2
f 76/24/2 75/22/2 105/19/2
f 87/23/2 86/25/2 105/19/2
f 77/26/2 76/24/2 105/19/2
f 86/25/2 85/27/2 105/19/2
f 78/28/2 77/26/2 105/19/2
f 85/27/2 84/29/2 105/19/2
f 79/30/2 78/28/2 105/19/2
f 84/29/2 83/31/2 105/19/2
f 80/32/2 79/30/2 105/19/2
f 83/31/2 82/33/2 105/19/2
f 81/34/2 80/32/2 105/19/2
f 82/33/2 81/34/2 105/19/2
f 108/35/2 106/37/2 107/36/2
f 108/35/2 109/38/2 106/37/2
f 108/35/2 107/36/2 110/39/2
f 108/35/2 111/40/2 109/38/2
f 108/35/2 110/39/2 112/41/2
f 108/35/2 113/42/2 111/40/2
f 108/35/2 112/41/2 114/43/2
f 108/35/2 115/44/2 113/42/2
f 108/35/2 114/43/2 116/45/2
f 108/35/2 117/46/2 115/44/2
f 108/35/2 116/45/2 118/47/2
f 108/35/2 119/48/2 117/46/2
f 108/35/2 118/47/2 120/49/2
f 108/35/2 121/50/2 119/48/2
f 108/35/2 120/49/2 122/51/2
f 108/35/2 123/52/2 121/50/2
f 108/35/2 122/51/2 124/53/2
f 108/35/2 125/54/2 123/52/2
f 108/35/2 124/53/2 126/55/2
f 108/35/2 127/56/2 125/54/2
f 108/35/2 126/55/2 128/57/2
f 108/35/2 129/58/2 127/56/2
f 108/35/2 128/57/2 130/59/2
f 108/35/2 131/60/2 129/58/2
f 108/35/2 130/59/2 132/61/2
f 108/35/2 133/62/2 131/60/2
f 108/35/2 132/61/2 134/63/2
f 108/35/2 135/64/2 133/62/2
f 108/35/2 134/63/2 136/65/2
f 108/35/2 137/66/2 135/64/2
f 108/35/2 136/65/2 138/67/2
f 108/35/2 139/68/2 137/66/2
f 108/35/2 138/67/2 140/69/2
f 108/35/2 141/70/2 139/68/2
f 108/35/2 140/69/2 142/71/2
f 108/35/2 142/71/2 141/70/2
f 168/72/3 165/73/4 166/74/5
f 166/74/5 163/75/6 164/76/7
f 194/77/8 187/78/9 186/79/10
f 149/80/11 158/81/12 157/82/13
f 157/82/13 148/83/14 149/80/11
f 187/78/9 196/84/15 188/83/16
f 188/83/16 197/82/17 189/80/18
f 198/81/19 189/80/18 197/82/17
f 172/85/20 173/86/21 171/87/22
f 198/81/23 191/88/24 190/89/25
f 200/90/26 222/91/27 221/92/28
f 204/76/29 201/93/30 203/75/31
f 206/74/32 203/75/31 205/73/33
f 208/72/34 205/73/33 207/94/35
f 215/95/36 214/96/37 213/86/38
f 213/86/38 212/85/39 211/87/40
f 219/97/41 218/98/42 217/99/43
f 221/92/28 220/100/44 219/97/41
f 157/82/1 158/81/1 159/101/1
f 161/93/1 157/82/1 159/101/1
f 163/75/1 157/82/1 161/93/1
f 197/82/2 205/73/2 203/75/2
f 167/94/1 156/84/1 165/73/1
f 209/102/2 196/84/2 195/103/2
f 171/87/1 155/103/1 169/102/1
f 173/86/1 155/103/1 171/87/1
f 213/86/2 194/77/2 215/95/2
f 177/99/1 154/77/1 175/95/1
f 181/92/1 152/104/1 179/97/1
f 181/92/1 160/90/1 152/104/1
f 160/90/1 153/105/1 152/104/1
f 154/77/1 173/86/1 175/95/1
f 217/99/2 192/104/2 219/97/2
f 145/106/45 153/105/46 143/107/47
f 146/79/48 152/104/49 145/106/45
f 147/78/50 154/77/51 146/79/48
f 186/79/10 192/104/52 194/77/8
f 158/81/53 151/88/54 159/101/55
f 144/108/56 153/105/57 160/90/58
f 162/109/59 159/101/60 151/88/61
f 180/100/62 181/92/63 179/97/64
f 178/98/65 179/97/64 177/99/66
f 217/99/43 216/110/67 215/95/36
f 170/111/68 167/94/69 168/72/3
f 172/85/20 169/102/70 170/111/68
f 212/85/39 209/102/71 211/87/40
f 174/96/72 175/95/73 173/86/21
f 176/110/74 177/99/66 175/95/73
f 185/106/75 193/105/76 192/104/52
f 182/91/77 160/90/78 181/92/63
f 197/82/2 199/101/2 198/81/2
f 201/93/2 199/101/2 197/82/2
f 203/75/2 201/93/2 197/82/2
f 207/94/2 205/73/2 196/84/2
f 164/76/7 161/93/79 162/109/59
f 211/87/2 209/102/2 195/103/2
f 213/86/2 211/87/2 195/103/2
f 217/99/2 215/95/2 194/77/2
f 152/104/1 177/99/1 179/97/1
f 221/92/2 219/97/2 192/104/2
f 221/92/2 192/104/2 200/90/2
f 200/90/2 192/104/2 193/105/2
f 165/73/1 157/82/1 163/75/1
f 202/109/80 199/101/81 201/93/30
f 210/111/82 207/94/35 209/102/71
f 156/84/1 169/102/1 155/103/1
f 193/105/83 184/108/84 200/90/85
f 156/84/86 147/78/50 148/83/14
f 168/72/3 167/94/69 165/73/4
f 166/74/5 165/73/4 163/75/6
f 194/77/8 195/103/87 187/78/9
f 149/80/11 150/89/88 158/81/12
f 157/82/13 156/84/86 148/83/14
f 187/78/9 195/103/87 196/84/15
f 188/83/16 196/84/15 197/82/17
f 198/81/19 190/89/89 189/80/18
f 172/85/20 174/96/72 173/86/21
f 198/81/23 199/101/90 191/88/24
f 200/90/26 184/108/91 222/91/27
f 204/76/29 202/109/80 201/93/30
f 206/74/32 204/76/29 203/75/31
f 208/72/34 206/74/32 205/73/33
f 215/95/36 216/110/67 214/96/37
f 213/86/38 214/96/37 212/85/39
f 219/97/41 220/100/44 218/98/42
f 221/92/28 222/91/27 220/100/44
f 197/82/2 196/84/2 205/73/2
f 209/102/2 207/94/2 196/84/2
f 213/86/2 195/103/2 194/77/2
f 154/77/1 155/103/1 173/86/1
f 217/99/2 194/77/2 192/104/2
f 145/106/45 152/104/49 153/105/46
f 146/79/48 154/77/51 152/104/49
f 147/78/50 155/103/92 154/77/51
f 186/79/10 185/106/75 192/104/52
f 158/81/53 150/89/93 151/88/54
f 144/108/56 143/107/94 153/105/57
f 162/109/59 161/93/79 159/101/60
f 180/100/62 182/91/77 181/92/63
f 178/98/65 180/100/62 179/97/64
f 217/99/43 218/98/42 216/110/67
f 170/111/68 169/102/70 167/94/69
f 172/85/20 171/87/22 169/102/70
f 212/85/39 210/111/82 209/102/71
f 174/96/72 176/110/74 175/95/73
f 176/110/74 178/98/65 177/99/66
f 185/106/75 183/107/95 193/105/76
f 182/91/77 144/108/96 160/90/78
f 164/76/7 163/75/6 161/93/79
f 152/104/1 154/77/1 177/99/1
f 165/73/1 156/84/1 157/82/1
f 202/109/80 191/88/97 199/101/81
f 210/111/82 208/72/34 207/94/35
f 156/84/1 167/94/1 169/102/1
f 193/105/83 183/107/98 184/108/84
f 156/84/86 155/103/92 147/78/50
