# generated by p2m_box_uv.py - box UVs replicate Prop2Mesh's cl_meshlab.lua
o s060_Wheels_01.001
v -53.547119 18.835766 32.620003
v -61.532677 12.689868 34.857998
v -53.547108 12.885246 35.394741
v 53.547108 35.397388 -12.882723
v 61.532677 32.127945 -18.547623
v 53.547108 32.622616 -18.833229
v 53.547108 0.002590 37.666317
v 61.532677 6.444088 36.531559
v 53.547108 6.543285 37.094059
v 53.547119 18.835768 32.620007
v 61.532677 12.689870 34.857998
v 61.532677 18.550179 32.125320
v 53.547108 -6.538125 37.094063
v 61.532677 0.002577 37.095123
v 53.547108 0.002590 37.666317
v 53.547108 24.214062 28.854082
v 61.532677 18.550179 32.125320
v 61.532677 23.846912 28.416513
v 53.547108 -12.880095 35.394749
v 61.532677 -6.438952 36.531563
v 53.547108 -6.538125 37.094063
v 53.547119 28.856710 24.211416
v 61.532677 23.846912 28.416513
v 61.532677 28.419138 23.844269
v 61.532661 -32.122787 18.547516
v 53.547096 -28.851528 24.211397
v 53.547108 -32.617447 18.833097
v 53.547119 28.856710 24.211416
v 61.532677 32.127945 18.547523
v 53.547108 32.622616 18.833122
v 53.547096 -24.208883 28.854044
v 61.532661 -18.545033 32.125282
v 53.547096 -18.830608 32.619995
v 53.547108 35.397396 12.882607
v 61.532677 32.127945 18.547523
v 61.532677 34.860626 12.687225
v 61.532661 -28.413969 23.844263
v 53.547096 -24.208883 28.854044
v 53.547096 -28.851528 24.211397
v -61.532661 -32.122795 -18.547628
v -53.547096 -35.392250 -12.882717
v -61.532661 -34.855476 -12.687363
v 53.547096 -18.830608 32.619995
v 61.532677 -12.684741 34.857979
v 53.547108 -12.880095 35.394749
v 53.547108 37.096722 6.540630
v 61.532677 37.097759 -0.000063
v 53.547108 37.668949 -0.000071
v 61.532661 -34.855469 12.687231
v 53.547108 -32.617447 18.833097
v 53.547096 -35.392235 12.882591
v 53.547096 -24.208893 -28.854170
v 61.532661 -28.413963 -23.844368
v 53.547081 -28.851528 -24.211517
v -61.532677 37.097752 -0.000069
v -53.547108 37.096718 6.540627
v -53.547108 37.668941 -0.000075
v 53.547108 37.096722 -6.540761
v 61.532677 34.860622 -12.687344
v 53.547108 35.397388 -12.882723
v -61.532661 -28.413973 23.844263
v -53.547096 -24.208887 28.854048
v -61.532661 -23.841738 28.416500
v -53.547119 28.856707 24.211414
v -61.532677 23.846910 28.416513
v -53.547108 24.214060 28.854078
v -53.547081 -6.538095 -37.094177
v -61.532661 0.002582 -37.095226
v -53.547081 0.002582 -37.666431
v 53.547096 -37.091553 -6.540743
v 61.532661 -37.092590 -0.000063
v 53.547096 -37.663792 -0.000054
v 53.547096 -35.392246 -12.882720
v 61.532661 -36.529026 -6.441580
v 53.547096 -37.091553 -6.540743
v 53.547108 24.214066 -28.854151
v 61.532677 28.419138 -23.844368
v 61.532677 23.846903 -28.416582
v 61.532661 -32.122787 -18.547628
v 53.547096 -35.392246 -12.882720
v 53.547096 -32.617447 -18.833248
v 53.547108 24.214066 -28.854151
v 61.532661 18.550171 -32.125385
v 53.547096 18.835796 -32.620071
v -61.532677 32.127941 18.547516
v -53.547119 28.856707 24.211414
v -53.547108 32.622616 18.833120
v -53.547108 35.397388 12.882604
v -61.532677 32.127941 18.547516
v -53.547108 32.622616 18.833120
v 61.532661 -6.438926 -36.531662
v 53.547081 -12.880049 -35.394855
v 53.547081 -6.538086 -37.094177
v -61.532677 6.444086 36.531559
v -53.547108 0.002588 37.666317
v -53.547108 6.543283 37.094059
v -61.532677 -6.438954 36.531563
v -53.547108 -12.880096 35.394749
v -53.547108 -6.538127 37.094063
v -61.532677 0.002575 37.095123
v -53.547108 -6.538127 37.094063
v -53.547108 0.002588 37.666317
v -61.532661 -36.529030 6.441442
v -53.547096 -37.663799 -0.000050
v -53.547096 -37.091560 6.540633
v 53.547081 -6.538086 -37.094177
v 61.532661 0.002591 -37.095226
v 61.532661 -6.438926 -36.531662
v -53.547108 24.214060 28.854078
v -61.532677 18.550177 32.125317
v -53.547119 18.835766 32.620003
v -61.532677 32.127934 -18.547628
v -53.547108 35.397385 -12.882726
v -53.547108 32.622608 -18.833233
v -61.532677 12.689868 34.857998
v -53.547108 6.543283 37.094059
v -53.547108 12.885246 35.394741
v 61.532661 -28.413963 -23.844368
v 53.547096 -32.617447 -18.833248
v 53.547081 -28.851528 -24.211517
v 53.547096 6.543299 -37.094177
v 61.532661 12.689884 -34.858093
v 61.532661 6.444101 -36.531651
v 53.547096 12.885262 -35.394855
v 61.532661 18.550171 -32.125385
v 61.532661 12.689884 -34.858093
v -53.547108 24.214056 -28.854153
v -61.532677 28.419128 -23.844368
v -53.547096 28.856701 -24.211500
v -61.532661 -34.855476 12.687238
v -53.547108 -32.617451 18.833101
v -61.532661 -32.122791 18.547516
v 61.532661 -36.529026 6.441436
v 53.547096 -35.392235 12.882591
v 53.547096 -37.091553 6.540630
v -61.532661 -37.092594 -0.000056
v -53.547096 -37.091560 -6.540740
v -53.547096 -37.663799 -0.000050
v 53.547096 6.543299 -37.094177
v 61.532661 0.002591 -37.095226
v 53.547081 0.002591 -37.666431
v -61.532661 18.550161 -32.125385
v -53.547108 24.214056 -28.854153
v -53.547096 18.835787 -32.620075
v -53.547108 37.096718 6.540627
v -61.532677 34.860622 12.687219
v -53.547108 35.397388 12.882604
v -61.532661 -32.122791 18.547516
v -53.547096 -28.851532 24.211401
v -61.532661 -28.413973 23.844263
v 61.532661 -12.684714 -34.858105
v 53.547081 -18.830568 -32.620090
v 53.547081 -12.880049 -35.394855
v -61.532677 34.860615 -12.687350
v -53.547108 37.096718 -6.540763
v -53.547108 35.397385 -12.882726
v -61.532677 36.534199 -6.441567
v -53.547108 37.668941 -0.000075
v -53.547108 37.096718 -6.540763
v -61.532661 -36.529030 6.441442
v -53.547096 -35.392239 12.882595
v -61.532661 -34.855476 12.687238
v -61.532661 -36.529030 -6.441574
v -53.547096 -35.392250 -12.882717
v -53.547096 -37.091560 -6.540740
v -61.532661 -12.684723 -34.858105
v -53.547081 -18.830578 -32.620087
v -61.532661 -18.545008 -32.125401
v 53.547108 6.543285 37.094059
v 61.532677 12.689870 34.857998
v 53.547108 12.885248 35.394741
v -61.532677 -12.684744 34.857979
v -53.547096 -18.830612 32.619999
v -53.547108 -12.880096 35.394749
v -53.547096 28.856701 -24.211500
v -61.532677 32.127934 -18.547628
v -53.547108 32.622608 -18.833233
v 61.532661 -18.544998 -32.125401
v 53.547096 -24.208893 -28.854170
v 53.547081 -18.830568 -32.620090
v 53.547108 37.096722 6.540630
v 61.532677 34.860626 12.687225
v 61.532677 36.534206 6.441454
v -61.532661 -18.545034 32.125286
v -53.547096 -24.208887 28.854048
v -53.547096 -18.830612 32.619999
v 53.547108 37.668949 -0.000071
v 61.532677 36.534206 -6.441561
v 53.547108 37.096722 -6.540761
v -61.532661 -28.413973 -23.844368
v -53.547096 -32.617458 -18.833244
v -61.532661 -32.122795 -18.547628
v -53.547096 12.885254 -35.394855
v -61.532661 18.550161 -32.125385
v -53.547096 18.835787 -32.620075
v -61.532661 -28.413973 -23.844368
v -53.547096 -24.208902 -28.854166
v -53.547081 -28.851538 -24.211514
v -53.547096 6.543290 -37.094177
v -61.532661 12.689876 -34.858093
v -53.547096 12.885254 -35.394855
v -61.532661 -18.545008 -32.125401
v -53.547096 -24.208902 -28.854166
v -61.532661 -23.841740 -28.416607
v -61.532661 0.002582 -37.095226
v -53.547096 6.543290 -37.094177
v -53.547081 0.002582 -37.666431
v 53.547096 -37.663792 -0.000054
v 61.532661 -36.529026 6.441436
v 53.547096 -37.091553 6.540630
v 53.547096 28.856710 -24.211498
v 61.532677 32.127945 -18.547623
v 61.532677 28.419138 -23.844368
v -61.532661 -6.438935 -36.531662
v -53.547081 -12.880057 -35.394855
v -61.532661 -12.684723 -34.858105
v -53.547119 18.835766 32.620003
v -61.532677 18.550177 32.125317
v -61.532677 12.689868 34.857998
v 53.547108 35.397388 -12.882723
v 61.532677 34.860622 -12.687344
v 61.532677 32.127945 -18.547623
v 53.547108 0.002590 37.666317
v 61.532677 0.002577 37.095123
v 61.532677 6.444088 36.531559
v 53.547119 18.835768 32.620007
v 53.547108 12.885248 35.394741
v 61.532677 12.689870 34.857998
v 53.547108 -6.538125 37.094063
v 61.532677 -6.438952 36.531563
v 61.532677 0.002577 37.095123
v 53.547108 24.214062 28.854082
v 53.547119 18.835768 32.620007
v 61.532677 18.550179 32.125320
v 53.547108 -12.880095 35.394749
v 61.532677 -12.684741 34.857979
v 61.532677 -6.438952 36.531563
v 53.547119 28.856710 24.211416
v 53.547108 24.214062 28.854082
v 61.532677 23.846912 28.416513
v 61.532661 -32.122787 18.547516
v 61.532661 -28.413969 23.844263
v 53.547096 -28.851528 24.211397
v 53.547119 28.856710 24.211416
v 61.532677 28.419138 23.844269
v 61.532677 32.127945 18.547523
v 53.547096 -24.208883 28.854044
v 61.532661 -23.841734 28.416500
v 61.532661 -18.545033 32.125282
v 53.547108 35.397396 12.882607
v 53.547108 32.622616 18.833122
v 61.532677 32.127945 18.547523
v 61.532661 -28.413969 23.844263
v 61.532661 -23.841734 28.416500
v 53.547096 -24.208883 28.854044
v -61.532661 -32.122795 -18.547628
v -53.547096 -32.617458 -18.833244
v -53.547096 -35.392250 -12.882717
v 53.547096 -18.830608 32.619995
v 61.532661 -18.545033 32.125282
v 61.532677 -12.684741 34.857979
v 53.547108 37.096722 6.540630
v 61.532677 36.534206 6.441454
v 61.532677 37.097759 -0.000063
v 61.532661 -34.855469 12.687231
v 61.532661 -32.122787 18.547516
v 53.547108 -32.617447 18.833097
v 53.547096 -24.208893 -28.854170
v 61.532661 -23.841730 -28.416620
v 61.532661 -28.413963 -23.844368
v -61.532677 37.097752 -0.000069
v -61.532677 36.534199 6.441448
v -53.547108 37.096718 6.540627
v 53.547108 37.096722 -6.540761
v 61.532677 36.534206 -6.441561
v 61.532677 34.860622 -12.687344
v -61.532661 -28.413973 23.844263
v -53.547096 -28.851532 24.211401
v -53.547096 -24.208887 28.854048
v -53.547119 28.856707 24.211414
v -61.532677 28.419136 23.844263
v -61.532677 23.846910 28.416513
v -53.547081 -6.538095 -37.094177
v -61.532661 -6.438935 -36.531662
v -61.532661 0.002582 -37.095226
v 53.547096 -37.091553 -6.540743
v 61.532661 -36.529026 -6.441580
v 61.532661 -37.092590 -0.000063
v 53.547096 -35.392246 -12.882720
v 61.532661 -34.855469 -12.687369
v 61.532661 -36.529026 -6.441580
v 53.547108 24.214066 -28.854151
v 53.547096 28.856710 -24.211498
v 61.532677 28.419138 -23.844368
v 61.532661 -32.122787 -18.547628
v 61.532661 -34.855469 -12.687369
v 53.547096 -35.392246 -12.882720
v 53.547108 24.214066 -28.854151
v 61.532677 23.846903 -28.416582
v 61.532661 18.550171 -32.125385
v -61.532677 32.127941 18.547516
v -61.532677 28.419136 23.844263
v -53.547119 28.856707 24.211414
v -53.547108 35.397388 12.882604
v -61.532677 34.860622 12.687219
v -61.532677 32.127941 18.547516
v 61.532661 -6.438926 -36.531662
v 61.532661 -12.684714 -34.858105
v 53.547081 -12.880049 -35.394855
v -61.532677 6.444086 36.531559
v -61.532677 0.002575 37.095123
v -53.547108 0.002588 37.666317
v -61.532677 -6.438954 36.531563
v -61.532677 -12.684744 34.857979
v -53.547108 -12.880096 35.394749
v -61.532677 0.002575 37.095123
v -61.532677 -6.438954 36.531563
v -53.547108 -6.538127 37.094063
v -61.532661 -36.529030 6.441442
v -61.532661 -37.092594 -0.000056
v -53.547096 -37.663799 -0.000050
v 53.547081 -6.538086 -37.094177
v 53.547081 0.002591 -37.666431
v 61.532661 0.002591 -37.095226
v -53.547108 24.214060 28.854078
v -61.532677 23.846910 28.416513
v -61.532677 18.550177 32.125317
v -61.532677 32.127934 -18.547628
v -61.532677 34.860615 -12.687350
v -53.547108 35.397385 -12.882726
v -61.532677 12.689868 34.857998
v -61.532677 6.444086 36.531559
v -53.547108 6.543283 37.094059
v 61.532661 -28.413963 -23.844368
v 61.532661 -32.122787 -18.547628
v 53.547096 -32.617447 -18.833248
v 53.547096 6.543299 -37.094177
v 53.547096 12.885262 -35.394855
v 61.532661 12.689884 -34.858093
v 53.547096 12.885262 -35.394855
v 53.547096 18.835796 -32.620071
v 61.532661 18.550171 -32.125385
v -53.547108 24.214056 -28.854153
v -61.532677 23.846893 -28.416582
v -61.532677 28.419128 -23.844368
v -61.532661 -34.855476 12.687238
v -53.547096 -35.392239 12.882595
v -53.547108 -32.617451 18.833101
v 61.532661 -36.529026 6.441436
v 61.532661 -34.855469 12.687231
v 53.547096 -35.392235 12.882591
v -61.532661 -37.092594 -0.000056
v -61.532661 -36.529030 -6.441574
v -53.547096 -37.091560 -6.540740
v 53.547096 6.543299 -37.094177
v 61.532661 6.444101 -36.531651
v 61.532661 0.002591 -37.095226
v -61.532661 18.550161 -32.125385
v -61.532677 23.846893 -28.416582
v -53.547108 24.214056 -28.854153
v -53.547108 37.096718 6.540627
v -61.532677 36.534199 6.441448
v -61.532677 34.860622 12.687219
v -61.532661 -32.122791 18.547516
v -53.547108 -32.617451 18.833101
v -53.547096 -28.851532 24.211401
v 61.532661 -12.684714 -34.858105
v 61.532661 -18.544998 -32.125401
v 53.547081 -18.830568 -32.620090
v -61.532677 34.860615 -12.687350
v -61.532677 36.534199 -6.441567
v -53.547108 37.096718 -6.540763
v -61.532677 36.534199 -6.441567
v -61.532677 37.097752 -0.000069
v -53.547108 37.668941 -0.000075
v -61.532661 -36.529030 6.441442
v -53.547096 -37.091560 6.540633
v -53.547096 -35.392239 12.882595
v -61.532661 -36.529030 -6.441574
v -61.532661 -34.855476 -12.687363
v -53.547096 -35.392250 -12.882717
v -61.532661 -12.684723 -34.858105
v -53.547081 -12.880057 -35.394855
v -53.547081 -18.830578 -32.620087
v 53.547108 6.543285 37.094059
v 61.532677 6.444088 36.531559
v 61.532677 12.689870 34.857998
v -61.532677 -12.684744 34.857979
v -61.532661 -18.545034 32.125286
v -53.547096 -18.830612 32.619999
v -53.547096 28.856701 -24.211500
v -61.532677 28.419128 -23.844368
v -61.532677 32.127934 -18.547628
v 61.532661 -18.544998 -32.125401
v 61.532661 -23.841730 -28.416620
v 53.547096 -24.208893 -28.854170
v 53.547108 37.096722 6.540630
v 53.547108 35.397396 12.882607
v 61.532677 34.860626 12.687225
v -61.532661 -18.545034 32.125286
v -61.532661 -23.841738 28.416500
v -53.547096 -24.208887 28.854048
v 53.547108 37.668949 -0.000071
v 61.532677 37.097759 -0.000063
v 61.532677 36.534206 -6.441561
v -61.532661 -28.413973 -23.844368
v -53.547081 -28.851538 -24.211514
v -53.547096 -32.617458 -18.833244
v -53.547096 12.885254 -35.394855
v -61.532661 12.689876 -34.858093
v -61.532661 18.550161 -32.125385
v -61.532661 -28.413973 -23.844368
v -61.532661 -23.841740 -28.416607
v -53.547096 -24.208902 -28.854166
v -53.547096 6.543290 -37.094177
v -61.532661 6.444093 -36.531651
v -61.532661 12.689876 -34.858093
v -61.532661 -18.545008 -32.125401
v -53.547081 -18.830578 -32.620087
v -53.547096 -24.208902 -28.854166
v -61.532661 0.002582 -37.095226
v -61.532661 6.444093 -36.531651
v -53.547096 6.543290 -37.094177
v 53.547096 -37.663792 -0.000054
v 61.532661 -37.092590 -0.000063
v 61.532661 -36.529026 6.441436
v 53.547096 28.856710 -24.211498
v 53.547108 32.622616 -18.833229
v 61.532677 32.127945 -18.547623
v -61.532661 -6.438935 -36.531662
v -53.547081 -6.538095 -37.094177
v -53.547081 -12.880057 -35.394855
vt -1.673347 0.588618
vt -1.922896 0.396558
vt -1.673347 0.402664
vt 1.673347 0.402585
vt 1.922896 0.579613
vt 1.673347 0.588538
vt 1.673347 0.000081
vt 1.922896 0.201378
vt 1.673347 0.204478
vt 1.673347 0.588618
vt 1.922896 0.396558
vt 1.922896 0.579693
vt 1.673347 -0.204316
vt 1.922896 0.000081
vt 1.673347 0.000081
vt 1.673347 0.756689
vt 1.922896 0.579693
vt 1.922896 0.745216
vt 1.673347 -0.402503
vt 1.922896 -0.201217
vt 1.673347 -0.204316
vt 1.673347 -0.756607
vt 1.922896 -0.888016
vt 1.922896 -0.745133
vt 1.922896 0.579610
vt 1.673347 0.756606
vt 1.673347 0.588534
vt 1.673347 -0.756607
vt 1.922896 -0.579610
vt 1.673347 -0.588535
vt 1.673347 -0.756528
vt 1.922896 -0.579532
vt 1.673347 -0.588457
vt 1.673347 -0.402581
vt 1.922896 -0.579610
vt 1.922896 -0.396476
vt 1.922896 0.745133
vt 1.673347 0.901689
vt 1.673347 0.756606
vt -1.922896 -0.579613
vt -1.673347 -0.402585
vt -1.922896 -0.396480
vt 1.673347 -0.588457
vt 1.922896 -0.396398
vt 1.673347 -0.402503
vt 1.673347 -0.204395
vt 1.922896 0.000002
vt 1.673347 0.000002
vt 1.922896 0.396476
vt 1.673347 0.588534
vt 1.673347 0.402581
vt 1.673347 -0.901693
vt 1.922896 -0.745136
vt 1.673346 -0.756610
vt -1.922896 0.000002
vt -1.673347 -0.204395
vt -1.673347 0.000002
vt 1.673347 0.204399
vt 1.922896 0.396479
vt 1.673347 0.402585
vt -1.922896 0.745133
vt -1.673347 0.901689
vt -1.922896 0.888016
vt -1.673347 -0.756607
vt -1.922896 -0.888016
vt -1.673347 -0.901690
vt 1.673346 -0.204315
vt 1.922896 0.000081
vt 1.673346 0.000081
vt 1.673347 -0.204398
vt 1.922896 -0.000002
vt 1.673347 -0.000002
vt 1.673347 -0.402585
vt 1.922896 -0.201299
vt 1.673347 -0.204398
vt -1.673347 0.756690
vt -1.922896 0.888098
vt -1.922896 0.745216
vt 1.922896 -0.579613
vt 1.673347 -0.402585
vt 1.673347 -0.588539
vt -1.673347 0.756690
vt -1.922896 0.579693
vt -1.673347 0.588619
vt -1.922896 -0.579610
vt -1.673347 -0.756607
vt -1.673347 -0.588535
vt -1.673347 -0.402581
vt -1.922896 -0.579610
vt -1.673347 -0.588535
vt -1.922896 -0.201216
vt -1.673346 -0.402502
vt -1.673346 -0.204315
vt -1.922896 0.201378
vt -1.673347 0.000081
vt -1.673347 0.204478
vt -1.922896 -0.201217
vt -1.673347 -0.402503
vt -1.673347 -0.204316
vt -1.922896 0.000080
vt -1.673347 -0.204316
vt -1.673347 0.000081
vt -1.922896 0.201295
vt -1.673347 -0.000002
vt -1.673347 0.204395
vt -1.673346 -0.204315
vt -1.922896 0.000081
vt -1.922896 -0.201216
vt -1.673347 0.756689
vt -1.922896 0.579693
vt -1.673347 0.588618
vt -1.922896 0.579613
vt -1.673347 0.402585
vt -1.673347 0.588539
vt -1.922896 0.396558
vt -1.673347 0.204478
vt -1.673347 0.402664
vt 1.922896 -0.745136
vt 1.673347 -0.588539
vt 1.673346 -0.756610
vt -1.673347 0.204478
vt -1.922896 0.396559
vt -1.922896 0.201378
vt -1.673347 0.402664
vt -1.922896 0.579693
vt -1.922896 0.396559
vt -1.673347 0.901692
vt -1.922896 0.745136
vt -1.673347 0.756609
vt -1.922896 0.396476
vt -1.673347 0.588534
vt -1.922896 0.579610
vt 1.922896 0.201295
vt 1.673347 0.402581
vt 1.673347 0.204395
vt -1.922896 -0.000002
vt -1.673347 -0.204398
vt -1.673347 -0.000002
vt -1.673347 0.204478
vt -1.922896 0.000081
vt -1.673346 0.000081
vt 1.922896 0.579693
vt 1.673347 0.756689
vt 1.673347 0.588618
vt -1.673347 -0.204395
vt -1.922896 -0.396476
vt -1.673347 -0.402581
vt -1.922896 0.579610
vt -1.673347 0.756606
vt -1.922896 0.745133
vt -1.922896 -0.396397
vt -1.673346 -0.588455
vt -1.673346 -0.402502
vt -1.922896 0.396480
vt -1.673347 0.204399
vt -1.673347 0.402585
vt -1.922896 0.201299
vt -1.673347 0.000002
vt -1.673347 0.204399
vt -1.922896 0.201295
vt -1.673347 0.402581
vt -1.922896 0.396476
vt -1.922896 -0.201299
vt -1.673347 -0.402585
vt -1.673347 -0.204398
vt 1.922896 -0.396398
vt 1.673346 -0.588456
vt 1.922896 -0.579531
vt 1.673347 0.204478
vt 1.922896 0.396558
vt 1.673347 0.402664
vt -1.922896 -0.396398
vt -1.673347 -0.588457
vt -1.673347 -0.402503
vt -1.673347 0.756609
vt -1.922896 0.579613
vt -1.673347 0.588539
vt -1.922896 -0.579531
vt -1.673347 -0.756528
vt -1.673346 -0.588455
vt 1.673347 -0.204395
vt 1.922896 -0.396476
vt 1.922896 -0.201295
vt -1.922896 -0.579532
vt -1.673347 -0.756528
vt -1.673347 -0.588457
vt 1.673347 0.000002
vt 1.922896 0.201299
vt 1.673347 0.204399
vt -1.922896 -0.745136
vt -1.673347 -0.588539
vt -1.922896 -0.579613
vt 1.673347 0.402664
vt 1.922896 0.579693
vt 1.673347 0.588618
vt -1.922896 -0.745136
vt -1.673347 -0.901693
vt -1.673346 -0.756610
vt 1.673347 0.204478
vt 1.922896 0.396559
vt 1.673347 0.402664
vt 1.922896 -0.579531
vt 1.673347 -0.756528
vt 1.922896 -0.745054
vt 1.922896 0.000081
vt 1.673347 0.204478
vt 1.673346 0.000081
vt 1.673347 -0.000002
vt 1.922896 0.201295
vt 1.673347 0.204395
vt 1.673347 0.756609
vt 1.922896 0.579613
vt 1.922896 0.745136
vt 1.922896 -0.201217
vt 1.673346 -0.402502
vt 1.922896 -0.396398
vt -1.673347 0.588618
vt -1.922896 0.579693
vt -1.922896 0.396558
vt 1.673347 0.402585
vt 1.922896 0.396479
vt 1.922896 0.579613
vt 1.673347 0.000081
vt 1.922896 0.000081
vt 1.922896 0.201378
vt 1.673347 0.588618
vt 1.673347 0.402664
vt 1.922896 0.396558
vt 1.673347 -0.204316
vt 1.922896 -0.201217
vt 1.922896 0.000081
vt 1.673347 0.756689
vt 1.673347 0.588618
vt 1.922896 0.579693
vt 1.673347 -0.402503
vt 1.922896 -0.396398
vt 1.922896 -0.201217
vt 1.673347 -0.756607
vt 1.673347 -0.901690
vt 1.922896 -0.888016
vt 1.922896 0.579610
vt 1.922896 0.745133
vt 1.673347 0.756606
vt 1.673347 -0.756607
vt 1.922896 -0.745133
vt 1.922896 -0.579610
vt 1.673347 -0.756528
vt 1.922896 -0.745054
vt 1.922896 -0.579532
vt 1.673347 -0.402581
vt 1.673347 -0.588535
vt 1.922896 -0.579610
vt 1.922896 0.745133
vt 1.922896 0.888016
vt 1.673347 0.901689
vt -1.922896 -0.579613
vt -1.673347 -0.588539
vt -1.673347 -0.402585
vt 1.673347 -0.588457
vt 1.922896 -0.579532
vt 1.922896 -0.396398
vt 1.673347 -0.204395
vt 1.922896 -0.201295
vt 1.922896 0.000002
vt 1.922896 0.396476
vt 1.922896 0.579610
vt 1.673347 0.588534
vt 1.673347 -0.901693
vt 1.922896 -0.888019
vt 1.922896 -0.745136
vt -1.922896 0.000002
vt -1.922896 -0.201295
vt -1.673347 -0.204395
vt 1.673347 0.204399
vt 1.922896 0.201299
vt 1.922896 0.396479
vt -1.922896 0.745133
vt -1.673347 0.756606
vt -1.673347 0.901689
vt -1.673347 -0.756607
vt -1.922896 -0.745133
vt -1.922896 -0.888016
vt 1.673346 -0.204315
vt 1.922896 -0.201217
vt 1.922896 0.000081
vt 1.673347 -0.204398
vt 1.922896 -0.201299
vt 1.922896 -0.000002
vt 1.673347 -0.402585
vt 1.922896 -0.396480
vt 1.922896 -0.201299
vt 1.673347 0.901692
vt 1.673347 0.756609
vt 1.922896 0.745136
vt 1.922896 -0.579613
vt 1.922896 -0.396480
vt 1.673347 -0.402585
vt -1.673347 0.756690
vt -1.922896 0.745216
vt -1.922896 0.579693
vt -1.922896 -0.579610
vt -1.922896 -0.745133
vt -1.673347 -0.756607
vt -1.673347 -0.402581
vt -1.922896 -0.396476
vt -1.922896 -0.579610
vt -1.922896 -0.201216
vt -1.922896 -0.396397
vt -1.673346 -0.402502
vt -1.922896 0.201378
vt -1.922896 0.000080
vt -1.673347 0.000081
vt -1.922896 -0.201217
vt -1.922896 -0.396398
vt -1.673347 -0.402503
vt -1.922896 0.000080
vt -1.922896 -0.201217
vt -1.673347 -0.204316
vt -1.922896 0.201295
vt -1.922896 -0.000002
vt -1.673347 -0.000002
vt -1.673346 -0.204315
vt -1.673346 0.000081
vt -1.922896 0.000081
vt -1.673347 0.756689
vt -1.922896 0.745216
vt -1.922896 0.579693
vt -1.922896 0.579613
vt -1.922896 0.396480
vt -1.673347 0.402585
vt -1.922896 0.396558
vt -1.922896 0.201378
vt -1.673347 0.204478
vt 1.922896 -0.745136
vt 1.922896 -0.579613
vt 1.673347 -0.588539
vt -1.673347 0.204478
vt -1.673347 0.402664
vt -1.922896 0.396559
vt -1.673347 0.402664
vt -1.673347 0.588619
vt -1.922896 0.579693
vt 1.673347 0.756689
vt 1.922896 0.745215
vt 1.922896 0.888098
vt -1.922896 0.396476
vt -1.673347 0.402581
vt -1.673347 0.588534
vt 1.922896 0.201295
vt 1.922896 0.396476
vt 1.673347 0.402581
vt -1.922896 -0.000002
vt -1.922896 -0.201299
vt -1.673347 -0.204398
vt -1.673347 0.204478
vt -1.922896 0.201378
vt -1.922896 0.000081
vt 1.922896 0.579693
vt 1.922896 0.745215
vt 1.673347 0.756689
vt -1.673347 -0.204395
vt -1.922896 -0.201295
vt -1.922896 -0.396476
vt -1.922896 0.579610
vt -1.673347 0.588534
vt -1.673347 0.756606
vt -1.922896 -0.396397
vt -1.922896 -0.579531
vt -1.673346 -0.588455
vt -1.922896 0.396480
vt -1.922896 0.201299
vt -1.673347 0.204399
vt -1.922896 0.201299
vt -1.922896 0.000002
vt -1.673347 0.000002
vt -1.922896 0.201295
vt -1.673347 0.204395
vt -1.673347 0.402581
vt -1.922896 -0.201299
vt -1.922896 -0.396480
vt -1.673347 -0.402585
vt 1.922896 -0.396398
vt 1.673346 -0.402502
vt 1.673346 -0.588456
vt 1.673347 0.204478
vt 1.922896 0.201378
vt 1.922896 0.396558
vt -1.922896 -0.396398
vt -1.922896 -0.579532
vt -1.673347 -0.588457
vt -1.673347 0.756609
vt -1.922896 0.745136
vt -1.922896 0.579613
vt -1.922896 -0.579531
vt -1.922896 -0.745054
vt -1.673347 -0.756528
vt 1.673347 -0.204395
vt 1.673347 -0.402581
vt 1.922896 -0.396476
vt -1.922896 -0.579532
vt -1.922896 -0.745054
vt -1.673347 -0.756528
vt 1.673347 0.000002
vt 1.922896 0.000002
vt 1.922896 0.201299
vt -1.922896 -0.745136
vt -1.673346 -0.756610
vt -1.673347 -0.588539
vt 1.673347 0.402664
vt 1.922896 0.396559
vt 1.922896 0.579693
vt -1.922896 -0.745136
vt -1.922896 -0.888019
vt -1.673347 -0.901693
vt 1.673347 0.204478
vt 1.922896 0.201378
vt 1.922896 0.396559
vt 1.922896 -0.579531
vt 1.673346 -0.588456
vt 1.673347 -0.756528
vt 1.922896 0.000081
vt 1.922896 0.201378
vt 1.673347 0.204478
vt 1.673347 -0.000002
vt 1.922896 -0.000002
vt 1.922896 0.201295
vt 1.673347 0.756609
vt 1.673347 0.588538
vt 1.922896 0.579613
vt 1.922896 -0.201217
vt 1.673346 -0.204315
vt 1.673346 -0.402502
f 1/1 2/2 3/3
f 4/4 5/5 6/6
f 7/7 8/8 9/9
f 10/10 11/11 12/12
f 13/13 14/14 15/15
f 16/16 17/17 18/18
f 19/19 20/20 21/21
f 22/22 23/23 24/24
f 25/25 26/26 27/27
f 28/28 29/29 30/30
f 31/31 32/32 33/33
f 34/34 35/35 36/36
f 37/37 38/38 39/39
f 40/40 41/41 42/42
f 43/43 44/44 45/45
f 46/46 47/47 48/48
f 49/49 50/50 51/51
f 52/52 53/53 54/54
f 55/55 56/56 57/57
f 58/58 59/59 60/60
f 61/61 62/62 63/63
f 64/64 65/65 66/66
f 67/67 68/68 69/69
f 70/70 71/71 72/72
f 73/73 74/74 75/75
f 76/76 77/77 78/78
f 79/79 80/80 81/81
f 82/82 83/83 84/84
f 85/85 86/86 87/87
f 88/88 89/89 90/90
f 91/91 92/92 93/93
f 94/94 95/95 96/96
f 97/97 98/98 99/99
f 100/100 101/101 102/102
f 103/103 104/104 105/105
f 106/106 107/107 108/108
f 109/109 110/110 111/111
f 112/112 113/113 114/114
f 115/115 116/116 117/117
f 118/118 119/119 120/120
f 121/121 122/122 123/123
f 124/124 125/125 126/126
f 127/127 128/128 129/129
f 130/130 131/131 132/132
f 133/133 134/134 135/135
f 136/136 137/137 138/138
f 139/139 140/140 141/141
f 142/142 143/143 144/144
f 145/145 146/146 147/147
f 148/148 149/149 150/150
f 151/151 152/152 153/153
f 154/154 155/155 156/156
f 157/157 158/158 159/159
f 160/160 161/161 162/162
f 163/163 164/164 165/165
f 166/166 167/167 168/168
f 169/169 170/170 171/171
f 172/172 173/173 174/174
f 175/175 176/176 177/177
f 178/178 179/179 180/180
f 181/181 182/182 183/183
f 184/184 185/185 186/186
f 187/187 188/188 189/189
f 190/190 191/191 192/192
f 193/193 194/194 195/195
f 196/196 197/197 198/198
f 199/199 200/200 201/201
f 202/202 203/203 204/204
f 205/205 206/206 207/207
f 208/208 209/209 210/210
f 211/211 212/212 213/213
f 214/214 215/215 216/216
f 217/217 218/218 219/219
f 220/220 221/221 222/222
f 223/223 224/224 225/225
f 226/226 227/227 228/228
f 229/229 230/230 231/231
f 232/232 233/233 234/234
f 235/235 236/236 237/237
f 238/238 239/239 240/240
f 241/241 242/242 243/243
f 244/244 245/245 246/246
f 247/247 248/248 249/249
f 250/250 251/251 252/252
f 253/253 254/254 255/255
f 256/256 257/257 258/258
f 259/259 260/260 261/261
f 262/262 263/263 264/264
f 265/265 266/266 267/267
f 268/268 269/269 270/270
f 271/271 272/272 273/273
f 274/274 275/275 276/276
f 277/277 278/278 279/279
f 280/280 281/281 282/282
f 283/283 284/284 285/285
f 286/286 287/287 288/288
f 289/289 290/290 291/291
f 292/292 293/293 294/294
f 295/295 296/296 297/297
f 298/298 299/299 300/300
f 301/301 302/302 303/303
f 304/304 305/305 306/306
f 307/307 308/308 309/309
f 310/310 311/311 312/312
f 313/313 314/314 315/315
f 316/316 317/317 318/318
f 319/319 320/320 321/321
f 322/322 323/323 324/324
f 325/325 326/326 327/327
f 328/328 329/329 330/330
f 331/331 332/332 333/333
f 334/334 335/335 336/336
f 337/337 338/338 339/339
f 340/340 341/341 342/342
f 343/343 344/344 345/345
f 346/346 347/347 348/348
f 349/349 350/350 351/351
f 352/352 353/353 354/354
f 355/355 356/356 357/357
f 358/358 359/359 360/360
f 361/361 362/362 363/363
f 364/364 365/365 366/366
f 367/367 368/368 369/369
f 370/370 371/371 372/372
f 373/373 374/374 375/375
f 376/376 377/377 378/378
f 379/379 380/380 381/381
f 382/382 383/383 384/384
f 385/385 386/386 387/387
f 388/388 389/389 390/390
f 391/391 392/392 393/393
f 394/394 395/395 396/396
f 397/397 398/398 399/399
f 400/400 401/401 402/402
f 403/403 404/404 405/405
f 406/406 407/407 408/408
f 409/409 410/410 411/411
f 412/412 413/413 414/414
f 415/415 416/416 417/417
f 418/418 419/419 420/420
f 421/421 422/422 423/423
f 424/424 425/425 426/426
f 427/427 428/428 429/429
f 430/430 431/431 432/432
