# Blender 5.2.1 LTS
# www.blender.org
o s060_Wheels_02.003
v -56.917267 15.866790 -26.248442
v -56.917267 16.417473 -26.615765
v -56.917267 17.267027 -16.530375
v -56.917267 17.558956 -10.136196
v -56.917267 17.940718 -0.000006
v -56.917267 17.807983 10.279948
v -56.917267 17.408838 16.600632
v -56.917267 15.866811 26.248392
v -56.917267 16.417496 26.615715
v -59.539696 17.690601 -16.491308
v -59.539696 16.418951 -25.513971
v -59.539696 18.017187 -9.891327
v -59.539696 18.346094 0.000081
v -59.539711 18.247238 10.038614
v -59.539696 17.812485 16.572594
v -59.539684 16.418972 25.514084
v -67.831558 -20.620808 -0.000006
v -67.831558 -20.391329 1.153658
v -67.831558 -19.737831 2.131691
v -67.831558 -18.759802 2.785177
v -67.831558 -17.606138 3.014663
v -67.831558 -16.452465 2.785177
v -67.831558 -15.474438 2.131691
v -67.831558 -14.820937 1.153646
v -67.831558 -14.591452 -0.000013
v -67.831558 -14.820937 -1.153690
v -67.831558 -15.474438 -2.131703
v -67.831558 -16.452467 -2.785215
v -67.831558 -17.606142 -3.014688
v -67.831558 -18.759806 -2.785208
v -67.831558 -19.737837 -2.131703
v -67.831558 -20.391329 -1.153677
v -59.539696 16.967014 25.869102
v -59.539696 16.966995 -25.868990
v -59.539684 20.415140 23.357258
v -56.917267 20.145489 24.005350
v -59.539684 24.027489 19.599062
v -56.917267 24.007975 20.142874
v -59.539696 26.957638 15.245369
v -56.917267 27.141024 15.668368
v -59.539696 29.116604 10.428474
v -56.917267 29.449530 10.717779
v -59.539711 30.438831 5.294712
v -56.917267 30.863295 5.441548
v -59.539711 30.884071 0.000069
v -56.917267 31.339365 -0.000031
v -59.539711 30.438831 -5.294574
v -56.917267 30.863295 -5.441592
v -59.539696 29.116596 -10.428336
v -56.917267 29.449511 -10.717842
v -59.539684 26.957632 -15.245232
v -56.917267 27.141018 -15.668418
v -59.539696 24.027483 -19.598911
v -56.917267 24.007956 -20.142912
v -59.539711 20.415134 -23.357082
v -56.917267 20.145481 -24.005386
v -64.350082 -1.958819 0.814717
v -64.350082 0.008091 -0.000013
v -64.350082 -1.497324 1.505404
v -64.350082 -2.120876 -0.000019
v -64.350082 -0.806625 1.966892
v -64.350082 -1.958819 -0.814730
v -64.350082 0.008086 2.128962
v -64.350082 -1.497325 -1.505417
v -64.350082 0.822803 1.966886
v -64.350082 -0.806638 -1.966924
v -64.350082 1.513503 1.505398
v -64.350082 0.008086 -2.128987
v -64.350082 1.975004 0.814711
v -64.350082 0.822803 -1.966930
v -64.350082 2.137061 -0.000025
v -64.350082 1.513502 -1.505423
v -64.350082 1.975003 -0.814736
v -59.574856 2.029683 11.496284
v -59.574844 0.002580 11.673638
v -59.574856 0.002578 -0.000019
v -59.574871 3.995217 10.969614
v -59.574844 -2.024530 11.496284
v -59.574856 5.839402 10.109667
v -59.574856 -3.990058 10.969621
v -59.574856 7.506259 8.942521
v -59.574856 -5.834250 10.109667
v -59.574871 8.945132 7.503670
v -59.574856 -7.501101 8.942521
v -59.574871 10.112269 5.836816
v -59.574856 -8.939958 7.503658
v -59.574871 10.972220 3.992621
v -59.574844 -10.107118 5.836803
v -59.574856 11.498897 2.027093
v -59.574856 -10.967053 3.992596
v -59.574844 11.676237 -0.000013
v -59.574856 -11.493732 2.027080
v -59.574856 11.498897 -2.027118
v -59.574856 -11.671080 -0.000019
v -59.574856 10.972233 -3.992634
v -59.574844 -11.493732 -2.027124
v -59.574856 10.112253 -5.836841
v -59.574844 -10.967063 -3.992634
v -59.574844 8.945129 -7.503683
v -59.574844 -10.107112 -5.836841
v -59.574844 7.506244 -8.942565
v -59.574844 -8.939967 -7.503695
v -59.574844 5.839386 -10.109711
v -59.574856 -7.501102 -8.942565
v -59.574856 3.995215 -10.969665
v -59.574856 -5.834259 -10.109711
v -59.574856 2.029680 -11.496310
v -59.574856 -3.990038 -10.969658
v -59.574856 0.002563 -11.673681
v -59.574856 -2.024540 -11.496323
v -67.831566 -17.606134 -0.000014
v 56.917267 15.866787 -26.248447
v 56.917267 16.417471 -26.615768
v 56.917267 17.267025 -16.530380
v 56.917267 17.558954 -10.136202
v 56.917267 17.940718 -0.000012
v 56.917267 17.807985 10.279943
v 56.917267 17.408840 16.600626
v 56.917267 15.866812 26.248384
v 56.917267 16.417496 26.615711
v 59.539696 17.690599 -16.491316
v 59.539696 16.418949 -25.513977
v 59.539696 18.017187 -9.891333
v 59.539696 18.346094 0.000076
v 59.539711 18.247238 10.038609
v 59.539696 17.812487 16.572588
v 59.539684 16.418974 25.514076
v 67.831558 -20.620808 -0.000008
v 67.831558 -20.391329 1.153656
v 67.831558 -19.737831 2.131689
v 67.831558 -18.759802 2.785175
v 67.831558 -17.606138 3.014661
v 67.831558 -16.452465 2.785175
v 67.831558 -15.474438 2.131688
v 67.831558 -14.820937 1.153643
v 67.831558 -14.591452 -0.000015
v 67.831558 -14.820937 -1.153692
v 67.831558 -15.474438 -2.131706
v 67.831558 -16.452467 -2.785217
v 67.831558 -17.606142 -3.014691
v 67.831558 -18.759806 -2.785211
v 67.831558 -19.737837 -2.131706
v 67.831558 -20.391329 -1.153679
v 59.539696 16.967016 25.869097
v 59.539696 16.966991 -25.868996
v 59.539684 20.415142 23.357252
v 56.917267 20.145491 24.005342
v 59.539684 24.027491 19.599054
v 56.917267 24.007977 20.142868
v 59.539696 26.957638 15.245363
v 56.917267 27.141024 15.668362
v 59.539696 29.116604 10.428468
v 56.917267 29.449530 10.717772
v 59.539711 30.438831 5.294705
v 56.917267 30.863295 5.441542
v 59.539711 30.884071 0.000062
v 56.917267 31.339365 -0.000038
v 59.539711 30.438831 -5.294581
v 56.917267 30.863295 -5.441599
v 59.539696 29.116596 -10.428343
v 56.917267 29.449511 -10.717848
v 59.539684 26.957632 -15.245238
v 56.917267 27.141018 -15.668425
v 59.539696 24.027481 -19.598917
v 56.917267 24.007956 -20.142918
v 59.539711 20.415133 -23.357090
v 56.917267 20.145479 -24.005394
v 64.350082 -1.958819 0.814714
v 64.350082 0.008091 -0.000016
v 64.350082 -1.497324 1.505400
v 64.350082 -2.120876 -0.000023
v 64.350082 -0.806625 1.966889
v 64.350082 -1.958819 -0.814734
v 64.350082 0.008086 2.128958
v 64.350082 -1.497325 -1.505420
v 64.350082 0.822804 1.966882
v 64.350082 -0.806638 -1.966928
v 64.350082 1.513503 1.505394
v 64.350082 0.008086 -2.128991
v 64.350082 1.975004 0.814707
v 64.350082 0.822803 -1.966934
v 64.350082 2.137061 -0.000029
v 64.350082 1.513502 -1.505427
v 64.350082 1.975003 -0.814740
v 59.574856 2.029684 11.496281
v 59.574844 0.002581 11.673634
v 59.574856 0.002579 -0.000023
v 59.574871 3.995218 10.969610
v 59.574844 -2.024529 11.496281
v 59.574856 5.839403 10.109662
v 59.574856 -3.990057 10.969617
v 59.574856 7.506260 8.942517
v 59.574856 -5.834249 10.109664
v 59.574871 8.945133 7.503665
v 59.574856 -7.501100 8.942518
v 59.574871 10.112270 5.836811
v 59.574856 -8.939957 7.503654
v 59.574871 10.972220 3.992616
v 59.574844 -10.107117 5.836800
v 59.574856 11.498897 2.027088
v 59.574856 -10.967053 3.992593
v 59.574844 11.676237 -0.000017
v 59.574856 -11.493732 2.027077
v 59.574856 11.498897 -2.027123
v 59.574856 -11.671080 -0.000022
v 59.574856 10.972233 -3.992638
v 59.574844 -11.493732 -2.027127
v 59.574856 10.112252 -5.836845
v 59.574844 -10.967063 -3.992637
v 59.574844 8.945129 -7.503687
v 59.574844 -10.107113 -5.836844
v 59.574844 7.506243 -8.942570
v 59.574844 -8.939968 -7.503698
v 59.574844 5.839385 -10.109715
v 59.574856 -7.501103 -8.942569
v 59.574856 3.995214 -10.969668
v 59.574856 -5.834260 -10.109714
v 59.574856 2.029680 -11.496314
v 59.574856 -3.990039 -10.969662
v 59.574856 0.002562 -11.673686
v 59.574856 -2.024541 -11.496326
v 67.831566 -17.606134 -0.000016
vn 1.0000 -0.0000 -0.0000
vn -1.0000 -0.0000 -0.0000
vn -0.1513 -0.9825 -0.1085
vn -0.1596 -0.9749 -0.1552
vn -0.1511 -0.9827 -0.1070
vn 0.1604 -0.9862 -0.0404
vn 0.1511 -0.9827 -0.1070
vn 0.1513 -0.9825 -0.1085
vn 0.1550 -0.9878 0.0117
vn 0.1608 -0.9863 -0.0373
vn 0.1669 -0.9850 0.0428
vn 0.1586 -0.9831 0.0911
vn 0.1668 -0.9851 0.0422
vn 0.1596 -0.9749 -0.1552
vn 0.3324 -0.5143 0.7906
vn 0.3306 -0.5222 0.7862
vn 0.3302 -0.5238 0.7853
vn -0.3324 -0.5143 0.7906
vn -0.3306 -0.5222 0.7862
vn -0.3328 -0.5127 0.7915
vn -0.1177 0.6339 -0.7644
vn -0.1208 0.5744 -0.8096
vn -0.1231 0.6561 -0.7446
vn -0.1206 0.7597 -0.6390
vn -0.1291 0.7727 -0.6215
vn 0.1341 0.8588 0.4944
vn 0.1290 0.7727 0.6215
vn 0.1427 0.8653 0.4805
vn -0.1506 0.9297 -0.3361
vn -0.1427 0.8653 -0.4805
vn -0.1573 0.9320 -0.3266
vn 0.1639 0.9718 0.1694
vn 0.1573 0.9320 0.3266
vn 0.1676 0.9720 0.1646
vn 0.1676 0.9720 -0.1646
vn 0.1691 0.9856 -0.0000
vn 0.1711 0.9853 -0.0000
vn 0.1573 0.9320 -0.3266
vn 0.1639 0.9718 -0.1694
vn 0.1427 0.8653 -0.4805
vn 0.1506 0.9297 -0.3361
vn 0.1291 0.7727 -0.6215
vn 0.1341 0.8588 -0.4944
vn 0.1231 0.6561 -0.7446
vn 0.1206 0.7597 -0.6390
vn 0.1208 0.5744 -0.8096
vn 0.1177 0.6339 -0.7644
vn 0.3324 -0.5143 -0.7905
vn 0.3306 -0.5222 -0.7862
vn 0.3328 -0.5127 -0.7914
vn -0.1608 -0.9863 -0.0373
vn -0.1550 -0.9878 0.0117
vn -0.1604 -0.9862 -0.0404
vn 0.1505 0.9297 0.3361
vn -0.1341 0.8588 0.4944
vn -0.1290 0.7727 0.6215
vn -0.1206 0.7597 0.6390
vn -0.1584 -0.9830 0.0927
vn -0.1646 -0.9764 0.1402
vn -0.1661 -0.9760 0.1406
vn -0.1669 -0.9850 0.0428
vn -0.1586 -0.9831 0.0911
vn -0.1668 -0.9851 0.0422
vn -0.1691 0.9856 -0.0000
vn -0.1676 0.9720 -0.1646
vn -0.1711 0.9853 -0.0000
vn -0.3306 -0.5222 -0.7862
vn -0.3324 -0.5143 -0.7905
vn -0.3328 -0.5127 -0.7914
vn -0.1177 0.6339 0.7644
vn -0.1208 0.5744 0.8096
vn -0.1123 0.5699 0.8140
vn -0.1231 0.6561 0.7446
vn -0.1341 0.8588 -0.4944
vn -0.1505 0.9297 0.3361
vn -0.1427 0.8653 0.4805
vn -0.1639 0.9718 -0.1694
vn -0.1676 0.9720 0.1646
vn -0.1639 0.9718 0.1694
vn 0.1584 -0.9830 0.0927
vn 0.1646 -0.9764 0.1402
vn 0.1206 0.7597 0.6390
vn 0.1114 0.7065 0.6989
vn -0.1573 0.9320 0.3266
vn -0.1616 -0.9745 -0.1558
vn 0.1528 -0.9882 0.0115
vn 0.1616 -0.9745 -0.1558
vn 0.3328 -0.5127 0.7915
vn -0.3302 -0.5238 0.7853
vn -0.1124 0.5699 -0.8140
vn 0.1124 0.5699 -0.8140
vn 0.3302 -0.5238 -0.7852
vn -0.1528 -0.9882 0.0115
vn -0.3302 -0.5238 -0.7852
vn 0.1661 -0.9760 0.1406
vn 0.1015 0.7035 0.7035
vt 0.027116 0.497602
vt 0.042840 0.487683
vt 0.027221 0.490174
vt 0.040797 0.479219
vt 0.028515 0.482992
vt 0.030987 0.476244
vt 0.053274 0.521378
vt 0.054740 0.535170
vt 0.051311 0.521882
vt 0.051235 0.513292
vt 0.047975 0.500029
vt 0.049027 0.513541
vt 0.044914 0.486827
vt 0.055393 0.536489
vt 0.056686 0.535452
vt 0.054311 0.535371
vt 0.033086 0.469433
vt 0.036529 0.465600
vt 0.034353 0.470236
vt 0.029165 0.475661
vt 0.037195 0.525434
vt 0.044223 0.528979
vt 0.038874 0.524195
vt 0.025040 0.490176
vt 0.028633 0.512781
vt 0.034271 0.518451
vt 0.030712 0.511946
vt 0.026121 0.505482
vt 0.028322 0.504932
vt 0.024907 0.497850
vt 0.026462 0.482671
vt 0.050020 0.532688
vt 0.045779 0.500557
vt 0.037361 0.465628
vt 0.755180 0.566220
vt 0.752371 0.565863
vt 0.755071 0.565117
vt 0.754529 0.564152
vt 0.754893 0.567285
vt 0.753729 0.563447
vt 0.754215 0.568138
vt 0.752688 0.563048
vt 0.753215 0.568619
vt 0.751565 0.563080
vt 0.752109 0.568681
vt 0.750549 0.563562
vt 0.751060 0.568275
vt 0.749880 0.564439
vt 0.750244 0.567572
vt 0.749609 0.565502
vt 0.749727 0.566613
vt 0.073371 0.493639
vt 0.076545 0.507444
vt 0.074115 0.507767
vt 0.071692 0.507621
vt 0.078961 0.506701
vt 0.069316 0.507085
vt 0.081145 0.505580
vt 0.067118 0.506158
vt 0.083153 0.504045
vt 0.065062 0.504828
vt 0.084812 0.502181
vt 0.063328 0.503214
vt 0.086153 0.500036
vt 0.061889 0.501334
vt 0.087086 0.497684
vt 0.060724 0.499237
vt 0.087596 0.495196
vt 0.059974 0.497018
vt 0.087660 0.492662
vt 0.059586 0.494680
vt 0.087272 0.490139
vt 0.059578 0.492294
vt 0.086429 0.487758
vt 0.059981 0.489950
vt 0.085170 0.485542
vt 0.060778 0.487707
vt 0.083539 0.483589
vt 0.061932 0.485596
vt 0.081617 0.481956
vt 0.063447 0.483723
vt 0.079429 0.480711
vt 0.065274 0.482112
vt 0.077059 0.479880
vt 0.067339 0.480857
vt 0.074590 0.479453
vt 0.069680 0.479980
vt 0.072080 0.479491
vt 0.847835 0.889505
vt 0.845284 0.885675
vt 0.849095 0.888224
vt 0.849789 0.886564
vt 0.846204 0.890183
vt 0.849784 0.884786
vt 0.844387 0.890180
vt 0.849094 0.883124
vt 0.842742 0.889492
vt 0.847829 0.881845
vt 0.841475 0.888238
vt 0.846167 0.881176
vt 0.840784 0.886576
vt 0.844370 0.881165
vt 0.840781 0.884773
vt 0.842739 0.881842
vt 0.841459 0.883132
vt 0.037009 0.464117
vt 0.032372 0.519493
vt 0.042871 0.530356
vt 0.042756 0.478651
vt 0.038647 0.464430
vt 0.049257 0.533989
s 1
f 158/1/1 123/2/1 160/3/1
f 10/4/2 51/5/2 53/6/2
f 7/7/3 16/8/4 15/9/5
f 117/10/6 126/9/7 118/7/8
f 116/11/9 125/12/10 117/10/6
f 115/13/11 121/4/12 123/2/13
f 127/8/14 118/7/8 126/9/7
f 127/8/15 120/14/16 119/15/17
f 16/8/18 9/14/19 33/16/20
f 56/17/21 34/18/22 55/19/23
f 54/20/24 55/19/23 53/6/25
f 151/21/26 148/22/27 150/23/28
f 50/24/29 51/5/30 49/3/31
f 155/25/32 152/26/33 154/27/34
f 158/1/35 157/28/36 156/29/37
f 160/3/38 159/30/39 158/1/35
f 162/5/40 161/24/41 160/3/38
f 164/6/42 163/31/43 162/5/40
f 166/19/44 165/20/45 164/6/42
f 145/18/46 167/17/47 166/19/44
f 15/9/2 16/8/2 33/16/2
f 35/32/2 15/9/2 33/16/2
f 37/22/2 15/9/2 35/32/2
f 41/26/2 14/12/2 39/23/2
f 154/27/1 125/12/1 124/33/1
f 45/29/2 13/33/2 43/27/2
f 47/1/2 13/33/2 45/29/2
f 51/5/2 12/2/2 49/3/2
f 162/5/1 121/4/1 164/6/1
f 55/19/2 10/4/2 53/6/2
f 55/19/2 34/18/2 10/4/2
f 34/18/2 11/34/2 10/4/2
f 59/35/2 58/36/2 57/37/2
f 57/37/2 58/36/2 60/38/2
f 61/39/2 58/36/2 59/35/2
f 60/38/2 58/36/2 62/40/2
f 63/41/2 58/36/2 61/39/2
f 62/40/2 58/36/2 64/42/2
f 65/43/2 58/36/2 63/41/2
f 64/42/2 58/36/2 66/44/2
f 67/45/2 58/36/2 65/43/2
f 66/44/2 58/36/2 68/46/2
f 69/47/2 58/36/2 67/45/2
f 68/46/2 58/36/2 70/48/2
f 71/49/2 58/36/2 69/47/2
f 70/48/2 58/36/2 72/50/2
f 73/51/2 58/36/2 71/49/2
f 72/50/2 58/36/2 73/51/2
f 76/52/2 75/53/2 74/54/2
f 76/52/2 74/54/2 77/55/2
f 76/52/2 78/56/2 75/53/2
f 76/52/2 77/55/2 79/57/2
f 76/52/2 80/58/2 78/56/2
f 76/52/2 79/57/2 81/59/2
f 76/52/2 82/60/2 80/58/2
f 76/52/2 81/59/2 83/61/2
f 76/52/2 84/62/2 82/60/2
f 76/52/2 83/61/2 85/63/2
f 76/52/2 86/64/2 84/62/2
f 76/52/2 85/63/2 87/65/2
f 76/52/2 88/66/2 86/64/2
f 76/52/2 87/65/2 89/67/2
f 76/52/2 90/68/2 88/66/2
f 76/52/2 89/67/2 91/69/2
f 76/52/2 92/70/2 90/68/2
f 76/52/2 91/69/2 93/71/2
f 76/52/2 94/72/2 92/70/2
f 76/52/2 93/71/2 95/73/2
f 76/52/2 96/74/2 94/72/2
f 76/52/2 95/73/2 97/75/2
f 76/52/2 98/76/2 96/74/2
f 76/52/2 97/75/2 99/77/2
f 76/52/2 100/78/2 98/76/2
f 76/52/2 99/77/2 101/79/2
f 76/52/2 102/80/2 100/78/2
f 76/52/2 101/79/2 103/81/2
f 76/52/2 104/82/2 102/80/2
f 76/52/2 103/81/2 105/83/2
f 76/52/2 106/84/2 104/82/2
f 76/52/2 105/83/2 107/85/2
f 76/52/2 108/86/2 106/84/2
f 76/52/2 107/85/2 109/87/2
f 76/52/2 110/88/2 108/86/2
f 76/52/2 109/87/2 110/88/2
f 25/89/2 111/90/2 24/91/2
f 24/91/2 111/90/2 23/92/2
f 26/93/2 111/90/2 25/89/2
f 23/92/2 111/90/2 22/94/2
f 27/95/2 111/90/2 26/93/2
f 22/94/2 111/90/2 21/96/2
f 28/97/2 111/90/2 27/95/2
f 21/96/2 111/90/2 20/98/2
f 29/99/2 111/90/2 28/97/2
f 20/98/2 111/90/2 19/100/2
f 30/101/2 111/90/2 29/99/2
f 19/100/2 111/90/2 18/102/2
f 31/103/2 111/90/2 30/101/2
f 18/102/2 111/90/2 17/104/2
f 32/105/2 111/90/2 31/103/2
f 17/104/2 111/90/2 32/105/2
f 14/12/2 43/27/2 13/33/2
f 122/34/48 113/106/49 145/18/50
f 14/12/51 5/11/52 6/10/53
f 153/107/54 150/23/28 152/26/33
f 40/21/55 37/22/56 38/108/57
f 123/2/13 116/11/9 115/13/11
f 3/109/58 11/34/59 1/110/60
f 4/13/61 10/4/62 3/109/58
f 5/11/52 12/2/63 4/13/61
f 15/9/5 6/10/53 7/7/3
f 46/28/64 47/1/65 45/29/66
f 2/106/67 11/34/68 34/18/69
f 36/111/70 33/16/71 9/14/72
f 38/108/57 35/32/73 36/111/70
f 52/31/74 53/6/25 51/5/30
f 42/107/75 39/23/76 40/21/55
f 48/30/77 49/3/31 47/1/65
f 46/28/64 43/27/78 44/25/79
f 157/28/36 154/27/34 156/29/37
f 114/109/80 122/34/81 121/4/12
f 126/9/1 150/23/1 148/22/1
f 126/9/1 144/16/1 127/8/1
f 146/32/1 144/16/1 126/9/1
f 148/22/1 146/32/1 126/9/1
f 39/23/2 15/9/2 37/22/2
f 152/26/1 150/23/1 125/12/1
f 149/108/82 146/32/83 148/22/27
f 156/29/1 154/27/1 124/33/1
f 158/1/1 156/29/1 124/33/1
f 12/2/2 47/1/2 49/3/2
f 162/5/1 160/3/1 123/2/1
f 166/19/1 164/6/1 121/4/1
f 166/19/1 121/4/1 145/18/1
f 145/18/1 121/4/1 122/34/1
f 170/35/1 168/37/1 169/36/1
f 168/37/1 171/38/1 169/36/1
f 172/39/1 170/35/1 169/36/1
f 171/38/1 173/40/1 169/36/1
f 174/41/1 172/39/1 169/36/1
f 173/40/1 175/42/1 169/36/1
f 176/43/1 174/41/1 169/36/1
f 175/42/1 177/44/1 169/36/1
f 178/45/1 176/43/1 169/36/1
f 177/44/1 179/46/1 169/36/1
f 180/47/1 178/45/1 169/36/1
f 179/46/1 181/48/1 169/36/1
f 182/49/1 180/47/1 169/36/1
f 181/48/1 183/50/1 169/36/1
f 184/51/1 182/49/1 169/36/1
f 183/50/1 184/51/1 169/36/1
f 44/25/79 41/26/84 42/107/75
f 187/52/1 185/54/1 186/53/1
f 187/52/1 188/55/1 185/54/1
f 187/52/1 186/53/1 189/56/1
f 187/52/1 190/57/1 188/55/1
f 187/52/1 189/56/1 191/58/1
f 187/52/1 192/59/1 190/57/1
f 187/52/1 191/58/1 193/60/1
f 187/52/1 194/61/1 192/59/1
f 187/52/1 193/60/1 195/62/1
f 187/52/1 196/63/1 194/61/1
f 187/52/1 195/62/1 197/64/1
f 187/52/1 198/65/1 196/63/1
f 187/52/1 197/64/1 199/66/1
f 187/52/1 200/67/1 198/65/1
f 187/52/1 199/66/1 201/68/1
f 187/52/1 202/69/1 200/67/1
f 187/52/1 201/68/1 203/70/1
f 187/52/1 204/71/1 202/69/1
f 187/52/1 203/70/1 205/72/1
f 187/52/1 206/73/1 204/71/1
f 187/52/1 205/72/1 207/74/1
f 187/52/1 208/75/1 206/73/1
f 187/52/1 207/74/1 209/76/1
f 187/52/1 210/77/1 208/75/1
f 187/52/1 209/76/1 211/78/1
f 187/52/1 212/79/1 210/77/1
f 187/52/1 211/78/1 213/80/1
f 187/52/1 214/81/1 212/79/1
f 187/52/1 213/80/1 215/82/1
f 187/52/1 216/83/1 214/81/1
f 187/52/1 215/82/1 217/84/1
f 187/52/1 218/85/1 216/83/1
f 187/52/1 217/84/1 219/86/1
f 187/52/1 220/87/1 218/85/1
f 187/52/1 219/86/1 221/88/1
f 187/52/1 221/88/1 220/87/1
f 136/89/1 135/91/1 222/90/1
f 135/91/1 134/92/1 222/90/1
f 137/93/1 136/89/1 222/90/1
f 134/92/1 133/94/1 222/90/1
f 138/95/1 137/93/1 222/90/1
f 133/94/1 132/96/1 222/90/1
f 139/97/1 138/95/1 222/90/1
f 132/96/1 131/98/1 222/90/1
f 140/99/1 139/97/1 222/90/1
f 131/98/1 130/100/1 222/90/1
f 141/101/1 140/99/1 222/90/1
f 130/100/1 129/102/1 222/90/1
f 142/103/1 141/101/1 222/90/1
f 129/102/1 128/104/1 222/90/1
f 143/105/1 142/103/1 222/90/1
f 128/104/1 143/105/1 222/90/1
f 158/1/1 124/33/1 123/2/1
f 10/4/2 12/2/2 51/5/2
f 7/7/3 8/15/85 16/8/4
f 117/10/6 125/12/10 126/9/7
f 116/11/9 124/33/86 125/12/10
f 115/13/11 114/109/80 121/4/12
f 127/8/14 119/15/87 118/7/8
f 127/8/15 144/16/88 120/14/16
f 16/8/18 8/15/89 9/14/19
f 56/17/21 2/106/90 34/18/22
f 54/20/24 56/17/21 55/19/23
f 151/21/26 149/108/82 148/22/27
f 50/24/29 52/31/74 51/5/30
f 155/25/32 153/107/54 152/26/33
f 158/1/35 159/30/39 157/28/36
f 160/3/38 161/24/41 159/30/39
f 162/5/40 163/31/43 161/24/41
f 164/6/42 165/20/45 163/31/43
f 166/19/44 167/17/47 165/20/45
f 145/18/46 113/106/91 167/17/47
f 154/27/1 152/26/1 125/12/1
f 162/5/1 123/2/1 121/4/1
f 14/12/2 41/26/2 43/27/2
f 122/34/48 112/110/92 113/106/49
f 14/12/51 13/33/93 5/11/52
f 153/107/54 151/21/26 150/23/28
f 40/21/55 39/23/76 37/22/56
f 123/2/13 124/33/86 116/11/9
f 3/109/58 10/4/62 11/34/59
f 4/13/61 12/2/63 10/4/62
f 5/11/52 13/33/93 12/2/63
f 15/9/5 14/12/51 6/10/53
f 46/28/64 48/30/77 47/1/65
f 2/106/67 1/110/94 11/34/68
f 36/111/70 35/32/73 33/16/71
f 38/108/57 37/22/56 35/32/73
f 52/31/74 54/20/24 53/6/25
f 42/107/75 41/26/84 39/23/76
f 48/30/77 50/24/29 49/3/31
f 46/28/64 45/29/66 43/27/78
f 157/28/36 155/25/32 154/27/34
f 114/109/80 112/110/95 122/34/81
f 126/9/1 125/12/1 150/23/1
f 39/23/2 14/12/2 15/9/2
f 149/108/82 147/111/96 146/32/83
f 12/2/2 13/33/2 47/1/2
f 44/25/79 43/27/78 41/26/84
