# generated by p2m_box_uv.py - box UVs replicate Prop2Mesh's cl_meshlab.lua
v -64.350082 -1.497330 1.505364
v -64.350082 0.008085 -0.000052
v -64.350082 -1.958825 0.814677
v -64.350082 -1.958825 0.814677
v -64.350082 0.008085 -0.000052
v -64.350082 -2.120883 -0.000059
v -64.350082 -0.806631 1.966852
v -64.350082 0.008085 -0.000052
v -64.350082 -1.497330 1.505364
v -64.350082 -2.120883 -0.000059
v -64.350082 0.008085 -0.000052
v -64.350082 -1.958825 -0.814770
v -64.350082 0.008080 2.128928
v -64.350082 0.008085 -0.000052
v -64.350082 -0.806631 1.966852
v -64.350082 -1.958825 -0.814770
v -64.350082 0.008085 -0.000052
v -64.350082 -1.497331 -1.505457
v -64.350082 0.822797 1.966851
v -64.350082 0.008085 -0.000052
v -64.350082 0.008080 2.128928
v -64.350082 -1.497331 -1.505457
v -64.350082 0.008085 -0.000052
v -64.350082 -0.806644 -1.966964
v -64.350082 1.513497 1.505363
v -64.350082 0.008085 -0.000052
v -64.350082 0.822797 1.966851
v -64.350082 -0.806644 -1.966964
v -64.350082 0.008085 -0.000052
v -64.350082 0.008080 -2.129028
v -64.350082 1.974997 0.814676
v -64.350082 0.008085 -0.000052
v -64.350082 1.513497 1.505363
v -64.350082 0.008080 -2.129028
v -64.350082 0.008085 -0.000052
v -64.350082 0.822797 -1.966965
v -64.350082 2.137054 -0.000060
v -64.350082 0.008085 -0.000052
v -64.350082 1.974997 0.814676
v -64.350082 0.822797 -1.966965
v -64.350082 0.008085 -0.000052
v -64.350082 1.513496 -1.505458
v -64.350082 1.974997 -0.814771
v -64.350082 0.008085 -0.000052
v -64.350082 2.137054 -0.000060
v -64.350082 1.513496 -1.505458
v -64.350082 0.008085 -0.000052
v -64.350082 1.974997 -0.814771
v -75.499336 -19.737837 2.131655
v -75.499329 -17.606134 -0.000052
v -75.499336 -20.391336 1.153597
v -75.499336 -20.391336 1.153597
v -75.499329 -17.606134 -0.000052
v -75.499329 -20.620810 -0.000055
v -75.499336 -18.759804 2.785135
v -75.499329 -17.606134 -0.000052
v -75.499336 -19.737837 2.131655
v -75.499329 -20.620810 -0.000055
v -75.499329 -17.606134 -0.000052
v -75.499321 -20.391336 -1.153719
v -75.499336 -17.606140 3.014615
v -75.499329 -17.606134 -0.000052
v -75.499336 -18.759804 2.785135
v -75.499321 -20.391336 -1.153719
v -75.499329 -17.606134 -0.000052
v -75.499336 -19.737843 -2.131727
v -75.499336 -16.452463 2.785134
v -75.499329 -17.606134 -0.000052
v -75.499336 -17.606140 3.014615
v -75.499336 -19.737843 -2.131727
v -75.499329 -17.606134 -0.000052
v -75.499336 -18.759804 -2.785244
v -75.499336 -15.474436 2.131654
v -75.499329 -17.606134 -0.000052
v -75.499336 -16.452463 2.785134
v -75.499336 -18.759804 -2.785244
v -75.499329 -17.606134 -0.000052
v -75.499336 -17.606140 -3.014731
v -75.499336 -14.820944 1.153590
v -75.499329 -17.606134 -0.000052
v -75.499336 -15.474436 2.131654
v -75.499336 -17.606140 -3.014731
v -75.499329 -17.606134 -0.000052
v -75.499321 -16.452469 -2.785245
v -75.499336 -14.591457 -0.000056
v -75.499329 -17.606134 -0.000052
v -75.499336 -14.820944 1.153590
v -75.499321 -16.452469 -2.785245
v -75.499329 -17.606134 -0.000052
v -75.499321 -15.474436 -2.131728
v -75.499321 -14.820944 -1.153733
v -75.499329 -17.606134 -0.000052
v -75.499336 -14.591457 -0.000056
v -75.499321 -15.474436 -2.131728
v -75.499329 -17.606134 -0.000052
v -75.499321 -14.820944 -1.153733
v -59.574856 0.002572 -0.000059
v -59.574844 0.002573 11.673599
v -59.574856 2.029676 11.496250
v -59.574856 0.002572 -0.000059
v -59.574856 2.029676 11.496250
v -59.574871 3.995211 10.969579
v -59.574856 0.002572 -0.000059
v -59.574844 -2.024537 11.496250
v -59.574844 0.002573 11.673599
v -59.574856 0.002572 -0.000059
v -59.574871 3.995211 10.969579
v -59.574856 5.839396 10.109631
v -59.574856 0.002572 -0.000059
v -59.574856 -3.990064 10.969583
v -59.574844 -2.024537 11.496250
v -59.574856 0.002572 -0.000059
v -59.574856 5.839396 10.109631
v -59.574856 7.506253 8.942485
v -59.574856 0.002572 -0.000059
v -59.574856 -5.834256 10.109631
v -59.574856 -3.990064 10.969583
v -59.574856 0.002572 -0.000059
v -59.574856 7.506253 8.942485
v -59.574871 8.945126 7.503633
v -59.574856 0.002572 -0.000059
v -59.574856 -7.501107 8.942485
v -59.574856 -5.834256 10.109631
v -59.574856 0.002572 -0.000059
v -59.574871 8.945126 7.503633
v -59.574871 10.112264 5.836781
v -59.574856 0.002572 -0.000059
v -59.574856 -8.939964 7.503623
v -59.574856 -7.501107 8.942485
v -59.574856 0.002572 -0.000059
v -59.574871 10.112264 5.836781
v -59.574871 10.972214 3.992582
v -59.574856 0.002572 -0.000059
v -59.574844 -10.107123 5.836765
v -59.574856 -8.939964 7.503623
v -59.574856 0.002572 -0.000059
v -59.574871 10.972214 3.992582
v -59.574856 11.498891 2.027055
v -59.574856 0.002572 -0.000059
v -59.574856 -10.967060 3.992558
v -59.574844 -10.107123 5.836765
v -59.574856 0.002572 -0.000059
v -59.574856 11.498891 2.027055
v -59.574844 11.676231 -0.000048
v -59.574856 0.002572 -0.000059
v -59.574856 -11.493738 2.027045
v -59.574856 -10.967060 3.992558
v -59.574856 0.002572 -0.000059
v -59.574844 11.676231 -0.000048
v -59.574856 11.498891 -2.027158
v -59.574856 0.002572 -0.000059
v -59.574856 -11.671086 -0.000057
v -59.574856 -11.493738 2.027045
v -59.574856 0.002572 -0.000059
v -59.574856 11.498891 -2.027158
v -59.574856 10.972226 -3.992671
v -59.574856 0.002572 -0.000059
v -59.574844 -11.493738 -2.027160
v -59.574856 -11.671086 -0.000057
v -59.574856 0.002572 -0.000059
v -59.574856 10.972226 -3.992671
v -59.574856 10.112247 -5.836878
v -59.574856 0.002572 -0.000059
v -59.574844 -10.967069 -3.992673
v -59.574844 -11.493738 -2.027160
v -59.574856 0.002572 -0.000059
v -59.574856 10.112247 -5.836878
v -59.574844 8.945124 -7.503721
v -59.574856 0.002572 -0.000059
v -59.574844 -10.107118 -5.836880
v -59.574844 -10.967069 -3.992673
v -59.574856 0.002572 -0.000059
v -59.574844 8.945124 -7.503721
v -59.574844 7.506238 -8.942605
v -59.574856 0.002572 -0.000059
v -59.574844 -8.939974 -7.503731
v -59.574844 -10.107118 -5.836880
v -59.574856 0.002572 -0.000059
v -59.574844 7.506238 -8.942605
v -59.574844 5.839379 -10.109750
v -59.574856 0.002572 -0.000059
v -59.574856 -7.501109 -8.942605
v -59.574844 -8.939974 -7.503731
v -59.574856 0.002572 -0.000059
v -59.574844 5.839379 -10.109750
v -59.574856 3.995209 -10.969702
v -59.574856 0.002572 -0.000059
v -59.574856 -5.834265 -10.109750
v -59.574856 -7.501109 -8.942605
v -59.574856 0.002572 -0.000059
v -59.574856 3.995209 -10.969702
v -59.574856 2.029674 -11.496349
v -59.574856 0.002572 -0.000059
v -59.574856 -3.990044 -10.969699
v -59.574856 -5.834265 -10.109750
v -59.574856 0.002572 -0.000059
v -59.574856 2.029674 -11.496349
v -59.574856 0.002557 -11.673718
v -59.574856 0.002572 -0.000059
v -59.574856 -2.024546 -11.496363
v -59.574856 -3.990044 -10.969699
v -59.574856 0.002572 -0.000059
v -59.574856 0.002557 -11.673718
v -59.574856 -2.024546 -11.496363
v 64.350082 -1.497325 1.505364
v 64.350082 -1.958820 0.814677
v 64.350082 0.008090 -0.000052
v 64.350082 -1.958820 0.814677
v 64.350082 -2.120877 -0.000059
v 64.350082 0.008090 -0.000052
v 64.350082 -0.806626 1.966852
v 64.350082 -1.497325 1.505364
v 64.350082 0.008090 -0.000052
v 64.350082 -2.120877 -0.000059
v 64.350082 -1.958820 -0.814770
v 64.350082 0.008090 -0.000052
v 64.350082 0.008085 2.128928
v 64.350082 -0.806626 1.966852
v 64.350082 0.008090 -0.000052
v 64.350082 -1.958820 -0.814770
v 64.350082 -1.497325 -1.505457
v 64.350082 0.008090 -0.000052
v 64.350082 0.822803 1.966851
v 64.350082 0.008085 2.128928
v 64.350082 0.008090 -0.000052
v 64.350082 -1.497325 -1.505457
v 64.350082 -0.806638 -1.966964
v 64.350082 0.008090 -0.000052
v 64.350082 1.513502 1.505363
v 64.350082 0.822803 1.966851
v 64.350082 0.008090 -0.000052
v 64.350082 -0.806638 -1.966964
v 64.350082 0.008085 -2.129028
v 64.350082 0.008090 -0.000052
v 64.350082 1.975003 0.814677
v 64.350082 1.513502 1.505363
v 64.350082 0.008090 -0.000052
v 64.350082 0.008085 -2.129028
v 64.350082 0.822803 -1.966965
v 64.350082 0.008090 -0.000052
v 64.350082 2.137060 -0.000060
v 64.350082 1.975003 0.814677
v 64.350082 0.008090 -0.000052
v 64.350082 0.822803 -1.966965
v 64.350082 1.513502 -1.505458
v 64.350082 0.008090 -0.000052
v 64.350082 1.975003 -0.814771
v 64.350082 2.137060 -0.000060
v 64.350082 0.008090 -0.000052
v 64.350082 1.513502 -1.505458
v 64.350082 1.975003 -0.814771
v 64.350082 0.008090 -0.000052
v 75.499336 -19.737831 2.131653
v 75.499336 -20.391329 1.153596
v 75.499329 -17.606129 -0.000054
v 75.499336 -20.391329 1.153596
v 75.499329 -20.620804 -0.000056
v 75.499329 -17.606129 -0.000054
v 75.499336 -18.759798 2.785133
v 75.499336 -19.737831 2.131653
v 75.499329 -17.606129 -0.000054
v 75.499329 -20.620804 -0.000056
v 75.499321 -20.391329 -1.153721
v 75.499329 -17.606129 -0.000054
v 75.499336 -17.606134 3.014613
v 75.499336 -18.759798 2.785133
v 75.499329 -17.606129 -0.000054
v 75.499321 -20.391329 -1.153721
v 75.499336 -19.737837 -2.131729
v 75.499329 -17.606129 -0.000054
v 75.499336 -16.452456 2.785133
v 75.499336 -17.606134 3.014613
v 75.499329 -17.606129 -0.000054
v 75.499336 -19.737837 -2.131729
v 75.499336 -18.759798 -2.785246
v 75.499329 -17.606129 -0.000054
v 75.499336 -15.474430 2.131653
v 75.499336 -16.452456 2.785133
v 75.499329 -17.606129 -0.000054
v 75.499336 -18.759798 -2.785246
v 75.499336 -17.606134 -3.014733
v 75.499329 -17.606129 -0.000054
v 75.499336 -14.820937 1.153589
v 75.499336 -15.474430 2.131653
v 75.499329 -17.606129 -0.000054
v 75.499336 -17.606134 -3.014733
v 75.499321 -16.452463 -2.785247
v 75.499329 -17.606129 -0.000054
v 75.499336 -14.591452 -0.000057
v 75.499336 -14.820937 1.153589
v 75.499329 -17.606129 -0.000054
v 75.499321 -16.452463 -2.785247
v 75.499321 -15.474430 -2.131729
v 75.499329 -17.606129 -0.000054
v 75.499321 -14.820937 -1.153734
v 75.499336 -14.591452 -0.000057
v 75.499329 -17.606129 -0.000054
v 75.499321 -15.474430 -2.131729
v 75.499321 -14.820937 -1.153734
v 75.499329 -17.606129 -0.000054
v 59.574856 0.002578 -0.000059
v 59.574856 2.029681 11.496250
v 59.574844 0.002578 11.673599
v 59.574856 0.002578 -0.000059
v 59.574871 3.995216 10.969579
v 59.574856 2.029681 11.496250
v 59.574856 0.002578 -0.000059
v 59.574844 0.002578 11.673599
v 59.574844 -2.024532 11.496250
v 59.574856 0.002578 -0.000059
v 59.574856 5.839400 10.109631
v 59.574871 3.995216 10.969579
v 59.574856 0.002578 -0.000059
v 59.574844 -2.024532 11.496250
v 59.574856 -3.990059 10.969583
v 59.574856 0.002578 -0.000059
v 59.574856 7.506258 8.942486
v 59.574856 5.839400 10.109631
v 59.574856 0.002578 -0.000059
v 59.574856 -3.990059 10.969583
v 59.574856 -5.834251 10.109630
v 59.574856 0.002578 -0.000059
v 59.574871 8.945130 7.503634
v 59.574856 7.506258 8.942486
v 59.574856 0.002578 -0.000059
v 59.574856 -5.834251 10.109630
v 59.574856 -7.501102 8.942484
v 59.574856 0.002578 -0.000059
v 59.574871 10.112268 5.836782
v 59.574871 8.945130 7.503634
v 59.574856 0.002578 -0.000059
v 59.574856 -7.501102 8.942484
v 59.574856 -8.939960 7.503622
v 59.574856 0.002578 -0.000059
v 59.574871 10.972219 3.992583
v 59.574871 10.112268 5.836782
v 59.574856 0.002578 -0.000059
v 59.574856 -8.939960 7.503622
v 59.574844 -10.107119 5.836764
v 59.574856 0.002578 -0.000059
v 59.574856 11.498897 2.027056
v 59.574871 10.972219 3.992583
v 59.574856 0.002578 -0.000059
v 59.574844 -10.107119 5.836764
v 59.574856 -10.967054 3.992558
v 59.574856 0.002578 -0.000059
v 59.574844 11.676237 -0.000047
v 59.574856 11.498897 2.027056
v 59.574856 0.002578 -0.000059
v 59.574856 -10.967054 3.992558
v 59.574856 -11.493733 2.027045
v 59.574856 0.002578 -0.000059
v 59.574856 11.498897 -2.027157
v 59.574844 11.676237 -0.000047
v 59.574856 0.002578 -0.000059
v 59.574856 -11.493733 2.027045
v 59.574856 -11.671081 -0.000058
v 59.574856 0.002578 -0.000059
v 59.574856 10.972232 -3.992670
v 59.574856 11.498897 -2.027157
v 59.574856 0.002578 -0.000059
v 59.574856 -11.671081 -0.000058
v 59.574844 -11.493733 -2.027161
v 59.574856 0.002578 -0.000059
v 59.574856 10.112253 -5.836877
v 59.574856 10.972232 -3.992670
v 59.574856 0.002578 -0.000059
v 59.574844 -11.493733 -2.027161
v 59.574844 -10.967063 -3.992674
v 59.574856 0.002578 -0.000059
v 59.574844 8.945129 -7.503720
v 59.574856 10.112253 -5.836877
v 59.574856 0.002578 -0.000059
v 59.574844 -10.967063 -3.992674
v 59.574844 -10.107112 -5.836880
v 59.574856 0.002578 -0.000059
v 59.574844 7.506244 -8.942604
v 59.574844 8.945129 -7.503720
v 59.574856 0.002578 -0.000059
v 59.574844 -10.107112 -5.836880
v 59.574844 -8.939967 -7.503732
v 59.574856 0.002578 -0.000059
v 59.574844 5.839386 -10.109749
v 59.574844 7.506244 -8.942604
v 59.574856 0.002578 -0.000059
v 59.574844 -8.939967 -7.503732
v 59.574856 -7.501102 -8.942606
v 59.574856 0.002578 -0.000059
v 59.574856 3.995215 -10.969702
v 59.574844 5.839386 -10.109749
v 59.574856 0.002578 -0.000059
v 59.574856 -7.501102 -8.942606
v 59.574856 -5.834259 -10.109751
v 59.574856 0.002578 -0.000059
v 59.574856 2.029681 -11.496349
v 59.574856 3.995215 -10.969702
v 59.574856 0.002578 -0.000059
v 59.574856 -5.834259 -10.109751
v 59.574856 -3.990038 -10.969699
v 59.574856 0.002578 -0.000059
v 59.574856 0.002564 -11.673718
v 59.574856 2.029681 -11.496349
v 59.574856 0.002578 -0.000059
v 59.574856 -3.990038 -10.969699
v 59.574856 -2.024539 -11.496363
v 59.574856 0.002578 -0.000059
v 59.574856 -2.024539 -11.496363
v 59.574856 0.002564 -11.673718
v -56.917267 29.449524 10.717745
v -59.539696 26.957632 15.245335
v -56.917267 27.141018 15.668327
v -56.917267 27.141018 15.668327
v -59.539684 24.027483 19.599020
v -56.917267 24.007969 20.142839
v 59.539696 18.017189 -9.891361
v 56.917267 17.940718 -0.000043
v 56.917267 17.558956 -10.136234
v -56.917267 17.408831 16.600592
v -59.539684 16.418966 25.514044
v -59.539696 17.812479 16.572554
v -59.539696 17.812479 16.572554
v -56.917267 17.807978 10.279912
v -56.917267 17.408831 16.600592
v 56.917267 17.940718 -0.000043
v 59.539711 18.247236 10.038577
v 56.917267 17.807981 10.279913
v 56.917267 17.807981 10.279913
v 59.539696 17.812483 16.572556
v 56.917267 17.408836 16.600594
v 59.539684 16.418970 25.514044
v 56.917267 17.408836 16.600594
v 59.539696 17.812483 16.572556
v -56.917267 31.339359 -0.000067
v -59.539711 30.438824 -5.294610
v -59.539711 30.884066 0.000033
v 59.539684 16.418970 25.514044
v 56.917267 16.417494 26.615675
v 56.917267 15.866809 26.248358
v 59.539696 16.966995 -25.869024
v 56.917267 20.145481 -24.005421
v 59.539711 20.415134 -23.357117
v 56.917267 24.007973 20.142841
v 59.539684 20.415138 23.357220
v 59.539684 24.027487 19.599022
v 56.917267 27.141024 15.668330
v 59.539684 24.027487 19.599022
v 59.539696 26.957638 15.245338
v 56.917267 29.449530 10.717747
v 59.539696 26.957638 15.245338
v 59.539696 29.116604 10.428442
v 59.539696 29.116596 -10.428369
v 56.917267 30.863295 -5.441626
v 59.539711 30.438831 -5.294608
v 59.539711 30.438831 -5.294608
v 56.917267 31.339365 -0.000064
v 59.539711 30.884071 0.000036
v 59.539696 24.027485 -19.598944
v 56.917267 27.141018 -15.668456
v 59.539684 26.957632 -15.245263
v 59.539711 20.415134 -23.357117
v 56.917267 24.007957 -20.142944
v 59.539696 24.027485 -19.598944
v -59.539696 17.812479 16.572554
v -59.539684 16.418966 25.514044
v -59.539696 16.967009 25.869062
v -59.539684 20.415134 23.357218
v -59.539696 17.812479 16.572554
v -59.539696 16.967009 25.869062
v -59.539684 24.027483 19.599020
v -59.539696 17.812479 16.572554
v -59.539684 20.415134 23.357218
v 59.539696 17.812483 16.572556
v 59.539696 26.957638 15.245338
v 59.539684 24.027487 19.599022
v -59.539696 29.116596 10.428440
v -59.539711 18.247231 10.038575
v -59.539696 26.957632 15.245335
v 59.539711 30.438831 5.294679
v 59.539711 18.247236 10.038577
v 59.539696 18.346094 0.000047
v -59.539711 30.884066 0.000033
v -59.539696 18.346087 0.000046
v -59.539711 30.438824 5.294676
v -59.539711 30.438824 -5.294610
v -59.539696 18.346087 0.000046
v -59.539711 30.884066 0.000033
v 59.539711 30.438831 -5.294608
v 59.539696 18.017189 -9.891361
v 59.539696 29.116596 -10.428369
v -59.539684 26.957624 -15.245266
v -59.539696 18.017181 -9.891363
v -59.539696 29.116590 -10.428371
v -59.539711 20.415127 -23.357117
v -59.539696 17.690596 -16.491344
v -59.539696 24.027477 -19.598946
v -59.539711 20.415127 -23.357117
v -59.539696 16.966990 -25.869026
v -59.539696 17.690596 -16.491344
v -59.539696 16.966990 -25.869026
v -59.539696 16.418945 -25.514006
v -59.539696 17.690596 -16.491344
v -59.539696 18.017181 -9.891363
v -59.539711 30.438824 -5.294610
v -59.539696 29.116590 -10.428371
v 59.539684 26.957632 -15.245263
v 59.539696 17.690603 -16.491343
v 59.539696 24.027485 -19.598944
v -56.917267 17.267021 -16.530409
v -59.539696 16.418945 -25.514006
v -56.917267 15.866784 -26.248478
v -56.917267 17.558949 -10.136236
v -59.539696 17.690596 -16.491344
v -56.917267 17.267021 -16.530409
v -56.917267 17.940712 -0.000045
v -59.539696 18.017181 -9.891363
v -56.917267 17.558949 -10.136236
v 56.917267 17.558956 -10.136234
v 59.539696 17.690603 -16.491343
v 59.539696 18.017189 -9.891361
v -59.539684 16.418966 25.514044
v -56.917267 16.417488 26.615675
v -59.539696 16.967009 25.869062
v -56.917267 16.417467 -26.615799
v -59.539696 16.418945 -25.514006
v -59.539696 16.966990 -25.869026
v -56.917267 20.145481 24.005316
v -59.539696 16.967009 25.869062
v -56.917267 16.417488 26.615675
v -56.917267 24.007950 -20.142946
v -59.539711 20.415127 -23.357117
v -59.539696 24.027477 -19.598946
v -56.917267 27.141012 -15.668459
v -59.539696 24.027477 -19.598946
v -59.539684 26.957624 -15.245266
v 59.539684 26.957632 -15.245263
v 56.917267 29.449511 -10.717880
v 59.539696 29.116596 -10.428369
v -56.917267 30.863287 5.441513
v -59.539696 29.116596 10.428440
v -56.917267 29.449524 10.717745
v -56.917267 31.339359 -0.000067
v -59.539711 30.438824 5.294676
v -56.917267 30.863287 5.441513
v 56.917267 31.339365 -0.000064
v 59.539711 30.438831 5.294679
v 59.539711 30.884071 0.000036
v -56.917267 30.863287 -5.441628
v -59.539696 29.116590 -10.428371
v -59.539711 30.438824 -5.294610
v -56.917267 29.449505 -10.717882
v -59.539684 26.957624 -15.245266
v -59.539696 29.116590 -10.428371
v 56.917267 17.267029 -16.530407
v 59.539696 16.418951 -25.514006
v 59.539696 17.690603 -16.491343
v -56.917267 20.145473 -24.005421
v -59.539696 16.966990 -25.869026
v -59.539711 20.415127 -23.357117
v 59.539696 17.812483 16.572556
v 59.539696 16.967014 25.869062
v 59.539684 16.418970 25.514044
v 59.539684 20.415138 23.357220
v 59.539696 16.967014 25.869062
v 59.539696 17.812483 16.572556
v 59.539684 24.027487 19.599022
v 59.539684 20.415138 23.357220
v 59.539696 17.812483 16.572556
v 59.539696 29.116604 10.428442
v 59.539696 26.957638 15.245338
v 59.539711 18.247236 10.038577
v -56.917267 24.007969 20.142839
v -59.539684 20.415134 23.357218
v -56.917267 20.145481 24.005316
v 59.539711 30.884071 0.000036
v 59.539711 30.438831 5.294679
v 59.539696 18.346094 0.000047
v 59.539711 30.438831 -5.294608
v 59.539711 30.884071 0.000036
v 59.539696 18.346094 0.000047
v 59.539684 26.957632 -15.245263
v 59.539696 29.116596 -10.428369
v 59.539696 18.017189 -9.891361
v -59.539696 17.690596 -16.491344
v -59.539684 26.957624 -15.245266
v -59.539696 24.027477 -19.598946
v 59.539711 20.415134 -23.357117
v 59.539696 24.027485 -19.598944
v 59.539696 17.690603 -16.491343
v 59.539711 20.415134 -23.357117
v 59.539696 17.690603 -16.491343
v 59.539696 16.966995 -25.869024
v 59.539696 16.966995 -25.869024
v 59.539696 17.690603 -16.491343
v 59.539696 16.418951 -25.514006
v -59.539696 26.957632 15.245335
v -59.539696 17.812479 16.572554
v -59.539684 24.027483 19.599020
v 56.917267 20.145487 24.005316
v 59.539696 16.967014 25.869062
v 59.539684 20.415138 23.357220
v 56.917267 30.863295 5.441515
v 59.539696 29.116604 10.428442
v 59.539711 30.438831 5.294679
v -59.539711 18.247231 10.038575
v -59.539711 30.438824 5.294676
v -59.539696 18.346087 0.000046
v 59.539696 16.418951 -25.514006
v 56.917267 16.417475 -26.615799
v 59.539696 16.966995 -25.869024
v -59.539711 18.247231 10.038575
v -56.917267 17.940712 -0.000045
v -56.917267 17.807978 10.279912
v -56.917267 29.449524 10.717745
v -59.539696 29.116596 10.428440
v -59.539696 26.957632 15.245335
v -56.917267 27.141018 15.668327
v -59.539696 26.957632 15.245335
v -59.539684 24.027483 19.599020
v 59.539696 18.017189 -9.891361
v 59.539696 18.346094 0.000047
v 56.917267 17.940718 -0.000043
v -56.917267 17.408831 16.600592
v -56.917267 15.866804 26.248358
v -59.539684 16.418966 25.514044
v -59.539696 17.812479 16.572554
v -59.539711 18.247231 10.038575
v -56.917267 17.807978 10.279912
v 56.917267 17.940718 -0.000043
v 59.539696 18.346094 0.000047
v 59.539711 18.247236 10.038577
v 56.917267 17.807981 10.279913
v 59.539711 18.247236 10.038577
v 59.539696 17.812483 16.572556
v 59.539684 16.418970 25.514044
v 56.917267 15.866809 26.248358
v 56.917267 17.408836 16.600594
v -56.917267 31.339359 -0.000067
v -56.917267 30.863287 -5.441628
v -59.539711 30.438824 -5.294610
v 59.539684 16.418970 25.514044
v 59.539696 16.967014 25.869062
v 56.917267 16.417494 26.615675
v 59.539696 16.966995 -25.869024
v 56.917267 16.417475 -26.615799
v 56.917267 20.145481 -24.005421
v 56.917267 24.007973 20.142841
v 56.917267 20.145487 24.005316
v 59.539684 20.415138 23.357220
v 56.917267 27.141024 15.668330
v 56.917267 24.007973 20.142841
v 59.539684 24.027487 19.599022
v 56.917267 29.449530 10.717747
v 56.917267 27.141024 15.668330
v 59.539696 26.957638 15.245338
v 59.539696 29.116596 -10.428369
v 56.917267 29.449511 -10.717880
v 56.917267 30.863295 -5.441626
v 59.539711 30.438831 -5.294608
v 56.917267 30.863295 -5.441626
v 56.917267 31.339365 -0.000064
v 59.539696 24.027485 -19.598944
v 56.917267 24.007957 -20.142944
v 56.917267 27.141018 -15.668456
v 59.539711 20.415134 -23.357117
v 56.917267 20.145481 -24.005421
v 56.917267 24.007957 -20.142944
v 59.539696 17.812483 16.572556
v 59.539711 18.247236 10.038577
v 59.539696 26.957638 15.245338
v 59.539711 30.438831 5.294679
v 59.539696 29.116604 10.428442
v 59.539711 18.247236 10.038577
v 59.539711 30.438831 -5.294608
v 59.539696 18.346094 0.000047
v 59.539696 18.017189 -9.891361
v -59.539696 18.017181 -9.891363
v -59.539696 18.346087 0.000046
v -59.539711 30.438824 -5.294610
v 59.539684 26.957632 -15.245263
v 59.539696 18.017189 -9.891361
v 59.539696 17.690603 -16.491343
v -56.917267 17.267021 -16.530409
v -59.539696 17.690596 -16.491344
v -59.539696 16.418945 -25.514006
v -56.917267 17.558949 -10.136236
v -59.539696 18.017181 -9.891363
v -59.539696 17.690596 -16.491344
v -56.917267 17.940712 -0.000045
v -59.539696 18.346087 0.000046
v -59.539696 18.017181 -9.891363
v 56.917267 17.558956 -10.136234
v 56.917267 17.267029 -16.530407
v 59.539696 17.690603 -16.491343
v -59.539684 16.418966 25.514044
v -56.917267 15.866804 26.248358
v -56.917267 16.417488 26.615675
v -56.917267 16.417467 -26.615799
v -56.917267 15.866784 -26.248478
v -59.539696 16.418945 -25.514006
v -56.917267 20.145481 24.005316
v -59.539684 20.415134 23.357218
v -59.539696 16.967009 25.869062
v -56.917267 24.007950 -20.142946
v -56.917267 20.145473 -24.005421
v -59.539711 20.415127 -23.357117
v -56.917267 27.141012 -15.668459
v -56.917267 24.007950 -20.142946
v -59.539696 24.027477 -19.598946
v 59.539684 26.957632 -15.245263
v 56.917267 27.141018 -15.668456
v 56.917267 29.449511 -10.717880
v -56.917267 30.863287 5.441513
v -59.539711 30.438824 5.294676
v -59.539696 29.116596 10.428440
v -56.917267 31.339359 -0.000067
v -59.539711 30.884066 0.000033
v -59.539711 30.438824 5.294676
v 56.917267 31.339365 -0.000064
v 56.917267 30.863295 5.441515
v 59.539711 30.438831 5.294679
v -56.917267 30.863287 -5.441628
v -56.917267 29.449505 -10.717882
v -59.539696 29.116590 -10.428371
v -56.917267 29.449505 -10.717882
v -56.917267 27.141012 -15.668459
v -59.539684 26.957624 -15.245266
v 56.917267 17.267029 -16.530407
v 56.917267 15.866790 -26.248476
v 59.539696 16.418951 -25.514006
v -56.917267 20.145473 -24.005421
v -56.917267 16.417467 -26.615799
v -59.539696 16.966990 -25.869026
v -56.917267 24.007969 20.142839
v -59.539684 24.027483 19.599020
v -59.539684 20.415134 23.357218
v -59.539696 17.690596 -16.491344
v -59.539696 18.017181 -9.891363
v -59.539684 26.957624 -15.245266
v -59.539696 26.957632 15.245335
v -59.539711 18.247231 10.038575
v -59.539696 17.812479 16.572554
v 56.917267 20.145487 24.005316
v 56.917267 16.417494 26.615675
v 59.539696 16.967014 25.869062
v 56.917267 30.863295 5.441515
v 56.917267 29.449530 10.717747
v 59.539696 29.116604 10.428442
v -59.539711 18.247231 10.038575
v -59.539696 29.116596 10.428440
v -59.539711 30.438824 5.294676
v 59.539696 16.418951 -25.514006
v 56.917267 15.866790 -26.248476
v 56.917267 16.417475 -26.615799
v -59.539711 18.247231 10.038575
v -59.539696 18.346087 0.000046
v -56.917267 17.940712 -0.000045
vt 0.007101 -0.007063
vt -0.000000 0.000038
vt 0.003843 -0.009240
vt 0.003843 -0.009240
vt -0.000000 0.000038
vt -0.000000 -0.010004
vt 0.009278 -0.003805
vt -0.000000 0.000038
vt 0.007101 -0.007063
vt -0.000000 -0.010004
vt -0.000000 0.000038
vt -0.003843 -0.009240
vt 0.010042 0.000038
vt -0.000000 0.000038
vt 0.009278 -0.003805
vt -0.003843 -0.009240
vt -0.000000 0.000038
vt -0.007101 -0.007063
vt 0.009278 0.003881
vt -0.000000 0.000038
vt 0.010042 0.000038
vt -0.007101 -0.007063
vt -0.000000 0.000038
vt -0.009278 -0.003805
vt 0.007101 0.007139
vt -0.000000 0.000038
vt 0.009278 0.003881
vt -0.009278 -0.003805
vt -0.000000 0.000038
vt -0.010043 0.000038
vt 0.003843 0.009316
vt -0.000000 0.000038
vt 0.007101 0.007139
vt -0.010043 0.000038
vt -0.000000 0.000038
vt -0.009278 0.003881
vt -0.000000 0.010080
vt -0.000000 0.000038
vt 0.003843 0.009316
vt -0.009278 0.003881
vt -0.000000 0.000038
vt -0.007101 0.007139
vt -0.003843 0.009316
vt -0.000000 0.000038
vt -0.000000 0.010080
vt -0.007101 0.007139
vt -0.000000 0.000038
vt -0.003843 0.009316
vt 0.010055 -0.093103
vt -0.000000 -0.083048
vt 0.005441 -0.096186
vt 0.005441 -0.096186
vt -0.000000 -0.083048
vt -0.000000 -0.097268
vt 0.013137 -0.088490
vt -0.000000 -0.083048
vt 0.010055 -0.093103
vt -0.000000 -0.097268
vt -0.000000 -0.083048
vt -0.005442 -0.096186
vt 0.014220 -0.083048
vt -0.000000 -0.083048
vt 0.013137 -0.088490
vt -0.005442 -0.096186
vt -0.000000 -0.083048
vt -0.010055 -0.093103
vt 0.013137 -0.077606
vt -0.000000 -0.083048
vt 0.014220 -0.083048
vt -0.010055 -0.093103
vt -0.000000 -0.083048
vt -0.013138 -0.088490
vt 0.010055 -0.072993
vt -0.000000 -0.083048
vt 0.013137 -0.077606
vt -0.013138 -0.088490
vt -0.000000 -0.083048
vt -0.014220 -0.083048
vt 0.005441 -0.069910
vt -0.000000 -0.083048
vt 0.010055 -0.072993
vt -0.014220 -0.083048
vt -0.000000 -0.083048
vt -0.013138 -0.077606
vt -0.000000 -0.068828
vt -0.000000 -0.083048
vt 0.005441 -0.069910
vt -0.013138 -0.077606
vt -0.000000 -0.083048
vt -0.010055 -0.072993
vt -0.005442 -0.069910
vt -0.000000 -0.083048
vt -0.000000 -0.068828
vt -0.010055 -0.072993
vt -0.000000 -0.083048
vt -0.005442 -0.069910
vt -0.000000 0.000012
vt 0.055064 0.000012
vt 0.054228 0.009574
vt -0.000000 0.000012
vt 0.054228 0.009574
vt 0.051743 0.018845
vt -0.000000 0.000012
vt 0.054228 -0.009550
vt 0.055064 0.000012
vt -0.000000 0.000012
vt 0.051743 0.018845
vt 0.047687 0.027544
vt -0.000000 0.000012
vt 0.051743 -0.018821
vt 0.054228 -0.009550
vt -0.000000 0.000012
vt 0.047687 0.027544
vt 0.042182 0.035407
vt -0.000000 0.000012
vt 0.047687 -0.027520
vt 0.051743 -0.018821
vt -0.000000 0.000012
vt 0.042182 0.035407
vt 0.035394 0.042194
vt -0.000000 0.000012
vt 0.042182 -0.035383
vt 0.047687 -0.027520
vt -0.000000 0.000012
vt 0.035394 0.042194
vt 0.027532 0.047699
vt -0.000000 0.000012
vt 0.035394 -0.042170
vt 0.042182 -0.035383
vt -0.000000 0.000012
vt 0.027532 0.047699
vt 0.018833 0.051756
vt -0.000000 0.000012
vt 0.027532 -0.047675
vt 0.035394 -0.042170
vt -0.000000 0.000012
vt 0.018833 0.051756
vt 0.009562 0.054240
vt -0.000000 0.000012
vt 0.018833 -0.051731
vt 0.027532 -0.047675
vt -0.000000 0.000012
vt 0.009562 0.054240
vt -0.000000 0.055077
vt -0.000000 0.000012
vt 0.009562 -0.054216
vt 0.018833 -0.051731
vt -0.000000 0.000012
vt -0.000000 0.055077
vt -0.009562 0.054240
vt -0.000000 0.000012
vt -0.000000 -0.055052
vt 0.009562 -0.054216
vt -0.000000 0.000012
vt -0.009562 0.054240
vt -0.018833 0.051756
vt -0.000000 0.000012
vt -0.009562 -0.054216
vt -0.000000 -0.055052
vt -0.000000 0.000012
vt -0.018833 0.051756
vt -0.027532 0.047699
vt -0.000000 0.000012
vt -0.018833 -0.051731
vt -0.009562 -0.054216
vt -0.000000 0.000012
vt -0.027532 0.047699
vt -0.035395 0.042194
vt -0.000000 0.000012
vt -0.027532 -0.047675
vt -0.018833 -0.051731
vt -0.000000 0.000012
vt -0.035395 0.042194
vt -0.042182 0.035407
vt -0.000000 0.000012
vt -0.035395 -0.042170
vt -0.027532 -0.047675
vt -0.000000 0.000012
vt -0.042182 0.035407
vt -0.047688 0.027544
vt -0.000000 0.000012
vt -0.042182 -0.035383
vt -0.035395 -0.042170
vt -0.000000 0.000012
vt -0.047688 0.027544
vt -0.051744 0.018845
vt -0.000000 0.000012
vt -0.047688 -0.027520
vt -0.042182 -0.035383
vt -0.000000 0.000012
vt -0.051744 0.018845
vt -0.054228 0.009574
vt -0.000000 0.000012
vt -0.051744 -0.018821
vt -0.047688 -0.027520
vt -0.000000 0.000012
vt -0.054228 0.009574
vt -0.055065 0.000012
vt -0.000000 0.000012
vt -0.054228 -0.009550
vt -0.051744 -0.018821
vt -0.000000 0.000012
vt -0.055065 0.000012
vt -0.054228 -0.009550
vt -0.007101 -0.007063
vt -0.003843 -0.009240
vt 0.000000 0.000038
vt -0.003843 -0.009240
vt 0.000000 -0.010004
vt 0.000000 0.000038
vt -0.009278 -0.003805
vt -0.007101 -0.007063
vt 0.000000 0.000038
vt 0.000000 -0.010004
vt 0.003843 -0.009240
vt 0.000000 0.000038
vt -0.010042 0.000038
vt -0.009278 -0.003805
vt 0.000000 0.000038
vt 0.003843 -0.009240
vt 0.007101 -0.007063
vt 0.000000 0.000038
vt -0.009278 0.003881
vt -0.010042 0.000038
vt 0.000000 0.000038
vt 0.007101 -0.007063
vt 0.009278 -0.003805
vt 0.000000 0.000038
vt -0.007101 0.007139
vt -0.009278 0.003881
vt 0.000000 0.000038
vt 0.009278 -0.003805
vt 0.010043 0.000038
vt 0.000000 0.000038
vt -0.003843 0.009316
vt -0.007101 0.007139
vt 0.000000 0.000038
vt 0.010043 0.000038
vt 0.009278 0.003881
vt 0.000000 0.000038
vt 0.000000 0.010080
vt -0.003843 0.009316
vt 0.000000 0.000038
vt 0.009278 0.003881
vt 0.007101 0.007139
vt 0.000000 0.000038
vt 0.003843 0.009316
vt 0.000000 0.010080
vt 0.000000 0.000038
vt 0.007101 0.007139
vt 0.003843 0.009316
vt 0.000000 0.000038
vt -0.010055 -0.093103
vt -0.005441 -0.096186
vt 0.000000 -0.083048
vt -0.005441 -0.096186
vt 0.000000 -0.097268
vt 0.000000 -0.083048
vt -0.013137 -0.088490
vt -0.010055 -0.093103
vt 0.000000 -0.083048
vt 0.000000 -0.097268
vt 0.005442 -0.096186
vt 0.000000 -0.083048
vt -0.014220 -0.083048
vt -0.013137 -0.088490
vt 0.000000 -0.083048
vt 0.005442 -0.096186
vt 0.010055 -0.093103
vt 0.000000 -0.083048
vt -0.013137 -0.077606
vt -0.014220 -0.083048
vt 0.000000 -0.083048
vt 0.010055 -0.093103
vt 0.013138 -0.088490
vt 0.000000 -0.083048
vt -0.010055 -0.072993
vt -0.013137 -0.077606
vt 0.000000 -0.083048
vt 0.013138 -0.088490
vt 0.014220 -0.083048
vt 0.000000 -0.083048
vt -0.005441 -0.069910
vt -0.010055 -0.072993
vt 0.000000 -0.083048
vt 0.014220 -0.083048
vt 0.013138 -0.077606
vt 0.000000 -0.083048
vt 0.000000 -0.068828
vt -0.005441 -0.069910
vt 0.000000 -0.083048
vt 0.013138 -0.077606
vt 0.010055 -0.072993
vt 0.000000 -0.083048
vt 0.005442 -0.069910
vt 0.000000 -0.068828
vt 0.000000 -0.083048
vt 0.010055 -0.072993
vt 0.005442 -0.069910
vt 0.000000 -0.083048
vt 0.000000 0.000012
vt -0.054228 0.009574
vt -0.055064 0.000012
vt 0.000000 0.000012
vt -0.051743 0.018845
vt -0.054228 0.009574
vt 0.000000 0.000012
vt -0.055064 0.000012
vt -0.054228 -0.009550
vt 0.000000 0.000012
vt -0.047687 0.027544
vt -0.051743 0.018845
vt 0.000000 0.000012
vt -0.054228 -0.009550
vt -0.051743 -0.018821
vt 0.000000 0.000012
vt -0.042182 0.035407
vt -0.047687 0.027544
vt 0.000000 0.000012
vt -0.051743 -0.018821
vt -0.047687 -0.027520
vt 0.000000 0.000012
vt -0.035394 0.042194
vt -0.042182 0.035407
vt 0.000000 0.000012
vt -0.047687 -0.027520
vt -0.042182 -0.035383
vt 0.000000 0.000012
vt -0.027532 0.047699
vt -0.035394 0.042194
vt 0.000000 0.000012
vt -0.042182 -0.035383
vt -0.035394 -0.042170
vt 0.000000 0.000012
vt -0.018833 0.051756
vt -0.027532 0.047699
vt 0.000000 0.000012
vt -0.035394 -0.042170
vt -0.027532 -0.047675
vt 0.000000 0.000012
vt -0.009562 0.054240
vt -0.018833 0.051756
vt 0.000000 0.000012
vt -0.027532 -0.047675
vt -0.018833 -0.051731
vt 0.000000 0.000012
vt 0.000000 0.055077
vt -0.009562 0.054240
vt 0.000000 0.000012
vt -0.018833 -0.051731
vt -0.009562 -0.054216
vt 0.000000 0.000012
vt 0.009562 0.054240
vt 0.000000 0.055077
vt 0.000000 0.000012
vt -0.009562 -0.054216
vt 0.000000 -0.055052
vt 0.000000 0.000012
vt 0.018833 0.051756
vt 0.009562 0.054240
vt 0.000000 0.000012
vt 0.000000 -0.055052
vt 0.009562 -0.054216
vt 0.000000 0.000012
vt 0.027532 0.047699
vt 0.018833 0.051756
vt 0.000000 0.000012
vt 0.009562 -0.054216
vt 0.018833 -0.051731
vt 0.000000 0.000012
vt 0.035395 0.042194
vt 0.027532 0.047699
vt 0.000000 0.000012
vt 0.018833 -0.051731
vt 0.027532 -0.047675
vt 0.000000 0.000012
vt 0.042182 0.035407
vt 0.035395 0.042194
vt 0.000000 0.000012
vt 0.027532 -0.047675
vt 0.035395 -0.042170
vt 0.000000 0.000012
vt 0.047687 0.027544
vt 0.042182 0.035407
vt 0.000000 0.000012
vt 0.035395 -0.042170
vt 0.042182 -0.035383
vt 0.000000 0.000012
vt 0.051744 0.018845
vt 0.047687 0.027544
vt 0.000000 0.000012
vt 0.042182 -0.035383
vt 0.047688 -0.027520
vt 0.000000 0.000012
vt 0.054228 0.009574
vt 0.051744 0.018845
vt 0.000000 0.000012
vt 0.047688 -0.027520
vt 0.051744 -0.018821
vt 0.000000 0.000012
vt 0.055065 0.000012
vt 0.054228 0.009574
vt 0.000000 0.000012
vt 0.051744 -0.018821
vt 0.054228 -0.009550
vt 0.000000 0.000012
vt 0.054228 -0.009550
vt 0.055065 0.000012
vt -0.268478 -0.050555
vt -0.280848 -0.071912
vt -0.268478 -0.073907
vt -0.268478 -0.073907
vt -0.280848 -0.092448
vt -0.268478 -0.095013
vt 0.280848 -0.046657
vt 0.268478 -0.000000
vt 0.268478 -0.047812
vt -0.268478 0.078305
vt -0.280848 0.120349
vt -0.280848 0.078172
vt -0.280848 0.078172
vt -0.268478 0.048490
vt -0.268478 0.078305
vt 0.268478 -0.000000
vt 0.280848 0.047352
vt 0.268478 0.048490
vt 0.268478 0.048490
vt 0.280848 0.078172
vt 0.268478 0.078305
vt 0.280848 0.120349
vt 0.268478 0.078305
vt 0.280848 0.078172
vt -0.268478 0.000000
vt -0.280848 0.024975
vt -0.280848 -0.000000
vt 0.280848 0.077448
vt 0.268478 0.077441
vt 0.268478 0.074843
vt -0.280848 0.080033
vt -0.268478 0.095026
vt -0.280848 0.096298
vt 0.268478 -0.095013
vt 0.280848 -0.110176
vt 0.280848 -0.092448
vt 0.268478 -0.073907
vt 0.280848 -0.092448
vt 0.280848 -0.071912
vt 0.268478 -0.050555
vt 0.280848 -0.071912
vt 0.280848 -0.049191
vt 0.280848 0.049190
vt 0.268478 0.025668
vt 0.280848 0.024975
vt 0.280848 0.024975
vt 0.268478 0.000000
vt 0.280848 -0.000000
vt 0.280848 0.092448
vt 0.268478 0.073908
vt 0.280848 0.071912
vt 0.280848 0.110175
vt 0.268478 0.095014
vt 0.280848 0.092448
vt 0.078172 0.084021
vt 0.120349 0.077448
vt 0.122024 0.080033
vt 0.110176 0.096298
vt 0.078172 0.084021
vt 0.122024 0.080033
vt 0.092448 0.113337
vt 0.078172 0.084021
vt 0.110176 0.096298
vt -0.078172 0.084021
vt -0.071912 0.127159
vt -0.092448 0.113337
vt 0.049191 0.137342
vt 0.047352 0.086072
vt 0.071912 0.127159
vt -0.024975 0.143579
vt -0.047352 0.086072
vt -0.000000 0.086538
vt 0.000000 0.145680
vt 0.000000 0.086538
vt 0.024975 0.143579
vt -0.024975 0.143579
vt 0.000000 0.086538
vt 0.000000 0.145680
vt 0.024975 0.143579
vt 0.046657 0.084987
vt 0.049190 0.137342
vt -0.071912 0.127159
vt -0.046657 0.084987
vt -0.049190 0.137342
vt -0.110175 0.096298
vt -0.077789 0.083446
vt -0.092448 0.113337
vt -0.110175 0.096298
vt -0.122024 0.080033
vt -0.077789 0.083446
vt -0.122024 0.080033
vt -0.120349 0.077448
vt -0.077789 0.083446
vt -0.046657 0.084987
vt -0.024975 0.143579
vt -0.049190 0.137342
vt 0.071912 0.127159
vt 0.077789 0.083446
vt 0.092448 0.113337
vt -0.268478 -0.077974
vt -0.280848 -0.120349
vt -0.268478 -0.123814
vt -0.268478 -0.047812
vt -0.280848 -0.077789
vt -0.268478 -0.077974
vt -0.268478 -0.000000
vt -0.280848 -0.046657
vt -0.268478 -0.047812
vt 0.268478 -0.047812
vt 0.280848 -0.077789
vt 0.280848 -0.046657
vt -0.280848 0.077448
vt -0.268478 0.077441
vt -0.280848 0.080033
vt 0.268478 0.077441
vt 0.280848 0.077448
vt 0.280848 0.080033
vt -0.268478 0.095026
vt -0.280848 0.080033
vt -0.268478 0.077441
vt -0.268478 0.095014
vt -0.280848 0.110175
vt -0.280848 0.092448
vt -0.268478 0.073908
vt -0.280848 0.092448
vt -0.280848 0.071912
vt 0.280848 0.071912
vt 0.268478 0.050556
vt 0.280848 0.049190
vt -0.268478 -0.025668
vt -0.280848 -0.049191
vt -0.268478 -0.050555
vt -0.268478 0.000000
vt -0.280848 -0.024975
vt -0.268478 -0.025668
vt 0.268478 0.000000
vt 0.280848 -0.024975
vt 0.280848 -0.000000
vt -0.268478 0.025668
vt -0.280848 0.049190
vt -0.280848 0.024975
vt -0.268478 0.050556
vt -0.280848 0.071912
vt -0.280848 0.049190
vt 0.268478 -0.077974
vt 0.280848 -0.120349
vt 0.280848 -0.077789
vt 0.268478 0.095026
vt 0.280848 0.080033
vt 0.280848 0.096298
vt -0.078172 0.084021
vt -0.122024 0.080033
vt -0.120349 0.077448
vt -0.110176 0.096298
vt -0.122024 0.080033
vt -0.078172 0.084021
vt -0.092448 0.113337
vt -0.110176 0.096298
vt -0.078172 0.084021
vt -0.049191 0.137342
vt -0.071912 0.127159
vt -0.047352 0.086072
vt -0.268478 0.113245
vt -0.280848 0.096298
vt -0.268478 0.095026
vt -0.000000 0.145680
vt -0.024975 0.143579
vt -0.000000 0.086538
vt 0.024975 0.143579
vt -0.000000 0.145680
vt -0.000000 0.086538
vt 0.071912 0.127159
vt 0.049190 0.137342
vt 0.046657 0.084987
vt -0.077789 0.083446
vt -0.071912 0.127159
vt -0.092448 0.113337
vt 0.110175 0.096298
vt 0.092448 0.113337
vt 0.077789 0.083446
vt 0.110175 0.096298
vt 0.077789 0.083446
vt 0.122024 0.080033
vt 0.122024 0.080033
vt 0.077789 0.083446
vt 0.120349 0.077448
vt 0.071912 0.127159
vt 0.078172 0.084021
vt 0.092448 0.113337
vt 0.268478 0.095026
vt 0.280848 0.080033
vt 0.280848 0.096298
vt 0.268478 -0.025668
vt 0.280848 -0.049191
vt 0.280848 -0.024975
vt 0.047352 0.086072
vt 0.024975 0.143579
vt 0.000000 0.086538
vt -0.280848 0.077448
vt -0.268478 0.077441
vt -0.280848 0.080033
vt -0.280848 0.047352
vt -0.268478 -0.000000
vt -0.268478 0.048490
vt -0.268478 -0.050555
vt -0.280848 -0.049191
vt -0.280848 -0.071912
vt -0.268478 -0.073907
vt -0.280848 -0.071912
vt -0.280848 -0.092448
vt 0.280848 -0.046657
vt 0.280848 0.000000
vt 0.268478 -0.000000
vt -0.268478 0.078305
vt -0.268478 0.123813
vt -0.280848 0.120349
vt -0.280848 0.078172
vt -0.280848 0.047352
vt -0.268478 0.048490
vt 0.268478 -0.000000
vt 0.280848 0.000000
vt 0.280848 0.047352
vt 0.268478 0.048490
vt 0.280848 0.047352
vt 0.280848 0.078172
vt 0.280848 0.120349
vt 0.268478 0.123813
vt 0.268478 0.078305
vt -0.268478 0.000000
vt -0.268478 0.025668
vt -0.280848 0.024975
vt 0.280848 0.077448
vt 0.280848 0.080033
vt 0.268478 0.077441
vt -0.280848 0.080033
vt -0.268478 0.077441
vt -0.268478 0.095026
vt 0.268478 0.113245
vt 0.268478 0.095026
vt 0.280848 0.096298
vt 0.268478 -0.073907
vt 0.268478 -0.095013
vt 0.280848 -0.092448
vt 0.268478 -0.050555
vt 0.268478 -0.073907
vt 0.280848 -0.071912
vt 0.280848 0.049190
vt 0.268478 0.050556
vt 0.268478 0.025668
vt 0.280848 0.024975
vt 0.268478 0.025668
vt 0.268478 0.000000
vt 0.280848 0.092448
vt 0.268478 0.095014
vt 0.268478 0.073908
vt 0.280848 0.110175
vt 0.268478 0.113233
vt 0.268478 0.095014
vt -0.078172 0.084021
vt -0.047352 0.086072
vt -0.071912 0.127159
vt -0.024975 0.143579
vt -0.049191 0.137342
vt -0.047352 0.086072
vt 0.024975 0.143579
vt -0.000000 0.086538
vt 0.046657 0.084987
vt -0.046657 0.084987
vt 0.000000 0.086538
vt -0.024975 0.143579
vt 0.071912 0.127159
vt 0.046657 0.084987
vt 0.077789 0.083446
vt -0.268478 -0.077974
vt -0.280848 -0.077789
vt -0.280848 -0.120349
vt -0.268478 -0.047812
vt -0.280848 -0.046657
vt -0.280848 -0.077789
vt -0.268478 -0.000000
vt -0.280848 0.000000
vt -0.280848 -0.046657
vt 0.268478 -0.047812
vt 0.268478 -0.077974
vt 0.280848 -0.077789
vt -0.280848 0.077448
vt -0.268478 0.074843
vt -0.268478 0.077441
vt 0.268478 0.077441
vt 0.268478 0.074843
vt 0.280848 0.077448
vt -0.268478 0.095026
vt -0.280848 0.096298
vt -0.280848 0.080033
vt 0.268478 0.113245
vt 0.268478 0.095026
vt 0.280848 0.096298
vt -0.268478 0.073908
vt -0.268478 0.095014
vt -0.280848 0.092448
vt 0.280848 0.071912
vt 0.268478 0.073908
vt 0.268478 0.050556
vt -0.268478 -0.025668
vt -0.280848 -0.024975
vt -0.280848 -0.049191
vt -0.268478 0.000000
vt -0.280848 -0.000000
vt -0.280848 -0.024975
vt 0.268478 0.000000
vt 0.268478 -0.025668
vt 0.280848 -0.024975
vt -0.268478 0.025668
vt -0.268478 0.050556
vt -0.280848 0.049190
vt -0.268478 0.050556
vt -0.268478 0.073908
vt -0.280848 0.071912
vt 0.268478 -0.077974
vt 0.268478 -0.123814
vt 0.280848 -0.120349
vt 0.268478 0.095026
vt 0.268478 0.077441
vt 0.280848 0.080033
vt -0.268478 -0.095013
vt -0.280848 -0.092448
vt -0.280848 -0.110176
vt -0.077789 0.083446
vt -0.046657 0.084987
vt -0.071912 0.127159
vt 0.071912 0.127159
vt 0.047352 0.086072
vt 0.078172 0.084021
vt 0.268478 0.095026
vt 0.268478 0.077441
vt 0.280848 0.080033
vt 0.268478 -0.025668
vt 0.268478 -0.050555
vt 0.280848 -0.049191
vt 0.047352 0.086072
vt 0.049191 0.137342
vt 0.024975 0.143579
vt -0.280848 0.077448
vt -0.268478 0.074843
vt -0.268478 0.077441
vt -0.280848 0.047352
vt -0.280848 0.000000
vt -0.268478 -0.000000
f 1/1 2/2 3/3
f 4/4 5/5 6/6
f 7/7 8/8 9/9
f 10/10 11/11 12/12
f 13/13 14/14 15/15
f 16/16 17/17 18/18
f 19/19 20/20 21/21
f 22/22 23/23 24/24
f 25/25 26/26 27/27
f 28/28 29/29 30/30
f 31/31 32/32 33/33
f 34/34 35/35 36/36
f 37/37 38/38 39/39
f 40/40 41/41 42/42
f 43/43 44/44 45/45
f 46/46 47/47 48/48
f 49/49 50/50 51/51
f 52/52 53/53 54/54
f 55/55 56/56 57/57
f 58/58 59/59 60/60
f 61/61 62/62 63/63
f 64/64 65/65 66/66
f 67/67 68/68 69/69
f 70/70 71/71 72/72
f 73/73 74/74 75/75
f 76/76 77/77 78/78
f 79/79 80/80 81/81
f 82/82 83/83 84/84
f 85/85 86/86 87/87
f 88/88 89/89 90/90
f 91/91 92/92 93/93
f 94/94 95/95 96/96
f 97/97 98/98 99/99
f 100/100 101/101 102/102
f 103/103 104/104 105/105
f 106/106 107/107 108/108
f 109/109 110/110 111/111
f 112/112 113/113 114/114
f 115/115 116/116 117/117
f 118/118 119/119 120/120
f 121/121 122/122 123/123
f 124/124 125/125 126/126
f 127/127 128/128 129/129
f 130/130 131/131 132/132
f 133/133 134/134 135/135
f 136/136 137/137 138/138
f 139/139 140/140 141/141
f 142/142 143/143 144/144
f 145/145 146/146 147/147
f 148/148 149/149 150/150
f 151/151 152/152 153/153
f 154/154 155/155 156/156
f 157/157 158/158 159/159
f 160/160 161/161 162/162
f 163/163 164/164 165/165
f 166/166 167/167 168/168
f 169/169 170/170 171/171
f 172/172 173/173 174/174
f 175/175 176/176 177/177
f 178/178 179/179 180/180
f 181/181 182/182 183/183
f 184/184 185/185 186/186
f 187/187 188/188 189/189
f 190/190 191/191 192/192
f 193/193 194/194 195/195
f 196/196 197/197 198/198
f 199/199 200/200 201/201
f 202/202 203/203 204/204
f 205/205 206/206 207/207
f 208/208 209/209 210/210
f 211/211 212/212 213/213
f 214/214 215/215 216/216
f 217/217 218/218 219/219
f 220/220 221/221 222/222
f 223/223 224/224 225/225
f 226/226 227/227 228/228
f 229/229 230/230 231/231
f 232/232 233/233 234/234
f 235/235 236/236 237/237
f 238/238 239/239 240/240
f 241/241 242/242 243/243
f 244/244 245/245 246/246
f 247/247 248/248 249/249
f 250/250 251/251 252/252
f 253/253 254/254 255/255
f 256/256 257/257 258/258
f 259/259 260/260 261/261
f 262/262 263/263 264/264
f 265/265 266/266 267/267
f 268/268 269/269 270/270
f 271/271 272/272 273/273
f 274/274 275/275 276/276
f 277/277 278/278 279/279
f 280/280 281/281 282/282
f 283/283 284/284 285/285
f 286/286 287/287 288/288
f 289/289 290/290 291/291
f 292/292 293/293 294/294
f 295/295 296/296 297/297
f 298/298 299/299 300/300
f 301/301 302/302 303/303
f 304/304 305/305 306/306
f 307/307 308/308 309/309
f 310/310 311/311 312/312
f 313/313 314/314 315/315
f 316/316 317/317 318/318
f 319/319 320/320 321/321
f 322/322 323/323 324/324
f 325/325 326/326 327/327
f 328/328 329/329 330/330
f 331/331 332/332 333/333
f 334/334 335/335 336/336
f 337/337 338/338 339/339
f 340/340 341/341 342/342
f 343/343 344/344 345/345
f 346/346 347/347 348/348
f 349/349 350/350 351/351
f 352/352 353/353 354/354
f 355/355 356/356 357/357
f 358/358 359/359 360/360
f 361/361 362/362 363/363
f 364/364 365/365 366/366
f 367/367 368/368 369/369
f 370/370 371/371 372/372
f 373/373 374/374 375/375
f 376/376 377/377 378/378
f 379/379 380/380 381/381
f 382/382 383/383 384/384
f 385/385 386/386 387/387
f 388/388 389/389 390/390
f 391/391 392/392 393/393
f 394/394 395/395 396/396
f 397/397 398/398 399/399
f 400/400 401/401 402/402
f 403/403 404/404 405/405
f 406/406 407/407 408/408
f 409/409 410/410 411/411
f 412/412 413/413 414/414
f 415/415 416/416 417/417
f 418/418 419/419 420/420
f 421/421 422/422 423/423
f 424/424 425/425 426/426
f 427/427 428/428 429/429
f 430/430 431/431 432/432
f 433/433 434/434 435/435
f 436/436 437/437 438/438
f 439/439 440/440 441/441
f 442/442 443/443 444/444
f 445/445 446/446 447/447
f 448/448 449/449 450/450
f 451/451 452/452 453/453
f 454/454 455/455 456/456
f 457/457 458/458 459/459
f 460/460 461/461 462/462
f 463/463 464/464 465/465
f 466/466 467/467 468/468
f 469/469 470/470 471/471
f 472/472 473/473 474/474
f 475/475 476/476 477/477
f 478/478 479/479 480/480
f 481/481 482/482 483/483
f 484/484 485/485 486/486
f 487/487 488/488 489/489
f 490/490 491/491 492/492
f 493/493 494/494 495/495
f 496/496 497/497 498/498
f 499/499 500/500 501/501
f 502/502 503/503 504/504
f 505/505 506/506 507/507
f 508/508 509/509 510/510
f 511/511 512/512 513/513
f 514/514 515/515 516/516
f 517/517 518/518 519/519
f 520/520 521/521 522/522
f 523/523 524/524 525/525
f 526/526 527/527 528/528
f 529/529 530/530 531/531
f 532/532 533/533 534/534
f 535/535 536/536 537/537
f 538/538 539/539 540/540
f 541/541 542/542 543/543
f 544/544 545/545 546/546
f 547/547 548/548 549/549
f 550/550 551/551 552/552
f 553/553 554/554 555/555
f 556/556 557/557 558/558
f 559/559 560/560 561/561
f 562/562 563/563 564/564
f 565/565 566/566 567/567
f 568/568 569/569 570/570
f 571/571 572/572 573/573
f 574/574 575/575 576/576
f 577/577 578/578 579/579
f 580/580 581/581 582/582
f 583/583 584/584 585/585
f 586/586 587/587 588/588
f 589/589 590/590 591/591
f 592/592 593/593 594/594
f 595/595 596/596 597/597
f 598/598 599/599 600/600
f 601/601 602/602 603/603
f 604/604 605/605 606/606
f 607/607 608/608 609/609
f 610/610 611/611 612/612
f 613/613 614/614 615/615
f 616/616 617/617 618/618
f 619/619 620/620 621/621
f 622/622 623/623 624/624
f 625/625 626/626 627/627
f 628/628 629/629 630/630
f 631/631 632/632 633/633
f 634/634 635/635 636/636
f 637/637 638/638 639/639
f 640/640 641/641 642/642
f 643/643 644/644 645/645
f 646/646 647/647 648/648
f 649/649 650/650 651/651
f 652/652 653/653 654/654
f 655/655 656/656 657/657
f 658/658 659/659 660/660
f 661/661 662/662 663/663
f 664/664 665/665 666/666
f 667/667 668/668 669/669
f 670/670 671/671 672/672
f 673/673 674/674 675/675
f 676/676 677/677 678/678
f 679/679 680/680 681/681
f 682/682 683/683 684/684
f 685/685 686/686 687/687
f 688/688 689/689 690/690
f 691/691 692/692 693/693
f 694/694 695/695 696/696
f 697/697 698/698 699/699
f 700/700 701/701 702/702
f 703/703 704/704 705/705
f 706/706 707/707 708/708
f 709/709 710/710 711/711
f 712/712 713/713 714/714
f 715/715 716/716 717/717
f 718/718 719/719 720/720
f 721/721 722/722 723/723
f 724/724 725/725 726/726
f 727/727 728/728 729/729
f 730/730 731/731 732/732
f 733/733 734/734 735/735
f 736/736 737/737 738/738
f 739/739 740/740 741/741
f 742/742 743/743 744/744
f 745/745 746/746 747/747
f 748/748 749/749 750/750
f 751/751 752/752 753/753
f 754/754 755/755 756/756
